<svg width="65" height="65" viewBox="0 0 65 65" fill="none" xmlns="http://www.w3.org/2000/svg">
<rect width="65" height="65" fill="#C1C2CC"/>
<g clip-path="url(#clip0_0_1)">
<rect width="1920" height="4332" transform="translate(-1070 -1707)" fill="white"/>
<rect x="-1070" y="-394" width="1920" height="723" fill="#26283B"/>
<rect x="-95" y="-30" width="255" height="239" rx="12" fill="url(#paint0_linear_0_1)" fill-opacity="0.07"/>
<rect width="65" height="65" rx="12" fill="#50AABD"/>
<path fill-rule="evenodd" clip-rule="evenodd" d="M26.0514 19.2464C22.0131 20.1833 19.0103 23.7986 19.0103 28.1248C19.0103 28.7289 18.5206 29.2186 17.9165 29.2186C17.3124 29.2186 16.8228 28.7289 16.8228 28.1248C16.8228 21.877 21.877 16.8228 28.1248 16.8228C28.5189 16.8228 28.8825 17.0347 29.0766 17.3776C29.2708 17.7205 29.2655 18.1413 29.0627 18.4792L27.5315 21.0313C27.2207 21.5493 26.5489 21.7173 26.0309 21.4065C25.5129 21.0957 25.3449 20.4238 25.6557 19.9059L26.0514 19.2464ZM47.0832 35.7811C47.6872 35.7811 48.1769 36.2708 48.1769 36.8748C48.1769 43.1226 43.1226 48.1769 36.8748 48.1769C36.4808 48.1769 36.1172 47.965 35.9231 47.6221C35.7289 47.2792 35.7342 46.8583 35.937 46.5204L37.4682 43.9684C37.779 43.4504 38.4508 43.2824 38.9688 43.5932C39.4868 43.904 39.6547 44.5758 39.344 45.0938L38.9483 45.7533C42.9866 44.8164 45.9894 41.2011 45.9894 36.8748C45.9894 36.2708 46.4791 35.7811 47.0832 35.7811Z" fill="white"/>
<path d="M38.9164 26.9728L33.4331 24.0124C32.8498 23.7062 32.1644 23.7062 31.581 24.0124L26.0977 26.9728C25.7039 27.1916 25.4561 27.6145 25.4561 28.0957C25.4561 28.577 25.7039 28.9999 26.0977 29.2187L31.581 32.1791C31.8727 32.3395 32.1935 32.4124 32.5144 32.4124C32.8352 32.4124 33.156 32.3395 33.4477 32.1791L38.931 29.2187C39.3248 28.9999 39.5727 28.577 39.5727 28.0957C39.5581 27.6145 39.3102 27.1916 38.9164 26.9728Z" fill="white"/>
<path opacity="0.9" d="M30.6624 33.1851L25.5583 30.633C25.1645 30.4435 24.7124 30.458 24.3333 30.6914C23.9541 30.9247 23.7354 31.3185 23.7354 31.756V36.583C23.7354 37.4143 24.202 38.1726 24.9458 38.5372L30.05 41.0893C30.225 41.1768 30.4145 41.2205 30.6187 41.2205C30.852 41.2205 31.0708 41.1622 31.275 41.031C31.6541 40.7976 31.8729 40.4039 31.8729 39.9664V35.1393C31.8729 34.308 31.4208 33.5643 30.6624 33.1851Z" fill="white"/>
<path opacity="0.4" d="M40.6519 30.6914C40.2727 30.458 39.8206 30.4435 39.4269 30.633L34.3227 33.1851C33.579 33.5643 33.1123 34.308 33.1123 35.1393V39.9664C33.1123 40.4039 33.331 40.7976 33.7102 41.031C33.9143 41.1622 34.1331 41.2205 34.3664 41.2205C34.556 41.2205 34.7456 41.1768 34.9352 41.0893L40.0394 38.5372C40.7831 38.158 41.2498 37.4143 41.2498 36.583V31.756C41.2498 31.3185 41.031 30.9247 40.6519 30.6914Z" fill="white"/>
</g>
<defs>
<linearGradient id="paint0_linear_0_1" x1="32.5" y1="-30" x2="32.5" y2="209" gradientUnits="userSpaceOnUse">
<stop stop-color="#F1F2F5"/>
<stop offset="1" stop-color="#F1F2F5" stop-opacity="0"/>
</linearGradient>
<clipPath id="clip0_0_1">
<rect width="1920" height="4332" fill="white" transform="translate(-1070 -1707)"/>
</clipPath>
</defs>
</svg>
