<svg width="65" height="65" viewBox="0 0 65 65" fill="none" xmlns="http://www.w3.org/2000/svg">
<rect width="65" height="65" fill="#C1C2CC"/>
<g clip-path="url(#clip0_0_1)">
<rect width="1920" height="4332" transform="translate(-500 -1707)" fill="white"/>
<rect x="-500" y="-394" width="1920" height="723" fill="#26283B"/>
<rect x="-95" y="-30" width="255" height="239" rx="12" fill="url(#paint0_linear_0_1)" fill-opacity="0.07"/>
<rect width="65" height="65" rx="12" fill="#383B59"/>
<path d="M28.1248 17.9165C24.304 17.9165 21.1978 21.0228 21.1978 24.8436C21.1978 28.5915 24.129 31.6248 27.9498 31.7561C28.0665 31.7415 28.1832 31.7415 28.2707 31.7561C28.2998 31.7561 28.3144 31.7561 28.3436 31.7561C28.3582 31.7561 28.3582 31.7561 28.3728 31.7561C32.1061 31.6248 35.0373 28.5915 35.0519 24.8436C35.0519 21.0228 31.9457 17.9165 28.1248 17.9165Z" fill="white"/>
<path opacity="0.8" d="M35.5334 35.6354C31.4646 32.9229 24.8292 32.9229 20.7313 35.6354C18.8792 36.875 17.8584 38.5521 17.8584 40.3459C17.8584 42.1396 18.8792 43.8021 20.7167 45.0271C22.7584 46.3979 25.4417 47.0834 28.1251 47.0834C30.8084 47.0834 33.4917 46.3979 35.5334 45.0271C37.3709 43.7875 38.3917 42.125 38.3917 40.3167C38.3771 38.523 37.3709 36.8604 35.5334 35.6354Z" fill="white"/>
<path opacity="0.5" d="M44.1521 25.7044C44.3855 28.5336 42.373 31.0127 39.5876 31.3481C39.573 31.3481 39.573 31.3481 39.5584 31.3481H39.5146C39.4271 31.3481 39.3396 31.3481 39.2667 31.3773C37.8521 31.4502 36.5542 30.9981 35.5771 30.1669C37.0792 28.8252 37.9396 26.8127 37.7646 24.6252C37.6626 23.444 37.2542 22.3648 36.6417 21.4461C37.1959 21.169 37.8376 20.994 38.4938 20.9356C41.3521 20.6877 43.9042 22.8169 44.1521 25.7044Z" fill="#DFE0EC"/>
<path d="M47.0685 39.1937C46.9519 40.6083 46.0477 41.8333 44.531 42.6645C43.0727 43.4666 41.2352 43.8458 39.4123 43.802C40.4623 42.8541 41.0748 41.6728 41.1914 40.4187C41.3373 38.6103 40.4769 36.8749 38.756 35.4895C37.7789 34.7166 36.6414 34.1041 35.4019 33.652C38.6248 32.7187 42.6789 33.3458 45.1727 35.3583C46.5144 36.4374 47.1998 37.7937 47.0685 39.1937Z" fill="#DFE0EC"/>
</g>
<defs>
<linearGradient id="paint0_linear_0_1" x1="32.5" y1="-30" x2="32.5" y2="209" gradientUnits="userSpaceOnUse">
<stop stop-color="#F1F2F5"/>
<stop offset="1" stop-color="#F1F2F5" stop-opacity="0"/>
</linearGradient>
<clipPath id="clip0_0_1">
<rect width="1920" height="4332" fill="white" transform="translate(-500 -1707)"/>
</clipPath>
</defs>
</svg>
