<svg width="493" height="423" viewBox="0 0 493 423" fill="none" xmlns="http://www.w3.org/2000/svg">
    <rect opacity="0.3" y="172" width="493" height="251" rx="34" fill="url(#paint0_linear_7126_3005)"/>
    <path opacity="0.2" d="M455.786 376.5H36.586C31.786 376.5 30.586 373.8 33.786 370.6L76.386 328.3C78.386 326.3 82.886 324.7 86.486 324.7H405.886C409.486 324.7 413.986 326.3 415.986 328.3L458.586 370.6C461.786 373.8 460.586 376.5 455.786 376.5Z" fill="#DDDEED"/>
    <path d="M282.943 214.687C286.336 194.031 272.342 174.536 251.687 171.143C231.032 167.75 211.537 181.744 208.144 202.4C204.751 223.055 218.744 242.55 239.4 245.943C260.055 249.336 279.55 235.342 282.943 214.687Z" fill="#8E3AAC"/>
    <path d="M281.359 214.422C284.607 194.638 271.202 175.968 251.419 172.72C231.636 169.473 212.965 182.877 209.718 202.661C206.47 222.444 219.874 241.114 239.658 244.362C259.441 247.61 278.111 234.205 281.359 214.422Z" fill="#AF36DA"/>
    <path d="M256.109 234.164C270.263 228.358 277.031 212.178 271.225 198.024C265.42 183.87 249.239 177.102 235.085 182.908C220.931 188.713 214.163 204.894 219.969 219.048C225.775 233.202 241.955 239.97 256.109 234.164Z" fill="#8E3AAC"/>
    <path d="M252.798 233.222C266.424 229.246 274.247 214.977 270.271 201.352C266.295 187.726 252.026 179.902 238.401 183.878C224.775 187.854 216.951 202.123 220.927 215.749C224.903 229.375 239.172 237.198 252.798 233.222Z" fill="#AF36DA"/>
    <path d="M392.3 328.1H100.1C94.1002 328.1 89.2002 323.2 89.2002 317.2V121.4C89.2002 115.4 94.1002 110.5 100.1 110.5H392.2C398.2 110.5 403.1 115.4 403.1 121.4V317.2C403.2 323.2 398.3 328.1 392.3 328.1Z" fill="#A3A7C5"/>
    <path d="M390.9 323.7H101.5C97.1001 323.7 93.6001 320.2 93.6001 315.8V122.8C93.6001 118.4 97.1001 114.9 101.5 114.9H390.9C395.3 114.9 398.8 118.4 398.8 122.8V315.8C398.8 320.2 395.3 323.7 390.9 323.7Z" fill="#26283B"/>
    <path opacity="0.21" d="M246.2 126.6C248.741 126.6 250.8 124.54 250.8 122C250.8 119.459 248.741 117.4 246.2 117.4C243.66 117.4 241.6 119.459 241.6 122C241.6 124.54 243.66 126.6 246.2 126.6Z" fill="white"/>
    <path d="M246.2 125.1C247.912 125.1 249.3 123.712 249.3 122C249.3 120.288 247.912 118.9 246.2 118.9C244.488 118.9 243.1 120.288 243.1 122C243.1 123.712 244.488 125.1 246.2 125.1Z" fill="#FB7DC1"/>
    <path opacity="0.21" d="M259.1 125.1C260.812 125.1 262.2 123.712 262.2 122C262.2 120.288 260.812 118.9 259.1 118.9C257.388 118.9 256 120.288 256 122C256 123.712 257.388 125.1 259.1 125.1Z" fill="white"/>
    <path d="M259.1 123.4C259.873 123.4 260.5 122.773 260.5 122C260.5 121.227 259.873 120.6 259.1 120.6C258.327 120.6 257.7 121.227 257.7 122C257.7 122.773 258.327 123.4 259.1 123.4Z" fill="#FB7DC1"/>
    <path opacity="0.21" d="M236 122C236 123.6 234.7 124.9 233.1 124.9C231.5 124.9 230.2 123.6 230.2 122C230.2 120.4 231.5 119.1 233.1 119.1C234.7 119.1 236 120.4 236 122Z" fill="white"/>
    <path d="M233.1 123.4C233.873 123.4 234.5 122.773 234.5 122C234.5 121.227 233.873 120.6 233.1 120.6C232.327 120.6 231.7 121.227 231.7 122C231.7 122.773 232.327 123.4 233.1 123.4Z" fill="#FB7DC1"/>
    <path d="M247.7 122C247.7 122.8 247.1 123.5 246.2 123.5C245.4 123.5 244.7 122.9 244.7 122C244.7 121.1 245.3 120.5 246.2 120.5C247 120.5 247.7 121.2 247.7 122Z" fill="white"/>
    <g opacity="0.1">
    <path d="M388.7 114.9H323.1L114.3 323.7H179.8L388.7 114.9Z" fill="white"/>
    <path d="M107 114.9L93.6001 128.3V213.4L192.1 114.9H107Z" fill="white"/>
    <path d="M398.8 203V147.2L222.3 323.7H278.1L398.8 203Z" fill="white"/>
    <path d="M398.8 301.3V255.2L330.3 323.7H376.4L398.8 301.3Z" fill="white"/>
    </g>
    <path d="M444.1 370.5H48.3C45.9 370.5 44 368.6 44 366.2V360.8H448.4V366.2C448.4 368.6 446.5 370.5 444.1 370.5Z" fill="#DDDEED"/>
    <path d="M444.1 362.9H48.2999C43.7999 362.9 42.6999 360.4 45.6999 357.3L85.8999 317.4C87.7999 315.5 91.9999 314 95.4999 314H397C400.4 314 404.7 315.5 406.6 317.4L446.8 357.3C449.7 360.4 448.6 362.9 444.1 362.9Z" fill="#A3A7C5"/>
    <path opacity="0.21" d="M428.8 356.3H63.6002C59.4002 356.3 57.8002 354.4 60.0002 352.1L90.3002 320.5C91.8002 318.9 95.6002 317.7 99.0002 317.7H393.4C396.7 317.7 400.6 319 402.1 320.5L432.4 352.1C434.6 354.4 433 356.3 428.8 356.3Z" fill="#A3A7C5"/>
    <path opacity="0.15" d="M245.8 352C295.395 352 335.6 347.881 335.6 342.8C335.6 337.719 295.395 333.6 245.8 333.6C196.205 333.6 156 337.719 156 342.8C156 347.881 196.205 352 245.8 352Z" fill="black"/>
    <g opacity="0.4">
    <mask id="path-24-inside-1_7126_3005" fill="white">
    <path d="M213.236 324.9V343.242C213.236 344.476 212.254 345.463 211.027 345.463H147.782C146.554 345.463 145.573 344.476 145.573 343.242V329.753C145.573 328.519 144.591 327.532 143.364 327.532H107.936C107.364 327.532 106.791 327.779 106.382 328.19L94.3545 340.281C93.9454 340.692 93.3727 340.939 92.8 340.939H32.5"/>
    </mask>
    <path d="M106.382 328.19L105.673 327.485L106.382 328.19ZM94.3545 340.281L95.0635 340.986V340.986L94.3545 340.281ZM212.236 324.9V343.242H214.236V324.9H212.236ZM212.236 343.242C212.236 343.928 211.697 344.463 211.027 344.463V346.463C212.812 346.463 214.236 345.023 214.236 343.242H212.236ZM211.027 344.463H147.782V346.463H211.027V344.463ZM147.782 344.463C147.112 344.463 146.573 343.928 146.573 343.242H144.573C144.573 345.023 145.997 346.463 147.782 346.463V344.463ZM146.573 343.242V329.753H144.573V343.242H146.573ZM146.573 329.753C146.573 327.972 145.148 326.532 143.364 326.532V328.532C144.034 328.532 144.573 329.066 144.573 329.753H146.573ZM143.364 326.532H107.936V328.532H143.364V326.532ZM107.936 326.532C107.086 326.532 106.261 326.893 105.673 327.485L107.091 328.895C107.32 328.664 107.641 328.532 107.936 328.532V326.532ZM105.673 327.485L93.6455 339.576L95.0635 340.986L107.091 328.895L105.673 327.485ZM93.6455 339.576C93.4158 339.807 93.0949 339.939 92.8 339.939V341.939C93.6504 341.939 94.475 341.578 95.0635 340.986L93.6455 339.576ZM92.8 339.939H32.5V341.939H92.8V339.939Z" fill="url(#paint1_linear_7126_3005)" mask="url(#path-24-inside-1_7126_3005)"/>
    <mask id="path-26-inside-2_7126_3005" fill="white">
    <path d="M198.673 324.9V345.792C198.673 349.74 195.482 352.948 191.555 352.948H126.346C122.418 352.948 119.227 356.156 119.227 360.104V373.182C119.227 377.13 116.037 380.337 112.109 380.337H44.7729"/>
    </mask>
    <path d="M197.673 324.9V345.792H199.673V324.9H197.673ZM197.673 345.792C197.673 349.193 194.925 351.948 191.555 351.948V353.948C196.039 353.948 199.673 350.287 199.673 345.792H197.673ZM191.555 351.948H126.346V353.948H191.555V351.948ZM126.346 351.948C121.861 351.948 118.227 355.608 118.227 360.104H120.227C120.227 356.703 122.976 353.948 126.346 353.948V351.948ZM118.227 360.104V373.182H120.227V360.104H118.227ZM118.227 373.182C118.227 376.582 115.479 379.337 112.109 379.337V381.337C116.594 381.337 120.227 377.677 120.227 373.182H118.227ZM112.109 379.337H44.7729V381.337H112.109V379.337Z" fill="url(#paint2_linear_7126_3005)" mask="url(#path-26-inside-2_7126_3005)"/>
    <mask id="path-28-inside-3_7126_3005" fill="white">
    <path d="M227.881 324.9V365.285C227.881 368.082 230.09 370.303 232.872 370.303H351.836C354.618 370.303 356.827 372.524 356.827 375.32C356.827 378.117 359.036 380.337 361.818 380.337H428.581C429.89 380.337 431.199 380.831 432.099 381.818L456.154 406"/>
    </mask>
    <path d="M432.099 381.818L431.36 382.492L431.375 382.508L431.39 382.523L432.099 381.818ZM226.881 324.9V365.285H228.881V324.9H226.881ZM226.881 365.285C226.881 368.629 229.533 371.303 232.872 371.303V369.303C230.648 369.303 228.881 367.535 228.881 365.285H226.881ZM232.872 371.303H351.836V369.303H232.872V371.303ZM351.836 371.303C354.06 371.303 355.827 373.071 355.827 375.32H357.827C357.827 371.976 355.175 369.303 351.836 369.303V371.303ZM355.827 375.32C355.827 378.664 358.479 381.337 361.818 381.337V379.337C359.593 379.337 357.827 377.569 357.827 375.32H355.827ZM361.818 381.337H428.581V379.337H361.818V381.337ZM428.581 381.337C429.65 381.337 430.676 381.741 431.36 382.492L432.838 381.144C431.723 379.921 430.13 379.337 428.581 379.337V381.337ZM431.39 382.523L455.445 406.705L456.863 405.295L432.808 381.113L431.39 382.523Z" fill="url(#paint3_linear_7126_3005)" mask="url(#path-28-inside-3_7126_3005)"/>
    <mask id="path-30-inside-4_7126_3005" fill="white">
    <path d="M242.527 324.9V341.679C242.527 344.723 244.982 347.19 248.009 347.19H339.809C341.282 347.19 342.673 346.614 343.655 345.545L357.482 331.645C358.545 330.575 359.936 330 361.327 330H391.436C392.909 330 394.3 330.575 395.282 331.645L409.518 345.956C410.582 347.026 411.973 347.601 413.364 347.601H460"/>
    </mask>
    <path d="M343.655 345.545L342.946 344.84L342.931 344.854L342.918 344.869L343.655 345.545ZM357.482 331.645L358.191 332.35V332.35L357.482 331.645ZM395.282 331.645L394.545 332.321L394.559 332.336L394.573 332.35L395.282 331.645ZM241.527 324.9V341.679H243.527V324.9H241.527ZM241.527 341.679C241.527 345.27 244.425 348.19 248.009 348.19V346.19C245.539 346.19 243.527 344.175 243.527 341.679H241.527ZM248.009 348.19H339.809V346.19H248.009V348.19ZM339.809 348.19C341.543 348.19 343.207 347.511 344.391 346.221L342.918 344.869C342.138 345.718 341.021 346.19 339.809 346.19V348.19ZM344.363 346.25L358.191 332.35L356.773 330.939L342.946 344.84L344.363 346.25ZM358.191 332.35C359.074 331.462 360.213 331 361.327 331V329C359.66 329 358.017 329.689 356.773 330.939L358.191 332.35ZM361.327 331H391.436V329H361.327V331ZM391.436 331C392.648 331 393.765 331.471 394.545 332.321L396.018 330.968C394.835 329.679 393.17 329 391.436 329V331ZM394.573 332.35L408.809 346.662L410.227 345.251L395.991 330.939L394.573 332.35ZM408.809 346.662C410.053 347.912 411.696 348.601 413.364 348.601V346.601C412.249 346.601 411.11 346.139 410.227 345.251L408.809 346.662ZM413.364 348.601H460V346.601H413.364V348.601Z" fill="url(#paint4_linear_7126_3005)" mask="url(#path-30-inside-4_7126_3005)"/>
    </g>
    <g opacity="0.9">
    <path opacity="0.2" d="M234.516 81.2728C238.146 79.3933 239.564 74.9275 237.684 71.2984C235.805 67.6692 231.339 66.2509 227.71 68.1304C224.081 70.01 222.662 74.4757 224.542 78.1049C226.421 81.7341 230.887 83.1524 234.516 81.2728Z" fill="#47BEB7"/>
    <path opacity="0.5" d="M266.479 115.805C269.407 96.2509 255.929 78.0252 236.374 75.097C216.82 72.1688 198.594 85.6469 195.666 105.201C192.738 124.756 206.216 142.981 225.77 145.909C245.325 148.838 263.55 135.359 266.479 115.805Z" fill="#47BEB7"/>
    <path d="M246.589 141.075C263.486 132.512 270.243 111.873 261.681 94.9756C253.118 78.0781 232.479 71.3212 215.581 79.8836C198.684 88.446 191.927 109.085 200.489 125.983C209.052 142.88 229.691 149.637 246.589 141.075Z" fill="#7CE6DF"/>
    <path opacity="0.5" d="M256.355 117.297C260.112 103.324 251.829 88.9508 237.856 85.1944C223.882 81.4381 209.509 89.7207 205.753 103.694C201.996 117.668 210.279 132.041 224.253 135.797C238.226 139.554 252.599 131.271 256.355 117.297Z" fill="#47BEB7"/>
    <path d="M233.479 134.683C246.836 133.369 256.597 121.476 255.283 108.12C253.968 94.7636 242.076 85.0019 228.719 86.3163C215.363 87.6307 205.602 99.5236 206.916 112.88C208.23 126.236 220.123 135.997 233.479 134.683Z" fill="#7CE6DF"/>
    <path d="M245.7 113.6H241.2C239.9 117.9 235.9 121 231.1 121C225.3 121 220.6 116.3 220.6 110.5C220.6 104.7 225.3 100 231.1 100C235.6 100 239.4 102.8 240.9 106.8H245.5C244.5 102.8 241.9 99.5 238.4 97.6V91.5H235.4V96.4C234.4 96.1 233.4 95.9 232.3 95.8V91.6H229.3V95.9C228.2 96 227.2 96.3 226.2 96.6V91.6H223.2V98C218.9 100.6 216 105.3 216 110.8C216 116.2 218.9 120.9 223.2 123.6V130.5H226.2V125C227.2 125.3 228.2 125.6 229.3 125.7V130.5H232.3V125.8C233.4 125.7 234.4 125.5 235.4 125.2V130.5H238.4V123.9C242.1 121.5 244.8 117.9 245.7 113.6Z" fill="white"/>
    <path opacity="0.3" d="M184.392 38.9154L230.937 69.3898L271.896 32.0562" stroke="#6A6D8B" stroke-width="0.5" stroke-miterlimit="10" stroke-linecap="round"/>
    <path opacity="0.3" d="M191.251 40.0914L230.936 69.39L264.351 33.7222" stroke="#6A6D8B" stroke-width="0.5" stroke-miterlimit="10" stroke-linecap="round"/>
    <path opacity="0.3" d="M198.11 38.8174L230.937 69.3899L257.295 33.624" stroke="#6A6D8B" stroke-width="0.5" stroke-miterlimit="10" stroke-linecap="round"/>
    <path opacity="0.3" d="M206.538 37.7395L230.937 69.3898L248.477 34.5059" stroke="#6A6D8B" stroke-width="0.5" stroke-miterlimit="10" stroke-linecap="round"/>
    <path opacity="0.3" d="M227.409 34.8979L230.937 67.2342" stroke="#6A6D8B" stroke-width="0.5" stroke-miterlimit="10" stroke-linecap="round"/>
    <path opacity="0.3" d="M215.65 36.7599L230.937 69.3901L239.07 35.29" stroke="#6A6D8B" stroke-width="0.5" stroke-miterlimit="10" stroke-linecap="round"/>
    <path opacity="0.2" d="M184.196 39.1114C184.196 39.1114 188.507 38.4255 191.251 40.0913C191.251 40.0913 197.718 32.6442 206.537 37.7396C206.537 37.7396 217.512 28.7246 227.409 34.7999C227.409 34.7999 239.069 26.6669 248.476 34.506C248.476 34.506 257.295 28.1367 264.351 34.016C264.351 34.016 267.388 28.8226 272.19 32.1543L263.665 18.9258L197.62 23.1393C197.62 23.1393 185.764 30.6844 184.196 39.1114Z" fill="url(#paint5_linear_7126_3005)"/>
    <path d="M184.49 35.9759C184.294 36.9558 185.47 37.7397 186.254 37.1517C187.038 36.5638 188.116 36.0739 189.487 35.6819C192.819 34.898 195.367 36.6618 196.935 38.4256C197.522 39.0135 198.502 38.9155 198.796 38.1316C199.678 36.0739 201.736 33.0362 206.047 32.5463C210.359 32.0563 213.201 34.506 214.67 36.2698C215.16 36.9558 216.238 36.8578 216.63 36.0739C218.002 33.4282 221.138 28.8227 227.115 28.1368C233.092 27.4509 236.62 31.9583 238.09 34.604C238.482 35.3879 239.56 35.3879 240.05 34.604C241.617 32.0563 244.949 28.0388 249.848 29.0187C253.67 29.9006 255.434 31.6644 256.218 33.1342C256.61 33.9181 257.687 33.9181 258.177 33.2322C259.745 31.0764 262.587 28.0388 266.114 28.5287C271.504 29.2147 272.092 32.1543 272.092 32.1543C272.092 32.1543 262.685 -3.02361 224.273 0.210013C193.897 3.05168 186.254 26.373 184.49 35.9759Z" fill="#FBE4F0"/>
    <path d="M256.806 33.8202C257.296 34.0162 257.884 33.8202 258.178 33.4282C259.745 31.2725 262.587 28.2348 266.115 28.7248C271.014 29.4107 271.994 31.7624 272.092 32.2524C271.504 30.2926 261.509 -2.72956 224.273 0.406074C253.18 3.34573 256.512 27.353 256.806 33.8202Z" fill="#FB7DC1"/>
    <path d="M224.371 0.40625C190.173 3.34591 184.784 32.4485 184 38.8178C184 39.1118 184.294 39.2098 184.392 39.0138C185.078 37.9359 186.646 36.3681 189.487 35.6822C192.819 34.8983 195.367 36.6621 196.935 38.4258C197.228 38.7198 197.62 38.8178 198.012 38.8178C195.269 6.8735 224.371 0.40625 224.371 0.40625Z" fill="#FB7DC1"/>
    <path d="M215.65 36.76C216.042 36.76 216.434 36.5641 216.63 36.1721C218.002 33.5264 221.138 28.9209 227.115 28.235C233.092 27.5491 236.62 32.0566 238.09 34.7023C238.286 35.0942 238.58 35.1922 238.972 35.2902C237.796 5.40367 224.273 0.40625 224.273 0.40625C212.417 9.22523 214.866 31.2727 215.65 36.76Z" fill="#FB7DC1"/>
    <path d="M124.618 99.7918C124.566 97.6967 122.824 96.0409 120.729 96.0936C118.634 96.1463 116.978 97.8875 117.031 99.9827C117.084 102.078 118.825 103.734 120.92 103.681C123.015 103.628 124.671 101.887 124.618 99.7918Z" fill="#D99D1A"/>
    <path d="M143.745 115.59C142.615 105.523 133.538 98.2782 123.471 99.4085C113.404 100.539 106.159 109.616 107.289 119.683C108.42 129.75 117.497 136.995 127.564 135.865C137.631 134.734 144.876 125.657 143.745 115.59Z" fill="#D99D1A"/>
    <path d="M142.621 115.712C141.561 106.265 133.042 99.4662 123.595 100.527C114.148 101.588 107.349 110.106 108.41 119.553C109.471 129 117.989 135.799 127.436 134.738C136.883 133.677 143.682 125.159 142.621 115.712Z" fill="url(#paint6_linear_7126_3005)"/>
    <path d="M138.828 119.359C139.782 112.01 134.598 105.279 127.25 104.324C119.901 103.37 113.169 108.554 112.215 115.903C111.261 123.251 116.444 129.983 123.793 130.937C131.142 131.892 137.873 126.708 138.828 119.359Z" fill="#D99D1A"/>
    <path d="M134.283 126.476C139.149 121.638 139.173 113.772 134.336 108.905C129.499 104.038 121.632 104.014 116.766 108.852C111.899 113.689 111.875 121.556 116.712 126.422C121.549 131.289 129.416 131.313 134.283 126.476Z" fill="url(#paint7_linear_7126_3005)"/>
    <path d="M131.718 118.849C131.283 117.189 129.969 116.272 128.228 116.401C129.491 115.696 130.047 114.43 129.692 113.075C129.326 111.677 128.133 110.868 126.489 110.831L125.78 108.122L123.944 108.602L124.585 111.05L122.05 111.714L121.409 109.266L119.573 109.747L120.214 112.194L119.428 112.4C119.209 112.458 119.124 112.667 119.169 112.842L122.237 124.555C122.294 124.773 122.503 124.859 122.678 124.813L123.465 124.607L124.174 127.316L126.01 126.836L125.3 124.126L127.835 123.462L128.545 126.172L130.38 125.691L129.625 122.807C131.358 121.933 132.153 120.51 131.718 118.849ZM127.359 114.153C127.611 115.115 127.016 115.877 125.793 116.198L123.127 116.896C122.908 116.953 122.731 116.813 122.685 116.638L122.09 114.365C122.033 114.147 122.174 113.97 122.348 113.924L125.014 113.226C126.227 112.862 127.107 113.192 127.359 114.153ZM127.178 121.486L124.511 122.184C124.293 122.241 124.116 122.101 124.07 121.926L123.406 119.391C123.349 119.173 123.49 118.996 123.665 118.95L126.331 118.252C127.86 117.851 128.895 118.234 129.158 119.24C129.421 120.245 128.719 121.129 127.178 121.486Z" fill="#D99D1A"/>
    <path opacity="0.3" d="M97.1297 85.408L119.884 96.0851L135.836 76.7856" stroke="#6A6D8B" stroke-width="0.5" stroke-miterlimit="10" stroke-linecap="round"/>
    <path opacity="0.3" d="M100.272 85.4989L119.884 96.0855L132.566 78.0099" stroke="#6A6D8B" stroke-width="0.5" stroke-miterlimit="10" stroke-linecap="round"/>
    <path opacity="0.3" d="M103.26 84.494L119.884 96.0857L129.405 78.4141" stroke="#6A6D8B" stroke-width="0.5" stroke-miterlimit="10" stroke-linecap="round"/>
    <path opacity="0.3" d="M106.961 83.4767L119.884 96.0855L125.516 79.3682" stroke="#6A6D8B" stroke-width="0.5" stroke-miterlimit="10" stroke-linecap="round"/>
    <path opacity="0.3" d="M116.117 80.8809L119.747 95.1213" stroke="#6A6D8B" stroke-width="0.5" stroke-miterlimit="10" stroke-linecap="round"/>
    <path opacity="0.3" d="M110.975 82.4602L119.884 96.0857L121.358 80.3162" stroke="#6A6D8B" stroke-width="0.5" stroke-miterlimit="10" stroke-linecap="round"/>
    <path opacity="0.2" d="M97.0547 85.5082C97.0547 85.5082 98.9398 84.9278 100.273 85.4987C100.273 85.4987 102.693 81.757 106.961 83.4765C106.961 83.4765 111.298 78.7474 116.111 80.8367C116.111 80.8367 120.81 76.4586 125.516 79.368C125.516 79.368 129.056 75.9592 132.585 78.1412C132.585 78.1412 133.614 75.6254 135.974 76.8108L131.321 71.4347L102.046 77.5116C102.046 77.5116 97.2211 81.6392 97.0547 85.5082Z" fill="url(#paint8_linear_7126_3005)"/>
    <path d="M96.9871 84.0871C96.9616 84.5378 97.5374 84.8138 97.8507 84.5011C98.164 84.1883 98.6151 83.9008 99.2038 83.6384C100.644 83.0762 101.896 83.7035 102.709 84.3929C103.009 84.6186 103.442 84.5126 103.523 84.1433C103.787 83.1668 104.515 81.6774 106.412 81.1846C108.31 80.6918 109.736 81.6072 110.506 82.3029C110.768 82.5786 111.244 82.4663 111.37 82.0908C111.816 80.8203 112.926 78.5612 115.556 77.875C118.186 77.1887 120.05 78.9811 120.876 80.0712C121.101 80.397 121.583 80.3286 121.752 79.9468C122.292 78.7077 123.527 76.6991 125.781 76.8264C127.546 76.9784 128.447 77.6554 128.891 78.2631C129.116 78.5888 129.598 78.5204 129.774 78.1825C130.339 77.1187 131.417 75.5796 133.026 75.5748C135.48 75.5395 135.93 76.8171 135.93 76.8171C135.93 76.8171 129.489 61.6788 112.512 65.5634C99.1051 68.7627 97.1665 79.6796 96.9871 84.0871Z" fill="#EFFCFB"/>
    <path d="M129.198 78.5325C129.43 78.589 129.68 78.464 129.787 78.2701C130.351 77.2062 131.429 75.6671 133.039 75.6623C135.274 75.6582 135.861 76.6479 135.936 76.8609C135.549 76.0216 128.982 61.8848 112.525 65.651C125.642 65.1311 128.656 75.6583 129.198 78.5325Z" fill="#339AF0"/>
    <path d="M112.569 65.645C97.4582 69.1306 96.8948 82.4906 96.9484 85.3894C96.9671 85.5209 97.1048 85.546 97.1362 85.4522C97.3746 84.9265 97.9764 84.1257 99.2039 83.6385C100.644 83.0763 101.896 83.7036 102.709 84.393C102.859 84.5059 103.041 84.5248 103.216 84.4999C99.9614 70.3851 112.569 65.645 112.569 65.645Z" fill="#339AF0"/>
    <path d="M110.975 82.4603C111.151 82.4355 111.313 82.3229 111.376 82.1352C111.822 80.8646 112.932 78.6055 115.562 77.9193C118.193 77.2331 120.057 79.0254 120.882 80.1156C120.995 80.2784 121.132 80.3036 121.314 80.3226C118.891 67.0287 112.525 65.6516 112.525 65.6516C107.781 70.349 110.276 80.0555 110.975 82.4603Z" fill="#339AF0"/>
    <path d="M360.831 97.8731C361.429 95.3272 359.851 92.7779 357.305 92.1792C354.759 91.5805 352.21 93.1591 351.611 95.7051C351.012 98.251 352.591 100.8 355.137 101.399C357.683 101.998 360.232 100.419 360.831 97.8731Z" fill="#D99D1A"/>
    <path opacity="0.3" d="M347.743 65.0809L361.679 93.1805L392.249 86.715" stroke="#6A6D8B" stroke-width="0.5" stroke-miterlimit="10" stroke-linecap="round"/>
    <path opacity="0.3" d="M350.743 67.6097L361.679 93.1803L388.104 85.3718" stroke="#6A6D8B" stroke-width="0.5" stroke-miterlimit="10" stroke-linecap="round"/>
    <path opacity="0.3" d="M354.441 68.9476L361.679 93.1804L384.702 83.311" stroke="#6A6D8B" stroke-width="0.5" stroke-miterlimit="10" stroke-linecap="round"/>
    <path opacity="0.3" d="M358.846 70.8282L361.679 93.1804L380.162 81.2233" stroke="#6A6D8B" stroke-width="0.5" stroke-miterlimit="10" stroke-linecap="round"/>
    <path opacity="0.3" d="M369.806 75.4023L362.294 92.1323" stroke="#6A6D8B" stroke-width="0.5" stroke-miterlimit="10" stroke-linecap="round"/>
    <path opacity="0.3" d="M363.557 72.9525L361.679 93.1807L375.364 78.9205" stroke="#6A6D8B" stroke-width="0.5" stroke-miterlimit="10" stroke-linecap="round"/>
    <path opacity="0.2" d="M347.592 65.1199C347.592 65.1199 349.884 66.0166 350.742 67.6095C350.742 67.6095 356.012 65.8339 358.846 70.828C358.846 70.828 366.755 69.5762 369.834 75.3543C369.834 75.3543 377.825 74.7271 380.162 81.2231C380.162 81.2231 386.267 80.6426 388.02 85.5146C388.02 85.5146 390.979 83.8561 392.363 86.8462L391.993 77.9813L358.677 61.1842C358.677 61.1842 350.759 61.4696 347.592 65.1199Z" fill="url(#paint9_linear_7126_3005)"/>
    <path d="M348.63 63.6795C348.255 64.1 348.603 64.8167 349.152 64.7545C349.701 64.6923 350.364 64.7617 351.143 64.9625C352.987 65.532 353.723 67.1167 353.982 68.4217C354.1 68.8753 354.604 69.1073 354.971 68.81C355.987 68.0611 357.854 67.1712 360.09 68.1633C362.327 69.1554 363.009 71.1574 363.221 72.4345C363.263 72.9078 363.815 73.1677 364.23 72.8984C365.652 72.0034 368.49 70.6588 371.593 72.0309C374.695 73.403 375.124 76.6014 375.084 78.3072C375.05 78.8002 375.575 79.1078 376.037 78.8665C377.526 78.075 380.292 77.0722 382.395 78.9467C384.002 80.466 384.356 81.827 384.318 82.7654C384.285 83.2584 384.809 83.566 385.243 83.3722C386.62 82.7714 388.869 82.1052 390.444 83.3501C392.869 85.2215 392.316 86.8186 392.316 86.8186C392.316 86.8186 397.78 67.0293 378.18 57.6408C362.599 50.3545 352.227 59.5134 348.63 63.6795Z" fill="#EFFCFB"/>
    <path d="M384.408 83.2669C384.59 83.502 384.932 83.5745 385.186 83.4678C386.564 82.8669 388.813 82.2008 390.388 83.4456C392.575 85.1772 392.38 86.6003 392.288 86.8665C392.561 85.7458 397.124 66.8369 378.124 57.7363C391.341 67.4143 386.11 80.0383 384.408 83.2669Z" fill="#9A00D0"/>
    <path d="M378.171 57.7637C360.704 49.4346 349.779 62.0477 347.58 64.9211C347.496 65.064 347.611 65.1955 347.715 65.1282C348.356 64.7998 349.566 64.4849 351.143 64.9622C352.987 65.5317 353.722 67.1164 353.981 68.4214C354.04 68.6482 354.203 68.8077 354.394 68.9195C362.175 52.6039 378.171 57.7637 378.171 57.7637Z" fill="#9A00D0"/>
    <path d="M363.557 72.9525C363.748 73.0644 363.994 73.0809 364.201 72.9463C365.623 72.0513 368.462 70.7066 371.564 72.0788C374.667 73.4509 375.096 76.6492 375.055 78.3551C375.039 78.6016 375.154 78.7331 375.316 78.8926C383.273 64.0249 378.124 57.7363 378.124 57.7363C369.842 58.6411 364.742 70.0606 363.557 72.9525Z" fill="#9A00D0"/>
    <path d="M376.191 131.554C383.902 117.849 379.042 100.488 365.336 92.777C351.631 85.0665 334.27 89.9264 326.559 103.632C318.849 117.337 323.709 134.698 337.414 142.409C351.12 150.119 368.481 145.26 376.191 131.554Z" fill="#8E3AAC"/>
    <path d="M375.141 130.959C382.525 117.832 377.868 101.205 364.741 93.8209C351.614 86.4374 334.986 91.0936 327.603 104.221C320.219 117.348 324.875 133.976 338.003 141.359C351.13 148.743 367.757 144.087 375.141 130.959Z" fill="#AF36DA"/>
    <path d="M352.239 138.396C363.723 137.941 372.664 128.262 372.209 116.778C371.753 105.294 362.075 96.3531 350.591 96.8082C339.107 97.2634 330.166 106.942 330.621 118.426C331.076 129.91 340.755 138.851 352.239 138.396Z" fill="#8E3AAC"/>
    <path d="M350.144 136.879C360.785 137.579 369.978 129.522 370.679 118.881C371.38 108.241 363.322 99.0469 352.681 98.3462C342.041 97.6456 332.847 105.703 332.146 116.344C331.446 126.984 339.504 136.178 350.144 136.879Z" fill="#AF36DA"/>
    <path d="M346.786 130.321L359.888 120.705L356.411 103.924L342.878 114.503L346.786 130.321Z" fill="#C769E9"/>
    <path d="M346.786 130.322L359.888 120.705L356.411 103.924L346.786 130.322Z" fill="#9A00D0"/>
    <path d="M342.878 114.503L349.617 122.558L359.888 120.705L346.786 130.321L342.878 114.503Z" fill="#D58FED"/>
    <path d="M349.617 122.557L359.888 120.705L346.786 130.321L349.617 122.557Z" fill="#7E0CA6"/>
    </g>
    <g opacity="0.9">
    <path d="M301.141 224.069C303.943 204.783 290.581 186.876 271.295 184.074C252.009 181.272 234.103 194.634 231.3 213.92C228.498 233.206 241.86 251.112 261.146 253.915C280.432 256.717 298.339 243.355 301.141 224.069Z" fill="#D99D1A"/>
    <path d="M298.989 223.748C301.619 205.65 289.079 188.846 270.981 186.216C252.882 183.586 236.079 196.126 233.449 214.225C230.819 232.323 243.359 249.127 261.457 251.756C279.555 254.386 296.359 241.847 298.989 223.748Z" fill="url(#paint10_linear_7126_3005)"/>
    <path d="M290.152 228.687C295.509 215.476 289.142 200.422 275.931 195.065C262.719 189.707 247.666 196.074 242.309 209.286C236.951 222.497 243.318 237.55 256.529 242.908C269.741 248.265 284.794 241.899 290.152 228.687Z" fill="#D99D1A"/>
    <path d="M278.226 239.717C289.641 233.086 293.519 218.458 286.888 207.043C280.258 195.629 265.629 191.751 254.215 198.381C242.801 205.012 238.923 219.64 245.553 231.055C252.184 242.469 266.812 246.347 278.226 239.717Z" fill="url(#paint11_linear_7126_3005)"/>
    <path d="M277.169 224.273C277.169 220.97 275.17 218.624 271.867 218.015C274.561 217.32 276.213 215.234 276.213 212.54C276.213 209.758 274.387 207.672 271.345 206.803V201.415H267.695V206.282H262.654V201.415H259.003V206.282H257.439C257.004 206.282 256.744 206.629 256.744 206.977V230.27C256.744 230.705 257.091 230.966 257.439 230.966H259.003V236.354H262.654V230.966H267.695V236.354H271.345V230.618C274.996 229.836 277.169 227.576 277.169 224.273ZM271.345 213.409C271.345 215.321 269.868 216.451 267.434 216.451H262.132C261.698 216.451 261.437 216.103 261.437 215.755V211.236C261.437 210.801 261.785 210.541 262.132 210.541H267.434C269.868 210.454 271.345 211.497 271.345 213.409ZM267.434 226.967H262.132C261.698 226.967 261.437 226.62 261.437 226.272V221.231C261.437 220.797 261.785 220.536 262.132 220.536H267.434C270.476 220.536 272.214 221.753 272.214 223.752C272.214 225.751 270.476 227.054 267.434 226.967Z" fill="#D99D1A"/>
    <path d="M240.673 233.989C243.222 218.472 232.709 203.826 217.192 201.277C201.674 198.728 187.028 209.241 184.479 224.758C181.93 240.276 192.443 254.922 207.961 257.471C223.478 260.02 238.124 249.507 240.673 233.989Z" fill="#8E3AAC"/>
    <path d="M239.483 233.79C241.923 218.928 231.853 204.901 216.99 202.461C202.128 200.022 188.101 210.092 185.662 224.954C183.222 239.817 193.292 253.843 208.154 256.283C223.017 258.723 237.043 248.653 239.483 233.79Z" fill="#AF36DA"/>
    <path d="M220.514 248.622C231.147 244.26 236.232 232.105 231.87 221.471C227.508 210.838 215.353 205.754 204.719 210.115C194.086 214.477 189.002 226.633 193.363 237.266C197.725 247.899 209.881 252.984 220.514 248.622Z" fill="#8E3AAC"/>
    <path d="M218.026 247.914C228.263 244.927 234.14 234.208 231.153 223.971C228.166 213.734 217.447 207.857 207.21 210.844C196.973 213.831 191.096 224.55 194.083 234.787C197.07 245.024 207.789 250.901 218.026 247.914Z" fill="#AF36DA"/>
    <path d="M212.625 242.904L221.64 229.382L212.625 214.807L203.535 229.382L212.625 242.904Z" fill="#C769E9"/>
    <path d="M212.625 242.904L221.641 229.382L212.625 214.807V242.904Z" fill="#9A00D0"/>
    <path d="M203.535 229.382L212.625 234.641L221.64 229.382L212.625 242.905L203.535 229.382Z" fill="#D58FED"/>
    <path d="M212.625 234.641L221.641 229.382L212.625 242.905V234.641Z" fill="#7E0CA6"/>
    <path d="M311 344.9H171.2C162.8 344.9 156 338 156 329.7V245C156 236.6 162.9 229.8 171.2 229.8H311C319.4 229.8 326.2 236.7 326.2 245V329.7C326.2 338.1 319.4 344.9 311 344.9Z" fill="#FB7DC1"/>
    <path opacity="0.2" d="M212.8 251.8H176C172.8 251.8 170.3 249.2 170.3 246.1C170.3 242.9 172.9 240.4 176 240.4H212.8C216 240.4 218.5 243 218.5 246.1C218.6 249.2 216 251.8 212.8 251.8Z" fill="white"/>
    <path d="M156 290.4V329.7C156 338.1 162.9 344.9 171.2 344.9H311C319.4 344.9 326.2 338 326.2 329.7V290.4H156Z" fill="#C42F7F"/>
    <path d="M184.4 324.9C184.4 328.1 181.8 330.7 178.6 330.7C175.4 330.7 172.8 328.1 172.8 324.9C172.8 321.7 175.4 319.1 178.6 319.1C181.8 319 184.4 321.7 184.4 324.9Z" fill="#D25197"/>
    <path d="M182.1 324.9C182.1 326.8 180.5 328.4 178.6 328.4C176.7 328.4 175.1 326.8 175.1 324.9C175.1 323 176.7 321.4 178.6 321.4C180.5 321.4 182.1 323 182.1 324.9Z" fill="#FA93CA"/>
    <path d="M202.3 324.9C202.3 328.1 199.7 330.7 196.5 330.7C193.3 330.7 190.7 328.1 190.7 324.9C190.7 321.7 193.3 319.1 196.5 319.1C199.7 319 202.3 321.7 202.3 324.9Z" fill="#D25197"/>
    <path d="M199.9 324.9C199.9 326.8 198.3 328.4 196.4 328.4C194.5 328.4 192.9 326.8 192.9 324.9C192.9 323 194.5 321.4 196.4 321.4C198.4 321.4 199.9 323 199.9 324.9Z" fill="#FA93CA"/>
    <path d="M220.1 324.9C220.1 328.1 217.5 330.7 214.3 330.7C211.1 330.7 208.5 328.1 208.5 324.9C208.5 321.7 211.1 319.1 214.3 319.1C217.5 319 220.1 321.7 220.1 324.9Z" fill="#D25197"/>
    <path d="M217.8 324.9C217.8 326.8 216.2 328.4 214.3 328.4C212.4 328.4 210.8 326.8 210.8 324.9C210.8 323 212.4 321.4 214.3 321.4C216.2 321.4 217.8 323 217.8 324.9Z" fill="#FA93CA"/>
    <path d="M238 324.9C238 328.1 235.4 330.7 232.2 330.7C229 330.7 226.4 328.1 226.4 324.9C226.4 321.7 229 319.1 232.2 319.1C235.4 319 238 321.7 238 324.9Z" fill="#D25197"/>
    <path d="M235.6 324.9C235.6 326.8 234 328.4 232.1 328.4C230.2 328.4 228.6 326.8 228.6 324.9C228.6 323 230.2 321.4 232.1 321.4C234.1 321.4 235.6 323 235.6 324.9Z" fill="#FA93CA"/>
    <path opacity="0.15" d="M324.5 238L316.4 321.9C315.7 329.4 309.1 335.4 301.9 335.4H180.4C173.1 335.4 166.6 329.4 165.9 321.9L157.8 238C156.7 240.1 156.1 242.5 156.1 245V329.7C156.1 338.1 163 344.9 171.3 344.9H311.1C319.5 344.9 326.3 338 326.3 329.7V245C326.2 242.5 325.6 240.1 324.5 238Z" fill="black"/>
    <path d="M325.9 304.2H288.6C283.1 304.2 278.5 299.7 278.5 294.1V280.4C278.5 274.9 283 270.3 288.6 270.3H325.9C331.4 270.3 336 274.8 336 280.4V294.1C336 299.7 331.5 304.2 325.9 304.2Z" fill="#FBE4F0"/>
    <path d="M295.5 296.8C300.747 296.8 305 292.547 305 287.3C305 282.053 300.747 277.8 295.5 277.8C290.253 277.8 286 282.053 286 287.3C286 292.547 290.253 296.8 295.5 296.8Z" fill="#FB7DC1"/>
    </g>
    <defs>
    <linearGradient id="paint0_linear_7126_3005" x1="246.5" y1="172" x2="246.5" y2="423" gradientUnits="userSpaceOnUse">
    <stop stop-color="#DFE0EC" stop-opacity="0"/>
    <stop offset="1" stop-color="#DFE0EC"/>
    </linearGradient>
    <linearGradient id="paint1_linear_7126_3005" x1="41.2029" y1="342.389" x2="61.603" y2="294.037" gradientUnits="userSpaceOnUse">
    <stop stop-color="#2C2E43" stop-opacity="0.27"/>
    <stop offset="0.5" stop-color="#84134B" stop-opacity="0.71"/>
    <stop offset="1" stop-color="#B40061"/>
    </linearGradient>
    <linearGradient id="paint2_linear_7126_3005" x1="52.1836" y1="372.049" x2="125.854" y2="316.899" gradientUnits="userSpaceOnUse">
    <stop stop-color="#2C2E43" stop-opacity="0.27"/>
    <stop offset="0.5" stop-color="#84134B" stop-opacity="0.71"/>
    <stop offset="1" stop-color="#B40061"/>
    </linearGradient>
    <linearGradient id="paint3_linear_7126_3005" x1="238.873" y1="393.875" x2="347.057" y2="311.761" gradientUnits="userSpaceOnUse">
    <stop stop-color="#2C2E43" stop-opacity="0.27"/>
    <stop offset="0.5" stop-color="#84134B" stop-opacity="0.71"/>
    <stop offset="1" stop-color="#B40061"/>
    </linearGradient>
    <linearGradient id="paint4_linear_7126_3005" x1="252.999" y1="344.207" x2="274.169" y2="289.52" gradientUnits="userSpaceOnUse">
    <stop stop-color="#2C2E43" stop-opacity="0.27"/>
    <stop offset="0.5" stop-color="#84134B" stop-opacity="0.71"/>
    <stop offset="1" stop-color="#B40061"/>
    </linearGradient>
    <linearGradient id="paint5_linear_7126_3005" x1="228.193" y1="18.9258" x2="228.193" y2="40.0913" gradientUnits="userSpaceOnUse">
    <stop stop-color="#FBE4F0"/>
    <stop offset="1" stop-color="#FBE4F0" stop-opacity="0"/>
    </linearGradient>
    <linearGradient id="paint6_linear_7126_3005" x1="131.477" y1="104.989" x2="113.25" y2="124.378" gradientUnits="userSpaceOnUse">
    <stop stop-color="#FFDF82"/>
    <stop offset="1" stop-color="#EFB40A"/>
    </linearGradient>
    <linearGradient id="paint7_linear_7126_3005" x1="135.348" y1="115.364" x2="116.208" y2="113.753" gradientUnits="userSpaceOnUse">
    <stop stop-color="#FFDF82"/>
    <stop offset="1" stop-color="#EFB40A"/>
    </linearGradient>
    <linearGradient id="paint8_linear_7126_3005" x1="115.454" y1="73.6863" x2="116.797" y2="83.1539" gradientUnits="userSpaceOnUse">
    <stop stop-color="#FBE4F0"/>
    <stop offset="1" stop-color="#FBE4F0" stop-opacity="0"/>
    </linearGradient>
    <linearGradient id="paint9_linear_7126_3005" x1="374.745" y1="67.8593" x2="368.705" y2="78.151" gradientUnits="userSpaceOnUse">
    <stop stop-color="#FBE4F0"/>
    <stop offset="1" stop-color="#FBE4F0" stop-opacity="0"/>
    </linearGradient>
    <linearGradient id="paint10_linear_7126_3005" x1="283.475" y1="198.361" x2="240.105" y2="225.562" gradientUnits="userSpaceOnUse">
    <stop stop-color="#FFDF82"/>
    <stop offset="1" stop-color="#EFB40A"/>
    </linearGradient>
    <linearGradient id="paint11_linear_7126_3005" x1="285.624" y1="219.556" x2="250.789" y2="207.231" gradientUnits="userSpaceOnUse">
    <stop stop-color="#FFDF82"/>
    <stop offset="1" stop-color="#EFB40A"/>
    </linearGradient>
    </defs>
    </svg>
    