<svg width="445" height="380" viewBox="0 0 445 380" fill="none" xmlns="http://www.w3.org/2000/svg">
    <g clip-path="url(#clip0_7145_13470)">
    <path opacity="0.3" d="M37.504 182.504C46.2623 179.049 56.0975 179.626 64.3913 184.082L260.939 289.679C284.302 302.232 283.132 336.126 258.957 347.036L193.394 376.625C183.909 380.905 172.935 380.307 163.973 375.02L-25.8549 263.045C-48.8046 249.508 -46.1252 215.492 -21.3391 205.715L37.504 182.504Z" fill="url(#paint0_linear_7145_13470)"/>
    <path opacity="0.2" d="M410.858 155.138L150.33 4.00967C142.314 -0.691499 134.851 -1.10631 129.046 1.65909L128.908 1.52082L110.249 12.4441V12.7207C116.192 9.12565 124.07 9.40219 132.777 14.3799L393.306 165.509C412.102 176.432 427.444 205.607 427.444 230.634V255.384C427.444 267.552 423.85 276.539 417.907 281.379L428.273 274.465C436.98 269.488 444.996 261.606 444.996 245.014V220.264C444.858 195.237 429.655 166.062 410.858 155.138Z" fill="url(#paint1_linear_7145_13470)"/>
    <path opacity="0.2" d="M410.029 155.83L149.778 4.83926C141.761 0.138091 134.298 -0.276718 128.493 2.48868L128.355 2.35041L109.696 13.2737V13.5503C115.639 9.95524 123.517 10.2318 132.087 15.2095L392.338 166.2C411.135 177.123 426.338 206.16 426.338 231.325V256.075C426.338 268.243 422.745 277.231 416.801 282.07L427.167 275.295C435.875 270.317 443.891 262.574 443.891 245.843V221.093C444.029 195.79 428.826 166.615 410.029 155.83Z" fill="url(#paint2_linear_7145_13470)"/>
    <path opacity="0.2" d="M407.542 157.765L147.981 7.18976C139.965 2.48859 132.501 1.93551 126.697 4.83917L126.558 4.7009L108.038 15.6242V15.9008C113.981 12.3057 121.859 12.5823 130.428 17.56L390.127 168.136C408.924 178.921 424.127 208.096 424.127 233.122V257.734C424.127 269.902 420.534 278.89 414.729 283.591L425.094 276.816C433.802 271.838 441.68 264.095 441.68 247.503V222.614C441.542 197.587 426.338 168.551 407.542 157.765Z" fill="url(#paint3_linear_7145_13470)"/>
    <path d="M393.306 165.509L132.778 14.3801C113.981 3.45681 98.6396 15.0715 98.6396 40.0983V64.8486C98.6396 90.0136 113.843 119.189 132.778 129.974L187.509 163.435L202.851 250.545L232.152 189.153L393.306 281.102C412.103 292.026 427.444 280.411 427.444 255.384V230.634C427.306 205.469 412.103 176.294 393.306 165.509Z" fill="url(#paint4_linear_7145_13470)"/>
    <path d="M242.656 195.375L232.014 189.153L202.713 250.683L219.851 240.589L242.656 195.375Z" fill="url(#paint5_linear_7145_13470)"/>
    <path d="M158.899 60.0087L163.184 76.7393C163.599 78.122 164.566 79.5047 165.534 80.196L178.664 88.0774C181.151 89.5984 182.119 93.7465 180.184 94.2995L169.68 97.3415C168.851 97.618 168.436 98.7242 168.712 100.107L172.582 116.699C173.273 119.879 170.647 120.571 168.574 117.667L157.794 102.872C156.964 101.628 155.721 100.936 154.753 101.213L143.973 103.564C141.899 103.978 139.273 100.245 139.964 97.8946L143.834 85.7268C144.111 84.7589 143.834 83.238 142.867 81.9935L132.363 66.7839C130.428 63.8802 131.395 60.9766 133.883 62.221L147.013 69.5493C148.119 70.1024 149.086 69.9641 149.363 68.9962L153.647 57.2433C154.753 55.031 158.07 56.9667 158.899 60.0087Z" fill="#040F1E"/>
    <path d="M213.493 91.5341L217.778 108.265C218.192 109.647 219.16 111.03 220.127 111.721L233.257 119.603C235.745 121.124 236.713 125.272 234.778 125.825L224.274 128.867C223.444 129.143 223.03 130.25 223.306 131.632L227.176 148.225C227.867 151.405 225.241 152.096 223.168 149.193L212.387 134.398C211.558 133.153 210.314 132.462 209.347 132.738L198.566 135.089C196.493 135.504 193.867 131.771 194.558 129.42L198.428 117.252C198.705 116.284 198.428 114.763 197.461 113.519L186.957 98.3093C185.022 95.4056 185.989 92.502 188.477 93.7464L201.607 101.075C202.713 101.628 203.68 101.489 203.957 100.522L208.241 88.7687C209.347 86.5563 212.664 88.4921 213.493 91.5341Z" fill="#040F1E"/>
    <path d="M268.086 123.06L272.37 139.791C272.785 141.173 273.753 142.556 274.72 143.247L287.85 151.129C290.338 152.65 291.305 156.798 289.37 157.351L278.866 160.393C278.037 160.669 277.622 161.775 277.899 163.158L281.769 179.751C282.46 182.931 279.834 183.622 277.761 180.718L266.98 165.924C266.151 164.679 264.907 163.988 263.94 164.264L253.159 166.615C251.086 167.03 248.46 163.296 249.151 160.946L253.021 148.778C253.297 147.81 253.021 146.289 252.053 145.045L241.549 129.835C239.614 126.931 240.582 124.028 243.07 125.272L256.2 132.601C257.305 133.154 258.273 133.015 258.549 132.047L262.834 120.295C263.94 118.082 267.257 120.018 268.086 123.06Z" fill="#040F1E"/>
    <path opacity="0.2" d="M322.68 154.585L326.964 171.316C327.379 172.699 328.346 174.081 329.314 174.773L342.444 182.654C344.932 184.175 345.899 188.323 343.964 188.876L333.46 191.918C332.631 192.195 332.216 193.301 332.493 194.684L336.363 211.276C337.054 214.456 334.428 215.147 332.354 212.244L321.574 197.449C320.745 196.205 319.501 195.513 318.533 195.79L307.753 198.14C305.68 198.555 303.054 194.822 303.745 192.471L307.615 180.303C307.891 179.336 307.615 177.815 306.647 176.57L296.143 161.361C294.208 158.457 295.176 155.553 297.663 156.798L310.794 164.126C311.899 164.679 312.867 164.541 313.143 163.573L317.428 151.82C318.533 149.608 321.85 151.543 322.68 154.585Z" fill="url(#paint6_linear_7145_13470)"/>
    <path opacity="0.2" d="M377.273 186.111L381.558 202.841C381.973 204.224 382.94 205.607 383.908 206.298L397.038 214.179C399.525 215.7 400.493 219.849 398.558 220.402L388.054 223.444C387.225 223.72 386.81 224.826 387.086 226.209L390.956 242.801C391.647 245.981 389.021 246.673 386.948 243.769L376.168 228.974C375.338 227.73 374.095 227.039 373.127 227.315L362.347 229.666C360.273 230.08 357.647 226.347 358.339 223.997L362.208 211.829C362.485 210.861 362.208 209.34 361.241 208.096L350.737 192.886C348.802 189.982 349.769 187.079 352.257 188.323L365.387 195.651C366.493 196.204 367.46 196.066 367.737 195.098L372.021 183.345C373.127 181.133 376.444 183.069 377.273 186.111Z" fill="url(#paint7_linear_7145_13470)"/>
    <path d="M315.631 161.775L319.639 150.852C318.81 150.575 318.119 150.852 317.842 151.681L313.834 162.605C314.663 162.881 315.354 162.605 315.631 161.775Z" fill="#26283B"/>
    <path d="M335.672 190.259C335.119 190.397 334.842 190.95 334.704 191.641L343.964 188.876C344.517 188.738 344.794 188.185 344.932 187.493L335.672 190.259Z" fill="#26283B"/>
    <path d="M334.566 210.584L323.785 195.789C322.956 194.545 321.712 193.853 320.745 194.13L309.964 196.481C307.891 196.895 305.265 193.162 305.956 190.811L309.826 178.644C310.102 177.676 309.826 176.155 308.858 174.91L298.354 159.701C297.663 158.595 297.387 157.627 297.387 156.797C295.176 155.967 294.484 158.733 296.281 161.498L306.785 176.708C307.615 177.952 308.029 179.473 307.753 180.441L303.883 192.609C303.192 194.96 305.818 198.693 307.891 198.278L318.671 195.927C319.501 195.789 320.745 196.481 321.712 197.587L332.493 212.382C334.289 214.87 336.639 214.594 336.639 212.243C335.948 211.967 335.257 211.552 334.566 210.584Z" fill="#26283B"/>
    <path d="M370.225 193.3L374.233 182.377C373.403 182.101 372.712 182.377 372.436 183.207L368.428 194.13C369.119 194.407 369.81 194.13 370.225 193.3Z" fill="#26283B"/>
    <path d="M389.159 242.109L378.379 227.315C377.55 226.07 376.306 225.379 375.338 225.655L364.558 228.006C362.485 228.421 359.859 224.687 360.55 222.337L364.42 210.169C364.696 209.201 364.42 207.68 363.452 206.436L352.948 191.226C352.257 190.12 351.842 189.152 351.981 188.323C349.769 187.493 349.078 190.258 350.875 193.024L361.379 208.233C362.208 209.478 362.623 210.999 362.347 211.967L358.477 224.134C357.786 226.485 360.412 230.218 362.485 229.803L373.265 227.453C374.094 227.315 375.338 228.006 376.306 229.112L387.086 243.907C388.883 246.396 391.233 246.119 391.233 243.769C390.542 243.492 389.851 243.077 389.159 242.109Z" fill="#26283B"/>
    <path d="M390.265 221.784C389.713 221.922 389.436 222.475 389.298 223.167L398.558 220.401C399.111 220.263 399.387 219.71 399.525 219.019L390.265 221.784Z" fill="#26283B"/>
    <path d="M265.46 124.166L269.745 140.758C270.16 142.141 270.989 143.524 272.095 144.077L285.225 151.958C287.712 153.479 288.68 157.627 286.745 158.18L276.379 161.222C275.55 161.499 275.135 162.605 275.412 163.988L279.143 180.58C279.834 183.76 277.208 184.313 275.135 181.548L264.355 166.753C263.525 165.509 262.282 164.817 261.452 165.094L250.672 167.444C248.599 167.859 245.973 164.126 246.664 161.914L250.395 149.746C250.672 148.778 250.395 147.257 249.428 146.013L239.062 130.941C237.127 128.037 238.095 125.134 240.582 126.516L253.712 133.706C254.818 134.26 255.786 134.121 256.062 133.153L260.347 121.4C261.314 119.188 264.631 121.124 265.46 124.166Z" fill="url(#paint8_linear_7145_13470)"/>
    <path opacity="0.3" d="M260.623 121.4C261.452 119.188 264.769 121.124 265.46 124.166L269.745 140.758C270.16 142.141 270.989 143.524 272.095 144.077L285.225 151.958C287.712 153.479 288.68 157.627 286.745 158.18L276.379 161.222C275.55 161.499 275.135 162.605 275.412 163.988L279.143 180.58C279.834 183.76 277.208 184.313 275.135 181.548L264.355 166.753L260.623 121.4Z" fill="white"/>
    <path d="M240.445 126.793L253.575 133.983C254.404 134.398 255.233 134.398 255.648 133.845C255.233 134.121 254.542 133.983 253.989 133.707L240.859 126.517C239.892 125.964 239.201 126.102 238.786 126.655C239.201 126.378 239.754 126.378 240.445 126.793Z" fill="white"/>
    <path d="M275.412 163.988C275.136 163.02 275.274 162.19 275.689 161.637C274.998 162.052 274.721 163.02 274.998 164.264L278.729 180.857C279.006 181.963 278.867 182.654 278.453 183.207C279.144 182.931 279.42 181.963 279.144 180.58L275.412 163.988Z" fill="white"/>
    <path d="M285.226 152.096L272.095 144.215C270.99 143.524 270.022 142.279 269.746 140.897L265.461 124.304C264.77 121.539 262.006 119.741 260.9 120.986C262.144 120.433 264.494 122.092 265.047 124.581L269.331 141.173C269.746 142.556 270.575 143.938 271.681 144.492L284.811 152.373C286.884 153.617 287.99 156.936 286.884 158.18C288.681 157.351 287.575 153.479 285.226 152.096Z" fill="white"/>
    <path d="M211.144 92.7787L215.428 109.371C215.843 110.754 216.672 112.136 217.778 112.69L230.908 120.571C233.395 122.092 234.363 126.24 232.428 126.793L222.062 129.835C221.233 130.112 220.818 131.218 221.095 132.6L224.826 149.193C225.517 152.373 222.891 152.926 220.818 150.161L210.176 135.504C209.347 134.26 208.103 133.568 207.274 133.845L196.493 136.195C194.42 136.61 191.794 132.877 192.485 130.665L196.217 118.497C196.493 117.529 196.217 116.008 195.249 114.764L184.883 99.5539C182.948 96.6502 183.916 93.7466 186.404 95.1293L199.534 102.319C200.639 102.872 201.607 102.734 201.883 101.766L206.168 90.0133C206.997 87.801 210.314 89.7368 211.144 92.7787Z" fill="url(#paint9_linear_7145_13470)"/>
    <path opacity="0.3" d="M206.168 90.0133C206.997 87.801 210.314 89.7368 211.005 92.7787L215.29 109.371C215.705 110.754 216.534 112.136 217.639 112.69L230.77 120.571C233.257 122.092 234.225 126.24 232.29 126.793L221.924 129.835C221.095 130.112 220.68 131.218 220.957 132.6L224.688 149.193C225.379 152.373 222.753 152.926 220.68 150.161L210.176 135.504L206.168 90.0133Z" fill="white"/>
    <path d="M186.127 95.406L199.257 102.596C200.087 103.011 200.916 103.011 201.331 102.458C200.916 102.734 200.225 102.596 199.672 102.319L186.542 95.1294C185.574 94.5764 184.883 94.7146 184.469 95.2677C184.883 94.9912 185.436 94.9912 186.127 95.406Z" fill="white"/>
    <path d="M221.095 132.739C220.818 131.771 220.957 130.941 221.371 130.388C220.68 130.803 220.404 131.771 220.68 133.015L224.412 149.608C224.688 150.714 224.55 151.405 224.135 151.958C224.826 151.682 225.103 150.714 224.826 149.331L221.095 132.739Z" fill="white"/>
    <path d="M230.908 120.709L217.778 112.828C216.672 112.136 215.705 110.892 215.429 109.509L211.144 92.917C210.453 90.1516 207.689 88.3541 206.583 89.5985C207.827 89.0454 210.176 90.7047 210.729 93.1935L215.014 109.786C215.429 111.169 216.258 112.551 217.363 113.104L230.494 120.986C232.567 122.23 233.672 125.549 232.567 126.793C234.225 125.963 233.258 122.092 230.908 120.709Z" fill="white"/>
    <path d="M156.273 61.3917L160.557 77.984C160.972 79.3667 161.801 80.7494 162.907 81.3025L176.037 89.1839C178.525 90.7048 179.492 94.8529 177.557 95.406L167.192 98.4479C166.362 98.7245 165.948 99.8306 166.224 101.213L169.956 117.806C170.647 120.986 168.021 121.539 165.948 118.774L155.167 103.979C154.338 102.734 153.094 102.043 152.265 102.319L141.484 104.67C139.411 105.085 136.785 101.352 137.476 99.1393L141.208 86.9716C141.484 86.0037 141.208 84.4827 140.24 83.2383L129.875 68.1669C127.94 65.2632 128.907 62.3596 131.395 63.7423L144.525 70.9323C145.631 71.4854 146.598 71.3471 146.875 70.3792L151.159 58.6263C152.127 56.414 155.444 58.2115 156.273 61.3917Z" fill="url(#paint10_linear_7145_13470)"/>
    <path opacity="0.3" d="M151.436 58.6261C152.265 56.4138 155.582 58.3495 156.273 61.3915L160.557 77.9838C160.972 79.3665 161.801 80.7492 162.907 81.3023L176.037 89.1837C178.525 90.7047 179.492 94.8527 177.557 95.4058L167.192 98.4478C166.362 98.7243 165.948 99.8305 166.224 101.213L169.956 117.806C170.647 120.986 168.021 121.539 165.948 118.773L155.167 103.979L151.436 58.6261Z" fill="white"/>
    <path d="M131.257 63.8806L144.387 71.0706C145.216 71.4854 146.046 71.4854 146.46 70.9323C146.046 71.2089 145.355 71.0706 144.802 70.7941L131.672 63.604C130.704 63.051 130.013 63.1892 129.599 63.7423C130.013 63.4658 130.566 63.604 131.257 63.8806Z" fill="white"/>
    <path d="M166.225 101.213C165.948 100.245 166.086 99.4159 166.501 98.8628C165.81 99.2776 165.534 100.245 165.81 101.49L169.542 118.082C169.818 119.188 169.68 119.88 169.265 120.433C169.956 120.156 170.233 119.188 169.956 117.806L166.225 101.213Z" fill="white"/>
    <path d="M176.038 89.322L162.908 81.4406C161.802 80.7493 160.835 79.5048 160.558 78.1221L156.274 61.5298C155.583 58.7644 152.819 56.9669 151.713 58.2113C152.957 57.6582 155.306 59.3175 155.859 61.8063L160.144 78.3987C160.558 79.7814 161.388 81.1641 162.493 81.7172L175.623 89.5985C177.697 90.843 178.802 94.1614 177.697 95.4059C179.493 94.5762 178.388 90.7047 176.038 89.322Z" fill="white"/>
    <path d="M276.519 197.639C276.519 197.639 281.86 193.86 284.726 193.729C287.592 193.599 293.193 195.033 293.845 196.075C294.366 197.118 292.412 198.943 290.458 199.725C288.243 200.637 287.592 201.028 285.898 201.549C284.205 202.07 282.381 201.679 279.385 202.852C277.952 203.374 276.519 197.639 276.519 197.639Z" fill="url(#paint11_radial_7145_13470)"/>
    <path d="M304.786 182.913L308.825 198.552C309.216 199.855 309.997 201.158 311.039 201.68L323.415 209.108C325.76 210.542 326.672 214.452 324.848 214.973L315.078 217.84C314.296 218.101 313.905 219.144 314.166 220.447L317.683 236.086C318.335 239.083 315.859 239.605 313.905 236.998L303.744 223.053C302.963 221.88 301.79 221.229 301.008 221.489L290.847 223.705C288.893 224.096 286.418 220.577 287.069 218.492L290.587 207.023C290.847 206.111 290.587 204.677 289.675 203.504L279.905 189.299C278.081 186.562 278.993 183.825 281.337 185.128L293.713 191.905C294.755 192.427 295.667 192.296 295.928 191.384L299.966 180.306C300.878 178.221 304.005 180.046 304.786 182.913Z" fill="url(#paint12_linear_7145_13470)"/>
    <path opacity="0.3" d="M308.825 198.682C309.215 199.985 309.997 201.289 311.039 201.81L323.415 209.239C325.76 210.672 326.672 214.582 324.848 215.103L315.078 217.97C314.296 218.231 313.905 219.274 314.166 220.577L317.683 236.216C318.334 239.214 315.859 239.735 313.905 237.128L303.744 223.184C302.962 222.011 301.79 221.359 301.008 221.62L290.847 223.835C288.893 224.226 286.418 220.707 287.069 218.622L308.825 198.682Z" fill="white"/>
    <path d="M281.207 185.389L293.583 192.166C294.364 192.557 295.146 192.557 295.537 192.036C295.146 192.296 294.494 192.166 293.973 191.905L281.598 185.128C280.686 184.607 280.034 184.737 279.644 185.259C280.034 184.998 280.555 184.998 281.207 185.389Z" fill="white"/>
    <path d="M314.165 220.577C313.905 219.665 314.035 218.883 314.426 218.361C313.775 218.752 313.514 219.665 313.775 220.838L317.292 236.477C317.553 237.519 317.422 238.171 317.031 238.692C317.683 238.432 317.943 237.519 317.683 236.216L314.165 220.577Z" fill="white"/>
    <path d="M323.415 209.239L311.039 201.81C309.997 201.159 309.085 199.986 308.825 198.682L304.786 183.043C304.135 180.437 301.529 178.742 300.487 179.915C301.66 179.394 303.874 180.958 304.395 183.304L308.434 198.943C308.825 200.246 309.606 201.549 310.648 202.071L323.024 209.499C324.978 210.672 326.02 213.8 324.978 214.973C326.672 214.191 325.63 210.542 323.415 209.239Z" fill="white"/>
    <path d="M317.684 218.622C317.553 218.101 317.553 217.579 317.684 217.188L315.078 217.97C314.297 218.231 313.906 219.274 314.166 220.577L317.684 236.216C317.944 237.259 317.684 238.041 317.293 238.562L320.289 236.868C321.071 236.607 321.462 235.695 321.071 234.392L317.684 218.622Z" fill="#040F1E"/>
    <path d="M281.598 185.128L293.974 191.905C295.016 192.426 295.928 192.296 296.188 191.384L296.84 189.689L285.115 183.173C284.334 182.782 283.682 182.782 283.291 183.173L279.904 184.867C280.295 184.607 280.816 184.737 281.598 185.128Z" fill="#040F1E"/>
    <path d="M326.932 207.284L314.556 199.855C313.514 199.203 312.602 198.031 312.342 196.727L308.303 181.088C307.652 178.482 305.177 176.787 304.135 177.83L300.878 179.524C302.05 178.873 304.265 180.567 304.916 182.913L308.955 198.552C309.346 199.855 310.127 201.158 311.169 201.68L323.545 209.108C325.63 210.412 326.672 213.8 325.369 214.843L328.626 213.018C330.059 212.366 329.147 208.717 326.932 207.284Z" fill="#040F1E"/>
    <path d="M289.155 193.208C289.676 193.469 289.937 194.381 288.894 195.033C287.852 195.685 285.247 196.727 284.335 197.118C283.423 197.64 279.775 197.509 279.775 197.509L289.155 193.208Z" fill="#D1D3D4"/>
    <path d="M282.381 193.73C282.902 193.339 285.507 192.818 286.68 192.687C287.722 192.557 288.373 191.775 288.764 192.036C289.285 192.296 289.806 193.339 287.461 194.382C285.117 195.424 283.814 195.815 282.641 196.727C281.469 197.64 279.124 199.204 278.212 198.813C277.3 198.422 277.561 196.988 277.561 196.988C277.561 196.988 281.86 194.121 282.381 193.73Z" fill="url(#paint13_radial_7145_13470)"/>
    <path d="M278.864 195.424C278.864 195.424 280.557 196.075 280.818 197.9C281.078 199.855 280.167 203.243 280.167 203.243L261.147 207.805C261.147 207.805 253.982 210.802 252.94 204.677C251.898 198.943 255.806 198.03 264.794 197.639C273.783 197.248 269.745 197.379 272.481 196.857C275.346 196.466 278.864 195.424 278.864 195.424Z" fill="#1EC9BF"/>
    <path d="M280.817 200.768C280.557 202.331 280.296 203.244 280.296 203.244L261.276 207.805C261.276 207.805 254.242 210.803 253.069 204.677C256.717 204.547 259.062 206.241 267.139 204.286C274.434 202.592 278.863 201.289 280.817 200.768Z" fill="#D1D3D4"/>
    <path opacity="0.1" d="M285.117 326.793C271.568 332.007 265.446 327.966 256.066 322.623C246.686 317.28 242.648 312.588 252.809 308.548C262.71 304.638 272.741 308.808 281.99 314.152C291.5 319.495 292.542 323.926 285.117 326.793Z" fill="black"/>
    <path d="M251.507 314.282C251.507 314.282 250.856 316.888 251.377 318.061C251.898 319.104 254.373 320.016 256.197 319.104C258.151 318.192 258.933 316.107 259.714 315.585C260.496 315.064 264.534 314.543 267.661 311.936C270.787 309.33 270.396 306.462 267.27 306.332C264.143 306.332 258.542 307.635 256.588 309.069C254.634 310.372 251.507 314.282 251.507 314.282Z" fill="#29CE44"/>
    <path d="M252.94 317.149C255.154 317.67 258.02 315.715 259.323 314.542C260.626 313.5 262.97 314.021 265.967 311.675C268.963 309.329 270.005 307.635 268.702 306.853C267.4 306.071 262.319 306.332 258.541 308.417C254.633 310.502 252.028 312.066 252.028 312.066C252.028 312.066 251.116 314.933 251.507 315.585C251.897 316.106 251.767 316.888 252.94 317.149Z" fill="#29CE44"/>
    <path d="M252.94 250.943C252.94 250.943 251.246 257.981 252.419 266.974C253.461 275.966 251.767 293.951 251.376 300.337C250.986 306.723 248.771 314.543 252.028 316.107C253.852 317.019 257.239 316.498 259.844 313.5C262.449 310.503 262.971 307.635 262.71 306.984C262.449 306.462 261.928 303.986 262.971 298.773C264.013 293.56 266.097 280.658 265.837 276.487C265.706 272.317 264.143 252.768 264.143 252.768L252.94 250.943Z" fill="url(#paint14_linear_7145_13470)"/>
    <path d="M265.836 276.618C265.966 280.788 264.012 293.56 262.97 298.903C261.928 304.116 262.449 306.593 262.71 307.114C262.97 307.635 262.449 310.633 259.844 313.63C258.802 314.803 257.759 315.585 256.587 316.106C257.759 314.021 259.323 309.59 259.323 302.422C259.323 291.605 261.537 277.66 261.928 270.101C262.058 265.67 261.016 257.329 261.016 251.986L264.143 252.898C264.143 252.768 265.576 272.447 265.836 276.618Z" fill="url(#paint15_linear_7145_13470)"/>
    <path d="M268.051 323.666C268.051 323.666 266.879 327.054 268.312 327.836C269.745 328.618 271.959 329.009 273.653 328.227C275.477 327.445 276.128 326.663 278.082 326.663C279.906 326.663 287.331 323.014 288.764 321.32C290.197 319.495 288.764 317.54 285.247 317.801C281.73 318.061 276.649 318.452 275.868 318.843C274.825 318.843 268.051 323.666 268.051 323.666Z" fill="#29CE44"/>
    <path d="M269.615 326.141C272.871 326.532 273.914 325.62 277.04 324.968C280.036 324.317 288.765 320.798 288.634 318.843C288.504 316.888 286.55 317.279 284.856 317.409C283.163 317.54 277.822 317.931 277.431 317.931C277.04 317.931 268.312 321.841 268.312 321.841C268.312 321.841 267.661 324.708 268.312 325.099C268.963 325.49 268.703 326.011 269.615 326.141Z" fill="#29CE44"/>
    <path d="M263.231 253.289C263.231 253.289 261.277 257.59 263.1 264.888C264.924 272.187 267.139 280.919 267.269 290.172C267.399 299.425 266.227 323.405 267.66 324.839C269.093 326.142 274.043 326.663 276.128 325.099C279.384 322.753 281.208 319.235 280.817 318.062C280.557 316.889 277.951 312.588 278.863 308.808C279.775 305.029 282.641 291.996 282.12 283.134C281.599 274.272 280.036 251.074 280.036 251.074L263.231 253.289Z" fill="url(#paint16_linear_7145_13470)"/>
    <path d="M271.307 179.785C273.392 180.828 275.476 182.522 275.606 187.735C275.737 192.948 275.737 195.555 274.695 196.206C273.652 196.858 272.871 196.206 272.61 197.64C272.35 199.074 272.871 201.55 272.871 201.55L261.407 198.943C261.407 198.943 262.189 197.119 261.407 195.164C260.625 193.339 257.368 189.56 259.844 184.216C262.449 179.003 268.832 178.612 271.307 179.785Z" fill="#F4ACC8"/>
    <path d="M275.607 184.347C275.607 185.389 275.086 186.953 273.653 187.083C272.22 187.214 271.568 188.908 271.829 189.69C272.089 190.472 271.959 190.732 271.959 190.732C271.959 190.732 270.917 190.342 270.396 191.123C269.875 191.905 270.526 193.73 270.917 194.382C271.177 195.033 268.833 197.119 266.879 197.379C264.924 197.509 262.319 197.379 261.537 196.337C260.756 195.294 257.629 192.036 258.671 186.692C259.714 181.349 264.664 178.091 269.223 179.003C273.913 179.785 275.607 182.913 275.607 184.347Z" fill="#9A00D0"/>
    <path d="M274.695 204.547C274.695 204.547 273.392 200.246 270.917 199.725C268.312 199.204 266.097 199.464 264.404 198.682C262.71 197.9 261.798 196.467 261.798 196.467C261.798 196.467 259.844 196.988 261.277 198.813C262.58 200.637 274.695 204.547 274.695 204.547Z" fill="#1EC9BF"/>
    <path d="M274.043 251.725L280.035 250.943C280.035 250.943 281.468 274.141 282.12 283.004C282.641 291.866 279.775 304.899 278.863 308.678C277.951 312.457 280.557 316.758 280.817 317.931C281.078 318.974 279.645 321.971 276.909 324.317C277.3 319.365 276.909 314.152 276.648 310.633C276.258 306.593 279.384 291.736 278.472 282.873C277.821 275.184 274.825 256.547 274.043 251.725Z" fill="url(#paint17_linear_7145_13470)"/>
    <path d="M265.186 200.507C262.841 199.725 260.366 198.292 260.366 198.292C260.366 198.292 256.718 198.291 254.634 198.552C252.549 198.813 249.293 200.768 249.553 204.808C249.814 208.718 250.595 213.8 251.898 219.274C253.201 224.748 253.201 228.788 252.159 234.262C251.116 239.735 247.729 251.856 247.99 253.159C248.25 254.462 251.247 259.154 258.151 261.5C265.055 263.976 276.519 264.497 281.079 259.154C285.247 254.332 279.906 244.818 279.516 230.743C279.255 221.881 282.512 214.061 278.734 209.5C274.956 204.938 270.657 202.071 268.312 201.419C265.707 200.768 265.186 200.507 265.186 200.507Z" fill="#83E6E0"/>
    <path d="M275.086 204.807C274.044 203.374 271.829 201.289 269.745 201.028C267.661 200.767 263.753 199.985 262.45 198.943C260.887 197.77 260.756 196.857 260.756 196.857L257.63 198.03C257.63 198.03 257.63 201.028 261.929 202.331C266.228 203.634 271.829 204.025 274.565 206.111C277.301 208.196 278.604 209.499 278.604 209.499L275.086 204.807Z" fill="#1EC9BF"/>
    <path d="M257.89 198.031C258.021 198.682 258.412 201.028 262.189 202.201C266.488 203.504 272.09 203.895 274.826 205.981C275.868 206.763 276.65 207.414 277.301 207.936L278.604 209.63C278.604 209.63 277.301 208.327 274.565 206.241C271.829 204.156 266.228 203.765 261.929 202.462C257.63 201.159 257.63 198.161 257.63 198.161L257.89 198.031Z" fill="#1EC9BF"/>
    <path d="M270.135 212.627C273.132 208.196 277.3 211.715 280.427 214.712C280.427 217.71 279.254 225.138 279.385 230.612C279.775 244.687 285.117 254.331 280.948 259.023C278.733 261.63 274.955 262.803 270.787 263.063C271.177 260.978 271.438 258.632 271.568 255.895C271.959 248.206 269.614 243.905 268.702 233.609C267.79 223.444 266.357 218.361 270.135 212.627Z" fill="#83E6E0"/>
    <path d="M258.671 186.953C259.583 187.735 261.276 188.647 264.012 189.168C266.878 189.689 269.744 189.299 271.828 188.777C271.698 189.038 271.698 189.429 271.828 189.689C272.089 190.471 271.959 190.732 271.959 190.732C271.959 190.732 270.916 190.341 270.395 191.123C269.874 191.905 270.526 193.73 270.916 194.381C271.177 195.033 268.832 197.118 266.878 197.379C264.924 197.509 262.319 197.379 261.537 196.336C260.755 195.294 257.759 192.035 258.671 186.953Z" fill="#9A00D0"/>
    <path d="M308.306 220.316C310.129 218.752 311.432 217.579 312.344 216.406C313.386 215.233 314.559 214.191 315.08 214.712C316.122 215.755 311.823 220.577 311.823 220.577L308.306 220.316Z" fill="#F4ACC8"/>
    <path d="M306.873 227.093C306.873 227.093 312.214 227.354 315.08 227.093C316.643 226.963 317.685 226.702 319.9 224.617C320.942 223.705 321.593 222.923 321.203 222.271C321.072 222.01 320.551 222.662 320.551 222.662C320.551 222.662 321.724 221.489 321.333 220.707C320.942 219.925 320.421 220.837 320.421 220.837C320.421 220.837 321.724 219.534 321.333 218.752C320.942 217.97 320.291 219.013 320.291 219.013C320.291 219.013 321.333 217.84 321.072 217.188C320.812 216.537 320.421 216.667 319.639 217.188C318.597 217.84 316.383 219.404 314.168 219.664C311.823 219.925 310.13 218.883 308.697 220.055C307.264 221.228 304.658 221.228 304.658 221.228L306.873 227.093Z" fill="#F4ACC8"/>
    <path d="M272.612 209.499C269.094 211.324 268.313 215.494 270.527 218.752C272.742 222.01 284.206 230.351 288.374 231.264C292.543 232.176 309.218 228.657 309.218 228.657C309.218 228.657 309.739 225.399 309.348 223.314C308.957 221.228 307.655 220.577 307.655 220.577C307.655 220.577 296.712 222.662 292.934 221.75C289.156 220.837 285.248 216.015 281.731 213.148C277.953 209.76 275.999 207.674 272.612 209.499Z" fill="#1EC9BF"/>
    <path d="M140.657 250.959L128.218 245.566C127.388 245.151 126.283 245.151 125.315 245.29L110.665 248.193C108.73 248.608 106.933 247.779 106.519 246.811V247.226C106.519 247.364 106.519 247.502 106.519 247.64V247.779C106.795 248.746 108.73 249.576 110.665 249.161L125.315 246.258C126.283 246.119 127.388 246.119 128.218 246.534L140.657 251.927C142.73 252.895 145.632 251.927 145.632 250.406V249.576C145.494 251.097 142.592 251.927 140.657 250.959Z" fill="#655111"/>
    <path d="M111.632 237.409C111.908 236.855 111.77 236.302 111.079 235.888L101.819 228.698C101.404 228.283 101.128 227.868 101.128 227.453V228.421C101.128 228.836 101.266 229.251 101.819 229.665L111.079 236.855C111.356 236.994 111.494 237.132 111.632 237.409Z" fill="#655111"/>
    <path d="M159.315 233.952L146.738 239.068C145.908 239.344 145.356 240.036 145.494 240.589V241.418C145.494 240.865 146.047 240.312 146.738 240.036L159.315 234.92C160.282 234.505 160.697 233.813 160.559 233.26V232.292C160.697 232.984 160.282 233.537 159.315 233.952Z" fill="url(#paint18_linear_7145_13470)"/>
    <path d="M160.558 232.431V227.868L152.404 229.804L143.558 228.144C142.591 228.006 141.762 227.453 141.485 226.9L136.786 218.327C135.957 216.945 132.778 216.53 131.258 217.774L122.412 225.103C121.859 225.656 120.892 225.932 119.786 225.794L104.306 225.656C104.306 225.656 104.306 225.656 104.168 225.656L100.989 222.475V227.315C100.989 227.73 101.127 228.144 101.68 228.559L110.94 235.749C111.493 236.164 111.77 236.855 111.355 237.409L108.591 242.11L106.241 241.695V246.12C106.241 246.258 106.241 246.396 106.241 246.534V246.673C106.518 247.641 108.453 248.47 110.388 248.055L125.038 245.152C126.005 245.013 127.111 245.013 127.94 245.428L140.379 250.821C142.453 251.65 145.355 250.821 145.355 249.3L145.079 240.312C145.079 239.759 145.493 239.206 146.323 238.791L158.9 233.675C160.282 233.675 160.696 232.984 160.558 232.431Z" fill="url(#paint19_linear_7145_13470)"/>
    <path d="M143.558 223.443L158.347 226.071C160.835 226.485 161.387 228.421 159.176 229.251L146.599 234.367C145.77 234.643 145.217 235.335 145.355 235.888L145.631 244.875C145.631 246.396 142.729 247.226 140.656 246.396L128.217 241.004C127.388 240.589 126.282 240.589 125.314 240.727L110.664 243.631C108.176 244.046 105.827 242.801 106.656 241.28L111.631 232.846C111.908 232.293 111.77 231.601 111.217 231.186L101.818 223.996C100.298 222.752 101.818 221.093 104.306 221.093L119.786 221.231C120.753 221.231 121.721 220.955 122.412 220.54L131.257 213.211C132.778 211.967 135.957 212.244 136.786 213.765L141.485 222.337C141.762 222.89 142.591 223.305 143.558 223.443Z" fill="#655111"/>
    <path d="M159.314 228.698L146.737 233.814C145.907 234.09 145.355 234.782 145.493 235.335V236.303C145.493 235.75 146.046 235.196 146.737 234.92L159.314 229.804C160.558 229.251 160.834 228.56 160.42 227.868C160.143 228.145 159.867 228.421 159.314 228.698Z" fill="#A38B3E"/>
    <path d="M140.656 245.705L128.217 240.312C127.388 239.898 126.282 239.898 125.315 240.036L110.664 242.939C108.867 243.216 107.209 242.663 106.656 241.695C105.827 243.078 108.176 244.46 110.664 243.907L125.315 241.004C126.282 240.865 127.388 240.865 128.217 241.28L140.656 246.673C142.729 247.502 145.632 246.673 145.632 245.152V244.184C145.493 245.843 142.591 246.534 140.656 245.705Z" fill="#A38B3E"/>
    <path d="M140.656 244.599L128.217 239.206C127.387 238.792 126.282 238.792 125.314 238.93L110.664 241.834C108.729 242.248 106.932 241.419 106.518 240.451V240.866C106.518 241.004 106.518 241.142 106.518 241.28V241.419C106.794 242.387 108.729 243.216 110.664 242.801L125.314 239.898C126.282 239.759 127.387 239.759 128.217 240.174L140.656 245.567C142.729 246.535 145.631 245.567 145.631 244.046V243.216C145.493 244.599 142.591 245.429 140.656 244.599Z" fill="url(#paint20_linear_7145_13470)"/>
    <path d="M159.314 227.592L146.737 232.708C145.907 232.984 145.355 233.676 145.493 234.229V235.058C145.493 234.505 146.046 233.952 146.737 233.676L159.314 228.56C160.281 228.145 160.696 227.454 160.558 226.901V225.933C160.696 226.486 160.281 227.177 159.314 227.592Z" fill="url(#paint21_linear_7145_13470)"/>
    <path d="M160.558 225.933V221.37L152.404 223.306L143.558 221.646C142.591 221.508 141.762 220.955 141.485 220.402L136.786 211.829C135.957 210.447 132.778 210.032 131.258 211.276L122.412 218.605C121.859 219.158 120.892 219.434 119.786 219.296L104.306 219.158C104.306 219.158 104.306 219.158 104.168 219.158L100.989 215.977V220.817C100.989 221.232 101.127 221.646 101.68 222.061L110.94 229.251C111.493 229.666 111.77 230.357 111.355 230.911L108.591 235.612L106.241 235.197V239.622C106.241 239.76 106.241 239.898 106.241 240.036V240.175C106.518 241.142 108.453 241.972 110.388 241.557L125.038 238.654C126.005 238.515 127.111 238.515 127.94 238.93L140.379 244.323C142.453 245.291 145.355 244.323 145.355 242.802L145.079 233.814C145.079 233.261 145.493 232.708 146.323 232.293L158.9 227.177C160.282 227.177 160.696 226.624 160.558 225.933Z" fill="url(#paint22_linear_7145_13470)"/>
    <path d="M159.314 222.2L146.737 227.316C145.907 227.592 145.355 228.284 145.493 228.837V229.805C145.493 229.251 146.046 228.698 146.737 228.422L159.314 223.306C160.558 222.753 160.834 222.061 160.42 221.37C160.143 221.647 159.867 222.061 159.314 222.2Z" fill="#A38B3E"/>
    <path d="M140.657 237.962L128.218 232.569C127.388 232.154 126.283 232.154 125.315 232.293L110.665 235.196C108.73 235.611 106.933 234.782 106.519 233.814V234.228C106.519 234.367 106.519 234.505 106.519 234.643V234.782C106.795 235.749 108.73 236.579 110.665 236.164L125.315 233.261C126.283 233.122 127.388 233.122 128.218 233.537L140.657 238.93C142.73 239.897 145.632 238.93 145.632 237.409V236.579C145.494 238.1 142.592 238.93 140.657 237.962Z" fill="url(#paint23_linear_7145_13470)"/>
    <path d="M111.632 224.411C111.908 223.858 111.77 223.305 111.079 222.89L101.819 215.7C101.404 215.286 101.128 214.871 101.128 214.456V215.424C101.128 215.839 101.266 216.254 101.819 216.668L111.079 223.858C111.356 223.997 111.494 224.135 111.632 224.411Z" fill="#655111"/>
    <path d="M159.315 220.955L146.738 226.071C145.908 226.347 145.356 227.039 145.494 227.592V228.421C145.494 227.868 146.047 227.315 146.738 227.039L159.315 221.923C160.282 221.508 160.697 220.816 160.559 220.263V219.295C160.697 219.987 160.282 220.54 159.315 220.955Z" fill="url(#paint24_linear_7145_13470)"/>
    <path d="M160.558 219.434V214.871L152.404 216.807L143.558 215.147C142.591 215.009 141.762 214.456 141.485 213.903L136.786 205.33C135.957 203.948 132.778 203.533 131.258 204.777L122.412 212.105C121.859 212.659 120.892 212.935 119.786 212.797L104.306 212.659C104.306 212.659 104.306 212.659 104.168 212.659L100.989 209.478V214.318C100.989 214.733 101.127 215.147 101.68 215.562L110.94 222.752C111.493 223.167 111.77 223.858 111.355 224.411L108.591 229.113L106.241 228.698V233.122C106.241 233.261 106.241 233.399 106.241 233.537V233.676C106.518 234.643 108.453 235.473 110.388 235.058L125.038 232.155C126.005 232.016 127.111 232.016 127.94 232.431L140.379 237.824C142.453 238.792 145.355 237.824 145.355 236.303L145.079 227.315C145.079 226.762 145.493 226.209 146.323 225.794L158.9 220.678C160.282 220.678 160.696 219.987 160.558 219.434Z" fill="url(#paint25_linear_7145_13470)"/>
    <path d="M143.559 210.446L158.347 213.073C160.835 213.488 161.388 215.424 159.177 216.254L146.599 221.37C145.77 221.646 145.217 222.338 145.355 222.891L145.632 231.878C145.632 233.399 142.729 234.229 140.656 233.399L128.217 228.007C127.388 227.592 126.282 227.592 125.315 227.73L110.664 230.634C108.177 231.049 105.827 229.804 106.656 228.283L111.632 219.849C111.908 219.296 111.77 218.604 111.217 218.189L101.957 210.999C100.437 209.755 101.957 208.096 104.445 208.096L119.925 208.234C120.892 208.234 121.86 207.957 122.551 207.543L131.396 200.214C132.916 198.97 136.095 199.246 136.925 200.767L141.624 209.34C141.762 209.893 142.591 210.308 143.559 210.446Z" fill="url(#paint26_linear_7145_13470)"/>
    <path d="M159.314 215.701L146.737 220.817C145.907 221.093 145.355 221.785 145.493 222.338V223.306C145.493 222.752 146.046 222.199 146.737 221.923L159.314 216.807C160.558 216.254 160.834 215.562 160.42 214.871C160.143 215.148 159.867 215.424 159.314 215.701Z" fill="#A38B3E"/>
    <path d="M140.656 232.708L128.217 227.315C127.388 226.9 126.282 226.9 125.315 227.039L110.664 229.942C108.867 230.219 107.209 229.666 106.656 228.698C105.827 230.081 108.176 231.463 110.664 230.91L125.315 228.145C126.282 228.007 127.388 228.007 128.217 228.421L140.656 233.814C142.729 234.644 145.632 233.814 145.632 232.293V231.325C145.493 232.708 142.591 233.537 140.656 232.708Z" fill="#A38B3E"/>
    <path d="M111.632 217.913C111.908 217.36 111.77 216.807 111.079 216.392L101.819 209.202C101.404 208.787 101.128 208.372 101.128 207.958V208.925C101.128 209.34 101.266 209.755 101.819 210.17L111.079 217.36C111.356 217.498 111.494 217.775 111.632 217.913Z" fill="#655111"/>
    <path d="M159.315 214.594L146.738 219.71C145.908 219.987 145.356 220.678 145.494 221.231V222.061C145.494 221.508 146.047 220.955 146.738 220.678L159.315 215.562C160.282 215.147 160.697 214.456 160.559 213.903V212.935C160.697 213.488 160.282 214.179 159.315 214.594Z" fill="url(#paint27_linear_7145_13470)"/>
    <path d="M160.558 212.935V208.372L152.404 210.308L143.558 208.649C142.591 208.511 141.762 207.958 141.485 207.404L136.786 198.832C135.957 197.449 132.778 197.034 131.258 198.279L122.412 205.607C121.859 206.16 120.892 206.437 119.786 206.298L104.306 206.16C104.306 206.16 104.306 206.16 104.168 206.16L100.989 202.98V207.819C100.989 208.234 101.127 208.649 101.68 209.064L110.94 216.254C111.493 216.669 111.77 217.36 111.355 217.913L108.591 222.614L106.241 222.199V226.624C106.241 226.762 106.241 226.9 106.241 227.039V227.177C106.518 228.145 108.453 228.975 110.388 228.56L125.038 225.656C126.005 225.518 127.111 225.518 127.94 225.933L140.379 231.325C142.453 232.293 145.355 231.325 145.355 229.804L145.079 220.817C145.079 220.264 145.493 219.71 146.323 219.296L158.9 214.18C160.282 214.18 160.696 213.627 160.558 212.935Z" fill="url(#paint28_linear_7145_13470)"/>
    <path d="M143.559 204.086L158.347 206.713C160.835 207.128 161.388 209.064 159.177 209.893L146.599 215.009C145.77 215.286 145.217 215.977 145.355 216.53L145.632 225.518C145.632 227.039 142.729 227.868 140.656 227.039L128.217 221.646C127.388 221.231 126.282 221.231 125.315 221.37L110.664 224.273C108.177 224.688 105.827 223.444 106.656 221.923L111.632 213.488C111.908 212.935 111.77 212.244 111.217 211.829L101.957 204.639C100.437 203.395 101.957 201.735 104.445 201.735L119.786 201.874C120.754 201.874 121.721 201.597 122.412 201.182L131.258 193.854C132.778 192.61 135.957 192.886 136.786 194.407L141.486 202.98C141.762 203.395 142.591 203.809 143.559 204.086Z" fill="url(#paint29_linear_7145_13470)"/>
    <path d="M111.632 212.659C111.908 212.106 111.77 211.414 111.217 210.999L101.957 203.809C101.681 203.671 101.543 203.533 101.543 203.256C101.266 203.809 101.404 204.363 101.957 204.916L111.217 212.106C111.356 212.382 111.494 212.52 111.632 212.659Z" fill="#655111"/>
    <path d="M159.315 209.202L146.738 214.318C145.908 214.595 145.356 215.286 145.494 215.839V216.807C145.494 216.254 146.047 215.701 146.738 215.424L159.315 210.308C160.559 209.755 160.835 209.064 160.421 208.373C160.144 208.649 159.868 208.926 159.315 209.202Z" fill="url(#paint30_linear_7145_13470)"/>
    <path d="M140.656 226.209L128.217 220.817C127.388 220.402 126.282 220.402 125.315 220.54L110.664 223.444C108.867 223.72 107.209 223.167 106.656 222.199C105.827 223.582 108.176 224.965 110.664 224.412L125.315 221.508C126.282 221.37 127.388 221.37 128.217 221.785L140.656 227.177C142.729 228.007 145.632 227.177 145.632 225.656V224.688C145.493 226.348 142.591 227.177 140.656 226.209Z" fill="url(#paint31_linear_7145_13470)"/>
    <path d="M76.388 198.141C76.388 199.938 74.8677 201.459 73.071 201.459C71.2742 201.459 69.7539 199.938 69.7539 198.141C69.7539 196.343 71.136 192.748 73.071 189.568C73.762 193.578 76.388 196.343 76.388 198.141Z" fill="url(#paint32_linear_7145_13470)"/>
    <path d="M74.3149 172.837C73.9003 172.008 71.8271 172.284 70.445 171.455C69.0629 170.625 66.7133 168.274 66.7133 168.274C66.7133 168.274 68.6483 168.413 69.754 168.551C70.8597 168.689 72.38 169.38 72.2418 168.413C72.1036 167.306 68.2336 166.2 66.9897 165.785C65.6076 165.371 61.5995 165.509 60.3556 165.371C59.1117 165.232 54.9654 162.19 52.8922 161.223C49.8516 159.84 43.3556 156.66 41.2825 155.139C39.3475 153.756 37.689 147.257 37.689 147.257L27.876 150.023C27.876 150.023 29.8109 154.724 31.8841 159.149C33.9573 163.573 38.1036 162.744 40.7296 164.541C44.7377 167.168 54.2743 170.487 56.2093 170.763C57.0385 170.901 60.4938 173.943 61.5995 174.911C62.8434 175.879 65.8841 176.985 68.5101 176.847C70.0304 176.847 71.2743 176.571 73.071 175.326C74.1767 174.358 74.7296 173.529 74.3149 172.837Z" fill="url(#paint33_radial_7145_13470)"/>
    <path d="M74.1767 172.561C74.0385 172.699 73.7621 172.975 73.4857 173.114C71.6889 174.358 70.445 174.496 68.9247 174.635C66.2987 174.773 63.258 173.667 62.0141 172.699C60.7702 171.731 57.4532 168.551 56.6239 168.551C54.6889 168.412 45.2906 164.956 41.1443 162.329C38.38 160.531 35.8922 160.808 33.8191 156.383C32.5752 153.618 31.3313 150.852 30.6402 149.055L27.876 149.884C27.876 149.884 29.8109 154.585 31.8841 159.01C33.9573 163.435 38.1036 162.605 40.7296 164.403C44.7377 167.03 54.2743 170.348 56.2093 170.625C57.0385 170.763 60.4938 173.805 61.5995 174.773C62.8434 175.741 65.8841 176.847 68.5101 176.709C70.0304 176.709 71.2743 176.432 73.071 175.188C74.1767 174.358 74.7296 173.528 74.3149 172.837C74.3149 172.699 74.1767 172.561 74.1767 172.561Z" fill="url(#paint34_radial_7145_13470)"/>
    <path d="M38.7949 146.98C37.8274 144.353 36.9981 141.588 36.4453 140.482C34.3721 135.642 31.7461 128.591 24.5591 130.941C21.5185 131.909 21.3803 137.855 23.177 142.141C24.1445 144.353 26.3559 149.054 27.5998 152.096L38.7949 146.98Z" fill="#1EC9BF"/>
    <path opacity="0.1" d="M7.00606 264.095C19.4451 269.349 25.6646 265.201 35.0629 259.809C44.4613 254.416 45.567 249.024 38.2418 245.705C24.6971 239.345 16.9573 245.705 7.5589 251.236C-1.97767 256.49 -0.457344 260.915 7.00606 264.095Z" fill="black"/>
    <path d="M21.5177 241.834L20.6885 246.95C20.6885 246.95 23.1763 248.471 24.4202 248.747C25.5259 249.162 27.4608 248.332 28.4283 249.577C29.3958 250.821 33.2657 253.863 36.4445 254.555C39.8998 255.246 42.3876 254.14 42.3876 253.172C42.3876 252.204 41.5584 250.545 38.3795 248.471C35.2006 246.397 32.5746 241.419 32.5746 241.419L21.5177 241.834Z" fill="#29CE44"/>
    <path d="M21.2417 245.014C21.6564 245.567 27.4612 246.95 28.4287 248.194C29.5344 249.577 34.9246 252.895 37.6889 253.448C40.1767 253.863 42.1116 252.619 41.8352 251.651C41.5588 250.268 39.2092 249.024 37.136 247.503C35.0628 245.982 32.9897 242.387 32.9897 242.387L21.1035 241.557L21.2417 245.014Z" fill="#29CE44"/>
    <path d="M4.51809 251.098L4.37988 255.799L6.59126 258.011L7.28232 257.735C7.28232 257.735 8.66443 261.191 12.8108 263.957C16.4043 266.307 20.6888 265.754 21.7945 264.925C22.9002 264.095 22.9002 263.265 20.2742 259.809C17.6482 256.214 13.7782 251.098 13.7782 251.098H4.51809Z" fill="#29CE44"/>
    <path d="M4.79446 253.863C4.79446 253.863 8.66437 257.458 9.90827 259.532C11.8432 262.712 17.2335 265.063 20.6887 263.957C24.144 262.851 19.4448 259.117 18.4774 257.596C17.5099 256.075 14.8839 252.066 14.8839 252.066L4.65625 251.927L4.79446 253.863Z" fill="#29CE44"/>
    <path d="M33.4046 183.207C33.4046 183.207 34.5103 205.883 34.3721 211.414C34.2339 216.807 31.055 231.048 31.6079 233.675C32.1607 236.303 33.4046 238.377 33.681 240.036C33.9575 241.557 34.5103 243.769 34.5103 243.769C34.5103 243.769 31.055 246.949 27.1851 246.535C23.3152 246.12 21.242 245.29 20.9656 244.461C20.551 243.493 21.5184 218.742 21.5184 218.742L20.9656 186.664L33.4046 183.207Z" fill="url(#paint35_linear_7145_13470)"/>
    <path d="M24.1439 239.483C23.5911 233.123 25.3878 225.241 27.461 216.807C29.1195 209.617 28.2903 192.195 27.8756 186.802L21.2415 188.6L21.6561 218.743C21.6561 218.743 20.6887 243.493 21.1033 244.461C21.3797 245.429 23.3147 246.12 26.77 246.535C25.5261 244.184 24.2822 241.419 24.1439 239.483Z" fill="url(#paint36_linear_7145_13470)"/>
    <path d="M22.7616 184.728C22.7616 184.728 21.2413 202.842 20.8267 210.861C20.412 218.881 18.4771 230.081 17.3714 234.229C16.4039 238.377 15.16 244.323 15.4364 247.226C15.7128 250.13 17.095 252.481 15.2982 253.725C13.5015 254.969 7.6966 255.661 6.31449 254.969C4.93238 254.278 3.68848 254.416 3.68848 251.651C3.68848 248.747 4.10311 232.708 5.2088 226.348C6.31449 219.987 4.51774 197.449 4.51774 194.546C4.37953 187.77 7.00554 184.037 7.00554 184.037L22.7616 184.728Z" fill="url(#paint37_linear_7145_13470)"/>
    <path d="M7.14376 184.037C7.14376 184.037 4.51774 187.77 4.65595 194.546C4.65595 197.449 6.4527 219.849 5.34701 226.348C4.10311 232.708 3.68848 248.747 3.68848 251.651C3.68848 254.555 4.93238 254.278 6.31449 255.108C6.86733 255.384 8.11123 255.384 9.49335 255.384C8.38766 253.448 7.14376 250.545 6.86733 246.12C6.17628 236.994 9.49335 226.762 9.07871 218.466C8.66408 211.138 8.38766 194.546 9.63156 184.59L7.14376 184.037Z" fill="url(#paint38_linear_7145_13470)"/>
    <path d="M34.5107 174.634C32.5758 166.753 34.9254 156.936 34.649 154.723C34.5107 152.511 35.2018 143.8 34.649 139.79C34.0961 135.366 32.9904 133.015 31.0555 131.356C28.4295 128.867 24.836 129.42 24.836 129.42C24.836 129.42 17.9254 129.558 17.0961 130.25C17.3726 129.835 13.7791 131.632 12.6734 132.462C10.6002 134.259 8.80347 135.78 7.55957 137.025C5.76283 138.961 4.38071 139.79 3.41324 142.97C2.44576 146.151 3.27502 151.405 4.10429 154.309C4.93356 157.212 7.42136 164.402 7.14494 167.029C6.86851 169.657 4.38071 188.185 4.10429 190.12C3.82787 192.333 6.7303 194.407 14.0555 194.822C29.8116 195.651 34.649 187.632 34.649 187.632C34.649 187.632 35.4782 178.782 34.5107 174.634Z" fill="#83E6E0"/>
    <path d="M11.8441 185.834C11.9823 180.027 15.714 172.699 17.5108 168.274C19.3075 163.849 16.9579 150.714 14.1937 144.906C12.2588 140.758 6.86851 141.588 3.41324 142.832C2.44576 146.013 3.27502 151.267 4.10429 154.032C4.93356 156.936 7.42136 164.126 7.14494 166.753C6.86851 169.38 4.38071 187.908 4.10429 189.844C3.82787 191.918 6.59209 193.992 13.3644 194.545C12.5352 192.471 11.7059 189.153 11.8441 185.834Z" fill="#83E6E0"/>
    <path d="M25.5256 137.302C25.5256 137.302 26.7695 140.344 27.1841 143.386C27.5988 146.289 28.1516 150.99 28.1516 150.99L26.9077 151.405C26.9077 151.405 26.7695 146.704 25.9402 143.524C25.111 140.344 24.4199 137.855 24.4199 137.855L25.5256 137.302Z" fill="#1EC9BF"/>
    <path d="M25.9409 130.526L18.8921 129.005C16.6807 129.558 14.0547 129.558 14.4694 133.015C15.9897 135.642 17.9246 138.684 19.1685 139.929C21.3799 142.141 23.0384 144.215 23.0384 144.215L25.1116 136.887L28.5669 141.588C28.5669 141.588 28.7051 137.44 28.4287 136.057C28.1523 135.228 27.0466 132.739 25.9409 130.526Z" fill="#D1D3D4"/>
    <path d="M25.9409 130.526L18.8921 129.005C16.6807 129.558 14.0547 129.558 14.4694 133.015C15.9897 135.642 17.9246 138.684 19.1685 139.929C21.3799 142.141 22.9002 143.109 22.9002 143.109L25.1116 136.887L28.4287 140.62C28.4287 140.62 28.7051 137.44 28.4287 136.195C28.1523 135.228 27.0466 132.739 25.9409 130.526Z" fill="#1EC9BF"/>
    <path d="M16.5431 128.176L15.7139 130.112C15.7139 130.112 18.3399 134.536 20.413 135.781C22.4862 137.025 24.8358 138.408 25.5269 137.44C26.2179 136.472 26.909 133.707 26.909 133.707L16.5431 128.176Z" fill="url(#paint39_radial_7145_13470)"/>
    <path d="M16.4042 129.282H17.5098C17.5098 129.282 20.8269 133.154 22.9001 133.983C24.9732 134.813 26.9082 134.951 27.8757 133.568C28.7049 132.186 30.0871 123.475 29.396 120.018C28.7049 116.561 23.8676 110.063 16.6806 114.764C9.6318 119.465 14.6074 127.761 14.8838 128.038C15.1603 128.314 16.4042 129.282 16.4042 129.282Z" fill="url(#paint40_radial_7145_13470)"/>
    <path d="M14.8847 128.176C14.8847 128.176 13.9172 125.825 14.7465 125.134C14.8847 124.996 15.0229 124.996 15.1611 124.857C15.714 124.719 16.2668 124.857 16.5432 125.272L17.5107 126.378C17.5107 126.378 17.6489 125.272 18.2018 123.198C18.4782 121.815 20.2749 120.709 23.7302 120.986C25.527 121.124 27.8765 122.092 29.1205 121.124C30.3644 120.156 29.3969 117.944 28.7058 116.838C28.0148 115.731 22.0717 109.648 15.8522 114.072C9.63268 118.635 13.2262 126.517 14.8847 128.176Z" fill="url(#paint41_linear_7145_13470)"/>
    <path d="M68.3725 186.941L55.9335 181.548C55.1043 181.133 53.9986 181.133 53.0311 181.272L38.3807 184.175C36.4458 184.59 34.649 183.761 34.2344 182.793V183.207C34.2344 183.346 34.2344 183.484 34.2344 183.622V183.76C34.5108 184.728 36.4458 185.558 38.3807 185.143L53.0311 182.24C53.9986 182.101 55.1043 182.101 55.9335 182.516L68.3725 187.909C70.4457 188.876 73.3481 187.909 73.3481 186.388V185.558C73.3481 187.079 70.4457 187.77 68.3725 186.941Z" fill="url(#paint42_linear_7145_13470)"/>
    <path d="M39.4865 173.252C39.7629 172.699 39.6247 172.146 38.9336 171.731L29.6735 164.541C29.2588 164.126 28.9824 163.711 28.9824 163.296V164.264C28.9824 164.679 29.1206 165.094 29.6735 165.509L38.9336 172.699C39.21 172.837 39.3483 173.114 39.4865 173.252Z" fill="url(#paint43_linear_7145_13470)"/>
    <path d="M88.4128 168.412V163.849L80.2583 165.785L71.4128 164.126C70.4453 163.988 69.616 163.435 69.3396 162.882L64.6404 154.309C63.8112 152.926 60.6323 152.511 59.112 153.756L50.2665 161.084C49.7136 161.637 48.7462 161.914 47.6405 161.775H32.1608C32.1608 161.775 32.1608 161.775 32.0226 161.775L28.8438 158.595V163.435C28.8438 163.849 28.982 164.264 29.5348 164.679L38.795 171.869C39.3478 172.284 39.6242 172.975 39.2096 173.528L36.4454 178.229L34.0958 177.815V182.239C34.0958 182.378 34.0958 182.516 34.0958 182.654V182.792C34.3722 183.76 36.3072 184.59 38.2421 184.175L52.8925 181.271C53.86 181.133 54.9657 181.133 55.7949 181.548L68.2339 186.94C70.3071 187.908 73.2095 186.94 73.2095 185.419L72.9331 176.432C72.9331 175.879 73.3477 175.326 74.177 174.911L86.7542 169.795C88.1363 169.657 88.551 168.965 88.4128 168.412Z" fill="url(#paint44_linear_7145_13470)"/>
    <path d="M71.4132 159.425L86.2018 162.052C88.6896 162.467 89.2424 164.403 87.0311 165.232L74.4538 170.348C73.6246 170.625 73.0717 171.316 73.2099 171.869L73.4864 180.857C73.4864 182.378 70.5839 183.207 68.5108 182.378L56.0718 176.985C55.2425 176.57 54.1368 176.57 53.1693 176.709L38.5189 179.612C36.0311 180.027 33.6816 178.783 34.5108 177.262L39.4864 168.827C39.7628 168.274 39.6246 167.583 39.0718 167.168L29.8116 159.978C28.2913 158.733 29.8116 157.074 32.2994 157.074L47.7791 157.213C48.7466 157.213 49.714 156.936 50.4051 156.521L59.2506 149.193C60.7709 147.948 63.9498 148.225 64.7791 149.746L69.4782 158.319C69.6165 158.733 70.4457 159.287 71.4132 159.425Z" fill="url(#paint45_linear_7145_13470)"/>
    <path d="M39.4864 168.136C39.7628 167.583 39.6246 166.891 39.0718 166.477L29.8116 159.286C29.5352 159.148 29.397 159.01 29.397 158.733C29.1206 159.286 29.2588 159.84 29.8116 160.393L39.0718 167.583C39.21 167.721 39.3482 167.859 39.4864 168.136Z" fill="url(#paint46_linear_7145_13470)"/>
    <path d="M87.0308 164.679L74.4535 169.795C73.6243 170.072 73.0714 170.763 73.2096 171.316V172.284C73.2096 171.731 73.7625 171.178 74.4535 170.901L87.0308 165.785C88.2747 165.232 88.5511 164.541 88.1364 163.85C87.9982 163.988 87.7218 164.403 87.0308 164.679Z" fill="url(#paint47_linear_7145_13470)"/>
    <path d="M68.3728 181.686L55.9338 176.294C55.1045 175.879 53.9988 175.879 53.0313 176.017L38.381 178.921C36.5842 179.197 34.9257 178.644 34.3728 177.676C33.5436 179.059 35.8932 180.442 38.381 179.889L53.0313 176.985C53.9988 176.847 55.1045 176.847 55.9338 177.262L68.3728 182.654C70.446 183.484 73.3484 182.654 73.3484 181.133V180.165C73.2102 181.686 70.446 182.516 68.3728 181.686Z" fill="url(#paint48_linear_7145_13470)"/>
    <path d="M55.519 181.825C55.1044 180.995 53.0312 181.271 51.6491 180.442C50.267 179.612 47.9174 177.262 47.9174 177.262C47.9174 177.262 49.8524 177.4 50.9581 177.538C52.0638 177.676 53.5841 178.368 53.4459 177.4C53.3076 176.294 49.4377 175.188 48.1938 174.773C46.8117 174.358 42.8036 174.496 41.5597 174.358C40.3158 174.22 36.1695 171.178 34.0963 170.21C31.0557 168.827 24.5597 165.647 22.4866 164.126C20.5516 162.743 18.8931 156.245 18.8931 156.245L9.08008 159.01C9.08008 159.01 11.015 163.711 13.0882 168.136C15.1614 172.56 19.3077 171.731 21.9337 173.528C25.9418 176.155 35.4784 179.474 37.4134 179.75C38.2426 179.889 41.6979 182.931 42.8036 183.899C44.0475 184.866 47.0882 185.973 49.7142 185.834C51.2345 185.834 52.4784 185.558 54.2751 184.313C55.3808 183.345 55.7955 182.654 55.519 181.825Z" fill="url(#paint49_radial_7145_13470)"/>
    <path d="M55.2422 181.548C55.1039 181.686 54.8275 181.963 54.5511 182.101C52.7544 183.345 51.5105 183.484 49.9901 183.622C47.3641 183.76 44.3235 182.654 43.0796 181.686C41.8357 180.718 38.5186 177.538 37.6893 177.538C35.7544 177.4 26.356 173.943 22.2097 171.316C19.4455 169.518 16.9577 169.795 14.8845 165.37C13.6406 162.605 12.3967 159.839 11.7056 158.042L8.94141 158.872C8.94141 158.872 10.8764 163.573 12.9495 167.997C15.0227 172.422 19.169 171.592 21.795 173.39C25.8032 176.017 35.3397 179.336 37.2747 179.612C38.104 179.75 41.5592 182.792 42.6649 183.76C43.9088 184.728 46.9495 185.834 49.5755 185.696C51.0958 185.696 52.3397 185.419 54.1365 184.175C55.2422 183.345 55.795 182.516 55.3804 181.824C55.3804 181.686 55.3804 181.686 55.2422 181.548Z" fill="url(#paint50_radial_7145_13470)"/>
    <path d="M19.998 156.106C19.0305 153.479 18.2013 150.714 17.6484 149.608C15.5753 144.768 12.9492 137.717 5.76227 140.067C2.72162 141.035 2.58341 146.981 4.38016 151.267C5.34763 153.479 7.55901 158.18 8.80291 161.222L19.998 156.106Z" fill="#1EC9BF"/>
    <path d="M73.042 174.771C77.0501 173.112 72.9038 179.334 76.3591 178.504C79.9526 177.537 73.7331 172.974 77.7412 170.9C81.7493 168.826 76.7737 181.408 80.92 180.302C85.3428 179.057 78.9851 172.697 81.0582 171.591C83.9607 170.208 81.3347 176.016 83.9607 175.048C86.8631 173.942 82.1639 171.176 84.3753 170.347C86.7249 169.379 84.6517 176.983 87.416 176.292C89.0745 175.877 87.6924 174.08 87.5542 172.282C87.2777 170.208 87.416 168.272 87.416 168.272L79.9526 171.314L73.042 174.771Z" fill="url(#paint51_linear_7145_13470)"/>
    <path d="M72.7954 186.387C71.8279 187.908 71.5515 189.429 69.893 189.153C67.6816 188.738 69.7547 187.632 67.4052 186.526C63.397 184.728 68.5108 195.098 64.3645 193.992C59.9418 192.748 66.4377 186.249 64.2263 185.281C62.4296 184.59 64.0881 187.355 62.0149 186.664C60.3564 186.111 62.5678 184.452 61.0474 183.899C59.1125 183.207 60.2182 185.143 58.145 184.59C56.4865 184.037 57.7304 182.239 55.2426 180.857C52.7548 179.474 65.4702 184.866 65.4702 184.866L72.7954 186.387Z" fill="url(#paint52_linear_7145_13470)"/>
    <path d="M99.055 227.039H31.4697C31.4697 227.039 31.4697 272.114 31.4697 272.253C31.4697 283.176 46.5347 291.887 65.3315 291.887C83.99 291.887 99.1932 283.038 99.1932 272.253C99.055 272.114 99.055 227.039 99.055 227.039Z" fill="url(#paint53_linear_7145_13470)"/>
    <path d="M65.3315 289.675C46.673 289.675 31.4697 280.826 31.4697 270.041C31.4697 271.423 31.4697 272.253 31.4697 272.253C31.4697 283.176 46.5347 291.887 65.3315 291.887C83.99 291.887 99.1932 283.038 99.1932 272.253C99.1932 272.253 99.1932 271.423 99.1932 270.041C99.055 280.826 83.99 289.675 65.3315 289.675Z" fill="url(#paint54_linear_7145_13470)"/>
    <path d="M65.3315 288.983C46.673 288.983 31.4697 280.134 31.4697 269.349C31.4697 269.626 31.4697 269.764 31.4697 270.04C31.4697 280.964 46.5347 289.675 65.3315 289.675C83.99 289.675 99.1932 280.826 99.1932 270.04C99.1932 269.764 99.1932 269.626 99.1932 269.349C99.055 280.134 83.99 288.983 65.3315 288.983Z" fill="url(#paint55_linear_7145_13470)"/>
    <path d="M65.3315 247.917C46.673 247.917 31.4697 239.068 31.4697 228.283C31.4697 229.665 31.4697 230.495 31.4697 230.495C31.4697 241.418 46.5347 250.129 65.3315 250.129C83.99 250.129 99.1932 241.28 99.1932 230.495C99.1932 230.495 99.1932 229.665 99.1932 228.283C99.055 239.068 83.99 247.917 65.3315 247.917Z" fill="url(#paint56_linear_7145_13470)"/>
    <path d="M65.3315 246.811C84.0328 246.811 99.1932 238.02 99.1932 227.177C99.1932 216.333 84.0328 207.542 65.3315 207.542C46.6301 207.542 31.4697 216.333 31.4697 227.177C31.4697 238.02 46.6301 246.811 65.3315 246.811Z" fill="url(#paint57_linear_7145_13470)"/>
    <path d="M65.331 246.811C83.8513 246.811 98.7781 238.238 99.0545 227.453C99.0545 227.591 99.0545 227.73 99.0545 227.868C99.0545 238.791 83.9895 247.502 65.1928 247.502C46.5343 247.502 31.3311 238.653 31.3311 227.868C31.3311 227.73 31.3311 227.591 31.3311 227.453C31.8839 238.238 46.8107 246.811 65.331 246.811Z" fill="url(#paint58_radial_7145_13470)"/>
    <path d="M65.3317 242.525C79.3004 242.525 90.6244 235.901 90.6244 227.73C90.6244 219.559 79.3004 212.935 65.3317 212.935C51.363 212.935 40.0391 219.559 40.0391 227.73C40.0391 235.901 51.363 242.525 65.3317 242.525Z" fill="url(#paint59_linear_7145_13470)"/>
    <path d="M65.3313 245.013C82.277 245.013 96.0142 237.028 96.0142 227.177C96.0142 217.326 82.277 209.34 65.3313 209.34C48.3856 209.34 34.6484 217.326 34.6484 227.177C34.6484 237.028 48.3856 245.013 65.3313 245.013Z" fill="url(#paint60_linear_7145_13470)"/>
    <g opacity="0.3">
    <path d="M50.8185 228.836C51.0949 228.421 50.9567 227.868 50.4039 227.592L43.2169 221.923C42.8023 221.646 42.6641 221.369 42.8023 220.955L42.6641 220.816V222.89C42.6641 223.167 42.8023 223.582 43.2169 223.858L49.7128 228.974L50.8185 228.836Z" fill="#FFE585"/>
    <path d="M73.4848 239.483L63.81 235.335C63.1189 235.058 62.2897 234.92 61.5986 235.058L50.1271 237.27C48.4686 237.547 46.9482 236.856 46.9482 236.026V237.824C46.9482 237.962 46.9482 238.1 46.9482 238.1C47.2247 238.93 48.6068 239.483 50.1271 239.206L61.5986 236.994C62.2897 236.856 63.2572 236.856 63.81 237.27L73.4848 241.419C75.1433 242.11 77.3547 241.419 77.3547 240.312L77.2165 238.653C76.8019 239.621 74.8669 240.036 73.4848 239.483Z" fill="#FFE585"/>
    <path d="M87.9974 226.209L78.1844 230.219C77.4933 230.495 77.0787 230.91 77.2169 231.325L77.3551 232.984C77.4933 232.707 77.7698 232.431 78.3226 232.154L87.9974 228.144C88.8266 227.868 89.1031 227.315 88.9649 226.9V225.103C88.9649 225.517 88.5502 225.932 87.9974 226.209Z" fill="#FFE585"/>
    </g>
    <path d="M65.3313 211.276C49.0224 211.276 35.6159 218.742 34.7866 228.145C34.7866 227.868 34.6484 227.453 34.6484 227.177C34.6484 217.359 48.3313 209.34 65.3313 209.34C82.3313 209.34 96.0142 217.359 96.0142 227.177C96.0142 227.453 96.0142 227.868 95.876 228.145C95.0467 218.742 81.6402 211.276 65.3313 211.276Z" fill="url(#paint61_linear_7145_13470)"/>
    <path opacity="0.5" d="M75.8353 221.508L87.3068 223.582C89.2418 223.997 89.6564 225.379 87.9979 226.071L78.1849 230.081C77.4938 230.357 77.0792 230.772 77.2174 231.187L77.3556 238.1C77.3556 239.206 75.1442 239.898 73.4857 239.206L63.8109 235.058C63.1199 234.782 62.2906 234.644 61.5995 234.782L50.128 236.994C48.193 237.409 46.3963 236.303 47.0874 235.197L50.9573 228.56C51.2337 228.145 51.0955 227.592 50.5426 227.315L43.3557 221.646C42.1118 220.678 43.3557 219.434 45.2906 219.434L57.315 219.572C58.1443 219.572 58.8353 219.296 59.3882 219.019L66.2987 213.35C67.4044 212.382 70.0304 212.659 70.5833 213.765L74.1767 220.402C74.4532 221.093 75.006 221.37 75.8353 221.508Z" fill="url(#paint62_linear_7145_13470)"/>
    <path d="M45.4283 246.258C45.29 246.673 45.29 246.95 45.29 247.364C45.29 249.577 47.0868 251.374 49.2982 251.374C51.0949 251.374 52.7534 250.13 53.1681 248.471C50.4039 247.918 47.9161 247.226 45.4283 246.258Z" fill="#FA2598"/>
    <path d="M99.0547 266.031C99.0547 265.201 99.0547 264.233 99.0547 263.265C94.6319 271.838 85.7864 277.645 75.5588 277.645C61.0466 277.645 49.1604 265.754 49.1604 251.236C49.1604 250.821 48.884 250.544 48.4694 250.544C48.0547 250.544 47.7783 250.821 47.7783 251.236C47.7783 266.584 60.2173 279.028 75.5588 279.028C85.51 279.028 94.2173 273.774 99.0547 266.031Z" fill="#FB7DC1"/>
    <path d="M50.1285 249.438C50.1285 250.129 49.5756 250.821 48.7464 250.821C47.9171 250.821 47.3643 250.267 47.3643 249.438C47.3643 248.747 47.9171 248.055 48.7464 248.055C49.5756 248.055 50.1285 248.747 50.1285 249.438Z" fill="#FB7DC1"/>
    <path d="M75.6973 276.539V276.262C75.6973 275.294 76.5265 274.465 77.494 274.327C84.9574 273.773 91.7298 270.04 96.0143 263.956C96.5672 263.127 97.6728 262.988 98.5021 263.403L98.7785 263.542C99.746 264.095 100.022 265.339 99.3314 266.307C94.2176 273.359 86.4777 277.783 77.7704 278.475C76.6647 278.613 75.6973 277.645 75.6973 276.539Z" fill="#FA2598"/>
    <path opacity="0.2" d="M78.1846 277.369C78.0464 277.369 77.9082 277.231 77.9082 277.092V276.816C77.9082 276.677 78.0464 276.539 78.1846 276.539C86.2009 275.986 93.3878 271.976 97.9488 265.478C97.9488 265.339 98.087 265.339 98.087 265.339H98.2252L98.5017 265.478L98.6399 265.616C98.6399 265.616 98.6399 265.754 98.6399 265.892C93.8025 272.529 86.3391 276.677 78.1846 277.369Z" fill="white"/>
    </g>
    <defs>
    <linearGradient id="paint0_linear_7145_13470" x1="269.976" y1="319.44" x2="3.4776" y2="342.309" gradientUnits="userSpaceOnUse">
    <stop stop-color="#2C2E43" stop-opacity="0"/>
    <stop offset="0.632152" stop-color="#4F516A"/>
    <stop offset="1" stop-color="#2C2E43" stop-opacity="0"/>
    </linearGradient>
    <linearGradient id="paint1_linear_7145_13470" x1="277.623" y1="-0.0625" x2="277.623" y2="281.379" gradientUnits="userSpaceOnUse">
    <stop stop-color="#0D7681"/>
    <stop offset="1" stop-color="#0BE1F7" stop-opacity="0"/>
    </linearGradient>
    <linearGradient id="paint2_linear_7145_13470" x1="276.794" y1="0.76709" x2="276.794" y2="282.07" gradientUnits="userSpaceOnUse">
    <stop stop-color="#0BE1F7"/>
    <stop offset="1" stop-color="#0BE1F7" stop-opacity="0"/>
    </linearGradient>
    <linearGradient id="paint3_linear_7145_13470" x1="274.859" y1="3.05811" x2="274.859" y2="283.591" gradientUnits="userSpaceOnUse">
    <stop stop-color="#0BE1F7"/>
    <stop offset="1" stop-color="#0BE1F7" stop-opacity="0"/>
    </linearGradient>
    <linearGradient id="paint4_linear_7145_13470" x1="263.042" y1="10.269" x2="263.042" y2="285.213" gradientUnits="userSpaceOnUse">
    <stop stop-color="#14ACBC"/>
    <stop offset="1" stop-color="#0ABDCF" stop-opacity="0"/>
    </linearGradient>
    <linearGradient id="paint5_linear_7145_13470" x1="222.684" y1="189.153" x2="222.684" y2="250.683" gradientUnits="userSpaceOnUse">
    <stop/>
    <stop offset="1" stop-color="#031A1D" stop-opacity="0"/>
    </linearGradient>
    <linearGradient id="paint6_linear_7145_13470" x1="309.732" y1="182.141" x2="323.6" y2="219.586" gradientUnits="userSpaceOnUse">
    <stop/>
    <stop offset="1" stop-color="#8BDBE3" stop-opacity="0"/>
    </linearGradient>
    <linearGradient id="paint7_linear_7145_13470" x1="364.325" y1="213.666" x2="378.194" y2="251.111" gradientUnits="userSpaceOnUse">
    <stop/>
    <stop offset="1" stop-color="#8BDBE3" stop-opacity="0"/>
    </linearGradient>
    <linearGradient id="paint8_linear_7145_13470" x1="258.968" y1="137.684" x2="249.259" y2="163.098" gradientUnits="userSpaceOnUse">
    <stop stop-color="#FFE585"/>
    <stop offset="1" stop-color="#FF9E6E"/>
    </linearGradient>
    <linearGradient id="paint9_linear_7145_13470" x1="204.731" y1="106.296" x2="195.002" y2="131.693" gradientUnits="userSpaceOnUse">
    <stop stop-color="#FFE585"/>
    <stop offset="1" stop-color="#FF9E6E"/>
    </linearGradient>
    <linearGradient id="paint10_linear_7145_13470" x1="149.781" y1="74.8902" x2="140.064" y2="100.313" gradientUnits="userSpaceOnUse">
    <stop stop-color="#FFE585"/>
    <stop offset="1" stop-color="#FF9E6E"/>
    </linearGradient>
    <radialGradient id="paint11_radial_7145_13470" cx="0" cy="0" r="1" gradientUnits="userSpaceOnUse" gradientTransform="translate(282.448 205.272) rotate(145.987) scale(11.271 11.2728)">
    <stop offset="0.030303" stop-color="#FEDFCB"/>
    <stop offset="0.7778" stop-color="#F9B69E"/>
    <stop offset="0.9949" stop-color="#F2A78C"/>
    </radialGradient>
    <linearGradient id="paint12_linear_7145_13470" x1="298.667" y1="195.654" x2="289.516" y2="219.609" gradientUnits="userSpaceOnUse">
    <stop stop-color="#FFE585"/>
    <stop offset="1" stop-color="#FF9E6E"/>
    </linearGradient>
    <radialGradient id="paint13_radial_7145_13470" cx="0" cy="0" r="1" gradientUnits="userSpaceOnUse" gradientTransform="translate(284.661 185.76) rotate(141.044) scale(12.578 12.5791)">
    <stop offset="0.030303" stop-color="#FEDFCB"/>
    <stop offset="1" stop-color="#F9B69E"/>
    </radialGradient>
    <linearGradient id="paint14_linear_7145_13470" x1="255.804" y1="259.85" x2="271.291" y2="262.449" gradientUnits="userSpaceOnUse">
    <stop stop-color="#4E55B7"/>
    <stop offset="1" stop-color="#191D4F"/>
    </linearGradient>
    <linearGradient id="paint15_linear_7145_13470" x1="259.869" y1="260.696" x2="269.231" y2="261.65" gradientUnits="userSpaceOnUse">
    <stop stop-color="#4E55B7"/>
    <stop offset="1" stop-color="#191D4F"/>
    </linearGradient>
    <linearGradient id="paint16_linear_7145_13470" x1="269.366" y1="261.26" x2="288.976" y2="264.928" gradientUnits="userSpaceOnUse">
    <stop stop-color="#4E55B7"/>
    <stop offset="1" stop-color="#191D4F"/>
    </linearGradient>
    <linearGradient id="paint17_linear_7145_13470" x1="276.93" y1="260.91" x2="285.197" y2="261.558" gradientUnits="userSpaceOnUse">
    <stop stop-color="#4E55B7"/>
    <stop offset="1" stop-color="#191D4F"/>
    </linearGradient>
    <linearGradient id="paint18_linear_7145_13470" x1="157.361" y1="234.674" x2="152.897" y2="242.771" gradientUnits="userSpaceOnUse">
    <stop stop-color="#FFE585"/>
    <stop offset="0.465747" stop-color="#CE934C"/>
    <stop offset="1" stop-color="#FF9E6E"/>
    </linearGradient>
    <linearGradient id="paint19_linear_7145_13470" x1="147.872" y1="225.935" x2="131.667" y2="256.937" gradientUnits="userSpaceOnUse">
    <stop stop-color="#FFE585"/>
    <stop offset="0.465747" stop-color="#CE934C"/>
    <stop offset="1" stop-color="#FF9E6E"/>
    </linearGradient>
    <linearGradient id="paint20_linear_7145_13470" x1="137.289" y1="240.702" x2="135.961" y2="248.705" gradientUnits="userSpaceOnUse">
    <stop stop-color="#FFE585"/>
    <stop offset="0.465747" stop-color="#CE934C"/>
    <stop offset="1" stop-color="#FF9E6E"/>
    </linearGradient>
    <linearGradient id="paint21_linear_7145_13470" x1="157.36" y1="228.314" x2="152.896" y2="236.411" gradientUnits="userSpaceOnUse">
    <stop stop-color="#FFE585"/>
    <stop offset="0.465747" stop-color="#CE934C"/>
    <stop offset="1" stop-color="#FF9E6E"/>
    </linearGradient>
    <linearGradient id="paint22_linear_7145_13470" x1="147.872" y1="219.452" x2="131.623" y2="250.486" gradientUnits="userSpaceOnUse">
    <stop stop-color="#FFE585"/>
    <stop offset="0.465747" stop-color="#CE934C"/>
    <stop offset="1" stop-color="#FF9E6E"/>
    </linearGradient>
    <linearGradient id="paint23_linear_7145_13470" x1="137.29" y1="234.065" x2="135.962" y2="242.068" gradientUnits="userSpaceOnUse">
    <stop stop-color="#FFE585"/>
    <stop offset="0.465747" stop-color="#CE934C"/>
    <stop offset="1" stop-color="#FF9E6E"/>
    </linearGradient>
    <linearGradient id="paint24_linear_7145_13470" x1="157.361" y1="221.677" x2="152.897" y2="229.774" gradientUnits="userSpaceOnUse">
    <stop stop-color="#FFE585"/>
    <stop offset="0.465747" stop-color="#CE934C"/>
    <stop offset="1" stop-color="#FF9E6E"/>
    </linearGradient>
    <linearGradient id="paint25_linear_7145_13470" x1="147.872" y1="212.953" x2="131.623" y2="243.987" gradientUnits="userSpaceOnUse">
    <stop stop-color="#FFE585"/>
    <stop offset="0.465747" stop-color="#CE934C"/>
    <stop offset="1" stop-color="#FF9E6E"/>
    </linearGradient>
    <linearGradient id="paint26_linear_7145_13470" x1="147.932" y1="208.38" x2="131.533" y2="239.388" gradientUnits="userSpaceOnUse">
    <stop stop-color="#FFE585"/>
    <stop offset="0.465747" stop-color="#CE934C"/>
    <stop offset="1" stop-color="#FF9E6E"/>
    </linearGradient>
    <linearGradient id="paint27_linear_7145_13470" x1="157.361" y1="215.316" x2="152.897" y2="223.413" gradientUnits="userSpaceOnUse">
    <stop stop-color="#FFE585"/>
    <stop offset="0.465747" stop-color="#CE934C"/>
    <stop offset="1" stop-color="#FF9E6E"/>
    </linearGradient>
    <linearGradient id="paint28_linear_7145_13470" x1="147.872" y1="206.455" x2="131.623" y2="237.488" gradientUnits="userSpaceOnUse">
    <stop stop-color="#FFE585"/>
    <stop offset="0.465747" stop-color="#CE934C"/>
    <stop offset="1" stop-color="#FF9E6E"/>
    </linearGradient>
    <linearGradient id="paint29_linear_7145_13470" x1="147.932" y1="202.019" x2="131.533" y2="233.028" gradientUnits="userSpaceOnUse">
    <stop stop-color="#FFE585"/>
    <stop offset="0.465747" stop-color="#CE934C"/>
    <stop offset="1" stop-color="#FF9E6E"/>
    </linearGradient>
    <linearGradient id="paint30_linear_7145_13470" x1="157.374" y1="210.573" x2="153.428" y2="218.324" gradientUnits="userSpaceOnUse">
    <stop stop-color="#FFE585"/>
    <stop offset="0.465747" stop-color="#CE934C"/>
    <stop offset="1" stop-color="#FF9E6E"/>
    </linearGradient>
    <linearGradient id="paint31_linear_7145_13470" x1="137.282" y1="222.297" x2="135.977" y2="230.236" gradientUnits="userSpaceOnUse">
    <stop stop-color="#FFE585"/>
    <stop offset="0.465747" stop-color="#CE934C"/>
    <stop offset="1" stop-color="#FF9E6E"/>
    </linearGradient>
    <linearGradient id="paint32_linear_7145_13470" x1="74.973" y1="192.671" x2="68.8518" y2="196.411" gradientUnits="userSpaceOnUse">
    <stop stop-color="#FFE585"/>
    <stop offset="0.465747" stop-color="#CE934C"/>
    <stop offset="1" stop-color="#FF9E6E"/>
    </linearGradient>
    <radialGradient id="paint33_radial_7145_13470" cx="0" cy="0" r="1" gradientUnits="userSpaceOnUse" gradientTransform="translate(63.3487 153.482) scale(31.7745 31.7879)">
    <stop offset="0.030303" stop-color="#FEEADD"/>
    <stop offset="1" stop-color="#F9B69E"/>
    </radialGradient>
    <radialGradient id="paint34_radial_7145_13470" cx="0" cy="0" r="1" gradientUnits="userSpaceOnUse" gradientTransform="translate(74.2341 143.953) scale(44.9964 45.0155)">
    <stop offset="0.030303" stop-color="#FEDFCB"/>
    <stop offset="1" stop-color="#F9B69E"/>
    </radialGradient>
    <linearGradient id="paint35_linear_7145_13470" x1="25.7026" y1="191.814" x2="39.3348" y2="193.888" gradientUnits="userSpaceOnUse">
    <stop stop-color="#4E55B7"/>
    <stop offset="1" stop-color="#191D4F"/>
    </linearGradient>
    <linearGradient id="paint36_linear_7145_13470" x1="23.6433" y1="194.916" x2="31.2015" y2="195.582" gradientUnits="userSpaceOnUse">
    <stop stop-color="#4E55B7"/>
    <stop offset="1" stop-color="#191D4F"/>
    </linearGradient>
    <linearGradient id="paint37_linear_7145_13470" x1="10.4528" y1="193.709" x2="29.2713" y2="197.269" gradientUnits="userSpaceOnUse">
    <stop stop-color="#4E55B7"/>
    <stop offset="1" stop-color="#191D4F"/>
    </linearGradient>
    <linearGradient id="paint38_linear_7145_13470" x1="5.7962" y1="193.728" x2="11.8488" y2="194.084" gradientUnits="userSpaceOnUse">
    <stop stop-color="#4E55B7"/>
    <stop offset="1" stop-color="#191D4F"/>
    </linearGradient>
    <radialGradient id="paint39_radial_7145_13470" cx="0" cy="0" r="1" gradientUnits="userSpaceOnUse" gradientTransform="translate(30.7224 123.983) scale(15.5388 15.5454)">
    <stop offset="0.030303" stop-color="#FEDFCB"/>
    <stop offset="1" stop-color="#F9B69E"/>
    </radialGradient>
    <radialGradient id="paint40_radial_7145_13470" cx="0" cy="0" r="1" gradientUnits="userSpaceOnUse" gradientTransform="translate(27.9789 124.112) scale(16.5748 16.5819)">
    <stop offset="0.030303" stop-color="#FEDFCB"/>
    <stop offset="1" stop-color="#F9B69E"/>
    </radialGradient>
    <linearGradient id="paint41_linear_7145_13470" x1="12.3858" y1="120.343" x2="29.8155" y2="120.343" gradientUnits="userSpaceOnUse">
    <stop offset="0.0353535" stop-color="#602213"/>
    <stop offset="0.571" stop-color="#6D310E"/>
    <stop offset="1" stop-color="#7A4108"/>
    </linearGradient>
    <linearGradient id="paint42_linear_7145_13470" x1="65.0054" y1="183.044" x2="63.6775" y2="191.047" gradientUnits="userSpaceOnUse">
    <stop stop-color="#FFE585"/>
    <stop offset="0.465747" stop-color="#CE934C"/>
    <stop offset="1" stop-color="#FF9E6E"/>
    </linearGradient>
    <linearGradient id="paint43_linear_7145_13470" x1="37.351" y1="165.894" x2="31.6623" y2="172.551" gradientUnits="userSpaceOnUse">
    <stop stop-color="#FFE585"/>
    <stop offset="0.465747" stop-color="#CE934C"/>
    <stop offset="1" stop-color="#FF9E6E"/>
    </linearGradient>
    <linearGradient id="paint44_linear_7145_13470" x1="75.7268" y1="161.968" x2="59.374" y2="193.073" gradientUnits="userSpaceOnUse">
    <stop stop-color="#FFE585"/>
    <stop offset="0.465747" stop-color="#CE934C"/>
    <stop offset="1" stop-color="#FF9E6E"/>
    </linearGradient>
    <linearGradient id="paint45_linear_7145_13470" x1="75.7867" y1="157.358" x2="59.3878" y2="188.367" gradientUnits="userSpaceOnUse">
    <stop stop-color="#FFE585"/>
    <stop offset="0.465747" stop-color="#CE934C"/>
    <stop offset="1" stop-color="#FF9E6E"/>
    </linearGradient>
    <linearGradient id="paint46_linear_7145_13470" x1="37.4137" y1="161.187" x2="32.0696" y2="167.64" gradientUnits="userSpaceOnUse">
    <stop stop-color="#FFE585"/>
    <stop offset="0.465747" stop-color="#CE934C"/>
    <stop offset="1" stop-color="#FF9E6E"/>
    </linearGradient>
    <linearGradient id="paint47_linear_7145_13470" x1="85.0895" y1="166.05" x2="81.1441" y2="173.801" gradientUnits="userSpaceOnUse">
    <stop stop-color="#FFE585"/>
    <stop offset="0.465747" stop-color="#CE934C"/>
    <stop offset="1" stop-color="#FF9E6E"/>
    </linearGradient>
    <linearGradient id="paint48_linear_7145_13470" x1="64.9989" y1="177.774" x2="63.6937" y2="185.713" gradientUnits="userSpaceOnUse">
    <stop stop-color="#FFE585"/>
    <stop offset="0.465747" stop-color="#CE934C"/>
    <stop offset="1" stop-color="#FF9E6E"/>
    </linearGradient>
    <radialGradient id="paint49_radial_7145_13470" cx="0" cy="0" r="1" gradientUnits="userSpaceOnUse" gradientTransform="translate(44.4808 162.491) scale(31.7743 31.7878)">
    <stop offset="0.030303" stop-color="#FEEADD"/>
    <stop offset="1" stop-color="#F9B69E"/>
    </radialGradient>
    <radialGradient id="paint50_radial_7145_13470" cx="0" cy="0" r="1" gradientUnits="userSpaceOnUse" gradientTransform="translate(55.3657 152.962) scale(44.9964 45.0155)">
    <stop offset="0.030303" stop-color="#FEDFCB"/>
    <stop offset="1" stop-color="#F9B69E"/>
    </radialGradient>
    <linearGradient id="paint51_linear_7145_13470" x1="84.9867" y1="171.429" x2="78.3274" y2="180.582" gradientUnits="userSpaceOnUse">
    <stop stop-color="#FFE585"/>
    <stop offset="0.465747" stop-color="#CE934C"/>
    <stop offset="1" stop-color="#FF9E6E"/>
    </linearGradient>
    <linearGradient id="paint52_linear_7145_13470" x1="68.9827" y1="184.138" x2="61.7232" y2="194.709" gradientUnits="userSpaceOnUse">
    <stop stop-color="#FFE585"/>
    <stop offset="0.465747" stop-color="#CE934C"/>
    <stop offset="1" stop-color="#FF9E6E"/>
    </linearGradient>
    <linearGradient id="paint53_linear_7145_13470" x1="34.7308" y1="282.192" x2="81.6001" y2="268.993" gradientUnits="userSpaceOnUse">
    <stop stop-color="#2C2E43"/>
    <stop offset="0.5" stop-color="#84134B"/>
    <stop offset="1" stop-color="#B40061"/>
    </linearGradient>
    <linearGradient id="paint54_linear_7145_13470" x1="34.7308" y1="288.621" x2="64.5086" y2="263.728" gradientUnits="userSpaceOnUse">
    <stop stop-color="#2C2E43"/>
    <stop offset="0.5" stop-color="#2D0619"/>
    <stop offset="1" stop-color="#B40061"/>
    </linearGradient>
    <linearGradient id="paint55_linear_7145_13470" x1="34.7308" y1="286.636" x2="62.721" y2="261.487" gradientUnits="userSpaceOnUse">
    <stop stop-color="#2C2E43"/>
    <stop offset="0.5" stop-color="#2D0619"/>
    <stop offset="1" stop-color="#B40061"/>
    </linearGradient>
    <linearGradient id="paint56_linear_7145_13470" x1="34.7308" y1="246.863" x2="64.5086" y2="221.971" gradientUnits="userSpaceOnUse">
    <stop stop-color="#2C2E43"/>
    <stop offset="0.5" stop-color="#2D0619"/>
    <stop offset="1" stop-color="#B40061"/>
    </linearGradient>
    <linearGradient id="paint57_linear_7145_13470" x1="34.7308" y1="240.94" x2="76.3217" y2="221.598" gradientUnits="userSpaceOnUse">
    <stop stop-color="#2C2E43"/>
    <stop offset="0.5" stop-color="#2D0619"/>
    <stop offset="1" stop-color="#B40061"/>
    </linearGradient>
    <radialGradient id="paint58_radial_7145_13470" cx="0" cy="0" r="1" gradientUnits="userSpaceOnUse" gradientTransform="translate(76.1735 244.2) rotate(180) scale(24.9225 24.9331)">
    <stop stop-color="white"/>
    <stop offset="1"/>
    </radialGradient>
    <linearGradient id="paint59_linear_7145_13470" x1="38.8847" y1="199.388" x2="83.475" y2="247.179" gradientUnits="userSpaceOnUse">
    <stop offset="0.00505051" stop-color="#FFE4A7"/>
    <stop offset="0.099793" stop-color="#FAC098"/>
    <stop offset="0.202" stop-color="#F49587"/>
    <stop offset="0.4638" stop-color="#A142B5"/>
    <stop offset="0.596" stop-color="#7C1DC9"/>
    <stop offset="0.6346" stop-color="#7926CB"/>
    <stop offset="0.6973" stop-color="#703ED1"/>
    <stop offset="0.7764" stop-color="#6165DB"/>
    <stop offset="0.8686" stop-color="#4C9CE9"/>
    <stop offset="0.9709" stop-color="#32E1FA"/>
    <stop offset="1" stop-color="#2AF6FF"/>
    </linearGradient>
    <linearGradient id="paint60_linear_7145_13470" x1="83.2895" y1="241.693" x2="48.3735" y2="213.612" gradientUnits="userSpaceOnUse">
    <stop offset="0.2374" stop-color="#FFE585"/>
    <stop offset="0.9495" stop-color="#B9521F"/>
    </linearGradient>
    <linearGradient id="paint61_linear_7145_13470" x1="99.2161" y1="189.053" x2="53.6662" y2="237.874" gradientUnits="userSpaceOnUse">
    <stop offset="0.101" stop-color="#FFE585"/>
    <stop offset="0.9495" stop-color="#FF9E6E"/>
    </linearGradient>
    <linearGradient id="paint62_linear_7145_13470" x1="89.0278" y1="226.319" x2="42.7222" y2="226.319" gradientUnits="userSpaceOnUse">
    <stop offset="0.101" stop-color="#FFE585"/>
    <stop offset="0.9495" stop-color="#FF9E6E"/>
    </linearGradient>
    <clipPath id="clip0_7145_13470">
    <rect width="444.72" height="380" fill="white"/>
    </clipPath>
    </defs>
    </svg>
    