<svg width="342" height="383" viewBox="0 0 342 383" fill="none" xmlns="http://www.w3.org/2000/svg">
    <g opacity="0.3" clip-path="url(#clip0_7145_20859)">
    <path d="M-33.7303 231.821L-33.5251 231.719L40.0469 189.215L39.5338 188.907L-33.7303 146.608L-33.9355 146.711L-107.507 189.215L-106.994 189.523L-33.7303 231.821ZM38.8155 189.215L-33.7303 231.103L-106.276 189.215L-33.7303 147.327L38.8155 189.215Z" fill="url(#paint0_linear_7145_20859)"/>
    <path d="M199.402 324.324V289.212L199.3 289.109L161.847 267.549H102.538L3.00522 210.056L2.69739 210.569L102.332 268.165H161.744L198.787 289.622V324.324H199.402Z" fill="url(#paint1_linear_7145_20859)"/>
    <path d="M127.985 331.408L128.293 330.895L92.174 310.053V275.352L92.0713 275.249L-8.89771 216.935L-9.20552 217.448L91.5583 275.66V310.361L91.7635 310.464L127.985 331.408Z" fill="url(#paint2_linear_7145_20859)"/>
    <path d="M-65.1289 348.04L38.2002 288.288V258.514L37.995 258.412L-21.4167 224.121L-21.7245 224.634L37.5845 258.925V287.98L-65.4367 347.424L-65.1289 348.04Z" fill="url(#paint3_linear_7145_20859)"/>
    <path d="M12.5476 173.814L87.5561 130.489H142.042L207.919 92.5022H299.037L339.363 115.705L339.671 115.192L299.242 91.8862H207.713L141.837 129.873H87.3509L87.2483 129.976L12.2398 173.301L12.5476 173.814Z" fill="url(#paint4_linear_7145_20859)"/>
    <path d="M21.0645 178.743L91.9686 137.778H154.561V137.676L187.191 118.888L186.884 118.375L154.356 137.163H91.866H91.7634L20.7567 178.229L21.0645 178.743Z" fill="url(#paint5_linear_7145_20859)"/>
    <path d="M105.41 190.138H142.863L142.966 190.036L167.079 176.176L166.771 175.662L142.76 189.522H105.615L53.5915 159.441L53.2837 159.954L105.41 190.138Z" fill="url(#paint6_linear_7145_20859)"/>
    <path d="M165.746 116.013H166.362V101.64L195.4 84.9054L195.093 84.3921L165.746 101.229V116.013Z" fill="url(#paint7_linear_7145_20859)"/>
    <path d="M-53.8419 327.814L-11.6688 303.38H11.9316V302.764H-11.7715L-11.8741 302.866L-54.1497 327.301L-53.8419 327.814Z" fill="url(#paint8_linear_7145_20859)"/>
    <path d="M19.4229 279.664V263.135H19.2176L-9.92385 246.195V230.897H-10.5395V246.605L-10.3343 246.708L18.8072 263.545V279.664H19.4229Z" fill="url(#paint9_linear_7145_20859)"/>
    <path d="M-8.69337 161.597L66.7256 117.964V81.0039H66.623L-12.7978 35.1119V1.64258H-13.4135V35.4199L-13.2082 35.5226L66.1099 81.4146V117.656L-9.00119 161.084L-8.69337 161.597Z" fill="url(#paint10_linear_7145_20859)"/>
    <path d="M-1.71515 60.9838H30.8125V60.3678H-1.61253L-29.0096 44.5571L-29.3175 45.0705L-1.71515 60.9838Z" fill="url(#paint11_linear_7145_20859)"/>
    <path d="M35.6013 122.954L35.9092 123.488L-19.3623 155.417L-19.6702 154.884L35.6013 122.954Z" fill="url(#paint12_linear_7145_20859)"/>
    <path d="M-29.626 149.483L34.3005 112.523H54.207V111.907H34.0953H33.9927L-29.9338 148.867L-29.626 149.483Z" fill="url(#paint13_linear_7145_20859)"/>
    <path d="M-36.9108 148.969L-36.603 148.353L-51.892 139.524V127.307L0.336914 97.1227L0.0290941 96.6094L-52.5077 126.896V139.832L-52.405 139.935L-36.9108 148.969Z" fill="url(#paint14_linear_7145_20859)"/>
    <path d="M-39.373 120.12H-19.6717L-19.5691 120.017L3.82617 106.568L3.51832 105.952L-19.8769 119.504H-39.373V120.12Z" fill="url(#paint15_linear_7145_20859)"/>
    <path d="M-48.7112 124.945H-48.0956V118.477L-20.6985 102.667V91.476L3.41504 77.616L3.10722 77L-21.3141 91.168V102.256L-48.7112 118.169V124.945Z" fill="url(#paint16_linear_7145_20859)"/>
    <path d="M5.57045 105.13C4.44173 104.514 2.69736 104.514 1.67125 105.13C0.542535 105.746 0.542535 106.773 1.67125 107.389C2.79997 108.005 4.54434 108.005 5.57045 107.389C6.69917 106.773 6.69917 105.746 5.57045 105.13Z" fill="url(#paint17_linear_7145_20859)"/>
    <path d="M2.18373 95.7877C1.05501 95.1717 -0.689388 95.1717 -1.7155 95.7877C-2.84421 96.4037 -2.84421 97.4303 -1.7155 98.0463C-0.586777 98.6623 1.15763 98.6623 2.18373 98.0463C3.31245 97.4303 3.31245 96.4037 2.18373 95.7877Z" fill="url(#paint18_linear_7145_20859)"/>
    <path d="M233.469 4.41464C232.34 3.79864 230.596 3.79864 229.57 4.41464C228.441 5.03064 228.441 6.0573 229.57 6.6733C230.698 7.2893 232.443 7.2893 233.469 6.6733C234.598 5.95464 234.598 5.03064 233.469 4.41464Z" fill="url(#paint19_linear_7145_20859)"/>
    <path d="M138.041 2.36141C136.912 1.74541 135.168 1.74541 134.142 2.36141C133.013 2.97741 133.013 4.00408 134.142 4.62008C135.27 5.23608 137.015 5.23608 138.041 4.62008C139.067 4.00408 139.067 2.97741 138.041 2.36141Z" fill="url(#paint20_linear_7145_20859)"/>
    <path d="M109.412 67.4517C108.283 66.8357 106.539 66.8357 105.513 67.4517C104.487 68.0677 104.384 69.0944 105.513 69.7104C106.642 70.3264 108.386 70.3264 109.412 69.7104C110.438 69.0944 110.438 68.0677 109.412 67.4517Z" fill="url(#paint21_linear_7145_20859)"/>
    <path d="M5.15932 76.1788C4.0306 75.5628 2.28623 75.5628 1.26012 76.1788C0.131402 76.7948 0.131402 77.8215 1.26012 78.4375C2.38884 79.0535 4.13321 79.0535 5.15932 78.4375C6.28804 77.8215 6.28804 76.7948 5.15932 76.1788Z" fill="url(#paint22_linear_7145_20859)"/>
    <path d="M56.1574 111.085C55.0286 110.469 53.2842 110.469 52.2581 111.085C51.1294 111.701 51.1294 112.728 52.2581 113.344C53.3869 113.96 55.1313 113.96 56.1574 113.344C57.2861 112.728 57.2861 111.701 56.1574 111.085Z" fill="url(#paint23_linear_7145_20859)"/>
    <path d="M167.695 175.457C166.567 174.841 164.822 174.841 163.796 175.457C162.667 176.073 162.667 177.1 163.796 177.716C164.925 178.332 166.669 178.332 167.695 177.716C168.721 177.1 168.721 176.073 167.695 175.457Z" fill="url(#paint24_linear_7145_20859)"/>
    <path d="M120.494 215.395C119.365 214.779 117.621 214.779 116.595 215.395C115.466 216.011 115.466 217.037 116.595 217.653C117.724 218.269 119.468 218.269 120.494 217.653C121.52 217.037 121.52 216.011 120.494 215.395Z" fill="url(#paint25_linear_7145_20859)"/>
    <path d="M93.8154 201.535C92.6867 200.919 90.9423 200.919 89.9162 201.535C88.7875 202.151 88.7875 203.177 89.9162 203.793C91.0449 204.409 92.7893 204.409 93.8154 203.793C94.8415 203.177 94.8415 202.151 93.8154 201.535Z" fill="url(#paint26_linear_7145_20859)"/>
    <path d="M68.163 223.197C67.0343 222.581 65.2899 222.581 64.2638 223.197C63.1351 223.813 63.1351 224.84 64.2638 225.456C65.3926 226.072 67.1369 226.072 68.163 225.456C69.1891 224.84 69.1891 223.813 68.163 223.197Z" fill="url(#paint27_linear_7145_20859)"/>
    <path d="M21.0634 278.535C19.9347 277.919 18.1903 277.919 17.1642 278.535C16.0355 279.151 16.0355 280.177 17.1642 280.793C18.2929 281.409 20.0373 281.409 21.0634 280.793C22.0895 280.177 22.0895 279.151 21.0634 278.535Z" fill="url(#paint28_linear_7145_20859)"/>
    <path d="M201.659 322.886C200.531 322.27 198.786 322.27 197.76 322.886C196.631 323.502 196.631 324.529 197.76 325.145C198.889 325.761 200.633 325.761 201.659 325.145C202.788 324.529 202.788 323.502 201.659 322.886Z" fill="url(#paint29_linear_7145_20859)"/>
    <path d="M130.14 330.073C129.011 329.457 127.267 329.457 126.241 330.073C125.112 330.689 125.112 331.716 126.241 332.332C127.369 332.948 129.114 332.948 130.14 332.332C131.269 331.613 131.269 330.689 130.14 330.073Z" fill="url(#paint30_linear_7145_20859)"/>
    <path d="M56.8751 178.64C55.7464 178.024 54.002 178.024 52.9759 178.64C51.8472 179.256 51.8472 180.282 52.9759 180.898C54.1047 181.514 55.849 181.514 56.8751 180.898C58.0039 180.282 58.0039 179.256 56.8751 178.64Z" fill="url(#paint31_linear_7145_20859)"/>
    <path d="M103.666 175.868C102.537 175.252 100.793 175.252 99.7668 175.868C98.638 176.484 98.638 177.511 99.7668 178.127C100.895 178.743 102.64 178.743 103.666 178.127C104.692 177.408 104.692 176.484 103.666 175.868Z" fill="url(#paint32_linear_7145_20859)"/>
    <path d="M197.145 83.4679C196.016 82.8519 194.272 82.8519 193.245 83.4679C192.117 84.0839 192.117 85.1105 193.245 85.7265C194.374 86.3425 196.119 86.3425 197.145 85.7265C198.273 85.1105 198.273 84.0839 197.145 83.4679Z" fill="url(#paint33_linear_7145_20859)"/>
    <path d="M234.7 182.13C233.572 181.514 231.827 181.514 230.801 182.13C229.672 182.746 229.672 183.773 230.801 184.389C231.93 185.005 233.674 185.005 234.7 184.389C235.829 183.773 235.829 182.746 234.7 182.13Z" fill="url(#paint34_linear_7145_20859)"/>
    <path d="M189.038 118.066C187.909 117.45 186.165 117.45 185.139 118.066C184.113 118.682 184.01 119.709 185.139 120.325C186.268 120.941 188.012 120.941 189.038 120.325C190.064 119.709 190.064 118.682 189.038 118.066Z" fill="url(#paint35_linear_7145_20859)"/>
    <path d="M341.415 114.268C340.286 113.652 338.542 113.652 337.516 114.268C336.387 114.884 336.387 115.91 337.516 116.526C338.645 117.142 340.389 117.142 341.415 116.526C342.544 115.91 342.544 114.986 341.415 114.268Z" fill="url(#paint36_linear_7145_20859)"/>
    <path d="M37.79 122.07C36.6613 121.454 34.9169 121.454 33.8908 122.07C32.7621 122.686 32.7621 123.713 33.8908 124.329C35.0195 124.945 36.7639 124.945 37.79 124.329C38.8161 123.713 38.8161 122.686 37.79 122.07Z" fill="url(#paint37_linear_7145_20859)"/>
    <path d="M55.1307 180.283L55.4385 179.769L43.433 172.788H30.0936V173.404H43.3304L55.1307 180.283Z" fill="url(#paint38_linear_7145_20859)"/>
    <path d="M64.0585 235.517H86.2224L118.647 216.832L118.34 216.216L86.0172 234.901H64.2637L35.6353 218.372H17.3706V218.988H35.4301L64.0585 235.517Z" fill="url(#paint39_linear_7145_20859)"/>
    <path d="M66.0076 211.596H76.9869H77.0896L91.4551 203.28L91.1472 202.767L76.8843 210.98H66.2128L33.7878 192.295L33.48 192.808L66.0076 211.596Z" fill="url(#paint40_linear_7145_20859)"/>
    <path d="M66.0076 224.635L66.3154 224.121L42.8176 210.467V197.633H42.2019V210.877H42.3045L66.0076 224.635Z" fill="url(#paint41_linear_7145_20859)"/>
    <path d="M3.00507 168.27L148.815 84.0838V53.6945L231.725 5.74917L231.417 5.23584L148.199 53.2838V83.7758L2.69725 167.757L3.00507 168.27Z" fill="url(#paint42_linear_7145_20859)"/>
    <path d="M66.6227 110.367L80.0648 102.564V84.8026L107.564 68.8893L107.257 68.376L79.4491 84.392V102.256L66.3149 109.853L66.6227 110.367Z" fill="url(#paint43_linear_7145_20859)"/>
    <path d="M101.512 177.202L101.819 176.689L82.8363 165.704H64.3664V166.32H82.6311L101.512 177.202Z" fill="url(#paint44_linear_7145_20859)"/>
    <path d="M231.929 183.157L232.237 182.644L165.13 143.836H80.3733V144.452H164.925L231.929 183.157Z" fill="url(#paint45_linear_7145_20859)"/>
    <path d="M58.8248 76.9999L103.255 51.3333V22.7919L136.193 3.79862L135.886 3.18262L102.64 22.4839V51.0253L58.517 76.4866L58.8248 76.9999Z" fill="url(#paint46_linear_7145_20859)"/>
    </g>
    <defs>
    <linearGradient id="paint0_linear_7145_20859" x1="-33.7303" y1="146.608" x2="-33.7303" y2="231.821" gradientUnits="userSpaceOnUse">
    <stop stop-color="#4B55AF"/>
    <stop offset="1" stop-color="#A5A9D2"/>
    </linearGradient>
    <linearGradient id="paint1_linear_7145_20859" x1="101.05" y1="210.056" x2="101.05" y2="324.324" gradientUnits="userSpaceOnUse">
    <stop stop-color="#4B55AF"/>
    <stop offset="1" stop-color="#A5A9D2"/>
    </linearGradient>
    <linearGradient id="paint2_linear_7145_20859" x1="59.5437" y1="216.935" x2="59.5437" y2="331.408" gradientUnits="userSpaceOnUse">
    <stop stop-color="#4B55AF"/>
    <stop offset="1" stop-color="#A5A9D2"/>
    </linearGradient>
    <linearGradient id="paint3_linear_7145_20859" x1="-13.6183" y1="224.121" x2="-13.6183" y2="348.04" gradientUnits="userSpaceOnUse">
    <stop stop-color="#4B55AF"/>
    <stop offset="1" stop-color="#A5A9D2"/>
    </linearGradient>
    <linearGradient id="paint4_linear_7145_20859" x1="175.955" y1="91.8862" x2="175.955" y2="173.814" gradientUnits="userSpaceOnUse">
    <stop stop-color="#4B55AF"/>
    <stop offset="1" stop-color="#A5A9D2"/>
    </linearGradient>
    <linearGradient id="paint5_linear_7145_20859" x1="103.974" y1="118.375" x2="103.974" y2="178.742" gradientUnits="userSpaceOnUse">
    <stop stop-color="#4B55AF"/>
    <stop offset="1" stop-color="#A5A9D2"/>
    </linearGradient>
    <linearGradient id="paint6_linear_7145_20859" x1="110.181" y1="159.441" x2="110.181" y2="190.138" gradientUnits="userSpaceOnUse">
    <stop stop-color="#4B55AF"/>
    <stop offset="1" stop-color="#A5A9D2"/>
    </linearGradient>
    <linearGradient id="paint7_linear_7145_20859" x1="180.573" y1="84.3921" x2="180.573" y2="116.013" gradientUnits="userSpaceOnUse">
    <stop stop-color="#4B55AF"/>
    <stop offset="1" stop-color="#A5A9D2"/>
    </linearGradient>
    <linearGradient id="paint8_linear_7145_20859" x1="-21.109" y1="302.764" x2="-21.109" y2="327.814" gradientUnits="userSpaceOnUse">
    <stop stop-color="#4B55AF"/>
    <stop offset="1" stop-color="#A5A9D2"/>
    </linearGradient>
    <linearGradient id="paint9_linear_7145_20859" x1="4.44168" y1="230.897" x2="4.44168" y2="279.664" gradientUnits="userSpaceOnUse">
    <stop stop-color="#4B55AF"/>
    <stop offset="1" stop-color="#A5A9D2"/>
    </linearGradient>
    <linearGradient id="paint10_linear_7145_20859" x1="26.6561" y1="1.64258" x2="26.6561" y2="161.597" gradientUnits="userSpaceOnUse">
    <stop stop-color="#4B55AF"/>
    <stop offset="1" stop-color="#A5A9D2"/>
    </linearGradient>
    <linearGradient id="paint11_linear_7145_20859" x1="0.747526" y1="44.5571" x2="0.747526" y2="60.9838" gradientUnits="userSpaceOnUse">
    <stop stop-color="#4B55AF"/>
    <stop offset="1" stop-color="#A5A9D2"/>
    </linearGradient>
    <linearGradient id="paint12_linear_7145_20859" x1="35.7553" y1="123.221" x2="-19.5313" y2="155.124" gradientUnits="userSpaceOnUse">
    <stop stop-color="#4B55AF"/>
    <stop offset="1" stop-color="#A5A9D2"/>
    </linearGradient>
    <linearGradient id="paint13_linear_7145_20859" x1="12.1366" y1="111.907" x2="12.1366" y2="149.483" gradientUnits="userSpaceOnUse">
    <stop stop-color="#4B55AF"/>
    <stop offset="1" stop-color="#A5A9D2"/>
    </linearGradient>
    <linearGradient id="paint14_linear_7145_20859" x1="-26.0854" y1="96.6094" x2="-26.0854" y2="148.969" gradientUnits="userSpaceOnUse">
    <stop stop-color="#4B55AF"/>
    <stop offset="1" stop-color="#A5A9D2"/>
    </linearGradient>
    <linearGradient id="paint15_linear_7145_20859" x1="-17.7734" y1="105.952" x2="-17.7734" y2="120.12" gradientUnits="userSpaceOnUse">
    <stop stop-color="#4B55AF"/>
    <stop offset="1" stop-color="#A5A9D2"/>
    </linearGradient>
    <linearGradient id="paint16_linear_7145_20859" x1="-22.6481" y1="77" x2="-22.6481" y2="124.945" gradientUnits="userSpaceOnUse">
    <stop stop-color="#4B55AF"/>
    <stop offset="1" stop-color="#A5A9D2"/>
    </linearGradient>
    <linearGradient id="paint17_linear_7145_20859" x1="3.62085" y1="104.668" x2="3.62085" y2="107.851" gradientUnits="userSpaceOnUse">
    <stop stop-color="#4B55AF"/>
    <stop offset="1" stop-color="#A5A9D2"/>
    </linearGradient>
    <linearGradient id="paint18_linear_7145_20859" x1="0.234119" y1="95.3257" x2="0.234119" y2="98.5083" gradientUnits="userSpaceOnUse">
    <stop stop-color="#4B55AF"/>
    <stop offset="1" stop-color="#A5A9D2"/>
    </linearGradient>
    <linearGradient id="paint19_linear_7145_20859" x1="231.519" y1="3.95264" x2="231.519" y2="7.1353" gradientUnits="userSpaceOnUse">
    <stop stop-color="#4B55AF"/>
    <stop offset="1" stop-color="#A5A9D2"/>
    </linearGradient>
    <linearGradient id="paint20_linear_7145_20859" x1="136.053" y1="1.89941" x2="136.053" y2="5.08208" gradientUnits="userSpaceOnUse">
    <stop stop-color="#4B55AF"/>
    <stop offset="1" stop-color="#A5A9D2"/>
    </linearGradient>
    <linearGradient id="paint21_linear_7145_20859" x1="107.443" y1="66.9897" x2="107.443" y2="70.1724" gradientUnits="userSpaceOnUse">
    <stop stop-color="#4B55AF"/>
    <stop offset="1" stop-color="#A5A9D2"/>
    </linearGradient>
    <linearGradient id="paint22_linear_7145_20859" x1="3.20972" y1="75.7168" x2="3.20972" y2="78.8995" gradientUnits="userSpaceOnUse">
    <stop stop-color="#4B55AF"/>
    <stop offset="1" stop-color="#A5A9D2"/>
    </linearGradient>
    <linearGradient id="paint23_linear_7145_20859" x1="54.2078" y1="110.623" x2="54.2078" y2="113.806" gradientUnits="userSpaceOnUse">
    <stop stop-color="#4B55AF"/>
    <stop offset="1" stop-color="#A5A9D2"/>
    </linearGradient>
    <linearGradient id="paint24_linear_7145_20859" x1="165.707" y1="174.995" x2="165.707" y2="178.178" gradientUnits="userSpaceOnUse">
    <stop stop-color="#4B55AF"/>
    <stop offset="1" stop-color="#A5A9D2"/>
    </linearGradient>
    <linearGradient id="paint25_linear_7145_20859" x1="118.506" y1="214.933" x2="118.506" y2="218.115" gradientUnits="userSpaceOnUse">
    <stop stop-color="#4B55AF"/>
    <stop offset="1" stop-color="#A5A9D2"/>
    </linearGradient>
    <linearGradient id="paint26_linear_7145_20859" x1="91.8273" y1="201.073" x2="91.8273" y2="204.255" gradientUnits="userSpaceOnUse">
    <stop stop-color="#4B55AF"/>
    <stop offset="1" stop-color="#A5A9D2"/>
    </linearGradient>
    <linearGradient id="paint27_linear_7145_20859" x1="66.175" y1="222.735" x2="66.175" y2="225.918" gradientUnits="userSpaceOnUse">
    <stop stop-color="#4B55AF"/>
    <stop offset="1" stop-color="#A5A9D2"/>
    </linearGradient>
    <linearGradient id="paint28_linear_7145_20859" x1="19.0753" y1="278.073" x2="19.0753" y2="281.255" gradientUnits="userSpaceOnUse">
    <stop stop-color="#4B55AF"/>
    <stop offset="1" stop-color="#A5A9D2"/>
    </linearGradient>
    <linearGradient id="paint29_linear_7145_20859" x1="199.71" y1="322.424" x2="199.71" y2="325.607" gradientUnits="userSpaceOnUse">
    <stop stop-color="#4B55AF"/>
    <stop offset="1" stop-color="#A5A9D2"/>
    </linearGradient>
    <linearGradient id="paint30_linear_7145_20859" x1="128.19" y1="329.611" x2="128.19" y2="332.794" gradientUnits="userSpaceOnUse">
    <stop stop-color="#4B55AF"/>
    <stop offset="1" stop-color="#A5A9D2"/>
    </linearGradient>
    <linearGradient id="paint31_linear_7145_20859" x1="54.9255" y1="178.178" x2="54.9255" y2="181.36" gradientUnits="userSpaceOnUse">
    <stop stop-color="#4B55AF"/>
    <stop offset="1" stop-color="#A5A9D2"/>
    </linearGradient>
    <linearGradient id="paint32_linear_7145_20859" x1="101.678" y1="175.406" x2="101.678" y2="178.589" gradientUnits="userSpaceOnUse">
    <stop stop-color="#4B55AF"/>
    <stop offset="1" stop-color="#A5A9D2"/>
    </linearGradient>
    <linearGradient id="paint33_linear_7145_20859" x1="195.195" y1="83.0059" x2="195.195" y2="86.1885" gradientUnits="userSpaceOnUse">
    <stop stop-color="#4B55AF"/>
    <stop offset="1" stop-color="#A5A9D2"/>
    </linearGradient>
    <linearGradient id="paint34_linear_7145_20859" x1="232.751" y1="181.668" x2="232.751" y2="184.851" gradientUnits="userSpaceOnUse">
    <stop stop-color="#4B55AF"/>
    <stop offset="1" stop-color="#A5A9D2"/>
    </linearGradient>
    <linearGradient id="paint35_linear_7145_20859" x1="187.069" y1="117.604" x2="187.069" y2="120.787" gradientUnits="userSpaceOnUse">
    <stop stop-color="#4B55AF"/>
    <stop offset="1" stop-color="#A5A9D2"/>
    </linearGradient>
    <linearGradient id="paint36_linear_7145_20859" x1="339.466" y1="113.806" x2="339.466" y2="116.988" gradientUnits="userSpaceOnUse">
    <stop stop-color="#4B55AF"/>
    <stop offset="1" stop-color="#A5A9D2"/>
    </linearGradient>
    <linearGradient id="paint37_linear_7145_20859" x1="35.8019" y1="121.608" x2="35.8019" y2="124.791" gradientUnits="userSpaceOnUse">
    <stop stop-color="#4B55AF"/>
    <stop offset="1" stop-color="#A5A9D2"/>
    </linearGradient>
    <linearGradient id="paint38_linear_7145_20859" x1="42.766" y1="172.788" x2="42.766" y2="180.283" gradientUnits="userSpaceOnUse">
    <stop stop-color="#4B55AF"/>
    <stop offset="1" stop-color="#A5A9D2"/>
    </linearGradient>
    <linearGradient id="paint39_linear_7145_20859" x1="68.009" y1="216.216" x2="68.009" y2="235.517" gradientUnits="userSpaceOnUse">
    <stop stop-color="#4B55AF"/>
    <stop offset="1" stop-color="#A5A9D2"/>
    </linearGradient>
    <linearGradient id="paint40_linear_7145_20859" x1="62.4675" y1="192.295" x2="62.4675" y2="211.596" gradientUnits="userSpaceOnUse">
    <stop stop-color="#4B55AF"/>
    <stop offset="1" stop-color="#A5A9D2"/>
    </linearGradient>
    <linearGradient id="paint41_linear_7145_20859" x1="54.2587" y1="197.633" x2="54.2587" y2="224.635" gradientUnits="userSpaceOnUse">
    <stop stop-color="#4B55AF"/>
    <stop offset="1" stop-color="#A5A9D2"/>
    </linearGradient>
    <linearGradient id="paint42_linear_7145_20859" x1="117.211" y1="5.23584" x2="117.211" y2="168.27" gradientUnits="userSpaceOnUse">
    <stop stop-color="#4B55AF"/>
    <stop offset="1" stop-color="#A5A9D2"/>
    </linearGradient>
    <linearGradient id="paint43_linear_7145_20859" x1="86.9397" y1="68.376" x2="86.9397" y2="110.367" gradientUnits="userSpaceOnUse">
    <stop stop-color="#4B55AF"/>
    <stop offset="1" stop-color="#A5A9D2"/>
    </linearGradient>
    <linearGradient id="paint44_linear_7145_20859" x1="83.0929" y1="165.704" x2="83.0929" y2="177.202" gradientUnits="userSpaceOnUse">
    <stop stop-color="#4B55AF"/>
    <stop offset="1" stop-color="#A5A9D2"/>
    </linearGradient>
    <linearGradient id="paint45_linear_7145_20859" x1="156.305" y1="143.836" x2="156.305" y2="183.157" gradientUnits="userSpaceOnUse">
    <stop stop-color="#4B55AF"/>
    <stop offset="1" stop-color="#A5A9D2"/>
    </linearGradient>
    <linearGradient id="paint46_linear_7145_20859" x1="97.3552" y1="3.18262" x2="97.3552" y2="76.9999" gradientUnits="userSpaceOnUse">
    <stop stop-color="#4B55AF"/>
    <stop offset="1" stop-color="#A5A9D2"/>
    </linearGradient>
    <clipPath id="clip0_7145_20859">
    <rect width="342" height="383" fill="white" transform="matrix(-1 0 0 1 342 0)"/>
    </clipPath>
    </defs>
    </svg>
    