<svg width="470" height="380" viewBox="0 0 470 380" fill="none" xmlns="http://www.w3.org/2000/svg">
    <rect opacity="0.5" x="117" y="35" width="223" height="300" rx="25" fill="url(#paint0_linear_7136_4169)"/>
    <rect opacity="0.58" x="127" y="45" width="203" height="280" rx="16" fill="url(#paint1_linear_7136_4169)"/>
    <g opacity="0.1">
    <path d="M426.937 334.46H410.521C408.766 325.394 407.587 311.415 412.696 298.103C421.212 275.909 443.982 264 443.982 264C443.982 264 452.943 288.081 444.414 310.275C440.432 320.638 433.357 328.748 426.937 334.46Z" fill="#7CE6DF"/>
    <path d="M426.307 277.586C426.53 277.35 426.752 277.127 426.988 276.905C435.517 268.428 443.967 264.013 443.967 264.013L416.926 334.473H410.507C410.336 333.621 410.179 332.73 410.035 331.8C410.035 331.8 410.035 331.8 410.035 331.787C409.983 331.499 409.943 331.198 409.904 330.909C409.904 330.87 409.891 330.831 409.891 330.778C409.852 330.516 409.812 330.241 409.773 329.966C409.76 329.914 409.76 329.874 409.747 329.822C409.707 329.521 409.668 329.232 409.629 328.931C409.629 328.918 409.629 328.892 409.616 328.879C409.537 328.223 409.459 327.555 409.393 326.874C409.393 326.822 409.38 326.769 409.38 326.717C409.354 326.442 409.328 326.167 409.301 325.878C409.288 325.8 409.288 325.708 409.275 325.629C409.249 325.38 409.236 325.118 409.21 324.856C409.197 324.765 409.197 324.673 409.183 324.581C409.17 324.306 409.144 324.031 409.131 323.756C409.131 323.69 409.118 323.625 409.118 323.546C409.079 322.852 409.052 322.144 409.026 321.424C409.026 321.332 409.026 321.24 409.013 321.149C409 320.887 409 320.625 409 320.363C409 320.245 409 320.127 409 320.009C409 319.76 409 319.511 409 319.262C409 319.144 409 319.026 409 318.895C409 318.633 409 318.371 409.013 318.096C409.013 317.991 409.013 317.886 409.013 317.795C409.026 317.428 409.026 317.048 409.039 316.681C409.052 316.314 409.065 315.947 409.092 315.58C409.092 315.463 409.105 315.345 409.118 315.24C409.131 314.978 409.144 314.716 409.17 314.467C409.183 314.336 409.197 314.192 409.197 314.061C409.21 313.812 409.236 313.576 409.262 313.327C409.275 313.183 409.288 313.052 409.301 312.908C409.328 312.646 409.354 312.384 409.38 312.122C409.393 312.004 409.406 311.886 409.419 311.755C409.459 311.375 409.511 310.995 409.563 310.615C409.563 310.602 409.563 310.589 409.563 310.576C409.616 310.209 409.668 309.842 409.721 309.475C409.734 309.344 409.76 309.226 409.786 309.095C409.825 308.833 409.865 308.571 409.917 308.309C409.943 308.165 409.97 308.021 409.996 307.877C410.035 307.628 410.087 307.379 410.14 307.13C410.166 306.986 410.192 306.842 410.218 306.698C410.271 306.436 410.323 306.174 410.389 305.911C410.415 305.78 410.441 305.663 410.467 305.532C410.559 305.139 410.638 304.759 410.742 304.366C410.742 304.352 410.742 304.352 410.742 304.339C410.834 303.959 410.939 303.579 411.031 303.199C411.07 303.082 411.096 302.951 411.136 302.833C411.214 302.571 411.28 302.295 411.358 302.033C411.398 301.889 411.45 301.745 411.489 301.601C411.568 301.352 411.646 301.103 411.725 300.841C411.764 300.697 411.817 300.553 411.869 300.409C411.961 300.147 412.053 299.872 412.144 299.61C412.184 299.492 412.223 299.361 412.275 299.243C412.419 298.85 412.55 298.47 412.708 298.09C415.642 290.439 420.267 284.019 425.075 278.883C425.468 278.451 425.888 278.005 426.307 277.586Z" fill="#21B3AA"/>
    </g>
    <g opacity="0.32">
    <path d="M71.2197 334.324H89.2348C91.1614 324.375 92.4554 309.034 86.8481 294.426C77.5027 270.069 52.5145 257 52.5145 257C52.5145 257 42.6802 283.427 52.04 307.783C56.4108 319.156 64.1747 328.056 71.2197 334.324Z" fill="#7CE6DF"/>
    <path d="M71.9105 271.91C71.6661 271.651 71.4217 271.406 71.1629 271.162C61.8031 261.86 52.5296 257.014 52.5296 257.014L82.2049 334.338H89.2499C89.4368 333.404 89.6094 332.426 89.7675 331.405C89.7675 331.405 89.7675 331.405 89.7675 331.391C89.825 331.075 89.8681 330.744 89.9113 330.428C89.9113 330.385 89.9256 330.341 89.9256 330.284C89.9688 329.996 90.0119 329.694 90.0551 329.392C90.0694 329.335 90.0694 329.292 90.0838 329.234C90.1269 328.904 90.1701 328.587 90.2132 328.257C90.2132 328.242 90.2132 328.213 90.2276 328.199C90.3138 327.48 90.4001 326.747 90.472 325.999C90.472 325.942 90.4864 325.884 90.4864 325.827C90.5151 325.525 90.5439 325.223 90.5726 324.907C90.587 324.82 90.587 324.72 90.6014 324.633C90.6301 324.36 90.6445 324.073 90.6733 323.785C90.6876 323.684 90.6877 323.584 90.702 323.483C90.7164 323.181 90.7452 322.879 90.7595 322.577C90.7595 322.505 90.7739 322.434 90.7739 322.347C90.8171 321.585 90.8458 320.809 90.8746 320.018C90.8746 319.917 90.8746 319.817 90.8889 319.716C90.9033 319.429 90.9033 319.141 90.9033 318.853C90.9033 318.724 90.9033 318.595 90.9033 318.465C90.9033 318.192 90.9033 317.919 90.9033 317.646C90.9033 317.516 90.9033 317.387 90.9033 317.243C90.9033 316.956 90.9033 316.668 90.8889 316.366C90.8889 316.251 90.8889 316.136 90.8889 316.035C90.8746 315.633 90.8746 315.216 90.8602 314.813C90.8458 314.411 90.8314 314.008 90.8027 313.606C90.8027 313.476 90.7883 313.347 90.7739 313.232C90.7596 312.944 90.7452 312.657 90.7164 312.383C90.702 312.24 90.6877 312.081 90.6877 311.938C90.6733 311.665 90.6445 311.406 90.6158 311.133C90.6014 310.974 90.587 310.831 90.5726 310.672C90.5439 310.385 90.5151 310.097 90.4864 309.81C90.472 309.68 90.4576 309.551 90.4432 309.407C90.4001 308.99 90.3426 308.573 90.2851 308.156C90.2851 308.142 90.2851 308.128 90.2851 308.113C90.2276 307.711 90.1701 307.308 90.1126 306.905C90.0982 306.762 90.0694 306.632 90.0407 306.488C89.9975 306.201 89.9544 305.913 89.8969 305.626C89.8681 305.468 89.8394 305.309 89.8106 305.151C89.7675 304.878 89.71 304.605 89.6525 304.332C89.6237 304.174 89.595 304.015 89.5662 303.857C89.5087 303.57 89.4512 303.282 89.3793 302.995C89.3505 302.851 89.3218 302.721 89.293 302.578C89.1924 302.146 89.1061 301.729 88.9911 301.298C88.9911 301.284 88.9911 301.284 88.9911 301.269C88.8905 300.852 88.7754 300.435 88.6748 300.018C88.6317 299.889 88.6029 299.745 88.5598 299.616C88.4735 299.328 88.4016 299.026 88.3154 298.739C88.2722 298.581 88.2147 298.422 88.1716 298.264C88.0853 297.991 87.999 297.718 87.9128 297.43C87.8696 297.272 87.8122 297.114 87.7546 296.956C87.654 296.668 87.5533 296.366 87.4527 296.079C87.4096 295.949 87.3664 295.806 87.3089 295.676C87.1508 295.245 87.007 294.828 86.8345 294.411C83.6139 286.014 78.5386 278.969 73.262 273.333C72.8307 272.859 72.3706 272.37 71.9105 271.91Z" fill="#21B3AA"/>
    </g>
    <g opacity="0.1">
    <path d="M429.425 311.29C420.438 321.313 420.307 335.855 420.307 335.855C420.307 335.855 434.757 334.152 443.745 324.143C452.732 314.12 452.863 299.577 452.863 299.577C452.863 299.577 438.413 301.267 429.425 311.29Z" fill="#7CE6DF"/>
    <path d="M452.85 299.577L420.293 335.855C420.293 335.855 420.424 321.313 429.411 311.29C438.412 301.267 452.85 299.577 452.85 299.577Z" fill="#21B3AA"/>
    </g>
    <g opacity="0.32">
    <path d="M61.7207 308.897C71.5837 319.896 71.7275 335.855 71.7275 335.855C71.7275 335.855 55.8691 333.986 46.006 323.002C36.143 312.002 35.9993 296.043 35.9993 296.043C35.9993 296.043 51.8577 297.898 61.7207 308.897Z" fill="#7CE6DF"/>
    <path d="M36.0149 296.043L71.7432 335.855C71.7432 335.855 71.5994 319.896 61.7364 308.897C51.859 297.898 36.0149 296.043 36.0149 296.043Z" fill="#21B3AA"/>
    </g>
    <path opacity="0.2" d="M458.401 345.538H7.17426C3.21151 345.538 0 343.574 0 341.152V339.923C0 337.501 3.21151 335.538 7.17426 335.538H458.401C462.364 335.538 465.576 337.501 465.576 339.923V341.152C465.576 343.574 462.364 345.538 458.401 345.538Z" fill="url(#paint2_linear_7136_4169)"/>
    <path d="M372.01 238.726V238.501C372.01 235.327 370.526 232.36 368.028 230.388C359.126 223.382 338.336 202.573 338.336 160.766H427.526C427.526 202.591 406.736 223.401 397.833 230.388C395.336 232.341 393.852 235.327 393.852 238.501V238.726C393.852 241.9 395.336 244.868 397.833 246.84C406.736 253.845 427.526 274.636 427.526 316.462H338.336C338.336 274.636 359.126 253.826 368.028 246.84C370.526 244.887 372.01 241.9 372.01 238.726Z" fill="url(#paint3_linear_7136_4169)"/>
    <path d="M343.012 334.529H422.831C424.521 334.529 425.892 333.158 425.892 331.468V321.645C425.892 319.955 424.521 318.584 422.831 318.584H343.012C341.322 318.584 339.951 319.955 339.951 321.645V331.468C339.97 333.158 341.341 334.529 343.012 334.529Z" fill="url(#paint4_linear_7136_4169)"/>
    <path d="M328.288 313.288H437.554C439.245 313.288 440.616 314.659 440.616 316.349V320.856C440.616 322.547 439.245 323.918 437.554 323.918H328.288C326.598 323.918 325.227 322.547 325.227 320.856V316.349C325.245 314.659 326.616 313.288 328.288 313.288Z" fill="url(#paint5_linear_7136_4169)"/>
    <path d="M343.012 143.036H422.831C424.521 143.036 425.892 144.407 425.892 146.097V155.92C425.892 157.61 424.521 158.981 422.831 158.981H343.012C341.322 158.981 339.951 157.61 339.951 155.92V146.079C339.97 144.388 341.341 143.036 343.012 143.036Z" fill="url(#paint6_linear_7136_4169)"/>
    <path d="M328.288 164.278H437.554C439.245 164.278 440.616 162.907 440.616 161.216V156.709C440.616 155.018 439.245 153.647 437.554 153.647H328.288C326.598 153.647 325.227 155.018 325.227 156.709V161.216C325.245 162.907 326.616 164.278 328.288 164.278Z" fill="url(#paint7_linear_7136_4169)"/>
    <path opacity="0.12" d="M388.124 222.311C389.138 222.311 390.152 221.898 390.885 221.072C391.373 220.527 402.848 207.549 408.764 189.82C409.421 187.885 408.37 185.782 406.435 185.143C406.041 185.012 405.646 184.956 405.252 184.956C403.712 184.956 402.266 185.932 401.74 187.491C396.294 203.774 385.457 216.038 385.363 216.151C384.011 217.672 384.142 220.02 385.664 221.372C386.358 222.011 387.241 222.311 388.124 222.311Z" fill="white"/>
    <path opacity="0.12" d="M407.693 182.852C409.458 182.852 411.017 181.575 411.336 179.791C411.712 177.65 411.956 175.509 412.106 173.405C412.238 171.358 410.679 169.611 408.65 169.48C408.575 169.48 408.5 169.48 408.406 169.48C406.472 169.48 404.838 170.982 404.725 172.955C404.613 174.776 404.387 176.654 404.068 178.533C403.711 180.542 405.063 182.458 407.073 182.815C407.261 182.833 407.467 182.852 407.693 182.852Z" fill="white"/>
    <path opacity="0.05" d="M319.106 314H137.894C131.867 314 127 310.405 127 305.953V274.047C127 269.595 131.867 266 137.894 266H319.106C325.133 266 330 269.595 330 274.047V305.953C330 310.405 325.108 314 319.106 314Z" fill="url(#paint8_linear_7136_4169)"/>
    <path opacity="0.1" d="M167.683 308.931H141.09C138.272 308.931 136 306.658 136 303.841V277.247C136 274.43 138.272 272.157 141.09 272.157H167.683C170.5 272.157 172.773 274.43 172.773 277.247V303.841C172.773 306.658 170.5 308.931 167.683 308.931Z" fill="url(#paint9_linear_7136_4169)"/>
    <g opacity="0.5">
    <g opacity="0.3">
    <path d="M154.386 277.454C147.156 277.454 141.296 283.313 141.296 290.544C141.296 297.775 147.156 303.635 154.386 303.635C161.617 303.635 167.476 297.775 167.476 290.544C167.476 283.313 161.617 277.454 154.386 277.454ZM154.386 299.428C149.484 299.428 145.503 295.446 145.503 290.544C145.503 285.642 149.484 281.661 154.386 281.661C159.288 281.661 163.269 285.642 163.269 290.544C163.269 295.446 159.288 299.428 154.386 299.428Z" fill="white"/>
    </g>
    <path d="M167.477 290.544C167.477 288.177 166.838 285.961 165.749 284.027L162.011 285.999C162.8 287.332 163.251 288.872 163.251 290.525C163.251 295.427 159.269 299.409 154.368 299.409C154.349 299.409 154.349 299.409 154.33 299.409V303.616C154.349 303.616 154.349 303.616 154.368 303.616C161.617 303.634 167.477 297.775 167.477 290.544Z" fill="#7CE6DF"/>
    <path d="M154.386 277.454C154.048 277.454 153.71 277.472 153.372 277.491L153.71 281.698C153.936 281.679 154.161 281.661 154.386 281.661C157.804 281.661 160.772 283.595 162.255 286.431L165.936 284.346C163.702 280.233 159.382 277.454 154.386 277.454Z" fill="#FB7DC1"/>
    </g>
    <path opacity="0.2" d="M157.611 193C147.883 193 140.018 200.883 140.018 210.593C140.018 220.321 147.9 228.187 157.611 228.187C167.321 228.187 175.203 220.304 175.203 210.593C175.203 200.883 167.321 193 157.611 193ZM157.611 222.201C151.194 222.201 146.003 217.01 146.003 210.593C146.003 204.177 151.194 198.985 157.611 198.985C164.027 198.985 169.218 204.177 169.218 210.593C169.218 217.01 164.027 222.201 157.611 222.201Z" fill="#FBE4F0"/>
    <path opacity="0.5" d="M140 210.593C140 211.456 140.069 212.284 140.19 213.112H146.278C146.106 212.301 146.002 211.456 146.002 210.593C146.002 204.177 151.194 198.985 157.61 198.985C157.662 198.985 157.714 198.985 157.765 198.985V193C157.714 193 157.662 193 157.61 193C147.882 193 140 200.883 140 210.593Z" fill="#FCC418"/>
    <path opacity="0.2" d="M215.546 216.477H184.321V222.906H215.546V216.477Z" fill="#FBE4F0"/>
    <path opacity="0.05" d="M317 284H184V290H317V284Z" fill="#EFFCFB"/>
    <path opacity="0.5" d="M200.852 202.702H184.321V209.13H200.852V202.702Z" fill="#FCC418"/>
    <path opacity="0.5" d="M254 270H184V276H254V270Z" fill="#7CE6DF"/>
    <g opacity="0.55">
    <path opacity="0.21" d="M251.254 193C241.526 193 233.661 200.883 233.661 210.593C233.661 220.321 241.543 228.187 251.254 228.187C260.965 228.187 268.847 220.304 268.847 210.593C268.847 200.883 260.965 193 251.254 193ZM251.254 222.201C244.838 222.201 239.646 217.01 239.646 210.593C239.646 204.177 244.838 198.985 251.254 198.985C257.67 198.985 262.862 204.177 262.862 210.593C262.862 217.01 257.67 222.201 251.254 222.201Z" fill="#EFFCFB"/>
    <path d="M233.644 210.593C233.644 211.456 233.713 212.284 233.833 213.112H239.922C239.749 212.301 239.646 211.456 239.646 210.593C239.646 204.177 244.837 198.985 251.254 198.985C251.305 198.985 251.357 198.985 251.409 198.985V193C251.357 193 251.305 193 251.254 193C241.526 193 233.644 200.883 233.644 210.593Z" fill="#7CE6DF"/>
    <path opacity="0.21" d="M309.192 216.477H277.967V222.906H309.192V216.477Z" fill="#EFFCFB"/>
    <path d="M294.498 202.702H277.967V209.13H294.498V202.702Z" fill="#7CE6DF"/>
    </g>
    <path d="M407.036 93.0407C414.004 88.5708 409.422 80.1568 406.717 73.3017C404.013 66.4465 402.247 65.9206 403.6 59.798C403.6 59.798 400.144 52.7362 399.28 51.5342C391.561 47.7404 384.274 50.8581 383.241 62.2771C381.063 69.4515 373.475 73.189 369.325 74.4285C365.174 75.6681 363.615 80.7578 366 82.3166C362.357 87.0871 368.799 100.403 382.828 94.2615C398.003 94.8061 407.036 93.0407 407.036 93.0407Z" fill="#9A00D0"/>
    <path d="M432.22 200.525C432.953 199.06 433.742 196.262 433.554 192.224C433.347 190.721 433.084 188.825 432.803 186.646C432.652 185.557 432.502 184.411 432.352 183.209L439.564 185.143C439.432 186.439 439.32 187.66 439.226 188.768C439 191.135 439.075 193.539 439.489 195.868C439.62 196.581 439.77 197.182 439.92 197.501C440.503 198.666 444.634 202.666 446.531 206.141C446.7 206.554 450.982 207.23 450.344 208.226C449.949 208.432 442.493 209.033 441.667 208.226C440.841 207.418 438.85 205.427 436.634 204.976C436.502 204.995 436.502 208.601 436.502 208.601L433.272 208.62C433.272 208.62 432.896 205.427 432.746 204.469C432.577 203.474 431.488 202.009 432.22 200.525Z" fill="#F4ACC8"/>
    <path d="M446.532 206.179C445.18 206.329 443.696 206.629 443.189 206.404C442.494 206.103 437.893 200.375 432.822 198.985C432.634 199.605 432.427 200.112 432.221 200.525C431.47 202.009 432.578 203.474 432.728 204.432C432.878 205.39 433.254 208.583 433.254 208.583L436.484 208.564C436.484 208.564 436.484 204.977 436.615 204.939C438.832 205.39 440.822 207.381 441.649 208.188C442.475 208.996 449.931 208.414 450.325 208.188C450.945 207.268 446.926 206.629 446.532 206.179Z" fill="#29CE44"/>
    <path d="M407.111 119.278L408.745 124.969C425.103 127.354 455.998 129.495 457.369 138.641C458.74 147.788 446.232 172.635 446.232 172.635L445.462 192.45H430.681L421.836 151.751C421.836 151.751 385.326 153.685 379.241 143.356C374.339 135.054 380.687 124.762 380.687 124.762L400.35 112.254L407.111 119.278Z" fill="url(#paint10_linear_7136_4169)"/>
    <path opacity="0.21" d="M445.837 171.603C445.95 171.603 446.044 171.509 446.025 171.396C445.987 170.175 445.274 141.402 442.231 136.332C439.17 131.223 409.215 128.425 407.938 128.312C407.825 128.293 407.731 128.387 407.731 128.481C407.712 128.594 407.806 128.688 407.9 128.688C408.219 128.725 438.945 131.58 441.893 136.519C444.879 141.496 445.612 171.096 445.631 171.377C445.649 171.528 445.724 171.603 445.837 171.603Z" fill="white"/>
    <path opacity="0.21" d="M422.117 151.638C422.549 151.638 423.695 150.943 424.183 150.643C424.277 150.586 424.296 150.474 424.239 150.38C424.183 150.286 424.07 150.267 423.976 150.323C423.319 150.737 422.512 151.169 422.211 151.244C422.211 150.981 422.38 150.323 422.511 149.816C422.699 149.065 422.906 148.276 422.906 147.788C422.906 147.675 422.812 147.6 422.718 147.6C422.624 147.6 422.53 147.694 422.53 147.788C422.53 148.22 422.324 149.027 422.155 149.722C421.873 150.868 421.76 151.319 421.911 151.525C421.948 151.582 422.023 151.638 422.098 151.638H422.117Z" fill="white"/>
    <path opacity="0.21" d="M389.607 135.092C389.626 135.092 389.645 135.092 389.664 135.073C390.434 134.81 391.354 133.758 391.899 132.519C392.368 131.448 392.969 129.251 391.767 126.64C391.73 126.546 391.598 126.509 391.504 126.546C391.41 126.584 391.373 126.715 391.41 126.809C392.556 129.269 391.974 131.335 391.542 132.368C390.997 133.645 390.114 134.509 389.551 134.697C389.457 134.735 389.401 134.847 389.42 134.941C389.457 135.035 389.532 135.092 389.607 135.092Z" fill="white"/>
    <path opacity="0.21" d="M434.963 192.037C434.963 192.037 434.982 192.037 434.963 192.037C435.095 192.018 435.17 191.924 435.151 191.83C434.738 187.585 431.113 150.305 428.935 149.291C428.334 149.009 427.996 148.746 427.939 148.464C427.845 148.107 428.165 147.657 428.578 147.112C428.766 146.849 428.991 146.549 429.179 146.229C429.235 146.135 429.254 146.004 429.198 145.91C428.709 144.896 420.389 143.75 407.75 142.135C402.454 141.459 397.871 140.877 395.824 140.445C390.077 139.28 386.227 134.585 386.227 128.744C386.227 128.631 386.133 128.556 386.039 128.556C385.945 128.556 385.852 128.65 385.852 128.744C385.852 134.679 389.927 139.637 395.768 140.82C397.834 141.233 402.416 141.834 407.731 142.511C415.92 143.562 428.24 145.14 428.86 146.041C428.672 146.342 428.484 146.624 428.277 146.887C427.827 147.506 427.451 148.032 427.582 148.577C427.695 148.99 428.071 149.328 428.803 149.666C430.287 150.361 433.198 175.303 434.794 191.886C434.776 191.961 434.869 192.037 434.963 192.037Z" fill="white"/>
    <path d="M454.007 89.4537C454.007 89.4537 456.58 87.6131 457.294 87.538C458.007 87.4628 458.834 86.8431 459.773 85.9228C459.773 85.9228 461.294 86.4862 461.97 86.0543C462.646 85.6223 463.942 82.8802 464.017 81.8097C464.092 80.7204 462.477 79.3494 462.477 79.3494L463.491 78.7108C463.491 78.7108 464.731 78.8423 465.971 79.1428C467.21 79.4433 468.112 79.1052 468.055 78.5793C468.055 78.5793 464.111 77.0768 463.717 77.0205C463.322 76.9454 461.294 77.0393 460.261 77.6027C459.209 78.1662 453.012 83.7442 451.753 84.4954C445.067 89.0592 432.973 91.7825 432.973 91.7825L435.564 101.793C443.509 99.0508 454.007 89.4537 454.007 89.4537Z" fill="#F4ACC8"/>
    <path d="M461.782 85.7915C461.764 85.7915 461.764 85.7727 461.745 85.7727C461.726 85.7351 461.726 85.6976 461.764 85.66C462.064 85.4346 462.214 85.1529 462.233 84.8336C462.289 83.8382 460.956 82.5611 460.055 81.7347L459.886 81.5657C459.754 81.4342 459.735 81.2652 459.829 81.0774C460.167 80.4764 461.632 79.7251 461.97 79.819C462.008 79.8378 462.027 79.8754 462.027 79.9129C462.008 79.9505 461.97 79.9693 461.933 79.9693C461.689 79.8942 460.261 80.5891 459.961 81.1525C459.867 81.3215 459.923 81.4154 459.979 81.453L460.149 81.622C461.106 82.5423 462.421 83.7819 462.365 84.8524C462.346 85.2092 462.158 85.5285 461.82 85.7915C461.839 85.7915 461.801 85.7915 461.782 85.7915Z" fill="#E0B3A8"/>
    <path d="M461.388 82.3545C461.388 82.3545 461.369 82.3545 461.369 82.3357C461.331 82.2982 461.331 82.2606 461.369 82.2231C461.369 82.2231 461.914 81.6408 462.008 80.6454C462.008 80.6079 462.045 80.5703 462.083 80.5703C462.12 80.5703 462.158 80.6079 462.158 80.6454C462.064 81.6972 461.5 82.2982 461.482 82.317C461.444 82.3545 461.407 82.3545 461.388 82.3545Z" fill="#E0B3A8"/>
    <path d="M462.646 83.7253C462.627 83.7253 462.627 83.7066 462.608 83.7066C462.589 83.669 462.589 83.6314 462.627 83.5939C462.627 83.5939 463.19 83.1807 463.378 82.3543C463.397 82.3167 463.434 82.2792 463.472 82.298C463.51 82.3167 463.547 82.3543 463.528 82.3919C463.322 83.2746 462.74 83.7066 462.721 83.7066C462.702 83.7441 462.683 83.7441 462.646 83.7253Z" fill="#E0B3A8"/>
    <path opacity="0.5" d="M430.249 91.3695C430.85 89.2284 433.78 88.1579 435.658 91.4821C437.555 94.8064 438.531 102.244 436.428 104.253C434.456 106.131 432.221 104.197 431.808 103.277C431.376 102.356 430.249 91.3695 430.249 91.3695Z" fill="#25B4AB"/>
    <path d="M406.942 79.5938C414.135 83.0871 420.821 91.7827 432.522 91.3883C436.71 96.7785 435.113 102.075 433.217 104.084C427.019 106.977 413.403 104.422 407.243 100.197C402.153 96.6846 400.162 89.1909 406.942 79.5938Z" fill="#25B4AB"/>
    <path d="M409.008 125.044H380.536C373.156 100.591 377.813 80.8705 377.813 80.8705C381.381 78.166 385.739 77.6777 385.739 77.6777L397.627 77.3584C402.228 77.565 406.923 79.5934 406.923 79.5934C409.797 88.2703 414.248 95.4635 414.079 100.084C413.929 104.704 407.337 115.39 409.008 125.044Z" fill="url(#paint11_linear_7136_4169)"/>
    <path d="M391.655 69.9964C386.622 70.8791 383.673 66.1838 385.157 62.4839C384.744 54.9151 387.974 47.4777 399.28 51.5157C404.914 52.2106 407.074 59.6667 402.454 61.6012C396.294 67.0665 391.655 69.9964 391.655 69.9964Z" fill="#9A00D0"/>
    <path d="M396.162 72.907C395.805 75.0105 396.556 77.2643 401.326 77.8653C406.717 96.8531 383.165 79.8185 383.222 78.4099C383.222 78.2409 387.41 77.0577 388.349 75.4237C389.269 73.7898 389.72 69.6579 389.363 64.1174C391.523 64.6809 392.274 62.9718 392.312 60.0231C392.349 57.0745 393.758 52.3792 399.486 53.1117C401.646 55.741 402.791 57.4126 402.604 60.8495C402.435 64.2865 402.81 66.7092 402.397 68.362C401.984 69.9772 400.218 72.9822 396.162 72.907Z" fill="#F4ACC8"/>
    <path d="M373.287 116.029C371.54 124.462 371.352 140.388 372.16 143.6C372.949 146.792 371.446 149.084 368.779 149.553C366.113 150.023 364.76 152.333 363.239 151.676C361.737 151.018 364.216 148.333 365.512 147.994C361.755 148.295 360.178 152.784 358.488 152.934C357.229 153.047 357.211 151.939 357.211 151.939C356.009 151.863 355.971 150.868 355.971 150.868C354.844 149.704 356.741 146.417 359.051 145.196C361.38 143.975 364.535 142.041 364.554 140.388C364.573 138.735 359.971 118.639 360.178 115.71C360.366 112.798 373.287 116.029 373.287 116.029Z" fill="#F4ACC8"/>
    <path opacity="0.5" d="M374.057 112.01C376.236 113.061 376.799 116.404 372.874 117.776C368.949 119.147 360.798 118.733 359.07 116.085C357.455 113.606 359.953 111.596 361.023 111.334C362.094 111.071 374.057 112.01 374.057 112.01Z" fill="#25B4AB"/>
    <path d="M378.282 80.6826C385.006 90.0544 381.569 103.201 377.756 106.15C373.925 109.117 374.188 113.756 374.188 113.756C369.925 117.663 360.14 114.395 359.877 113.7C361.548 100.591 368.572 84.5328 378.282 80.6826Z" fill="#25B4AB"/>
    <path d="M357.267 151.506C357.323 151.506 357.361 151.469 357.379 151.431C357.511 150.812 358.544 147.957 360.76 146.323C360.797 146.285 360.816 146.229 360.779 146.173C360.741 146.135 360.685 146.116 360.628 146.154C358.375 147.825 357.323 150.755 357.173 151.375C357.154 151.431 357.192 151.488 357.267 151.506Z" fill="#E0B3A8"/>
    <path d="M356.121 150.455C356.178 150.455 356.234 150.417 356.234 150.379C356.234 150.361 356.572 148.652 357.793 147.187C357.831 147.149 357.831 147.074 357.774 147.036C357.737 146.999 357.661 146.999 357.624 147.055C356.366 148.558 356.028 150.267 356.009 150.342C356.028 150.379 356.065 150.436 356.121 150.455Z" fill="#E0B3A8"/>
    <path d="M399.467 53.1118C394.884 58.1264 390.208 58.4269 390.208 58.4269L391.147 51.5718L399.467 53.1118Z" fill="#9A00D0"/>
    <path d="M387.974 66.8785C389.094 66.8785 390.002 65.9704 390.002 64.8501C390.002 63.7299 389.094 62.8218 387.974 62.8218C386.853 62.8218 385.945 63.7299 385.945 64.8501C385.945 65.9704 386.853 66.8785 387.974 66.8785Z" fill="#F4ACC8"/>
    <path d="M387.974 63.4038C387.523 63.4038 387.11 63.6104 386.847 63.9485C386.809 63.986 386.828 64.0424 386.865 64.0612C386.903 64.0987 386.959 64.0799 386.978 64.0424C387.222 63.7419 387.579 63.5541 387.974 63.5541C388.161 63.5541 388.349 63.5916 388.518 63.6855C388.499 63.6855 388.481 63.6855 388.462 63.6855C387.992 63.6855 387.598 64.0799 387.598 64.5495C387.598 65.019 387.992 65.4134 388.462 65.4134C388.8 65.4134 389.1 65.2068 389.232 64.9251C389.213 65.3007 389.006 65.6576 388.706 65.8829C388.668 65.9017 388.65 65.9581 388.687 65.9956C388.706 66.0144 388.725 66.0332 388.762 66.0332C388.781 66.0332 388.8 66.0332 388.819 66.0144C389.194 65.7515 389.42 65.3007 389.42 64.8312C389.42 64.0424 388.762 63.4038 387.974 63.4038ZM388.462 65.2444C388.086 65.2444 387.767 64.9251 387.767 64.5495C387.767 64.1738 388.086 63.8546 388.462 63.8546C388.837 63.8546 389.157 64.1738 389.157 64.5495C389.157 64.9439 388.837 65.2444 388.462 65.2444Z" fill="#E783AA"/>
    <path d="M395.598 72.8133C391.335 71.1982 390.527 67.348 390.358 66.9536C391.391 73.9027 393.814 77.2457 395.598 72.8133Z" fill="#E783AA"/>
    <path d="M102.927 139.856C97.5552 140.795 94.4376 135.799 95.9964 131.874C95.5645 123.836 98.9826 115.91 111.021 120.211C117.012 120.962 119.322 128.888 114.383 130.935C107.847 136.739 102.927 139.856 102.927 139.856Z" fill="#9A00D0"/>
    <path d="M107.716 142.936C107.34 145.19 108.073 147.012 111.247 149.153C111.153 159.257 96.0717 152.158 96.1281 150.674C96.1281 150.486 98.4193 147.331 99.3959 145.603C100.373 143.875 100.842 139.481 100.466 133.583C102.758 134.184 103.546 132.363 103.603 129.226C103.64 126.09 105.143 121.094 111.228 121.883C113.519 124.681 114.74 126.465 114.552 130.109C114.364 133.752 114.777 136.344 114.327 138.091C113.913 139.837 112.035 143.03 107.716 142.936Z" fill="#F4ACC8"/>
    <path d="M106.795 133.696C106.551 133.696 105.987 133.584 105.818 132.682C105.818 132.644 105.837 132.626 105.875 132.607C105.912 132.607 105.931 132.626 105.95 132.663C106.119 133.546 106.645 133.602 106.87 133.584C106.908 133.584 106.926 133.602 106.926 133.64C106.926 133.677 106.908 133.696 106.87 133.696C106.833 133.696 106.814 133.696 106.795 133.696Z" fill="#E0B3A8"/>
    <path d="M112.279 133.846C112.035 133.846 111.472 133.733 111.303 132.832C111.303 132.794 111.322 132.776 111.359 132.757C111.397 132.757 111.415 132.776 111.434 132.813C111.603 133.696 112.129 133.752 112.354 133.733C112.392 133.733 112.411 133.752 112.411 133.79C112.411 133.827 112.392 133.846 112.354 133.846C112.317 133.846 112.298 133.846 112.279 133.846Z" fill="#E0B3A8"/>
    <path d="M100.52 136.394C101.407 135.507 101.407 134.068 100.52 133.18C99.6324 132.293 98.1935 132.293 97.3061 133.18C96.4186 134.068 96.4186 135.507 97.3061 136.394C98.1935 137.281 99.6324 137.281 100.52 136.394Z" fill="#FF7A52"/>
    <path d="M98.9079 133.151C98.4008 133.151 97.9501 133.377 97.6308 133.771C97.5933 133.809 97.612 133.865 97.6496 133.903C97.6872 133.94 97.7435 133.921 97.7811 133.884C98.0628 133.546 98.4572 133.339 98.9079 133.339C99.1333 133.339 99.3399 133.396 99.5277 133.471C99.5089 133.471 99.4901 133.471 99.4713 133.471C98.9267 133.471 98.4947 133.903 98.4947 134.447C98.4947 134.992 98.9267 135.424 99.4713 135.424C99.8657 135.424 100.185 135.199 100.354 134.86C100.335 135.292 100.11 135.687 99.7531 135.931C99.7155 135.969 99.6967 136.025 99.7343 136.062C99.7531 136.081 99.7906 136.1 99.8094 136.1C99.8282 136.1 99.847 136.1 99.8657 136.081C100.298 135.781 100.542 135.274 100.542 134.748C100.542 133.884 99.8094 133.151 98.9079 133.151ZM99.4713 135.236C99.0394 135.236 98.6826 134.879 98.6826 134.447C98.6826 134.015 99.0394 133.658 99.4713 133.658C99.9033 133.658 100.26 134.015 100.26 134.447C100.26 134.879 99.9033 135.236 99.4713 135.236Z" fill="#E0B3A8"/>
    <path d="M107.415 142.899C103.265 141.885 101.593 138.26 101.387 137.077C102.213 144.401 106.401 149.209 107.415 142.899Z" fill="#E783AA"/>
    <path d="M81.4973 326.617C82.3048 325.02 83.15 321.959 82.9434 317.564C82.718 315.911 82.4363 313.845 82.117 311.479C81.9668 310.296 81.7978 309.037 81.6287 307.723L89.4979 309.826C89.3664 311.235 89.2349 312.568 89.1223 313.789C88.8781 316.381 88.9532 318.991 89.4227 321.546C89.5542 322.316 89.7232 322.973 89.8923 323.33C90.512 324.607 95.0382 328.983 97.1041 332.758C97.2919 333.209 101.968 333.96 101.273 335.031C100.841 335.256 92.7094 335.894 91.7891 335.031C90.8689 334.148 88.7091 331.969 86.2864 331.481C86.1361 331.5 86.1361 335.444 86.1361 335.444L82.6053 335.462C82.6053 335.462 82.1921 331.969 82.0419 330.917C81.8729 329.847 80.6709 328.251 81.4973 326.617Z" fill="#F4ACC8"/>
    <path d="M97.1233 332.796C95.6584 332.965 94.0245 333.284 93.461 333.04C92.691 332.702 87.6765 326.466 82.1362 324.926C81.9296 325.602 81.7043 326.166 81.4789 326.617C80.6713 328.232 81.8733 329.847 82.0235 330.899C82.1738 331.95 82.587 335.444 82.587 335.444L86.1177 335.425C86.1177 335.425 86.1177 331.5 86.268 331.462C88.6907 331.95 90.8505 334.129 91.7708 335.012C92.691 335.895 100.823 335.256 101.255 335.012C101.931 333.979 97.5552 333.284 97.1233 332.796Z" fill="#29CE44"/>
    <path d="M119.041 326.617C119.849 325.02 120.694 321.959 120.488 317.564C120.262 315.911 119.98 313.845 119.661 311.479C119.511 310.296 119.342 309.037 119.173 307.723L127.042 309.826C126.911 311.235 126.779 312.568 126.666 313.789C126.422 316.381 126.497 318.991 126.967 321.546C127.098 322.316 127.267 322.973 127.436 323.33C128.056 324.607 132.582 328.983 134.648 332.758C134.836 333.209 139.512 333.96 138.818 335.031C138.386 335.256 130.254 335.894 129.333 335.031C128.413 334.148 126.253 331.969 123.83 331.481C123.68 331.5 123.68 335.444 123.68 335.444L120.149 335.462C120.149 335.462 119.736 331.969 119.586 330.917C119.436 329.847 118.234 328.251 119.041 326.617Z" fill="#F4ACC8"/>
    <path d="M134.686 332.796C133.221 332.965 131.587 333.284 131.024 333.04C130.254 332.702 125.239 326.466 119.699 324.926C119.492 325.602 119.267 326.166 119.041 326.617C118.234 328.232 119.436 329.847 119.586 330.899C119.736 331.95 120.149 335.444 120.149 335.444L123.68 335.425C123.68 335.425 123.68 331.5 123.83 331.462C126.253 331.95 128.413 334.129 129.333 335.012C130.254 335.895 138.386 335.256 138.818 335.012C139.494 333.979 135.118 333.284 134.686 332.796Z" fill="#29CE44"/>
    <path d="M130.066 319.423C130.159 319.423 130.253 319.348 130.253 319.235C130.253 319.142 130.178 319.048 130.066 319.048L114.421 318.86C114.309 318.86 114.233 318.935 114.233 319.048C114.233 319.142 114.309 319.235 114.421 319.235L130.066 319.423Z" fill="#BFBFBF"/>
    <path d="M93.7435 318.653C93.8374 318.653 93.9313 318.578 93.9313 318.466C93.9313 318.372 93.8562 318.278 93.7435 318.278L75.9769 317.883C75.8642 317.883 75.7891 317.958 75.7891 318.071C75.7891 318.165 75.8642 318.259 75.9769 318.259L93.7435 318.653Z" fill="#BFBFBF"/>
    <path d="M92.9924 150.899C81.3295 155.012 75.1882 183.466 76.5216 189.288C77.855 195.11 91.8467 194.772 99.5656 189.739C107.303 184.706 92.9924 150.899 92.9924 150.899Z" fill="#25B4AB"/>
    <path d="M110.552 148.458C114.308 149.472 116.374 151.82 116.374 151.82C116.374 151.82 128.901 162.45 125.708 168.16C122.515 173.869 121.689 186.453 121.689 186.453L96.3537 186.791C96.3537 185.945 89.48 172.686 88.2968 165.981C87.1136 159.276 90.081 150.599 96.5791 149.134C103.058 147.669 110.552 148.458 110.552 148.458Z" fill="url(#paint12_linear_7136_4169)"/>
    <path d="M122.177 186.49H96.4473V190.96H122.177V186.49Z" fill="#7CE6DF"/>
    <path d="M116.374 151.801C123.643 154.487 131.136 170.151 135.061 169.925C138.986 169.7 147.588 161.305 147.588 161.305L151.288 165.324C151.288 171.146 145.579 191.167 134.611 192.744C123.643 194.322 112.881 177.832 111.116 168.122C108.768 155.276 116.374 151.801 116.374 151.801Z" fill="#25B4AB"/>
    <path d="M135.662 173.832C135.737 173.832 135.813 173.775 135.813 173.7C135.888 173.137 135.662 172.16 135.475 171.371C135.399 171.071 135.324 170.733 135.287 170.545C135.587 170.733 136.245 171.371 136.245 171.728C136.245 171.822 136.32 171.897 136.414 171.897C136.507 171.897 136.583 171.822 136.583 171.728C136.583 171.296 136.038 170.733 135.719 170.47C135.324 170.15 135.193 170.169 135.136 170.188C135.099 170.188 135.043 170.244 135.005 170.282C134.93 170.413 134.967 170.62 135.155 171.465C135.324 172.179 135.568 173.174 135.493 173.681C135.475 173.775 135.55 173.85 135.625 173.869C135.644 173.832 135.644 173.832 135.662 173.832Z" fill="#D9D9D9"/>
    <path opacity="0.5" d="M119.66 186.189H117.857V191.467H119.66V186.189Z" fill="#FCC418"/>
    <path opacity="0.5" d="M106.288 186.302H104.485V191.58H106.288V186.302Z" fill="#FCC418"/>
    <g opacity="0.5">
    <path d="M99.0207 186.133H97.2178V191.411H99.0207V186.133Z" fill="#FCC418"/>
    </g>
    <path d="M147.587 161.323C147.569 160.421 147.4 154.768 147.569 154.092C147.738 153.416 151.174 148.176 151.588 147.8C152.001 147.425 155.494 145.152 155.607 145.152C156.527 145.866 156.189 146.88 155.4 147.876C154.611 148.89 153.428 150.054 153.391 150.261C153.353 150.467 152.977 151.726 153.222 151.763C153.466 151.801 155.569 154.111 156.114 154.919C156.658 155.707 156.79 157.191 156.189 158.562C155.607 159.952 151.25 165.323 151.25 165.323L147.587 161.323Z" fill="#F4ACC8"/>
    <path d="M129.352 217.216C129.352 217.216 129.145 208.595 122.196 190.96L96.4852 190.922C89.7617 200.952 86.3624 212.953 85.1228 224.954L75 322.541H95.4147C95.4147 322.541 103.434 290.951 106.045 252.337C106.045 252.337 115.416 301.375 113.67 322.917H131.925C133.652 313.639 137.014 247.529 129.352 217.216Z" fill="url(#paint13_linear_7136_4169)"/>
    <path opacity="0.1" d="M104.974 249.238C104.88 249.238 104.786 249.163 104.767 249.069C104.748 248.881 102.175 230.025 99.4521 220.784C96.6162 211.206 96.2969 209.29 101.387 198.078C101.424 197.984 101.556 197.928 101.649 197.984C101.743 198.021 101.8 198.153 101.743 198.247C96.7289 209.328 97.0482 211.206 99.8465 220.672C102.589 229.949 105.143 248.825 105.18 249.012C105.199 249.125 105.124 249.219 105.011 249.238C104.992 249.238 104.992 249.238 104.974 249.238Z" fill="white"/>
    <path opacity="0.1" d="M125.84 318.841C125.727 318.841 125.633 318.747 125.633 318.634C125.652 317.902 127.436 244.223 117.558 194.81C117.539 194.697 117.614 194.585 117.727 194.566C117.839 194.547 117.952 194.622 117.971 194.735C127.868 244.205 126.084 317.921 126.065 318.653C126.046 318.747 125.953 318.841 125.84 318.841Z" fill="white"/>
    <path opacity="0.1" d="M120.675 205.534C120.581 205.534 120.506 205.478 120.487 205.384C120.45 205.271 120.525 205.159 120.619 205.14C121.689 204.839 124.018 201.665 122.159 194.134C122.14 194.021 122.196 193.909 122.309 193.89C122.422 193.871 122.535 193.927 122.553 194.04C124.45 201.722 122.103 205.159 120.732 205.534C120.713 205.515 120.694 205.534 120.675 205.534Z" fill="white"/>
    <path d="M94.664 319.667L76.4654 319.498C76.3527 319.498 76.2588 319.404 76.2588 319.292C76.2588 319.179 76.3339 319.066 76.4654 319.085L94.664 319.254C94.7766 319.254 94.8705 319.348 94.8705 319.461C94.8705 319.573 94.7766 319.667 94.664 319.667Z" fill="#D9D9D9"/>
    <path d="M114.609 319.743C114.496 319.743 114.402 319.649 114.402 319.536C114.402 319.423 114.496 319.329 114.609 319.329L130.967 319.179C131.08 319.179 131.174 319.273 131.174 319.386C131.174 319.498 131.08 319.592 130.967 319.592L114.609 319.743Z" fill="#D9D9D9"/>
    <path d="M91.4894 134.672C95.4827 134.672 98.72 131.435 98.72 127.442C98.72 123.448 95.4827 120.211 91.4894 120.211C87.496 120.211 84.2588 123.448 84.2588 127.442C84.2588 131.435 87.496 134.672 91.4894 134.672Z" fill="#9A00D0"/>
    <g opacity="0.5">
    <g opacity="0.1">
    <path d="M75.2066 71.4313L61.0966 87.0001L40.5195 82.6772L54.6295 67.1084L75.2066 71.4313Z" fill="#1EC9BF"/>
    <path d="M54.6286 67.1084L40.5186 82.6771L34 62.5688L48.0997 47L54.6286 67.1084Z" fill="#21B3AA"/>
    <path d="M48.0996 47L68.687 51.3229L75.2056 71.4313L54.6286 67.1084L48.0996 47Z" fill="#83E6E0"/>
    </g>
    </g>
    <path d="M182.833 126.526L183.656 125.272L182.706 124.649L181.849 125.394L182.833 126.526ZM196.167 135.266L195.344 136.52L196.399 137.212L197.262 136.291L196.167 135.266ZM226.167 103.22L226.729 101.829L225.775 101.443L225.072 102.195L226.167 103.22ZM261.167 117.37L260.604 118.761L261.574 119.153L262.277 118.378L261.167 117.37ZM297.833 77L298.842 75.8895L297.731 74.8813L296.723 75.9915L297.833 77ZM307 85.3237L301.717 68.8286L290.073 81.6514L307 85.3237ZM157.985 150.132L183.818 127.658L181.849 125.394L156.015 147.868L157.985 150.132ZM182.011 127.781L195.344 136.52L196.989 134.011L183.656 125.272L182.011 127.781ZM197.262 136.291L227.262 104.245L225.072 102.195L195.072 134.241L197.262 136.291ZM225.604 104.61L260.604 118.761L261.729 115.979L226.729 101.829L225.604 104.61ZM262.277 118.378L298.944 78.0085L296.723 75.9915L260.056 116.361L262.277 118.378Z" fill="url(#paint14_linear_7136_4169)"/>
    <defs>
    <linearGradient id="paint0_linear_7136_4169" x1="228.5" y1="35" x2="228.5" y2="335" gradientUnits="userSpaceOnUse">
    <stop stop-color="#4BAFA9" stop-opacity="0"/>
    <stop offset="1" stop-color="#2D8F8A"/>
    </linearGradient>
    <linearGradient id="paint1_linear_7136_4169" x1="228.5" y1="45" x2="228.5" y2="325" gradientUnits="userSpaceOnUse">
    <stop stop-color="#0BE1F7"/>
    <stop offset="1" stop-color="#0BE1F7" stop-opacity="0"/>
    </linearGradient>
    <linearGradient id="paint2_linear_7136_4169" x1="0" y1="335.538" x2="4.79709" y2="287.518" gradientUnits="userSpaceOnUse">
    <stop stop-color="#2C2E43" stop-opacity="0"/>
    <stop offset="0.487753" stop-color="#4F516A"/>
    <stop offset="1" stop-color="#2C2E43" stop-opacity="0"/>
    </linearGradient>
    <linearGradient id="paint3_linear_7136_4169" x1="399" y1="322.5" x2="451.806" y2="251.571" gradientUnits="userSpaceOnUse">
    <stop stop-color="#8A1F5A"/>
    <stop offset="0.432292" stop-color="#6D1541"/>
    <stop offset="1" stop-color="#B40061"/>
    </linearGradient>
    <linearGradient id="paint4_linear_7136_4169" x1="344.089" y1="332.145" x2="364.715" y2="302.168" gradientUnits="userSpaceOnUse">
    <stop stop-color="#84134B"/>
    <stop offset="1" stop-color="#55002E"/>
    </linearGradient>
    <linearGradient id="paint5_linear_7136_4169" x1="330.783" y1="322.328" x2="339.791" y2="295.961" gradientUnits="userSpaceOnUse">
    <stop stop-color="#490A29"/>
    <stop offset="1" stop-color="#55002E"/>
    </linearGradient>
    <linearGradient id="paint6_linear_7136_4169" x1="344.089" y1="156.597" x2="364.715" y2="126.621" gradientUnits="userSpaceOnUse">
    <stop stop-color="#2C2E43"/>
    <stop offset="0.5" stop-color="#84134B"/>
    <stop offset="1" stop-color="#55002E"/>
    </linearGradient>
    <linearGradient id="paint7_linear_7136_4169" x1="330.783" y1="162.688" x2="339.791" y2="136.32" gradientUnits="userSpaceOnUse">
    <stop stop-color="#2C2E43"/>
    <stop offset="0.5" stop-color="#84134B"/>
    <stop offset="1" stop-color="#55002E"/>
    </linearGradient>
    <linearGradient id="paint8_linear_7136_4169" x1="228.5" y1="266" x2="228.5" y2="314" gradientUnits="userSpaceOnUse">
    <stop stop-color="white"/>
    <stop offset="1" stop-color="white" stop-opacity="0"/>
    </linearGradient>
    <linearGradient id="paint9_linear_7136_4169" x1="154.386" y1="272.157" x2="154.386" y2="308.931" gradientUnits="userSpaceOnUse">
    <stop stop-color="#F5F7FB"/>
    <stop offset="1" stop-color="#F5F7FB" stop-opacity="0"/>
    </linearGradient>
    <linearGradient id="paint10_linear_7136_4169" x1="405.787" y1="123.147" x2="460.445" y2="161.699" gradientUnits="userSpaceOnUse">
    <stop stop-color="#4E55B7"/>
    <stop offset="1" stop-color="#191D4F"/>
    </linearGradient>
    <linearGradient id="paint11_linear_7136_4169" x1="395.223" y1="77.3584" x2="395.223" y2="125.044" gradientUnits="userSpaceOnUse">
    <stop stop-color="#7CE6DF"/>
    <stop offset="0.505208" stop-color="#8DD6D1"/>
    <stop offset="1" stop-color="#3AC8BF"/>
    </linearGradient>
    <linearGradient id="paint12_linear_7136_4169" x1="107.136" y1="148.246" x2="107.136" y2="186.791" gradientUnits="userSpaceOnUse">
    <stop stop-color="#7CE6DF"/>
    <stop offset="0.505208" stop-color="#8DD6D1"/>
    <stop offset="1" stop-color="#3AC8BF"/>
    </linearGradient>
    <linearGradient id="paint13_linear_7136_4169" x1="95.9831" y1="208.851" x2="150.94" y2="226.249" gradientUnits="userSpaceOnUse">
    <stop stop-color="#4E55B7"/>
    <stop offset="1" stop-color="#191D4F"/>
    </linearGradient>
    <linearGradient id="paint14_linear_7136_4169" x1="293.25" y1="83.6589" x2="129.557" y2="152.465" gradientUnits="userSpaceOnUse">
    <stop stop-color="#FCC418"/>
    <stop offset="0.526042" stop-color="#FFD554" stop-opacity="0.489583"/>
    <stop offset="1" stop-color="#785D09"/>
    </linearGradient>
    </defs>
    </svg>
    