<svg width="557" height="393" viewBox="0 0 557 393" fill="none" xmlns="http://www.w3.org/2000/svg">
<path opacity="0.3" d="M271.826 147.368C280.367 143.79 290.057 144.431 298.269 149.115L539.928 286.964C562.738 299.975 562.148 334.523 538.926 345.65L447.637 389.393C438.4 393.819 427.592 393.144 418.719 387.587L184.705 241.027C162.313 227.004 164.368 192.373 188.183 182.398L271.826 147.368Z" fill="url(#paint0_linear_7172_19943)"/>
<path d="M475.462 325.718H473.849C472.98 324.725 471.863 323.731 470.498 322.861L253.67 196.155C246.223 191.932 233.315 192.677 224.751 197.77L202.162 209.447C199.928 210.813 198.191 212.304 196.95 213.919H195.088V225.968C195.336 228.453 196.95 230.813 200.052 232.552L416.88 359.258C424.327 363.482 437.235 362.736 445.799 357.643L468.388 345.966C472.483 343.606 474.717 340.625 475.338 337.768H475.462V325.718Z" fill="url(#paint1_linear_7172_19943)"/>
<path d="M417.003 348.327L200.175 221.621C192.728 217.397 193.721 209.944 202.285 204.851L224.874 193.174C233.438 188.081 246.346 187.336 253.793 191.559L470.62 318.265C478.067 322.489 477.074 329.942 468.51 335.035L445.922 346.712C437.358 351.805 424.326 352.55 417.003 348.327Z" fill="url(#paint2_linear_7172_19943)"/>
<path d="M468.387 333.917L445.798 345.594C437.234 350.687 424.327 351.432 416.88 347.209L200.052 220.503C197.073 218.763 195.46 216.652 195.087 214.292C194.591 217.397 196.204 220.378 200.052 222.49L416.88 349.196C424.327 353.42 437.234 352.674 445.798 347.581L468.387 335.904C473.476 332.923 475.834 328.948 475.338 325.47C474.965 328.327 472.607 331.432 468.387 333.917Z" fill="#FB7DC1"/>
<path d="M434.627 322.364L233.437 205.968C223.136 200.005 214.82 184.105 214.82 170.317V16.2818C214.82 2.61746 223.136 -3.71784 233.437 2.2448L434.627 118.64C444.928 124.603 453.244 140.503 453.244 154.292V308.327C453.368 321.991 444.928 328.326 434.627 322.364Z" fill="url(#paint3_linear_7172_19943)"/>
<path d="M440.088 316.401L235.671 198.142C227.107 192.677 221.895 181.869 221.895 170.814V11.0647C221.895 8.456 224.749 6.84112 226.983 8.08333C227.231 8.20756 227.48 8.33178 227.604 8.456L432.268 126.839C442.446 132.678 446.045 143.112 446.045 154.168V313.42C446.045 316.277 442.942 318.016 440.584 316.65C440.336 316.525 440.212 316.401 440.088 316.401Z" fill="url(#paint4_linear_7172_19943)"/>
<path d="M432.268 126.839L227.604 8.45601C227.48 8.33179 227.231 8.20756 226.983 8.08334C224.749 6.7169 221.895 8.33179 221.895 11.0647V170.814C221.895 181.869 227.231 192.801 235.671 198.142L440.088 316.401C440.212 316.401 440.336 316.526 440.584 316.65C443.066 318.016 446.045 316.277 446.045 313.42V154.168C446.045 143.112 442.446 132.678 432.268 126.839ZM443.935 313.42C443.935 314.414 443.19 314.911 442.446 314.911C442.197 314.911 441.949 314.786 441.701 314.662L236.788 196.155C229.093 191.31 224.004 181.248 224.004 170.689V11.0647C224.004 10.3193 224.625 9.82244 225.246 9.82244C225.494 9.82244 225.618 9.82244 225.866 9.94667L431.151 128.702C441.701 134.789 443.935 145.969 443.935 154.168V313.42Z" fill="url(#paint5_linear_7172_19943)"/>
<g opacity="0.95">
<path d="M224.625 179.136L220.777 181.496L227.48 185.347L231.203 182.987L224.625 179.136Z" fill="#3F4370"/>
<path d="M220.777 210.564L227.48 214.415V185.347L220.777 181.497V210.564Z" fill="url(#paint6_linear_7172_19943)"/>
<path d="M227.48 214.415L231.204 212.055V182.987L227.48 185.347V214.415Z" fill="#7CE6DF"/>
</g>
<path d="M231.079 183.111L227.48 185.099L220.777 181.497L227.231 185.472L227.48 214.415L227.728 185.472L231.079 183.111Z" fill="url(#paint7_radial_7172_19943)"/>
<g opacity="0.95">
<path d="M234.183 192.428L230.336 194.788L237.038 198.639L240.886 196.403L234.183 192.428Z" fill="#7CE6DF"/>
<path d="M230.336 216.154L237.038 220.005V198.638L230.336 194.788V216.154Z" fill="#7CE6DF"/>
<path d="M237.039 220.004L240.887 217.644V196.402L237.039 198.638V220.004Z" fill="#21B3AA"/>
</g>
<g opacity="0.95">
<path d="M243.741 190.315L240.018 192.675L246.72 196.526L250.443 194.166L243.741 190.315Z" fill="#7CE6DF"/>
<path d="M240.018 221.743L246.596 225.594V196.526L240.018 192.675V221.743Z" fill="#7CE6DF"/>
<path d="M246.594 225.594L250.441 223.233V194.166L246.594 196.526V225.594Z" fill="#21B3AA"/>
</g>
<g opacity="0.95">
<path d="M253.418 187.583L249.57 189.943L256.272 193.794L260.12 191.434L253.418 187.583Z" fill="#F993C5"/>
<path d="M249.57 227.334L256.272 231.184V193.794L249.57 189.943V227.334Z" fill="url(#paint8_linear_7172_19943)"/>
<path d="M256.273 231.184L260.121 228.824V191.434L256.273 193.794V231.184Z" fill="#BD2B72"/>
</g>
<g opacity="0.95">
<path d="M262.976 183.732L259.129 186.093L265.831 189.944L269.679 187.583L262.976 183.732Z" fill="#F993C5"/>
<path d="M259.129 232.924L265.831 236.775V189.943L259.129 186.092V232.924Z" fill="url(#paint9_linear_7172_19943)"/>
<path d="M265.832 236.775L269.68 234.415V187.583L265.832 189.943V236.775Z" fill="#BD2B72"/>
</g>
<g opacity="0.95">
<path d="M272.658 194.043L268.811 196.404L275.513 200.255L279.236 197.894L272.658 194.043Z" fill="#7CE6DF"/>
<path d="M268.811 238.515L275.513 242.366V200.255L268.811 196.404V238.515Z" fill="#7CE6DF"/>
<path d="M275.514 242.365L279.237 240.005V197.894L275.514 200.254V242.365Z" fill="#21B3AA"/>
</g>
<g opacity="0.95">
<path d="M282.217 212.676L278.369 214.912L285.071 218.887L288.919 216.527L282.217 212.676Z" fill="#F993C5"/>
<path d="M278.369 244.104L285.071 247.955V218.887L278.369 214.912V244.104Z" fill="url(#paint10_linear_7172_19943)"/>
<path d="M285.072 247.954L288.92 245.594V216.526L285.072 218.887V247.954Z" fill="#BD2B72"/>
</g>
<g opacity="0.95">
<path d="M291.772 214.043L288.049 216.403L294.751 220.254L298.474 217.894L291.772 214.043Z" fill="#F993C5"/>
<path d="M288.049 249.695L294.627 253.546V220.254L288.049 216.403V249.695Z" fill="url(#paint11_linear_7172_19943)"/>
<path d="M294.625 253.546L298.473 251.185V217.894L294.625 220.254V253.546Z" fill="#BD2B72"/>
</g>
<g opacity="0.95">
<path d="M301.453 211.682L297.605 214.042L304.308 217.893L308.155 215.657L301.453 211.682Z" fill="#7CE6DF"/>
<path d="M297.605 255.159L304.308 259.134V217.893L297.605 214.042V255.159Z" fill="#7CE6DF"/>
<path d="M304.309 259.134L308.156 256.774V215.656L304.309 217.892V259.134Z" fill="#21B3AA"/>
</g>
<g opacity="0.95">
<path d="M311.012 229.321L307.164 231.681L313.866 235.532L317.714 233.172L311.012 229.321Z" fill="#F993C5"/>
<path d="M307.164 260.749L313.866 264.6V235.532L307.164 231.681V260.749Z" fill="url(#paint12_linear_7172_19943)"/>
<path d="M313.867 264.6L317.715 262.364V233.172L313.867 235.532V264.6Z" fill="#BD2B72"/>
</g>
<g opacity="0.95">
<path d="M320.683 238.514L316.836 240.874L323.538 244.725L327.262 242.365L320.683 238.514Z" fill="#7CE6DF"/>
<path d="M316.836 266.34L323.538 270.191V244.725L316.836 240.875V266.34Z" fill="#7CE6DF"/>
<path d="M323.539 270.191L327.262 267.955V242.365L323.539 244.725V270.191Z" fill="#21B3AA"/>
</g>
<g opacity="0.95">
<path d="M330.246 254.29L326.398 256.65L333.101 260.501L336.948 258.141L330.246 254.29Z" fill="#F993C5"/>
<path d="M326.398 271.93L333.101 275.781V260.501L326.398 256.65V271.93Z" fill="url(#paint13_linear_7172_19943)"/>
<path d="M333.102 275.781L336.949 273.42V258.141L333.102 260.501V275.781Z" fill="#BD2B72"/>
</g>
<g opacity="0.95">
<path d="M339.798 252.054L336.074 254.29L342.776 258.265L346.5 255.905L339.798 252.054Z" fill="#7CE6DF"/>
<path d="M336.074 277.519L342.652 281.37V258.265L336.074 254.29V277.519Z" fill="#7CE6DF"/>
<path d="M342.65 281.37L346.498 279.01V255.904L342.65 258.265V281.37Z" fill="#21B3AA"/>
</g>
<g opacity="0.95">
<path d="M349.484 251.681L345.637 254.041L352.339 257.892L356.186 255.532L349.484 251.681Z" fill="#7CE6DF"/>
<path d="M345.637 283.109L352.339 286.96V257.892L345.637 254.042V283.109Z" fill="#7CE6DF"/>
<path d="M352.34 286.96L356.187 284.6V255.532L352.34 257.892V286.96Z" fill="#21B3AA"/>
</g>
<g opacity="0.95">
<path d="M359.041 262.613L355.193 264.973L361.896 268.824L365.743 266.588L359.041 262.613Z" fill="#7CE6DF"/>
<path d="M355.193 288.699L361.896 292.55V268.824L355.193 264.973V288.699Z" fill="#7CE6DF"/>
<path d="M361.896 292.549L365.744 290.189V266.587L361.896 268.823V292.549Z" fill="#21B3AA"/>
</g>
<g opacity="0.95">
<path d="M368.715 249.57L364.867 251.806L371.569 255.781L375.293 253.421L368.715 249.57Z" fill="#F993C5"/>
<path d="M364.867 294.29L371.569 298.141V255.781L364.867 251.806V294.29Z" fill="url(#paint14_linear_7172_19943)"/>
<path d="M371.57 298.14L375.294 295.78V253.42L371.57 255.781V298.14Z" fill="#BD2B72"/>
</g>
<g opacity="0.95">
<path d="M378.279 268.451L374.432 270.811L381.134 274.662L384.981 272.302L378.279 268.451Z" fill="#F993C5"/>
<path d="M374.432 299.879L381.134 303.73V274.662L374.432 270.811V299.879Z" fill="url(#paint15_linear_7172_19943)"/>
<path d="M381.133 303.73L384.98 301.37V272.302L381.133 274.662V303.73Z" fill="#BD2B72"/>
</g>
<g opacity="0.95">
<path d="M387.833 283.11L384.109 285.471L390.687 289.321L394.535 287.085L387.833 283.11Z" fill="#F993C5"/>
<path d="M384.109 305.47L390.687 309.321V289.321L384.109 285.47V305.47Z" fill="url(#paint16_linear_7172_19943)"/>
<path d="M390.686 309.321L394.533 306.96V287.085L390.686 289.321V309.321Z" fill="#BD2B72"/>
</g>
<g opacity="0.95">
<path d="M397.512 264.476L393.664 266.836L400.366 270.687L404.214 268.326L397.512 264.476Z" fill="#F993C5"/>
<path d="M393.664 311.058L400.366 314.909V270.686L393.664 266.835V311.058Z" fill="url(#paint17_linear_7172_19943)"/>
<path d="M400.367 314.909L404.215 312.549V268.326L400.367 270.686V314.909Z" fill="#BD2B72"/>
</g>
<g opacity="0.95">
<path d="M407.074 280.004L403.227 282.365L409.929 286.215L413.776 283.855L407.074 280.004Z" fill="#7CE6DF"/>
<path d="M403.227 316.649L409.929 320.5V286.215L403.227 282.364V316.649Z" fill="#7CE6DF"/>
<path d="M409.93 320.5L413.777 318.14V283.855L409.93 286.215V320.5Z" fill="#21B3AA"/>
</g>
<g opacity="0.95">
<path d="M416.754 290.811L412.906 293.171L419.608 297.022L423.332 294.662L416.754 290.811Z" fill="#7CE6DF"/>
<path d="M412.906 322.239L419.608 326.09V297.022L412.906 293.171V322.239Z" fill="#7CE6DF"/>
<path d="M419.609 326.09L423.333 323.729V294.662L419.609 297.022V326.09Z" fill="#21B3AA"/>
</g>
<g opacity="0.95">
<path d="M426.308 300.253L422.461 302.613L429.163 306.464L433.011 304.104L426.308 300.253Z" fill="#1EC9BF"/>
<path d="M422.461 327.83L429.163 331.681V306.464L422.461 302.613V327.83Z" fill="#7CE6DF"/>
<path d="M429.164 331.681L433.012 329.321V304.104L429.164 306.464V331.681Z" fill="#21B3AA"/>
</g>
<path opacity="0.1" d="M436.985 157.771C437.234 157.771 437.482 157.646 437.606 157.398C437.854 157.025 437.73 156.653 437.358 156.528L226.115 34.2943C225.743 34.0459 225.37 34.1701 225.246 34.5427C224.998 34.9154 225.122 35.2881 225.495 35.4123L436.737 157.771C436.737 157.771 436.861 157.771 436.985 157.771Z" fill="white"/>
<path opacity="0.1" d="M436.985 175.534C437.234 175.534 437.482 175.41 437.606 175.161C437.854 174.789 437.73 174.416 437.358 174.292L226.115 51.9335C225.743 51.685 225.37 51.8092 225.246 52.1819C224.998 52.5546 225.122 52.9272 225.495 53.0514L436.737 175.41C436.737 175.41 436.861 175.534 436.985 175.534Z" fill="white"/>
<path opacity="0.1" d="M436.985 193.546C437.234 193.546 437.482 193.422 437.606 193.174C437.854 192.801 437.73 192.428 437.358 192.304L226.115 70.0702C225.743 69.8217 225.37 69.946 225.246 70.3186C224.998 70.6913 225.122 71.0639 225.495 71.1882L436.737 193.546C436.737 193.546 436.861 193.546 436.985 193.546Z" fill="white"/>
<path opacity="0.1" d="M436.985 211.061C437.234 211.061 437.482 210.937 437.606 210.689C437.854 210.316 437.73 209.943 437.358 209.819L226.115 87.4608C225.743 87.2124 225.37 87.3366 225.246 87.7092C224.998 88.0819 225.122 88.4546 225.495 88.5788L436.737 210.937C436.737 210.937 436.861 211.061 436.985 211.061Z" fill="white"/>
<path opacity="0.1" d="M436.985 229.074C437.234 229.074 437.482 228.95 437.606 228.701C437.854 228.328 437.73 227.956 437.358 227.832L226.115 105.598C225.743 105.349 225.37 105.473 225.246 105.846C224.998 106.219 225.122 106.591 225.495 106.716L436.737 229.074C436.737 229.074 436.861 229.074 436.985 229.074Z" fill="white"/>
<path opacity="0.1" d="M436.985 246.962C437.234 246.962 437.482 246.837 437.606 246.589C437.854 246.216 437.73 245.844 437.358 245.719L226.115 123.361C225.743 123.113 225.37 123.237 225.246 123.61C224.998 123.982 225.122 124.355 225.495 124.479L436.737 246.837C436.737 246.962 436.861 246.962 436.985 246.962Z" fill="white"/>
<path opacity="0.1" d="M436.985 265.719C437.234 265.719 437.482 265.595 437.606 265.346C437.854 264.974 437.73 264.601 437.358 264.477L226.115 142.119C225.743 141.87 225.37 141.994 225.246 142.367C224.998 142.74 225.122 143.112 225.495 143.237L436.737 265.595C436.737 265.719 436.861 265.719 436.985 265.719Z" fill="white"/>
<path opacity="0.1" d="M436.985 283.855C437.234 283.855 437.482 283.731 437.606 283.483C437.854 283.11 437.73 282.737 437.358 282.613L226.115 160.255C225.743 160.006 225.37 160.131 225.246 160.503C224.998 160.876 225.122 161.249 225.495 161.373L436.737 283.731C436.737 283.855 436.861 283.855 436.985 283.855Z" fill="white"/>
<path opacity="0.1" d="M436.985 301.743C437.234 301.743 437.482 301.619 437.606 301.371C437.854 300.998 437.73 300.625 437.358 300.501L226.115 178.143C225.743 177.894 225.37 178.019 225.246 178.391C224.998 178.764 225.122 179.137 225.495 179.261L436.737 301.619C436.737 301.743 436.861 301.743 436.985 301.743Z" fill="white"/>
<path d="M430.531 176.776V168.702L429.538 168.081V176.155L426.684 174.54V179.509L429.538 181.124V196.031L430.531 196.652V181.745L433.386 183.36V178.391L430.531 176.776ZM421.098 158.64L420.106 158.019V160.876L417.251 159.261V171.435L420.106 173.05V184.23L421.098 184.851V173.671L423.953 175.286V163.112L421.098 161.497V158.64ZM392.676 187.335L391.683 186.714V193.174L388.829 191.559V210.316L391.683 211.931V228.204L392.676 228.825V212.552L395.531 214.167V195.41L392.676 193.795V187.335ZM373.687 163.733L372.694 163.112V170.068L369.839 168.453V206.341L372.694 207.956V222.241L373.687 222.862V208.577L376.541 210.192V172.18L373.687 170.565V163.733ZM364.254 149.82L363.261 149.199V164.354L360.407 162.739V176.776L363.261 178.391V185.72L364.254 186.341V179.012L367.109 180.627V166.59L364.254 164.975V149.82ZM326.275 174.789L325.282 174.168V183.733L322.428 182.118V201.124L325.282 202.739V205.347L326.275 205.968V203.36L329.13 204.975V185.969L326.275 184.354V174.789ZM316.842 140.255L315.85 139.634V147.46L312.995 145.845V180.876L315.85 182.49V192.304L316.842 192.925V183.112L319.697 184.726V149.696L316.842 148.081V140.255ZM297.977 101.25L296.984 100.628V109.076L294.13 107.461V134.417L296.984 136.032V144.976L297.977 145.597V136.777L300.832 138.392V111.436L297.977 109.821V101.25ZM288.42 75.2873L287.427 74.6661V81.1257L284.573 79.5108V106.343L287.427 107.958V131.808L288.42 132.429V108.579L291.275 110.194V83.4859L288.42 81.871V75.2873ZM278.988 48.3312L277.995 47.7101V53.9211L275.14 52.3063V98.8894L277.995 100.504V112.057L278.988 112.678V101.125L281.842 102.74V56.2814L278.988 54.6665V48.3312ZM250.565 45.7225L249.572 45.1014V54.6665L246.718 53.0516V59.7596L249.572 61.3744V69.8215L250.565 70.4426V61.9955L253.42 63.6104V56.9025L250.565 55.2876V45.7225ZM241.133 39.3872L240.14 38.7661V41.6232L237.285 40.0083V78.8897L240.14 80.5046V90.3181L241.133 90.9392V81.1257L243.987 82.7405V43.8592L241.133 42.2443V39.3872Z" fill="url(#paint18_linear_7172_19943)"/>
<path d="M411.54 162.615V157.025L410.547 156.404V161.994L407.692 160.379V193.422L410.547 195.037V207.211L411.54 207.832V195.658L414.395 197.273V164.23L411.54 162.615ZM402.107 174.665L401.114 174.044V187.708L398.26 186.093V203.733L401.114 205.348V221.621L402.107 222.242V205.969L404.962 207.584V189.944L402.107 188.329V174.665ZM383.118 185.72L382.125 185.099V193.546L379.27 191.932V204.602L382.125 206.217V226.589L383.118 227.21V206.838L385.972 208.453V195.782L383.118 194.168V185.72ZM354.696 160.752L353.703 160.131V171.683L350.848 170.069V186.466L353.703 188.081V196.528L354.696 197.149V188.702L357.55 190.317V174.044L354.696 172.429V160.752ZM345.263 164.23L344.27 163.609V180.379L341.415 178.764V216.403L344.27 218.018V241.123L345.263 241.744V218.639L348.117 220.254V182.615L345.263 181V164.23ZM335.83 185.099L334.837 184.478V194.043L331.983 192.428V235.285L334.837 236.9V248.328L335.83 248.949V237.521L338.685 239.136V196.404L335.83 194.789V185.099ZM307.408 136.032L306.415 135.411V138.268L303.56 136.653V152.678L306.415 154.292V163.733L307.408 164.354V154.914L310.263 156.528V140.504L307.408 138.889V136.032ZM269.553 48.8283L268.56 48.2072V57.7723L265.706 56.1574V66.9647L268.56 68.5796V77.1509L269.553 77.772V69.3249L272.408 70.9398V60.1325L269.553 58.5176V48.8283ZM259.996 49.9463L259.003 49.3252V58.8903L256.149 57.2754V81.6228L259.003 83.2377V87.9581L259.996 88.5792V83.8588L262.851 85.4737V61.1263L259.996 59.5114V49.9463ZM231.574 44.1079L230.581 43.4868V49.5737L227.727 47.9588V68.4553L230.581 70.0702V84.8526L231.574 85.4737V70.6913L234.429 72.3062V51.8097L231.574 50.1948V44.1079Z" fill="url(#paint19_linear_7172_19943)"/>
<path opacity="0.3" d="M86.4837 233.622C95.025 230.045 104.715 230.685 112.927 235.37L198.171 283.995C220.981 297.006 220.39 331.555 197.169 342.682L187.85 347.147C178.613 351.573 167.805 350.898 158.932 345.341L77.7059 294.471C55.3142 280.447 57.3685 245.816 81.1838 235.842L86.4837 233.622Z" fill="url(#paint20_linear_7172_19943)"/>
<path d="M209.342 281.863H207.696C206.81 280.849 205.797 279.836 204.278 278.949L140.979 242.457C133.51 238.149 120.471 238.656 111.735 243.724L96.9235 252.213C94.6447 253.481 92.8723 255.001 91.7329 256.648H89.834V268.812C90.0872 271.346 91.7329 273.754 94.8979 275.528L158.197 312.019C165.666 316.327 178.706 315.82 187.441 310.752L202.253 302.263C206.304 299.855 208.709 296.941 209.216 294.027H209.342V281.863Z" fill="url(#paint21_linear_7172_19943)"/>
<path d="M158.072 301.122L94.7727 264.63C87.3034 260.322 88.1896 252.72 96.9249 247.778L111.737 239.289C120.345 234.347 133.512 233.714 140.981 238.022L204.28 274.514C211.749 278.822 210.863 286.424 202.128 291.366L187.316 299.855C178.707 304.923 165.541 305.43 158.072 301.122Z" fill="url(#paint22_linear_7172_19943)"/>
<path d="M202.255 289.972L187.443 298.461C178.834 303.403 165.668 304.036 158.199 299.728L94.8997 263.237C91.8614 261.463 90.2156 259.182 89.9624 256.901C89.456 260.069 91.1018 263.11 94.8997 265.264L158.199 301.756C165.668 306.064 178.707 305.557 187.443 300.489L202.255 291.999C207.445 288.958 209.85 285.157 209.344 281.483C208.838 284.524 206.432 287.564 202.255 289.972Z" fill="#FB7DC1"/>
<path d="M209.344 269.826H207.698C206.812 268.812 205.799 267.798 204.28 266.912L140.981 230.42C133.512 226.112 120.473 226.619 111.737 231.687L96.9254 240.176C94.6467 241.443 92.8743 242.964 91.7349 244.611H89.8359V256.775C90.0891 259.309 91.7349 261.717 94.8998 263.49L158.199 299.982C165.668 304.29 178.708 303.783 187.443 298.715L202.255 290.226C206.306 287.818 208.711 284.904 209.218 281.99H209.344V269.826Z" fill="url(#paint23_linear_7172_19943)"/>
<path d="M158.072 286.171L94.7727 249.679C87.3034 245.371 88.1896 237.769 96.9249 232.827L111.737 224.338C120.345 219.396 133.512 218.763 140.981 223.071L204.28 259.562C211.749 263.87 210.863 271.473 202.128 276.414L187.316 284.904C178.707 289.972 165.541 290.479 158.072 286.171Z" fill="url(#paint24_linear_7172_19943)"/>
<path d="M202.253 275.148L187.441 283.637C178.832 288.579 165.666 289.212 158.197 284.904L94.8978 248.413C91.8594 246.639 90.2137 244.358 89.9605 242.077C89.4541 245.245 91.0998 248.286 94.8978 250.44L158.197 286.931C165.666 291.24 178.705 290.733 187.441 285.664L202.253 277.175C207.443 274.134 209.848 270.333 209.342 266.658C208.836 269.573 206.43 272.74 202.253 275.148Z" fill="#FB7DC1"/>
<path d="M178.074 276.161L121.485 243.47C115.155 239.796 109.965 229.913 109.965 221.423V70.5151C109.965 66.207 106.42 65.1934 108.572 63.6729C108.699 63.6729 117.181 59.745 117.308 59.745C119.586 58.858 122.118 58.4779 125.157 60.2518L181.746 92.9422C188.076 96.6167 193.266 106.5 193.266 114.989V265.771C193.266 270.332 191.747 273.5 189.468 275.02C189.342 275.147 179.72 279.582 179.594 279.582C177.441 280.215 180.86 277.681 178.074 276.161Z" fill="url(#paint25_linear_7172_19943)"/>
<path d="M178.074 276.161L121.485 243.47C115.155 239.796 109.965 229.913 109.965 221.423V70.5151C109.965 66.207 106.42 65.1934 108.572 63.6729C108.699 63.6729 117.054 59.8717 117.181 59.745C119.46 58.858 121.992 58.4779 125.03 60.2518L181.619 92.9422C187.949 96.6167 193.14 106.5 193.14 114.989V265.771C193.14 270.332 191.62 273.5 189.342 275.02C189.215 275.147 179.72 279.455 179.594 279.582C177.441 280.215 180.86 277.681 178.074 276.161Z" fill="url(#paint26_linear_7172_19943)"/>
<path d="M178.074 276.16L121.485 243.47C115.155 239.795 109.965 229.912 109.965 221.423V70.5148C109.965 66.2068 106.42 65.1931 108.572 63.6726C108.699 63.6726 116.928 59.8714 117.054 59.8714C119.333 58.9845 121.865 58.6044 124.903 60.3783L181.493 93.0687C187.822 96.7432 193.013 106.626 193.013 115.116V266.024C193.013 270.585 191.494 273.753 189.215 275.273C189.088 275.4 179.847 279.708 179.594 279.708C177.441 280.215 180.86 277.681 178.074 276.16Z" fill="url(#paint27_linear_7172_19943)"/>
<path d="M178.074 276.16L121.485 243.47C115.155 239.795 109.965 229.912 109.965 221.423V70.5148C109.965 66.2068 106.42 65.1931 108.572 63.6726C108.699 63.6726 116.801 59.8714 116.928 59.8714C119.207 58.9845 121.738 58.6044 124.777 60.3783L181.366 93.0687C187.696 96.7432 192.886 106.626 192.886 115.116V266.024C192.886 270.585 191.367 273.753 189.088 275.273C188.962 275.4 179.847 279.582 179.594 279.708C177.441 280.215 180.86 277.681 178.074 276.16Z" fill="url(#paint28_linear_7172_19943)"/>
<path d="M178.074 276.161L121.485 243.47C115.155 239.796 109.965 229.913 109.965 221.423V70.5151C109.965 66.207 106.42 65.1934 108.572 63.6729C108.699 63.6729 116.675 59.9984 116.801 59.9984C119.08 59.1114 121.612 58.7313 124.65 60.5052L181.239 93.1957C187.569 96.8702 192.76 106.753 192.76 115.243V266.151C192.76 270.712 191.241 273.88 188.962 275.4C188.835 275.527 179.847 279.708 179.594 279.708C177.441 280.215 180.86 277.681 178.074 276.161Z" fill="url(#paint29_linear_7172_19943)"/>
<path d="M178.074 276.161L121.485 243.47C115.155 239.796 109.965 229.913 109.965 221.423V70.5151C109.965 66.207 106.42 65.1934 108.572 63.6729C108.699 63.6729 116.548 59.9984 116.548 59.9984C118.827 59.1114 121.359 58.7313 124.397 60.5052L180.986 93.1957C187.316 96.8702 192.507 106.753 192.507 115.243V266.151C192.507 270.712 190.987 273.88 188.709 275.4C188.582 275.527 179.72 279.708 179.594 279.708C177.441 280.215 180.86 277.681 178.074 276.161Z" fill="url(#paint30_linear_7172_19943)"/>
<path d="M178.074 276.161L121.485 243.47C115.155 239.796 109.965 229.913 109.965 221.423V70.5151C109.965 66.207 106.42 65.1934 108.572 63.6729C108.699 63.6729 116.421 60.1251 116.421 59.9984C118.7 59.1114 121.232 58.7313 124.27 60.5052L180.86 93.1957C187.189 96.8702 192.38 106.753 192.38 115.243V266.151C192.38 270.712 190.861 273.88 188.582 275.4C188.455 275.527 179.72 279.582 179.594 279.708C177.441 280.215 180.86 277.681 178.074 276.161Z" fill="url(#paint31_linear_7172_19943)"/>
<path d="M178.074 276.16L121.485 243.47C115.155 239.795 109.965 229.912 109.965 221.423V70.5148C109.965 66.2068 106.42 65.1931 108.572 63.6727C108.699 63.6727 116.295 60.1249 116.295 60.1249C118.574 59.2379 121.106 58.8578 124.144 60.6317L180.733 93.3221C187.063 96.9966 192.253 106.88 192.253 115.369V266.277C192.253 270.839 190.734 274.006 188.455 275.527C188.329 275.654 179.72 279.708 179.594 279.708C177.441 280.215 180.86 277.681 178.074 276.16Z" fill="url(#paint32_linear_7172_19943)"/>
<path d="M178.074 276.16L121.485 243.47C115.155 239.795 109.965 229.912 109.965 221.423V70.5148C109.965 66.2068 106.42 65.1931 108.572 63.6727C108.699 63.6727 116.042 60.2516 116.168 60.1249C118.447 59.2379 120.979 58.8578 124.017 60.6317L180.606 93.3221C186.936 96.9966 192.127 106.88 192.127 115.369V266.277C192.127 270.839 190.608 274.006 188.329 275.527C188.202 275.654 179.72 279.581 179.594 279.708C177.441 280.215 180.86 277.681 178.074 276.16Z" fill="url(#paint33_linear_7172_19943)"/>
<path d="M178.074 276.161L121.485 243.47C115.155 239.796 109.965 229.913 109.965 221.423V70.5151C109.965 66.207 106.42 65.1934 108.572 63.6729C108.699 63.6729 115.915 60.2518 116.042 60.2518C118.32 59.3649 120.852 58.9847 123.891 60.7586L180.48 93.4491C186.81 97.1236 192 107.007 192 115.496V266.404C192 270.966 190.481 274.133 188.202 275.654C188.076 275.781 179.72 279.708 179.594 279.708C177.441 280.215 180.86 277.681 178.074 276.161Z" fill="url(#paint34_linear_7172_19943)"/>
<path d="M178.074 276.161L121.485 243.47C115.155 239.796 109.965 229.913 109.965 221.423V70.5151C109.965 66.207 106.42 65.1934 108.572 63.6729C108.699 63.6729 115.788 60.2518 115.915 60.2518C118.194 59.3649 120.726 58.9847 123.764 60.7586L180.353 93.4491C186.683 97.1236 191.874 107.007 191.874 115.496V266.404C191.874 270.966 190.354 274.133 188.076 275.654C187.949 275.781 179.72 279.708 179.594 279.708C177.441 280.215 180.86 277.681 178.074 276.161Z" fill="url(#paint35_linear_7172_19943)"/>
<path d="M178.074 276.161L121.485 243.47C115.155 239.796 109.965 229.913 109.965 221.423V70.5151C109.965 66.207 106.42 65.1934 108.572 63.6729C108.699 63.6729 115.662 60.3785 115.788 60.2518C118.067 59.3649 120.599 58.9847 123.637 60.7586L180.227 93.4491C186.557 97.1236 191.747 107.007 191.747 115.496V266.404C191.747 270.966 190.228 274.133 187.949 275.654C187.822 275.781 179.72 279.582 179.594 279.708C177.441 280.215 180.86 277.681 178.074 276.161Z" fill="url(#paint36_linear_7172_19943)"/>
<path d="M178.074 276.16L121.485 243.47C115.155 239.795 109.965 229.912 109.965 221.423V70.5148C109.965 66.2068 106.42 65.1931 108.572 63.6727C108.699 63.6727 115.535 60.3783 115.662 60.3783C117.941 59.4913 120.473 59.1112 123.511 60.8851L180.1 93.5755C186.43 97.25 191.62 107.133 191.62 115.623V266.531C191.62 271.092 190.101 274.26 187.822 275.78C187.696 275.907 179.847 279.708 179.594 279.708C177.441 280.215 180.86 277.681 178.074 276.16Z" fill="url(#paint37_linear_7172_19943)"/>
<path d="M178.074 276.16L121.485 243.47C115.155 239.795 109.965 229.912 109.965 221.423V70.5148C109.965 66.2068 106.42 65.1931 108.572 63.6727C108.699 63.6727 115.409 60.505 115.535 60.3783C117.814 59.4913 120.346 59.1112 123.384 60.8851L179.973 93.5755C186.303 97.25 191.494 107.133 191.494 115.623V266.531C191.494 271.092 189.975 274.26 187.696 275.78C187.569 275.907 179.847 279.582 179.594 279.708C177.441 280.215 180.86 277.681 178.074 276.16Z" fill="url(#paint38_linear_7172_19943)"/>
<path d="M178.074 276.161L121.485 243.47C115.155 239.796 109.965 229.913 109.965 221.423V70.5151C109.965 66.207 106.42 65.1934 108.572 63.6729C108.699 63.6729 115.282 60.5052 115.409 60.5052C117.687 59.6183 120.219 59.2382 123.258 61.0121L179.847 93.7025C186.177 97.377 191.367 107.26 191.367 115.75V266.658C191.367 271.219 189.848 274.387 187.569 275.907C187.443 276.034 179.847 279.708 179.72 279.708C177.441 280.215 180.86 277.681 178.074 276.161Z" fill="url(#paint39_linear_7172_19943)"/>
<path d="M178.074 276.161L121.485 243.47C115.155 239.796 109.965 229.913 109.965 221.423V70.5151C109.965 66.207 106.42 65.1934 108.572 63.6729C108.699 63.6729 115.155 60.5052 115.155 60.5052C117.434 59.6183 119.966 59.2382 123.004 61.0121L179.594 93.7025C185.924 97.377 191.114 107.26 191.114 115.75V266.658C191.114 271.219 189.595 274.387 187.316 275.907C187.189 276.034 179.72 279.708 179.594 279.708C177.441 280.215 180.86 277.681 178.074 276.161Z" fill="url(#paint40_linear_7172_19943)"/>
<path d="M178.074 276.161L121.485 243.47C115.155 239.796 109.965 229.913 109.965 221.423V70.5151C109.965 66.207 106.42 65.1934 108.572 63.6729C108.699 63.6729 115.029 60.6319 115.029 60.5052C117.308 59.6183 119.84 59.2382 122.878 61.0121L179.467 93.7025C185.797 97.377 190.987 107.26 190.987 115.75V266.658C190.987 271.219 189.468 274.387 187.189 275.907C187.063 276.034 179.72 279.582 179.594 279.708C177.441 280.215 180.86 277.681 178.074 276.161Z" fill="url(#paint41_linear_7172_19943)"/>
<path d="M178.074 276.16L121.485 243.47C115.155 239.795 109.965 229.912 109.965 221.423V70.5148C109.965 66.2068 106.42 65.1931 108.572 63.6727C108.699 63.6727 114.776 60.6317 114.902 60.6317C117.181 59.7447 119.713 59.3646 122.751 61.1385L179.34 93.8289C185.67 97.5035 190.861 107.387 190.861 115.876V266.784C190.861 271.346 189.342 274.513 187.063 276.034C186.936 276.16 179.72 279.708 179.594 279.708C177.441 280.215 180.86 277.681 178.074 276.16Z" fill="url(#paint42_linear_7172_19943)"/>
<path d="M178.074 276.16L121.485 243.47C115.155 239.795 109.965 229.912 109.965 221.423V70.5148C109.965 66.2068 106.42 65.1931 108.572 63.6727C108.699 63.6727 114.649 60.7584 114.776 60.6317C117.054 59.7447 119.586 59.3646 122.625 61.1385L179.214 93.8289C185.544 97.5035 190.734 107.387 190.734 115.876V266.784C190.734 271.346 189.215 274.513 186.936 276.034C186.81 276.16 179.72 279.582 179.594 279.708C177.441 280.215 180.86 277.681 178.074 276.16Z" fill="url(#paint43_linear_7172_19943)"/>
<path d="M178.074 276.161L121.485 243.47C115.155 239.796 109.965 229.913 109.965 221.423V70.5151C109.965 66.2071 106.42 65.1934 108.572 63.6729C108.699 63.6729 114.522 60.7586 114.649 60.7586C116.928 59.8717 119.46 59.4916 122.498 61.2655L179.087 93.9559C185.417 97.6304 190.608 107.514 190.608 116.003V266.911C190.608 271.473 189.088 274.64 186.81 276.161C186.683 276.287 179.72 279.708 179.594 279.708C177.441 280.215 180.86 277.681 178.074 276.161Z" fill="url(#paint44_linear_7172_19943)"/>
<path d="M172.631 278.695L116.042 246.005C109.712 242.33 104.521 232.447 104.521 223.958V73.0494C104.521 64.56 109.712 60.6321 116.042 64.3066L172.631 96.997C178.961 100.672 184.151 110.555 184.151 119.044V269.952C184.278 278.442 179.088 282.369 172.631 278.695Z" fill="url(#paint45_linear_7172_19943)"/>
<path d="M177.314 278.948C176.048 278.948 174.656 278.568 173.263 277.681L116.674 244.99C110.597 241.443 105.66 232.066 105.66 223.83V73.0489C105.66 67.6005 107.939 64.0527 111.484 64.0527C112.75 64.0527 114.142 64.4329 115.535 65.3198L172.124 98.0102C178.201 101.558 183.138 110.934 183.138 119.17V270.078C183.138 275.4 180.733 278.948 177.314 278.948Z" fill="url(#paint46_linear_7172_19943)"/>
<path d="M108.318 225.731V75.4563C108.318 69.2477 112.116 66.3334 116.8 68.9943L171.87 100.798C176.555 103.459 180.352 110.808 180.352 117.016V267.291C180.352 273.5 176.555 276.414 171.87 273.753L116.8 241.949C112.116 239.289 108.318 232.066 108.318 225.731Z" fill="url(#paint47_linear_7172_19943)"/>
<path d="M117.433 70.7682C113.002 68.2341 109.457 70.2614 109.457 75.3297V227.251C109.457 232.32 113.002 238.528 117.433 241.063L171.237 272.106C175.668 274.64 179.212 272.613 179.212 267.544V115.623C179.212 110.554 175.668 104.346 171.237 101.811L117.433 70.7682Z" fill="url(#paint48_linear_7172_19943)"/>
<path opacity="0.5" d="M188.584 168.586C186.938 169.473 185.672 168.586 185.672 166.306V154.015C185.672 151.861 186.938 149.327 188.584 148.44C190.229 147.553 191.495 148.44 191.495 150.721V163.011C191.495 165.165 190.229 167.699 188.584 168.586Z" fill="#EFFCFB"/>
<g opacity="0.5">
<path d="M126.801 190.38L113.129 182.525V180.624L126.801 188.48V190.38Z" fill="url(#paint49_linear_7172_19943)"/>
<path opacity="0.2" d="M123.004 191.647L113.129 185.819V184.552L123.004 190.38V191.647Z" fill="white"/>
<path opacity="0.2" d="M123.004 193.801L113.129 188.1V186.833L123.004 192.661V193.801Z" fill="white"/>
<path d="M126.801 204.952L113.129 197.096V195.195L126.801 203.051V204.952Z" fill="url(#paint50_linear_7172_19943)"/>
<path opacity="0.2" d="M123.004 206.219L113.129 200.39V199.123L123.004 204.952V206.219Z" fill="white"/>
<path opacity="0.2" d="M123.004 208.373L113.129 202.671V201.404L123.004 207.232V208.373Z" fill="white"/>
<path d="M139.081 244.991L117.812 232.7C115.534 231.433 113.635 227.759 113.635 224.718V220.156C113.635 217.115 115.534 215.722 117.812 216.989L139.081 229.279C141.36 230.546 143.259 234.221 143.259 237.262V241.823C143.259 244.864 141.36 246.258 139.081 244.991Z" fill="url(#paint51_linear_7172_19943)"/>
<path d="M139.081 229.406L117.812 217.116C115.534 215.849 113.635 217.242 113.635 220.283V220.79C113.635 217.749 115.534 216.355 117.812 217.622L139.081 229.913C141.36 231.18 143.259 234.855 143.259 237.896V237.389C143.259 234.221 141.36 230.673 139.081 229.406Z" fill="#FBE4F0"/>
<path d="M169.972 262.983L148.703 250.693C146.424 249.426 144.525 245.751 144.525 242.71V238.149C144.525 235.108 146.424 233.714 148.703 234.981L169.972 247.271C172.25 248.539 174.149 252.213 174.149 255.254V259.815C174.149 262.856 172.25 264.25 169.972 262.983Z" fill="#7CE6DF"/>
<path d="M169.972 247.398L148.703 235.108C146.424 233.841 144.525 235.235 144.525 238.276V238.782C144.525 235.741 146.424 234.348 148.703 235.615L169.972 247.905C172.25 249.172 174.149 252.847 174.149 255.888V255.381C174.149 252.213 172.25 248.666 169.972 247.398Z" fill="#EFFCFB"/>
<path d="M121.482 222.691L123.508 223.832C124.141 224.212 124.647 224.719 125.027 225.226C125.28 225.732 125.534 226.366 125.534 227.126V227.506C125.534 228.013 125.407 228.393 125.28 228.647C125.154 228.9 124.901 229.027 124.647 228.9C125.28 229.534 125.66 230.421 125.66 231.434V232.194C125.66 232.955 125.534 233.335 125.154 233.588C124.774 233.842 124.268 233.715 123.635 233.335L121.609 232.194V222.691H121.482ZM123.255 227.633C123.508 227.76 123.761 227.76 123.888 227.76C124.014 227.633 124.141 227.506 124.141 227.126V226.493C124.141 226.112 124.141 225.859 124.014 225.606C123.888 225.352 123.761 225.226 123.508 225.099L122.875 224.719V227.253L123.255 227.633ZM123.508 232.068C123.761 232.194 123.888 232.194 124.014 232.194C124.141 232.068 124.141 231.941 124.141 231.561V230.674C124.141 230.294 124.014 229.914 123.888 229.66C123.761 229.407 123.508 229.153 123.255 229.027L122.622 228.647V231.561L123.508 232.068Z" fill="#23253B"/>
<path d="M126.672 234.729C126.293 234.095 126.166 233.462 126.166 232.701V225.479L127.432 226.239V233.588C127.432 233.968 127.432 234.222 127.559 234.349C127.685 234.602 127.812 234.729 128.065 234.855C128.318 234.982 128.445 234.982 128.571 234.982C128.698 234.855 128.698 234.729 128.698 234.349V226.999L129.964 227.76V234.982C129.964 235.742 129.837 236.249 129.458 236.503C129.078 236.756 128.698 236.629 128.065 236.249C127.559 235.869 127.052 235.362 126.672 234.729Z" fill="#23253B"/>
<path d="M132.244 234.349L130.725 228.013L132.117 228.773L133.003 232.828L133.89 229.787L135.156 230.547L133.636 235.109V239.163L132.37 238.403V234.349H132.244Z" fill="#23253B"/>
<path d="M151.358 248.92C150.978 248.287 150.851 247.653 150.851 246.893V246.386L152.117 247.146V247.78C152.117 248.413 152.37 248.793 152.75 249.047C153.003 249.173 153.13 249.173 153.257 249.173C153.383 249.047 153.383 248.92 153.383 248.54C153.383 248.16 153.257 247.78 153.13 247.4C153.003 247.019 152.624 246.513 152.244 245.752C151.737 244.865 151.358 244.232 151.104 243.598C150.851 243.092 150.725 242.458 150.725 241.951C150.725 241.191 150.851 240.684 151.231 240.431C151.611 240.177 151.991 240.304 152.624 240.684C153.257 241.064 153.763 241.571 154.016 242.078C154.396 242.711 154.523 243.345 154.523 244.105V244.485L153.257 243.725V243.218C153.257 242.838 153.257 242.585 153.13 242.458C153.003 242.205 152.877 242.078 152.624 241.951C152.244 241.698 151.991 241.824 151.991 242.458C151.991 242.838 152.117 243.218 152.244 243.598C152.37 243.978 152.75 244.485 153.13 245.246C153.636 246.132 154.016 246.766 154.269 247.4C154.523 247.906 154.523 248.54 154.523 249.173C154.523 249.934 154.396 250.441 154.016 250.694C153.636 250.947 153.13 250.821 152.497 250.441C152.117 250.06 151.611 249.554 151.358 248.92Z" fill="#23253B"/>
<path d="M155.537 242.331L159.082 244.358V245.752L156.803 244.485V247.019L158.575 248.033V249.427L156.803 248.413V251.327L159.082 252.594V253.988L155.537 251.961V242.331Z" fill="#23253B"/>
<path d="M159.842 244.738L161.108 245.499V253.734L163.26 255.002V256.395L159.842 254.368V244.738Z" fill="#23253B"/>
<path d="M163.893 247.146L165.159 247.906V256.142L167.311 257.409V258.803L163.893 256.775V247.146Z" fill="#23253B"/>
<path d="M148.702 208.374C148.449 208.374 148.323 208.247 148.196 207.993L146.803 201.531L144.904 203.179C144.778 203.305 144.651 203.305 144.525 203.305C144.398 203.305 144.271 203.179 144.145 203.052L139.84 194.309L136.169 196.716C136.043 196.843 135.916 196.843 135.789 196.843C135.663 196.843 135.536 196.716 135.536 196.59L133.131 192.155L127.307 193.802C127.054 193.929 126.801 193.675 126.674 193.422C126.548 193.169 126.801 192.915 127.054 192.789L133.257 191.015C133.511 191.015 133.637 191.015 133.764 191.268L136.169 195.576L139.84 193.169C139.967 193.042 140.094 193.042 140.22 193.169C140.347 193.169 140.473 193.295 140.473 193.422L144.778 202.038L146.803 200.264C146.93 200.138 147.057 200.138 147.31 200.138C147.436 200.138 147.563 200.264 147.563 200.518L148.955 206.6L151.361 202.672C151.487 202.418 151.741 202.418 151.994 202.545L154.146 203.685L156.425 201.785C156.551 201.658 156.678 201.658 156.805 201.658C156.931 201.658 157.058 201.785 157.184 201.911L158.704 205.713L161.362 202.292C161.489 202.038 161.868 202.038 161.995 202.165C162.248 202.292 162.248 202.672 162.122 202.798L158.957 206.98C158.83 207.106 158.704 207.233 158.45 207.106C158.324 207.106 158.197 206.98 158.071 206.853L156.551 202.798L154.526 204.446C154.399 204.572 154.146 204.572 154.019 204.446L151.994 203.432L149.209 207.993C149.082 208.247 148.955 208.374 148.702 208.374Z" fill="url(#paint52_linear_7172_19943)"/>
<path d="M161.617 228.393C161.491 228.393 161.237 228.266 161.237 228.14L158.326 222.438L156.933 223.325C156.68 223.451 156.427 223.451 156.3 223.198L150.603 216.483L149.084 218.13C148.958 218.256 148.831 218.256 148.578 218.256C148.451 218.256 148.325 218.13 148.198 217.876L146.805 212.935L144.4 214.835C144.273 214.962 144.02 214.962 143.767 214.835L139.969 211.414L136.171 213.948C136.045 214.075 135.918 214.075 135.791 214.075C135.665 214.075 135.538 213.948 135.538 213.822L133.133 209.387L129.461 210.274C129.208 210.274 128.955 210.147 128.955 209.894C128.955 209.64 129.082 209.387 129.335 209.387L133.386 208.5C133.639 208.5 133.766 208.5 133.892 208.753L136.298 213.061L139.969 210.654C140.096 210.527 140.349 210.527 140.602 210.654L144.4 214.075L147.059 212.048C147.185 211.921 147.312 211.921 147.438 211.921C147.565 211.921 147.692 212.048 147.692 212.301L149.084 217.116L150.35 215.722C150.477 215.596 150.477 215.596 150.73 215.596C150.856 215.596 150.983 215.596 151.11 215.722L156.933 222.564L158.326 221.551C158.452 221.424 158.579 221.424 158.706 221.424C158.832 221.424 158.959 221.551 158.959 221.678L162.124 227.886C162.25 228.14 162.124 228.393 161.87 228.52C161.744 228.393 161.617 228.393 161.617 228.393Z" fill="url(#paint53_linear_7172_19943)"/>
<path d="M165.92 211.161L169.211 207.613L172.63 215.089L165.92 211.161Z" fill="url(#paint54_linear_7172_19943)"/>
<path d="M172.63 228.266L169.211 231.814L165.92 224.338L172.63 228.266Z" fill="url(#paint55_linear_7172_19943)"/>
</g>
<path d="M144.904 108.781V100.039C154.652 105.614 163.134 116.637 167.439 129.181L160.602 129.055C157.817 120.819 151.867 112.709 144.904 108.781Z" fill="#21B3AA"/>
<path d="M144.904 148.82C154.526 154.395 162.375 149.961 162.375 138.937C162.375 135.769 161.742 132.475 160.603 129.181L167.439 129.307C169.971 136.656 170.604 142.865 169.464 148.567C166.806 162.631 153.64 165.165 140.094 154.395L141.486 146.666C142.752 147.3 143.765 148.187 144.904 148.82Z" fill="#7CE6DF"/>
<path d="M141.611 146.54L140.218 154.269C137.053 151.735 134.521 149.074 131.736 145.526L135.787 140.458C137.433 142.739 139.459 144.766 141.611 146.54Z" fill="#1EC9BF"/>
<path d="M135.663 140.332L131.612 145.4C126.042 138.304 122.37 130.322 120.725 122.212L128.067 124.24C129.207 129.815 131.992 135.643 135.663 140.332Z" fill="#21B3AA"/>
<path d="M144.904 100.038V108.781C135.283 103.206 127.434 107.641 127.434 118.791C127.434 120.565 127.687 122.466 128.067 124.366L120.724 122.339C120.091 119.298 119.838 117.144 119.838 114.356C119.838 98.3912 131.105 92.0558 144.904 100.038Z" fill="url(#paint56_linear_7172_19943)"/>
<path d="M137.496 132.696L139.494 133.898V118.609L137.496 117.407V132.696ZM143.905 121.014C142.906 120.413 142.157 120.327 141.658 120.671C141.158 121.014 140.909 121.787 140.909 122.99V131.236C140.909 132.438 141.158 133.469 141.658 134.5C142.157 135.445 142.906 136.218 143.905 136.819C144.904 137.42 145.653 137.506 146.152 137.162C146.652 136.819 146.901 136.046 146.901 134.843V132.61L144.987 131.493V133.813C144.987 134.757 144.654 135.015 143.988 134.586C143.322 134.156 142.99 133.555 142.99 132.61V124.021C142.99 123.076 143.322 122.818 143.988 123.248C144.654 123.677 144.987 124.364 144.987 125.309V127.113L146.901 128.229V126.597C146.901 125.395 146.652 124.364 146.152 123.333C145.653 122.303 144.904 121.53 143.905 121.014ZM153.394 127.628C152.894 126.683 152.145 125.824 151.146 125.223C150.148 124.622 149.398 124.536 148.899 124.88C148.4 125.223 148.067 125.996 148.067 127.285V135.273C148.067 136.475 148.316 137.592 148.899 138.623C149.398 139.567 150.231 140.426 151.146 141.028C152.145 141.629 152.894 141.715 153.394 141.371C153.893 141.028 154.226 140.255 154.226 138.966V130.978C154.143 129.69 153.893 128.573 153.394 127.628ZM152.145 137.935C152.145 138.966 151.812 139.224 151.063 138.794C150.397 138.365 149.981 137.678 149.981 136.647V128.315C149.981 127.285 150.314 127.027 151.063 127.456C151.729 127.886 152.145 128.573 152.145 129.604V137.935Z" fill="#7CE6DF"/>
<path d="M133.44 168.112L132.538 167.596V169.401L130.99 168.499V169.53L132.538 170.433V172.238L133.44 172.754V170.949L134.987 171.851V170.82L133.44 169.917V168.112ZM137.244 174.882C137.373 174.688 137.631 174.43 138.017 174.173C138.598 173.786 138.984 173.399 139.242 173.012C139.5 172.625 139.629 172.109 139.629 171.529C139.629 170.755 139.436 170.111 139.113 169.53C138.791 168.95 138.34 168.434 137.695 168.112C137.05 167.725 136.599 167.661 136.277 167.919C135.954 168.112 135.761 168.628 135.761 169.401V170.304L136.986 171.013V169.982C136.986 169.337 137.179 169.208 137.631 169.466C137.824 169.595 138.017 169.788 138.146 169.982C138.275 170.175 138.34 170.498 138.34 170.884C138.34 171.336 138.275 171.723 138.082 171.98C137.889 172.303 137.566 172.561 137.115 172.883C136.664 173.205 136.277 173.528 136.083 173.915C135.89 174.302 135.825 174.817 135.825 175.462V176.494L139.565 178.621V177.267L137.115 175.849V175.655C136.986 175.333 137.05 175.075 137.244 174.882ZM140.403 179.202L141.628 179.911V178.492L140.403 177.783V179.202ZM146.076 173.077L144.658 172.238L142.337 177.203V178.557L144.787 179.975V181.652L146.076 182.361V180.684L146.656 181.007V179.653L146.076 179.331V173.077ZM144.787 178.686L143.497 177.977L144.787 175.075V178.686ZM149.364 179.782C149.558 179.653 149.686 179.331 149.686 178.879V176.558C149.686 176.107 149.558 175.655 149.364 175.269C149.171 174.882 148.848 174.559 148.462 174.366C148.075 174.108 147.752 174.108 147.559 174.237C147.366 174.366 147.237 174.688 147.237 175.14V177.461C147.237 177.912 147.366 178.363 147.559 178.75C147.752 179.137 148.075 179.459 148.462 179.653C148.848 179.911 149.171 179.911 149.364 179.782ZM148.01 177.977V175.527C148.01 175.14 148.139 175.011 148.462 175.204C148.719 175.398 148.913 175.655 148.913 176.042V178.492C148.913 178.879 148.784 179.008 148.462 178.815C148.204 178.686 148.01 178.363 148.01 177.977ZM151.427 176.171L148.268 183.715L149.106 184.166L152.265 176.623L151.427 176.171ZM152.974 181.587C152.781 181.2 152.459 180.878 152.072 180.684C151.685 180.427 151.363 180.427 151.169 180.556C150.976 180.684 150.847 181.007 150.847 181.458V183.779C150.847 184.231 150.976 184.682 151.169 185.069C151.363 185.456 151.685 185.778 152.072 185.971C152.459 186.229 152.781 186.229 152.974 186.1C153.168 185.971 153.297 185.649 153.297 185.198V182.877C153.297 182.425 153.168 181.974 152.974 181.587ZM152.459 184.811C152.459 185.198 152.33 185.327 152.007 185.133C151.75 184.94 151.556 184.682 151.556 184.295V181.845C151.556 181.458 151.685 181.329 152.007 181.523C152.265 181.716 152.459 181.974 152.459 182.361V184.811Z" fill="white"/>
<path d="M203.144 317.467C203.144 317.467 203.904 319.368 205.803 319.875C207.702 320.382 211.879 321.395 209.474 323.042C207.069 324.69 203.904 323.296 201.498 322.789C199.093 322.282 198.84 322.282 198.84 320.128C198.84 317.974 203.144 317.467 203.144 317.467Z" fill="#29CE44"/>
<path d="M210.107 321.902C207.702 323.549 203.524 322.029 201.119 321.522C199.853 321.268 199.22 321.142 198.84 320.888C198.84 320.888 198.84 320.888 198.84 321.015C198.966 322.409 199.346 322.535 201.498 322.916C203.904 323.422 207.069 324.816 209.474 323.169C210.107 322.662 210.36 322.282 210.107 321.902Z" fill="#29CE44"/>
<path d="M183.646 254.747C183.646 254.747 182.254 262.35 182.254 269.699C182.254 277.048 198.458 319.368 198.458 319.368C198.458 319.368 201.877 319.621 203.143 318.481C203.776 317.974 203.776 317.214 203.776 317.214L197.446 291.365L196.686 257.408L183.646 254.747Z" fill="url(#paint57_linear_7172_19943)"/>
<path d="M192.888 292.506L188.331 263.49L182.76 261.462C182.507 263.997 182.254 266.911 182.254 269.698C182.254 277.047 198.458 319.368 198.458 319.368C198.458 319.368 200.484 319.494 201.877 319.114L192.888 292.506Z" fill="url(#paint58_linear_7172_19943)"/>
<path d="M195.294 315.313C194.281 316.96 193.395 316.2 192.889 318.861C192.636 319.748 195.927 321.395 196.56 322.409C197.193 323.422 196.434 323.929 198.206 325.323C199.852 326.59 200.865 326.463 202.384 325.703C203.143 325.323 201.244 322.789 199.725 321.142C198.206 319.494 199.978 316.58 199.978 316.58L195.294 315.313Z" fill="#29CE44"/>
<path d="M198.583 323.929C196.811 322.536 197.444 322.029 196.938 321.015C196.431 320.001 193.14 318.354 193.266 317.467C193.266 317.341 193.393 317.087 193.393 316.96C193.14 317.341 192.887 317.847 192.76 318.608C192.507 319.495 195.798 321.142 196.431 322.155C197.064 323.169 196.305 323.676 198.077 325.07C199.723 326.337 200.736 326.21 202.255 325.45C202.508 325.323 202.508 324.943 202.255 324.436C200.989 325.07 200.103 325.07 198.583 323.929Z" fill="#29CE44"/>
<path d="M203.015 257.028L196.685 257.661L197.192 278.948L203.142 290.352L194.533 315.44C194.533 315.44 195.799 316.707 196.685 317.087C197.572 317.467 199.724 317.467 199.724 317.467C199.724 317.467 211.877 293.013 212.13 289.845C212.383 286.677 203.015 257.028 203.015 257.028Z" fill="url(#paint59_linear_7172_19943)"/>
<path d="M203.269 229.406C203.395 232.827 204.281 259.182 204.281 259.182C204.281 259.182 202.636 261.843 196.559 263.49C189.849 265.264 181.747 262.35 181.747 262.35C181.747 262.35 182 251.2 182 244.738C182 238.529 181.494 233.967 181.874 231.307C182.127 229.786 185.292 227.759 190.356 225.605C195.293 223.324 203.142 225.731 203.269 229.406Z" fill="#83E6E0"/>
<path d="M189.85 263.997C188.711 260.702 186.559 254.24 186.559 249.679C186.559 243.47 186.685 237.768 187.065 235.108C187.318 233.587 182.128 229.913 181.875 231.306C181.495 233.967 182.128 238.529 182.001 244.737C182.001 251.073 181.748 262.35 181.748 262.35C181.748 262.35 185.419 263.617 189.85 263.997Z" fill="#1EC9BF"/>
<path d="M187.697 228.646C187.697 231.307 194.534 234.094 194.534 234.094C194.534 234.094 197.952 231.307 197.952 228.646C197.952 226.999 195.673 225.731 192.888 225.731C189.976 225.731 187.697 227.125 187.697 228.646Z" fill="white"/>
<path d="M197.319 221.55C197.445 220.536 196.179 219.396 194.407 219.142C192.635 218.889 190.989 219.396 190.862 220.409L188.963 228.012C188.71 229.279 190.356 230.546 192.508 230.926C194.66 231.306 196.559 230.546 196.812 229.279C196.686 229.279 197.319 221.55 197.319 221.55Z" fill="#F4ACC8"/>
<path d="M191.494 224.211C191.115 223.07 190.988 221.296 191.241 219.649C191.874 219.142 193.013 218.889 194.406 219.016C196.178 219.269 197.571 220.409 197.318 221.423L196.685 229.279C196.685 229.532 196.432 229.786 196.305 230.039C193.9 229.026 192.001 226.238 191.494 224.211Z" fill="#E76D9C"/>
<path d="M200.103 216.228C201.622 219.142 199.85 228.645 196.938 228.519C193.899 228.392 191.241 224.718 190.608 222.31C189.975 219.903 190.102 214.708 192.76 213.567C195.292 212.427 198.584 213.187 200.103 216.228Z" fill="#F4ACC8"/>
<path d="M202.635 215.721C203.142 217.749 201.623 219.649 198.078 219.269C194.533 219.016 193.014 218.129 193.014 218.129C193.014 218.129 192.887 221.043 192.508 221.043C192.128 221.17 191.875 218.889 190.989 219.269C190.102 219.649 190.862 222.69 190.102 223.197C189.343 223.704 189.09 221.93 189.09 219.776C189.09 217.622 188.583 212.047 193.394 211.667C198.078 211.54 202.256 214.074 202.635 215.721Z" fill="#9A00D0"/>
<path d="M203.268 249.299L199.343 248.285L198.457 249.932L201.369 250.693L203.268 249.299Z" fill="#F4ACC8"/>
<path d="M196.18 256.521L199.598 255.001C199.978 254.874 200.358 254.241 200.484 253.734L201.624 246.005C201.75 245.498 201.497 245.244 200.991 245.371L197.572 246.892C197.193 247.018 196.813 247.652 196.686 248.159L195.547 255.888C195.547 256.395 195.8 256.648 196.18 256.521Z" fill="#339AF0"/>
<path d="M197.446 246.765L200.864 245.244C200.991 245.118 201.117 245.118 201.244 245.244C201.244 245.244 201.37 245.371 201.497 245.371C201.37 245.244 201.244 245.244 201.117 245.371L197.699 246.892C197.319 247.018 196.939 247.652 196.813 248.159L195.673 255.888C195.673 256.268 195.673 256.395 195.927 256.521L195.673 256.395C195.547 256.268 195.547 256.141 195.547 255.888L196.686 248.159C196.686 247.525 197.066 246.892 197.446 246.765Z" fill="#2D3259"/>
<path d="M204.662 251.579C204.662 251.579 202.13 254.113 201.37 254.62C200.611 255 196.94 255.127 196.053 254.874C195.167 254.747 195.42 251.959 195.927 251.706C196.433 251.326 200.484 250.692 200.864 250.185C201.37 249.679 201.624 249.172 202.383 249.299C203.016 249.299 203.523 249.299 203.523 249.299L204.662 251.579Z" fill="#F4ACC8"/>
<path d="M201.874 226.872C205.419 230.039 213.648 242.33 213.141 245.751C212.762 247.905 204.026 252.466 204.026 252.466C204.026 252.466 204.026 251.453 203.393 250.439C202.887 249.425 201.748 248.792 201.748 248.792L206.938 244.484L201.621 239.289L201.874 226.872Z" fill="#1EC9BF"/>
<path d="M188.834 268.812L190.1 269.319C190.1 269.319 190.607 270.206 190.86 270.459C191.239 270.713 191.366 270.206 191.366 270.206L190.607 268.178C190.607 268.178 189.087 267.038 188.581 266.785C187.948 266.531 187.062 266.151 187.062 266.151L185.922 265.011L184.023 266.278C184.023 266.278 184.53 270.332 184.656 270.713C184.656 270.966 185.289 271.6 185.669 272.106L188.834 268.812Z" fill="#F4ACC8"/>
<path d="M181.873 230.293C178.962 232.573 177.822 249.425 177.949 252.086C178.075 254.747 183.646 268.051 183.646 268.051C183.646 268.051 184.785 267.925 186.178 267.291C187.444 266.658 187.824 265.897 187.824 265.897L183.393 251.579C183.393 251.579 187.444 237.261 188.077 235.741C188.583 234.347 188.203 225.351 181.873 230.293Z" fill="#1EC9BF"/>
<path d="M198.205 270.838L197.065 272.612L197.192 278.948L203.142 290.351L194.533 315.439C194.533 315.439 195.799 316.706 196.685 317.086H196.812L207.446 290.478L198.205 270.838Z" fill="url(#paint60_linear_7172_19943)"/>
<path d="M202.51 236.628L203.649 241.443L206.94 244.61L201.75 248.919C201.75 248.919 202.383 249.299 202.889 249.805L208.839 244.61L202.51 236.628Z" fill="#1EC9BF"/>
<defs>
<linearGradient id="paint0_linear_7172_19943" x1="539.495" y1="317.456" x2="229.443" y2="342.515" gradientUnits="userSpaceOnUse">
<stop stop-color="#2C2E43" stop-opacity="0"/>
<stop offset="0.632152" stop-color="#4F516A"/>
<stop offset="1" stop-color="#2C2E43" stop-opacity="0"/>
</linearGradient>
<linearGradient id="paint1_linear_7172_19943" x1="208.589" y1="336.795" x2="382.948" y2="258.601" gradientUnits="userSpaceOnUse">
<stop stop-color="#060A2C"/>
<stop offset="0.5" stop-color="#420423"/>
<stop offset="1" stop-color="#CD0A73"/>
</linearGradient>
<linearGradient id="paint2_linear_7172_19943" x1="208.675" y1="326.811" x2="380.772" y2="246.594" gradientUnits="userSpaceOnUse">
<stop stop-color="#060A2C"/>
<stop offset="0.5" stop-color="#812251"/>
<stop offset="1" stop-color="#0E0007"/>
</linearGradient>
<linearGradient id="paint3_linear_7172_19943" x1="334.033" y1="0" x2="334.033" y2="324.609" gradientUnits="userSpaceOnUse">
<stop stop-color="#14ACBC"/>
<stop offset="1" stop-color="#012427"/>
</linearGradient>
<linearGradient id="paint4_linear_7172_19943" x1="333.97" y1="7.65674" x2="333.97" y2="317.124" gradientUnits="userSpaceOnUse">
<stop stop-color="#06373C"/>
<stop offset="1" stop-color="#065259" stop-opacity="0"/>
</linearGradient>
<linearGradient id="paint5_linear_7172_19943" x1="333.97" y1="7.58838" x2="333.97" y2="317.124" gradientUnits="userSpaceOnUse">
<stop stop-color="#69C3CC"/>
<stop offset="1" stop-color="#005159"/>
</linearGradient>
<linearGradient id="paint6_linear_7172_19943" x1="247.01" y1="157.091" x2="217.622" y2="209.394" gradientUnits="userSpaceOnUse">
<stop offset="0.0353535" stop-color="#FF4572"/>
<stop offset="0.2402" stop-color="#FD4B81"/>
<stop offset="0.635" stop-color="#F85CAA"/>
<stop offset="1" stop-color="#F36DD4"/>
</linearGradient>
<radialGradient id="paint7_radial_7172_19943" cx="0" cy="0" r="1" gradientUnits="userSpaceOnUse" gradientTransform="translate(230.214 189.564) rotate(180) scale(12.25 12.2605)">
<stop stop-color="white"/>
<stop offset="1"/>
</radialGradient>
<linearGradient id="paint8_linear_7172_19943" x1="282.3" y1="158.179" x2="244.61" y2="225.257" gradientUnits="userSpaceOnUse">
<stop offset="0.0353535" stop-color="#FF4572"/>
<stop offset="0.2402" stop-color="#FD4B81"/>
<stop offset="0.635" stop-color="#F85CAA"/>
<stop offset="1" stop-color="#F36DD4"/>
</linearGradient>
<linearGradient id="paint9_linear_7172_19943" x1="285.411" y1="148.549" x2="232.987" y2="209.148" gradientUnits="userSpaceOnUse">
<stop offset="0.0353535" stop-color="#FF4572"/>
<stop offset="0.2402" stop-color="#FD4B81"/>
<stop offset="0.635" stop-color="#F85CAA"/>
<stop offset="1" stop-color="#F36DD4"/>
</linearGradient>
<linearGradient id="paint10_linear_7172_19943" x1="304.652" y1="190.435" x2="275.094" y2="242.841" gradientUnits="userSpaceOnUse">
<stop offset="0.0353535" stop-color="#FF4572"/>
<stop offset="0.2402" stop-color="#FD4B81"/>
<stop offset="0.635" stop-color="#F85CAA"/>
<stop offset="1" stop-color="#F36DD4"/>
</linearGradient>
<linearGradient id="paint11_linear_7172_19943" x1="313.845" y1="188.89" x2="278.456" y2="243.676" gradientUnits="userSpaceOnUse">
<stop offset="0.0353535" stop-color="#FF4572"/>
<stop offset="0.2402" stop-color="#FD4B81"/>
<stop offset="0.635" stop-color="#F85CAA"/>
<stop offset="1" stop-color="#F36DD4"/>
</linearGradient>
<linearGradient id="paint12_linear_7172_19943" x1="333.446" y1="207.296" x2="304.058" y2="259.6" gradientUnits="userSpaceOnUse">
<stop offset="0.0353535" stop-color="#FF4572"/>
<stop offset="0.2402" stop-color="#FD4B81"/>
<stop offset="0.635" stop-color="#F85CAA"/>
<stop offset="1" stop-color="#F36DD4"/>
</linearGradient>
<linearGradient id="paint13_linear_7172_19943" x1="341.896" y1="244.608" x2="326.341" y2="272.29" gradientUnits="userSpaceOnUse">
<stop offset="0.0353535" stop-color="#FF4572"/>
<stop offset="0.2402" stop-color="#FD4B81"/>
<stop offset="0.635" stop-color="#F85CAA"/>
<stop offset="1" stop-color="#F36DD4"/>
</linearGradient>
<linearGradient id="paint14_linear_7172_19943" x1="391.15" y1="217.483" x2="344.021" y2="277.073" gradientUnits="userSpaceOnUse">
<stop offset="0.0353535" stop-color="#FF4572"/>
<stop offset="0.2402" stop-color="#FD4B81"/>
<stop offset="0.635" stop-color="#F85CAA"/>
<stop offset="1" stop-color="#F36DD4"/>
</linearGradient>
<linearGradient id="paint15_linear_7172_19943" x1="400.714" y1="246.426" x2="371.326" y2="298.73" gradientUnits="userSpaceOnUse">
<stop offset="0.0353535" stop-color="#FF4572"/>
<stop offset="0.2402" stop-color="#FD4B81"/>
<stop offset="0.635" stop-color="#F85CAA"/>
<stop offset="1" stop-color="#F36DD4"/>
</linearGradient>
<linearGradient id="paint16_linear_7172_19943" x1="421.51" y1="266.66" x2="407.896" y2="314.591" gradientUnits="userSpaceOnUse">
<stop offset="0.0353535" stop-color="#FF4572"/>
<stop offset="0.2402" stop-color="#FD4B81"/>
<stop offset="0.635" stop-color="#F85CAA"/>
<stop offset="1" stop-color="#F36DD4"/>
</linearGradient>
<linearGradient id="paint17_linear_7172_19943" x1="431.77" y1="228.922" x2="387.184" y2="308.273" gradientUnits="userSpaceOnUse">
<stop offset="0.0353535" stop-color="#FF4572"/>
<stop offset="0.2402" stop-color="#FD4B81"/>
<stop offset="0.635" stop-color="#F85CAA"/>
<stop offset="1" stop-color="#F36DD4"/>
</linearGradient>
<linearGradient id="paint18_linear_7172_19943" x1="250.7" y1="28.1937" x2="441.105" y2="265.607" gradientUnits="userSpaceOnUse">
<stop stop-color="#00C7C5"/>
<stop offset="0.5" stop-color="#2BE9A3"/>
<stop offset="1" stop-color="#B4F759"/>
</linearGradient>
<linearGradient id="paint19_linear_7172_19943" x1="414.379" y1="147.742" x2="227.184" y2="147.742" gradientUnits="userSpaceOnUse">
<stop offset="0.101" stop-color="#FFE585"/>
<stop offset="0.9495" stop-color="#FF9E6E"/>
</linearGradient>
<linearGradient id="paint20_linear_7172_19943" x1="225.931" y1="315.063" x2="72.281" y2="327.481" gradientUnits="userSpaceOnUse">
<stop stop-color="#2C2E43" stop-opacity="0"/>
<stop offset="0.632152" stop-color="#4F516A"/>
<stop offset="1" stop-color="#2C2E43" stop-opacity="0"/>
</linearGradient>
<linearGradient id="paint21_linear_7172_19943" x1="95.5886" y1="303.662" x2="171.064" y2="271.398" gradientUnits="userSpaceOnUse">
<stop stop-color="#060A2C"/>
<stop offset="0.5" stop-color="#420423"/>
<stop offset="1" stop-color="#CD0A73"/>
</linearGradient>
<linearGradient id="paint22_linear_7172_19943" x1="170.641" y1="215.062" x2="138.328" y2="298.402" gradientUnits="userSpaceOnUse">
<stop stop-color="#AFB6E5"/>
<stop offset="0.1449" stop-color="#B6BCE8"/>
<stop offset="0.3485" stop-color="#C8CDF1"/>
<stop offset="0.5808" stop-color="#E5E9FF"/>
<stop offset="0.8551" stop-color="#F5F6FF"/>
<stop offset="1" stop-color="white"/>
</linearGradient>
<linearGradient id="paint23_linear_7172_19943" x1="95.5906" y1="291.625" x2="171.066" y2="259.361" gradientUnits="userSpaceOnUse">
<stop stop-color="#060A2C"/>
<stop offset="0.5" stop-color="#420423"/>
<stop offset="1" stop-color="#CD0A73"/>
</linearGradient>
<linearGradient id="paint24_linear_7172_19943" x1="95.4785" y1="278.786" x2="168.759" y2="244.473" gradientUnits="userSpaceOnUse">
<stop stop-color="#060A2C"/>
<stop offset="0.5" stop-color="#812251"/>
<stop offset="1" stop-color="#0E0007"/>
</linearGradient>
<linearGradient id="paint25_linear_7172_19943" x1="150.573" y1="59" x2="150.573" y2="279.681" gradientUnits="userSpaceOnUse">
<stop stop-color="#14ACBC"/>
<stop offset="1" stop-color="#0ABDCF" stop-opacity="0"/>
</linearGradient>
<linearGradient id="paint26_linear_7172_19943" x1="150.509" y1="59" x2="150.509" y2="279.681" gradientUnits="userSpaceOnUse">
<stop stop-color="#14ACBC"/>
<stop offset="1" stop-color="#0ABDCF" stop-opacity="0"/>
</linearGradient>
<linearGradient id="paint27_linear_7172_19943" x1="150.446" y1="59.1265" x2="150.446" y2="279.774" gradientUnits="userSpaceOnUse">
<stop stop-color="#14ACBC"/>
<stop offset="1" stop-color="#0ABDCF" stop-opacity="0"/>
</linearGradient>
<linearGradient id="paint28_linear_7172_19943" x1="150.383" y1="59.1265" x2="150.383" y2="279.774" gradientUnits="userSpaceOnUse">
<stop stop-color="#14ACBC"/>
<stop offset="1" stop-color="#0ABDCF" stop-opacity="0"/>
</linearGradient>
<linearGradient id="paint29_linear_7172_19943" x1="150.319" y1="59.2534" x2="150.319" y2="279.774" gradientUnits="userSpaceOnUse">
<stop stop-color="#14ACBC"/>
<stop offset="1" stop-color="#0ABDCF" stop-opacity="0"/>
</linearGradient>
<linearGradient id="paint30_linear_7172_19943" x1="150.193" y1="59.2534" x2="150.193" y2="279.774" gradientUnits="userSpaceOnUse">
<stop stop-color="#14ACBC"/>
<stop offset="1" stop-color="#0ABDCF" stop-opacity="0"/>
</linearGradient>
<linearGradient id="paint31_linear_7172_19943" x1="150.129" y1="59.2534" x2="150.129" y2="279.774" gradientUnits="userSpaceOnUse">
<stop stop-color="#14ACBC"/>
<stop offset="1" stop-color="#0ABDCF" stop-opacity="0"/>
</linearGradient>
<linearGradient id="paint32_linear_7172_19943" x1="150.066" y1="59.3799" x2="150.066" y2="279.774" gradientUnits="userSpaceOnUse">
<stop stop-color="#14ACBC"/>
<stop offset="1" stop-color="#0ABDCF" stop-opacity="0"/>
</linearGradient>
<linearGradient id="paint33_linear_7172_19943" x1="150.003" y1="59.3799" x2="150.003" y2="279.774" gradientUnits="userSpaceOnUse">
<stop stop-color="#14ACBC"/>
<stop offset="1" stop-color="#0ABDCF" stop-opacity="0"/>
</linearGradient>
<linearGradient id="paint34_linear_7172_19943" x1="149.94" y1="59.5068" x2="149.94" y2="279.774" gradientUnits="userSpaceOnUse">
<stop stop-color="#14ACBC"/>
<stop offset="1" stop-color="#0ABDCF" stop-opacity="0"/>
</linearGradient>
<linearGradient id="paint35_linear_7172_19943" x1="149.876" y1="59.5068" x2="149.876" y2="279.774" gradientUnits="userSpaceOnUse">
<stop stop-color="#14ACBC"/>
<stop offset="1" stop-color="#0ABDCF" stop-opacity="0"/>
</linearGradient>
<linearGradient id="paint36_linear_7172_19943" x1="149.813" y1="59.5068" x2="149.813" y2="279.774" gradientUnits="userSpaceOnUse">
<stop stop-color="#14ACBC"/>
<stop offset="1" stop-color="#0ABDCF" stop-opacity="0"/>
</linearGradient>
<linearGradient id="paint37_linear_7172_19943" x1="149.75" y1="59.6333" x2="149.75" y2="279.774" gradientUnits="userSpaceOnUse">
<stop stop-color="#14ACBC"/>
<stop offset="1" stop-color="#0ABDCF" stop-opacity="0"/>
</linearGradient>
<linearGradient id="paint38_linear_7172_19943" x1="149.686" y1="59.6333" x2="149.686" y2="279.774" gradientUnits="userSpaceOnUse">
<stop stop-color="#14ACBC"/>
<stop offset="1" stop-color="#0ABDCF" stop-opacity="0"/>
</linearGradient>
<linearGradient id="paint39_linear_7172_19943" x1="149.623" y1="59.7603" x2="149.623" y2="279.774" gradientUnits="userSpaceOnUse">
<stop stop-color="#14ACBC"/>
<stop offset="1" stop-color="#0ABDCF" stop-opacity="0"/>
</linearGradient>
<linearGradient id="paint40_linear_7172_19943" x1="149.496" y1="59.7603" x2="149.496" y2="279.774" gradientUnits="userSpaceOnUse">
<stop stop-color="#14ACBC"/>
<stop offset="1" stop-color="#0ABDCF" stop-opacity="0"/>
</linearGradient>
<linearGradient id="paint41_linear_7172_19943" x1="149.433" y1="59.7603" x2="149.433" y2="279.774" gradientUnits="userSpaceOnUse">
<stop stop-color="#14ACBC"/>
<stop offset="1" stop-color="#0ABDCF" stop-opacity="0"/>
</linearGradient>
<linearGradient id="paint42_linear_7172_19943" x1="149.37" y1="59.8867" x2="149.37" y2="279.774" gradientUnits="userSpaceOnUse">
<stop stop-color="#14ACBC"/>
<stop offset="1" stop-color="#0ABDCF" stop-opacity="0"/>
</linearGradient>
<linearGradient id="paint43_linear_7172_19943" x1="149.307" y1="59.8867" x2="149.307" y2="279.774" gradientUnits="userSpaceOnUse">
<stop stop-color="#14ACBC"/>
<stop offset="1" stop-color="#0ABDCF" stop-opacity="0"/>
</linearGradient>
<linearGradient id="paint44_linear_7172_19943" x1="149.243" y1="60.0137" x2="149.243" y2="279.774" gradientUnits="userSpaceOnUse">
<stop stop-color="#14ACBC"/>
<stop offset="1" stop-color="#0ABDCF" stop-opacity="0"/>
</linearGradient>
<linearGradient id="paint45_linear_7172_19943" x1="144.338" y1="62.9282" x2="144.338" y2="280.073" gradientUnits="userSpaceOnUse">
<stop stop-color="#14ACBC"/>
<stop offset="1" stop-color="#0ABDCF" stop-opacity="0"/>
</linearGradient>
<linearGradient id="paint46_linear_7172_19943" x1="144.399" y1="64.0527" x2="144.399" y2="278.948" gradientUnits="userSpaceOnUse">
<stop stop-color="#25757D"/>
<stop offset="1" stop-color="#0A6872"/>
</linearGradient>
<linearGradient id="paint47_linear_7172_19943" x1="144.335" y1="68.0083" x2="144.335" y2="274.739" gradientUnits="userSpaceOnUse">
<stop stop-color="#64B8C0"/>
<stop offset="1" stop-color="#0A6872"/>
</linearGradient>
<linearGradient id="paint48_linear_7172_19943" x1="144.335" y1="69.6772" x2="144.335" y2="273.197" gradientUnits="userSpaceOnUse">
<stop stop-color="#06373C"/>
<stop offset="1" stop-color="#065259" stop-opacity="0"/>
</linearGradient>
<linearGradient id="paint49_linear_7172_19943" x1="169.58" y1="229.049" x2="102.116" y2="169.872" gradientUnits="userSpaceOnUse">
<stop stop-color="#00C7C5"/>
<stop offset="0.5" stop-color="#2BE9A3"/>
<stop offset="1" stop-color="#B4F759"/>
</linearGradient>
<linearGradient id="paint50_linear_7172_19943" x1="126.8" y1="200.146" x2="113.089" y2="200.146" gradientUnits="userSpaceOnUse">
<stop offset="0.101" stop-color="#FFE585"/>
<stop offset="0.9495" stop-color="#FF9E6E"/>
</linearGradient>
<linearGradient id="paint51_linear_7172_19943" x1="258.302" y1="194.235" x2="252.822" y2="255.67" gradientUnits="userSpaceOnUse">
<stop offset="0.0353535" stop-color="#FF4572"/>
<stop offset="0.2402" stop-color="#FD4B81"/>
<stop offset="0.635" stop-color="#F85CAA"/>
<stop offset="1" stop-color="#F36DD4"/>
</linearGradient>
<linearGradient id="paint52_linear_7172_19943" x1="174.018" y1="223.99" x2="106.554" y2="164.812" gradientUnits="userSpaceOnUse">
<stop stop-color="#00C7C5"/>
<stop offset="0.5" stop-color="#2BE9A3"/>
<stop offset="1" stop-color="#B4F759"/>
</linearGradient>
<linearGradient id="paint53_linear_7172_19943" x1="162.171" y1="218.658" x2="128.859" y2="218.658" gradientUnits="userSpaceOnUse">
<stop offset="0.101" stop-color="#FFE585"/>
<stop offset="0.9495" stop-color="#FF9E6E"/>
</linearGradient>
<linearGradient id="paint54_linear_7172_19943" x1="178.463" y1="218.922" x2="110.999" y2="159.745" gradientUnits="userSpaceOnUse">
<stop stop-color="#00C7C5"/>
<stop offset="0.5" stop-color="#2BE9A3"/>
<stop offset="1" stop-color="#B4F759"/>
</linearGradient>
<linearGradient id="paint55_linear_7172_19943" x1="172.629" y1="228.131" x2="165.9" y2="228.131" gradientUnits="userSpaceOnUse">
<stop offset="0.101" stop-color="#FFE585"/>
<stop offset="0.9495" stop-color="#FF9E6E"/>
</linearGradient>
<linearGradient id="paint56_linear_7172_19943" x1="144.902" y1="110.685" x2="119.765" y2="110.685" gradientUnits="userSpaceOnUse">
<stop offset="0.101" stop-color="#FFE585"/>
<stop offset="0.9495" stop-color="#FF9E6E"/>
</linearGradient>
<linearGradient id="paint57_linear_7172_19943" x1="189.887" y1="263.528" x2="210.729" y2="268.428" gradientUnits="userSpaceOnUse">
<stop stop-color="#4E55B7"/>
<stop offset="1" stop-color="#191D4F"/>
</linearGradient>
<linearGradient id="paint58_linear_7172_19943" x1="189.213" y1="269.331" x2="208.181" y2="273.869" gradientUnits="userSpaceOnUse">
<stop stop-color="#4E55B7"/>
<stop offset="1" stop-color="#191D4F"/>
</linearGradient>
<linearGradient id="paint59_linear_7172_19943" x1="200.776" y1="265.237" x2="218.034" y2="268.787" gradientUnits="userSpaceOnUse">
<stop stop-color="#4E55B7"/>
<stop offset="1" stop-color="#191D4F"/>
</linearGradient>
<linearGradient id="paint60_linear_7172_19943" x1="199.113" y1="277.12" x2="211.815" y2="279.625" gradientUnits="userSpaceOnUse">
<stop stop-color="#4E55B7"/>
<stop offset="1" stop-color="#191D4F"/>
</linearGradient>
</defs>
</svg>
