<svg width="446" height="315" viewBox="0 0 446 315" fill="none" xmlns="http://www.w3.org/2000/svg">
    <path opacity="0.2" d="M68.1046 12.6723C132.254 -17.833 197.451 9.1358 241.669 67.8816C285.887 126.627 378.687 27.3345 427.903 85.9834C461.491 126.008 446.107 228.915 400.051 273.489C337.454 334.072 147.083 303.332 105.904 293.021C58.4609 281.153 23.7771 245.106 9.6852 201.367C-24.2714 95.9718 39.7572 26.1537 68.1046 12.6723Z" fill="url(#paint0_linear_7126_6159)"/>
    <path d="M393.018 77.9066C402.692 91.7564 408.239 108.066 409.014 124.943C409.507 136.247 407.986 148.29 413.349 158.252C421.049 172.548 437.7 172.063 442.799 187.473C445.018 194.179 440.929 208.925 439.824 215.903C438.575 223.825 443.42 230.48 442.17 238.41C441.023 245.677 435.583 250.862 429.056 254.244C423.242 257.253 417.87 257.338 411.827 254.831C400.302 250.063 390.715 245.031 382.513 235.648C370.988 222.474 367.503 204.2 365.514 186.835C361.174 148.434 362.052 109.622 368.123 71.4556" fill="#9A00D0"/>
    <path d="M259.404 286.816L300.202 267.446C300.202 267.446 316.087 190.313 319.096 184.525C322.105 178.737 334.65 173.731 334.65 173.731L332.55 278.172L328.811 302.285L271.287 307.733L259.404 286.816Z" fill="#25B4AB"/>
    <path d="M224.6 305.088C224.371 305.088 223.24 305.785 224.184 307.579C225.127 309.372 232.046 315.296 234.077 313.231C236.108 311.165 233.006 308.65 233.006 308.65L224.6 305.088Z" fill="#FFBE9D"/>
    <path d="M233.295 308.734C233.295 308.734 241.642 309.788 244.846 311.012C248.339 312.338 252.589 311.428 255.445 309.499C257.068 308.418 258.582 307.183 259.967 305.81L270.608 305.64C272.138 303.849 273.141 301.669 273.507 299.342C273.873 297.015 273.588 294.632 272.682 292.457C272.112 290.945 271.29 289.539 270.251 288.301C268.985 286.933 266.987 285.828 263.536 285.233L250.898 287.961C250.898 287.961 231.349 286.559 227.83 288.208C227.83 288.208 223.453 290.8 222.102 291.888C221.592 292.304 220.036 297.285 223.224 299.877C223.224 299.877 220.453 302.079 221.957 304.059L222.671 304.909C222.671 304.909 220.81 307.323 221.77 308.377C222.731 309.431 231.12 314.326 234.103 313.171C237.086 312.015 234.621 309.218 233.295 308.708" fill="#F2CECA"/>
    <path d="M225.323 295.566C225.675 295.67 226.022 295.795 226.359 295.94C227.014 296.186 227.974 296.543 229.181 296.926C229.776 297.121 230.439 297.317 231.162 297.504C231.884 297.691 232.658 297.852 233.465 298.116C234.343 298.356 235.138 298.836 235.76 299.501C236.103 299.87 236.34 300.324 236.448 300.816C236.556 301.308 236.529 301.819 236.372 302.297C236.172 302.779 235.808 303.174 235.343 303.411C234.906 303.625 234.434 303.758 233.949 303.802C233.06 303.854 232.168 303.806 231.289 303.657C229.818 303.419 228.372 303.044 226.971 302.535C225.773 302.11 224.83 301.686 224.175 301.431C223.829 301.305 223.496 301.146 223.181 300.955C223.536 301.049 223.885 301.166 224.226 301.303C224.889 301.541 225.849 301.907 227.048 302.297C228.432 302.767 229.854 303.117 231.298 303.343C232.141 303.475 232.996 303.515 233.847 303.462C234.288 303.423 234.718 303.302 235.114 303.105C235.499 302.904 235.8 302.572 235.964 302.17C236.101 301.757 236.128 301.315 236.041 300.889C235.955 300.462 235.758 300.066 235.471 299.739C234.892 299.119 234.154 298.669 233.338 298.439C232.556 298.175 231.774 298.005 231.06 297.801C230.346 297.597 229.674 297.385 229.079 297.181C227.872 296.764 226.929 296.331 226.283 296.084C225.947 295.942 225.626 295.769 225.323 295.566Z" fill="#EB996E"/>
    <path d="M226.073 289.534C226.425 289.632 226.769 289.757 227.102 289.908C227.765 290.163 228.717 290.528 229.907 290.919C231.096 291.31 232.533 291.769 234.156 292.135C235.047 292.274 235.893 292.617 236.63 293.137C237.02 293.462 237.277 293.919 237.352 294.421C237.427 294.927 237.353 295.443 237.14 295.908C236.924 296.351 236.618 296.745 236.242 297.064C235.866 297.383 235.428 297.62 234.955 297.761C234.097 298.04 233.186 298.113 232.295 297.974C230.845 297.684 229.423 297.268 228.045 296.733L225.232 295.747C224.883 295.638 224.542 295.504 224.212 295.347C224.573 295.408 224.929 295.499 225.274 295.619L228.122 296.469C229.507 296.962 230.927 297.348 232.371 297.625C233.213 297.746 234.071 297.67 234.879 297.404C235.308 297.273 235.706 297.054 236.047 296.761C236.388 296.469 236.664 296.109 236.859 295.704C237.06 295.318 237.128 294.877 237.053 294.448C236.977 294.019 236.763 293.628 236.443 293.333C235.747 292.848 234.951 292.525 234.114 292.389C232.49 291.982 231.054 291.54 229.864 291.098C228.674 290.656 227.739 290.248 227.093 289.976C226.742 289.856 226.401 289.708 226.073 289.534Z" fill="#EB996E"/>
    <path d="M230.091 291.237C229.917 290.682 229.789 290.113 229.708 289.537C229.517 288.984 229.377 288.415 229.292 287.837C229.697 288.279 229.961 288.833 230.048 289.426C230.261 290.009 230.276 290.645 230.091 291.237Z" fill="#EB996E"/>
    <path d="M259.526 291.501L252.089 288.68C252.089 288.68 231.443 279.041 231.095 279.568C230.746 280.095 229.625 280.027 229.871 282.543C230.117 285.059 242.144 290.142 242.527 291.042C242.909 291.943 242.272 296.329 246.717 299.482C251.162 302.636 254.366 302.712 254.366 302.712" fill="#F2CECA"/>
    <path d="M254.366 302.652H254.171L253.661 302.601C253.006 302.497 252.361 302.34 251.731 302.133C249.414 301.344 247.272 300.111 245.425 298.504C244.174 297.332 243.288 295.824 242.875 294.161C242.662 293.246 242.514 292.317 242.433 291.381C242.418 291.274 242.393 291.169 242.356 291.067C242.308 290.984 242.241 290.915 242.161 290.863C241.967 290.722 241.765 290.591 241.557 290.472C241.141 290.225 240.707 289.987 240.248 289.749C238.464 288.789 236.551 287.828 234.63 286.724C233.646 286.169 232.69 285.565 231.766 284.913C231.288 284.577 230.839 284.202 230.423 283.791C230.202 283.58 230.011 283.34 229.854 283.077C229.769 282.933 229.712 282.775 229.684 282.61C229.667 282.457 229.667 282.303 229.684 282.151C229.616 281.535 229.725 280.913 229.998 280.357C230.167 280.095 230.39 279.872 230.653 279.703C230.759 279.634 230.856 279.551 230.942 279.457C230.942 279.457 230.942 279.457 231.01 279.38C231.051 279.349 231.102 279.334 231.154 279.338C231.202 279.332 231.251 279.332 231.299 279.338L231.528 279.397C232.641 279.737 233.67 280.187 234.698 280.612C236.738 281.462 238.685 282.312 240.537 283.162C244.252 284.862 247.566 286.375 250.354 287.684C251.051 287.998 251.706 288.33 252.335 288.602L254.154 289.316L257.069 290.472L258.905 291.211L259.372 291.415C259.483 291.415 259.534 291.483 259.534 291.492C259.534 291.5 259.474 291.492 259.364 291.441L258.879 291.279L257.018 290.591L254.077 289.545L252.241 288.857C251.595 288.593 250.941 288.27 250.244 287.956L240.401 283.511C238.54 282.661 236.594 281.811 234.554 280.961C233.534 280.544 232.497 280.111 231.426 279.763L231.239 279.72H231.171C231.171 279.72 231.171 279.669 231.171 279.635C231.409 279.788 231.231 279.686 231.282 279.72C231.18 279.846 231.06 279.955 230.925 280.043C230.698 280.182 230.506 280.371 230.364 280.595C230.124 281.095 230.03 281.651 230.092 282.202C230.086 282.468 230.148 282.731 230.27 282.967C230.412 283.203 230.584 283.42 230.78 283.613C231.182 284.009 231.617 284.37 232.081 284.692C232.998 285.355 233.959 285.933 234.911 286.486C236.823 287.591 238.719 288.559 240.512 289.52C240.962 289.766 241.362 290.004 241.829 290.268C242.049 290.393 242.262 290.529 242.467 290.676C242.591 290.759 242.69 290.873 242.756 291.007C242.799 291.131 242.827 291.259 242.841 291.39C242.921 292.316 243.061 293.235 243.257 294.144C243.646 295.763 244.489 297.237 245.688 298.393C247.499 299.996 249.595 301.244 251.867 302.074C252.486 302.292 253.119 302.465 253.763 302.592C253.984 302.643 254.154 302.66 254.273 302.677L254.366 302.652Z" fill="#EB996E"/>
    <path d="M231.597 303.611C231.871 303.644 232.138 303.722 232.388 303.84C233.086 304.121 233.741 304.499 234.334 304.962C234.747 305.285 235.123 305.653 235.456 306.059C235.665 306.287 235.826 306.556 235.93 306.848C236.033 307.14 236.077 307.449 236.059 307.759C235.991 308.11 235.826 308.436 235.583 308.699C235.34 308.961 235.028 309.151 234.682 309.246C233.972 309.44 233.22 309.417 232.524 309.178C230.159 308.478 227.866 307.559 225.673 306.433C225.013 306.088 224.371 305.708 223.752 305.294C223.514 305.157 223.294 304.992 223.098 304.801C223.351 304.901 223.593 305.026 223.82 305.175C224.279 305.438 224.942 305.804 225.783 306.212C227.98 307.261 230.253 308.142 232.583 308.846C233.218 309.066 233.904 309.093 234.555 308.923C234.841 308.848 235.101 308.695 235.306 308.483C235.511 308.27 235.654 308.005 235.719 307.716C235.738 307.443 235.703 307.168 235.615 306.909C235.528 306.649 235.39 306.409 235.209 306.203C234.897 305.807 234.544 305.445 234.155 305.124C233.37 304.514 232.51 304.005 231.597 303.611Z" fill="#EB996E"/>
    <g opacity="0.3">
    <path opacity="0.3" d="M328.523 302.282C321.843 279.75 315.952 250.733 309.272 228.201C306.824 248.999 309.884 276.461 313.709 297.047C314.159 299.46 314.363 301.823 316.258 303.413L328.523 302.282Z" fill="black"/>
    </g>
    <path d="M330.316 172.687C330.316 172.687 308.957 220.411 308.957 229.199C308.957 237.988 324.961 298.835 324.961 298.835C324.808 301.257 324.188 313.386 324.188 313.386L413.934 313.701L415.302 294.407L408.298 276.023L415.293 224.049C415.293 224.049 420.002 193.876 420.393 185.436C420.92 174.879 385.154 162.64 386.132 161.178L379.961 152.883L344.595 181.602L337.6 161.408L329.22 169.321L330.316 172.687Z" fill="#7CE6DF"/>
    <path d="M389.091 185.379C379.376 201.808 361.604 231.743 361.604 231.743L329.748 268.07C329.748 268.07 327.666 286.522 331.83 292.183C335.995 297.843 343.143 301.711 343.143 301.711C343.143 301.711 351.549 301.711 362.233 292.778C372.917 283.845 402.384 246.932 402.384 246.932L412.507 234.718C412.507 234.718 424.576 205.072 422.324 189.985C421.474 184.163 418.975 181.749 415.677 179.081C407.373 172.392 394.522 176.191 389.091 185.379Z" fill="#25B4AB"/>
    <path d="M393.417 180.324C393.309 180.502 393.19 180.672 393.06 180.834C392.779 181.191 392.422 181.684 391.972 182.253C391.003 183.46 389.669 185.262 388.037 187.506C383.877 193.401 380.093 199.553 376.707 205.924C372.695 213.37 369.38 220.28 366.839 225.209C365.581 227.683 364.544 229.671 363.788 231.031L362.963 232.587C362.871 232.773 362.76 232.95 362.632 233.114C362.696 232.917 362.778 232.726 362.878 232.544L363.677 230.938L366.593 225.065C369.057 220.093 372.338 213.166 376.35 205.703C379.74 199.311 383.574 193.165 387.824 187.31C389.524 185.092 390.858 183.307 391.87 182.134L393.026 180.766C393.14 180.605 393.271 180.456 393.417 180.324Z" fill="#263238"/>
    <path d="M413.96 178.583C413.96 178.651 413.042 178.328 411.572 177.963C409.654 177.479 407.691 177.195 405.715 177.113C403.739 177.059 401.762 177.213 399.817 177.572C398.321 177.852 397.412 178.107 397.395 178.039C397.583 177.918 397.79 177.826 398.006 177.767C398.578 177.57 399.16 177.403 399.749 177.266C401.698 176.811 403.698 176.611 405.698 176.671C407.714 176.732 409.714 177.051 411.648 177.623C412.227 177.791 412.795 177.996 413.348 178.235C413.773 178.447 413.96 178.549 413.96 178.583Z" fill="#263238"/>
    <path d="M338.894 188.781C338.854 188.612 338.774 188.456 338.661 188.325C338.548 188.194 338.405 188.092 338.244 188.028C338.083 187.963 337.909 187.939 337.737 187.956C337.565 187.973 337.399 188.032 337.254 188.126L337.194 188.177C337.061 188.296 336.961 188.448 336.904 188.617C336.847 188.786 336.835 188.967 336.87 189.143C336.904 189.318 336.984 189.481 337.1 189.616C337.217 189.752 337.367 189.854 337.535 189.914C337.703 189.974 337.884 189.989 338.06 189.957C338.236 189.926 338.4 189.849 338.538 189.735C338.675 189.62 338.78 189.472 338.842 189.305C338.905 189.138 338.923 188.957 338.894 188.781Z" fill="white"/>
    <path d="M335.008 180.18C334.967 180.012 334.886 179.855 334.772 179.724C334.658 179.593 334.514 179.491 334.352 179.427C334.191 179.363 334.017 179.339 333.844 179.356C333.671 179.373 333.505 179.431 333.359 179.526L333.3 179.577C333.162 179.695 333.059 179.848 332.999 180.019C332.94 180.191 332.926 180.374 332.959 180.553C332.993 180.731 333.073 180.897 333.191 181.035C333.309 181.173 333.461 181.277 333.631 181.338C333.802 181.399 333.986 181.413 334.165 181.381C334.343 181.348 334.51 181.269 334.648 181.152C334.787 181.035 334.892 180.884 334.954 180.713C335.015 180.543 335.031 180.359 334.999 180.18H335.008Z" fill="white"/>
    <path d="M336.699 170.225C336.658 170.056 336.577 169.9 336.463 169.769C336.349 169.638 336.205 169.536 336.043 169.472C335.882 169.408 335.708 169.384 335.535 169.401C335.362 169.418 335.196 169.476 335.05 169.571L334.99 169.613C334.857 169.732 334.757 169.883 334.7 170.052C334.643 170.221 334.63 170.402 334.664 170.577C334.698 170.752 334.777 170.915 334.893 171.05C335.009 171.186 335.158 171.289 335.326 171.349C335.493 171.41 335.674 171.425 335.85 171.395C336.025 171.365 336.19 171.289 336.328 171.176C336.465 171.062 336.571 170.915 336.635 170.748C336.698 170.582 336.718 170.401 336.69 170.225H336.699Z" fill="white"/>
    <path d="M324.522 183.915C324.481 183.746 324.4 183.59 324.286 183.459C324.172 183.328 324.028 183.226 323.867 183.162C323.705 183.098 323.531 183.073 323.358 183.09C323.185 183.107 323.019 183.166 322.873 183.26L322.814 183.303C322.68 183.421 322.58 183.572 322.523 183.741C322.466 183.91 322.454 184.091 322.487 184.266C322.521 184.441 322.6 184.604 322.716 184.74C322.832 184.875 322.981 184.978 323.149 185.039C323.317 185.099 323.497 185.115 323.673 185.084C323.849 185.054 324.013 184.978 324.151 184.865C324.289 184.752 324.394 184.604 324.458 184.438C324.522 184.271 324.541 184.091 324.514 183.915H324.522Z" fill="white"/>
    <path d="M352.762 187.859C352.722 187.69 352.642 187.534 352.529 187.403C352.416 187.272 352.273 187.17 352.112 187.106C351.951 187.041 351.777 187.017 351.605 187.034C351.433 187.051 351.267 187.11 351.122 187.204L351.063 187.255C350.929 187.374 350.829 187.526 350.772 187.695C350.715 187.864 350.704 188.046 350.738 188.221C350.772 188.396 350.852 188.559 350.968 188.695C351.085 188.83 351.235 188.932 351.403 188.992C351.571 189.052 351.752 189.067 351.928 189.035C352.104 189.004 352.269 188.927 352.406 188.813C352.543 188.698 352.648 188.55 352.71 188.383C352.773 188.216 352.791 188.035 352.762 187.859Z" fill="white"/>
    <path d="M328.845 205.599C328.804 205.43 328.723 205.274 328.609 205.143C328.495 205.012 328.351 204.91 328.19 204.846C328.028 204.782 327.854 204.757 327.681 204.774C327.508 204.791 327.342 204.85 327.196 204.944H327.137C327.004 205.063 326.904 205.214 326.846 205.383C326.789 205.552 326.777 205.733 326.811 205.908C326.844 206.083 326.923 206.246 327.039 206.382C327.155 206.517 327.304 206.62 327.472 206.68C327.64 206.741 327.82 206.757 327.996 206.726C328.172 206.696 328.337 206.62 328.474 206.507C328.612 206.393 328.718 206.246 328.781 206.079C328.845 205.913 328.864 205.732 328.837 205.556L328.845 205.599Z" fill="white"/>
    <path d="M314.787 227.181C314.745 227.013 314.664 226.856 314.55 226.725C314.436 226.594 314.293 226.492 314.131 226.428C313.97 226.364 313.795 226.34 313.622 226.357C313.45 226.374 313.283 226.432 313.138 226.527L313.078 226.578C312.945 226.697 312.845 226.848 312.788 227.017C312.731 227.187 312.719 227.368 312.754 227.543C312.788 227.718 312.867 227.882 312.984 228.017C313.101 228.152 313.25 228.255 313.419 228.314C313.587 228.374 313.768 228.389 313.944 228.358C314.12 228.326 314.284 228.25 314.421 228.135C314.558 228.021 314.664 227.873 314.726 227.705C314.789 227.538 314.807 227.358 314.778 227.181H314.787Z" fill="white"/>
    <path d="M344.535 205.599C344.494 205.43 344.413 205.274 344.299 205.143C344.184 205.012 344.041 204.91 343.879 204.846C343.718 204.782 343.543 204.757 343.371 204.774C343.198 204.791 343.032 204.85 342.886 204.944H342.826C342.693 205.063 342.593 205.214 342.536 205.383C342.479 205.552 342.466 205.733 342.5 205.908C342.534 206.083 342.613 206.246 342.729 206.382C342.845 206.517 342.994 206.62 343.162 206.68C343.329 206.741 343.51 206.757 343.686 206.726C343.861 206.696 344.026 206.62 344.164 206.507C344.301 206.393 344.407 206.246 344.471 206.079C344.534 205.913 344.553 205.732 344.526 205.556L344.535 205.599Z" fill="white"/>
    <path d="M340.523 246.191C340.482 246.022 340.401 245.865 340.287 245.734C340.173 245.603 340.029 245.502 339.868 245.438C339.706 245.374 339.532 245.349 339.359 245.366C339.186 245.383 339.02 245.442 338.874 245.536L338.823 245.587C338.69 245.706 338.59 245.857 338.533 246.027C338.476 246.196 338.464 246.377 338.499 246.552C338.533 246.728 338.612 246.891 338.729 247.026C338.846 247.161 338.996 247.264 339.164 247.324C339.332 247.383 339.513 247.398 339.689 247.367C339.865 247.335 340.029 247.259 340.166 247.144C340.304 247.03 340.409 246.882 340.471 246.715C340.534 246.547 340.552 246.367 340.523 246.191Z" fill="white"/>
    <path d="M351.227 221.582C351.187 221.414 351.108 221.257 350.994 221.126C350.881 220.995 350.738 220.893 350.577 220.829C350.416 220.765 350.242 220.74 350.07 220.757C349.898 220.774 349.732 220.833 349.587 220.928L349.528 220.97C349.394 221.089 349.294 221.24 349.237 221.409C349.18 221.577 349.167 221.758 349.201 221.933C349.235 222.109 349.314 222.272 349.43 222.407C349.546 222.543 349.695 222.646 349.863 222.706C350.03 222.767 350.211 222.782 350.387 222.752C350.562 222.721 350.727 222.646 350.865 222.532C351.003 222.419 351.108 222.272 351.172 222.105C351.235 221.939 351.255 221.758 351.227 221.582Z" fill="white"/>
    <path d="M359.512 175.524C359.471 175.355 359.39 175.199 359.276 175.068C359.162 174.937 359.018 174.835 358.857 174.771C358.695 174.707 358.521 174.683 358.348 174.7C358.175 174.717 358.009 174.775 357.863 174.87L357.804 174.912C357.671 175.031 357.571 175.182 357.513 175.351C357.456 175.519 357.444 175.7 357.478 175.875C357.511 176.051 357.59 176.214 357.706 176.349C357.822 176.485 357.971 176.588 358.139 176.648C358.307 176.709 358.487 176.724 358.663 176.694C358.839 176.663 359.004 176.588 359.141 176.474C359.279 176.361 359.385 176.214 359.448 176.047C359.512 175.881 359.531 175.7 359.504 175.524H359.512Z" fill="white"/>
    <path d="M323.91 72.1284C317.221 76.3781 314.561 85.311 315.819 90.5892C316.465 93.2495 317.672 95.9268 317.145 98.6042C316.694 100.925 315.02 102.786 313.745 104.792C311.644 108.168 310.679 112.128 310.991 116.093C311.303 120.057 312.874 123.818 315.477 126.825C318.079 129.832 321.575 131.927 325.454 132.805C329.333 133.682 333.39 133.295 337.033 131.701" fill="#263238"/>
    <path d="M319.947 106.97C303.662 71.1532 342.403 53.1599 363.532 59.1265C383.395 64.7361 391.869 74.621 395.142 87.9056C398.414 101.19 398.252 115.597 393.042 128.252C390.492 134.491 385.852 140.832 379.146 141.614" fill="#9A00D0"/>
    <path d="M339.027 194.434C338.747 177.316 338.543 153.815 338.543 153.909C338.543 154.002 323.865 151.47 320.779 132.295C319.266 122.75 319.751 107.102 320.55 94.3108C321.281 82.7941 328.905 68.668 340.379 69.8834L376.204 78.9353C377.886 79.1119 379.44 79.9143 380.558 81.1833C381.676 82.4523 382.276 84.0951 382.239 85.7859L379.91 159.875" fill="#F4ACC8"/>
    <path d="M338.544 153.91C347.58 154.048 356.478 151.677 364.246 147.06C364.246 147.06 357.753 160.404 338.544 158.61V153.91Z" fill="#DF7EA3"/>
    <path d="M348.796 98.4118C349.051 99.1342 351.702 98.7858 354.805 99.1682C357.907 99.5507 360.423 100.384 360.839 99.7377C361.026 99.4317 360.584 98.7518 359.573 98.0378C358.22 97.1841 356.69 96.6493 355.1 96.4741C353.509 96.2989 351.9 96.4877 350.393 97.0264C349.255 97.5023 348.677 98.0718 348.796 98.4118Z" fill="#263238"/>
    <path d="M378.95 111.048C379.23 110.912 389.226 106.492 389.345 117.983C389.464 129.475 377.896 127.222 377.871 126.891C377.845 126.559 378.95 111.048 378.95 111.048Z" fill="#E8B0AA"/>
    <path d="M381.339 122.493C381.39 122.493 381.543 122.629 381.883 122.782C382.364 122.973 382.899 122.973 383.379 122.782C384.586 122.323 385.589 120.385 385.623 118.311C385.649 117.327 385.448 116.35 385.037 115.455C384.927 115.096 384.731 114.77 384.465 114.505C384.2 114.24 383.874 114.044 383.515 113.934C383.285 113.874 383.041 113.898 382.827 114.001C382.612 114.103 382.441 114.278 382.342 114.495C382.189 114.818 382.266 115.047 382.206 115.064C382.147 115.081 381.951 114.877 382.045 114.401C382.105 114.117 382.261 113.862 382.487 113.679C382.642 113.557 382.819 113.468 383.009 113.416C383.198 113.363 383.396 113.348 383.592 113.373C384.064 113.461 384.506 113.67 384.875 113.978C385.244 114.286 385.528 114.683 385.7 115.132C386.2 116.122 386.451 117.219 386.431 118.328C386.38 120.64 385.215 122.824 383.558 123.317C383.25 123.41 382.926 123.433 382.608 123.384C382.29 123.336 381.988 123.217 381.722 123.037C381.365 122.773 381.305 122.51 381.339 122.493Z" fill="#EB996E"/>
    <path d="M336.555 64.2056C330.164 67.5118 327.529 80.584 330.172 87.2815C332.816 93.9791 339.947 97.2429 346.976 98.7813C354.005 100.32 360.898 100.481 367.833 98.5773C368.309 103.235 371.106 108.02 375.627 109.253C381.62 110.876 387.654 105.394 388.989 99.3337C390.323 93.2736 388.317 87.035 386.345 81.1449" fill="#9A00D0"/>
    <path d="M341.152 129.955C341.491 130.951 341.971 131.893 342.58 132.751C342.886 133.181 343.28 133.54 343.736 133.805C344.192 134.071 344.699 134.236 345.224 134.289C345.784 134.285 346.336 134.143 346.828 133.875C347.32 133.606 347.739 133.22 348.046 132.751C348.638 131.789 348.912 130.665 348.827 129.538C348.785 128.527 348.317 127.32 347.315 127.201C346.893 127.186 346.474 127.28 346.099 127.473L340.812 129.615" fill="#E8B0AA"/>
    <path d="M391.86 103.17C390.687 103.085 381.193 104.318 381.941 121.954C382.638 138.434 394.198 134.805 397.886 128.601C401.354 122.727 403.377 103.978 391.86 103.17Z" fill="#A00458"/>
    <path d="M397.699 105.253C397.673 105.101 397.658 104.948 397.657 104.794C397.657 104.445 397.657 104.003 397.606 103.442C397.606 102.227 397.521 100.527 397.461 98.4193C397.376 94.0931 397.257 88.067 397.113 81.1229L397.325 81.3269H392.438L392.659 81.106C392.659 82.4149 392.727 83.8003 392.769 85.2112C392.931 91.8237 393.084 97.9603 393.211 103.153V103.306H393.067C391.06 103.769 389.278 104.917 388.027 106.553C387.079 107.822 386.394 109.267 386.012 110.803C385.758 111.793 385.584 112.802 385.494 113.82C385.494 114.169 385.451 114.441 385.443 114.619C385.434 114.798 385.443 114.9 385.443 114.9C385.432 114.807 385.432 114.712 385.443 114.619C385.443 114.441 385.443 114.169 385.443 113.812C385.484 112.78 385.627 111.756 385.868 110.752C386.222 109.17 386.896 107.678 387.848 106.366C389.131 104.663 390.968 103.461 393.041 102.967L392.897 103.153C392.752 97.9943 392.574 91.8322 392.387 85.2112C392.344 83.8088 392.31 82.4234 392.276 81.106V80.8765H397.606V81.089C397.682 88.0415 397.75 94.0591 397.801 98.3938C397.801 100.502 397.801 102.202 397.801 103.417C397.801 103.978 397.801 104.42 397.801 104.76C397.79 104.928 397.756 105.094 397.699 105.253Z" fill="#EFF3EE"/>
    <path d="M391.862 81.1166C391.862 81.1166 386.899 69.5063 375.076 63.7692C370.554 61.5171 365.804 59.7562 360.907 58.5166C360.907 58.5166 367.809 56.8847 378.969 61.8483C384.068 64.1092 389.168 67.0415 392.568 71.4527C394.709 74.249 397.395 79.7142 397.387 81.1166H391.862Z" fill="#A00458"/>
    <path d="M361.263 221.76C361.263 221.76 361.331 221.675 361.475 221.53C361.62 221.386 361.841 221.165 362.113 220.867C362.928 220.005 363.694 219.097 364.407 218.147C365.542 216.629 366.578 215.039 367.51 213.388C368.615 211.458 369.771 209.181 371.02 206.639C373.527 201.54 376.426 195.403 379.434 188.348C380.93 184.821 382.46 181.073 383.99 177.121L385.129 174.129C385.488 173.082 385.946 172.071 386.498 171.112C387.086 170.116 387.939 169.304 388.962 168.766C389.483 168.479 390.068 168.33 390.662 168.332C390.987 168.355 391.298 168.466 391.563 168.655C391.814 168.859 392.01 169.122 392.133 169.42V169.48V169.548C392.06 169.952 391.904 170.338 391.674 170.678C391.417 171.033 391.039 171.281 390.611 171.375C389.795 171.488 388.964 171.336 388.24 170.942C387.48 170.587 386.861 169.989 386.48 169.242C386.1 168.495 385.98 167.642 386.141 166.819C386.314 165.974 386.811 165.229 387.526 164.746C388.231 164.253 389.081 164.011 389.94 164.057C390.384 164.06 390.821 164.174 391.21 164.39C391.599 164.605 391.928 164.914 392.167 165.289C392.287 165.504 392.343 165.749 392.328 165.995C392.313 166.24 392.227 166.476 392.082 166.675C391.801 167.03 391.427 167.301 391.002 167.457C390.29 167.728 389.509 167.761 388.775 167.553C388.042 167.345 387.395 166.906 386.931 166.301C386.479 165.684 386.281 164.917 386.379 164.159C386.453 163.42 386.749 162.721 387.228 162.153C387.716 161.58 388.396 161.205 389.141 161.099C389.517 161.05 389.899 161.089 390.258 161.213C390.616 161.337 390.941 161.542 391.206 161.813C391.478 162.106 391.624 162.493 391.614 162.893C391.609 163.092 391.563 163.287 391.478 163.467C391.393 163.647 391.272 163.808 391.121 163.938C390.844 164.188 390.511 164.368 390.151 164.466C389.791 164.563 389.413 164.575 389.047 164.499C388.694 164.406 388.363 164.241 388.078 164.012C387.792 163.784 387.558 163.498 387.39 163.173C387.061 162.564 386.85 161.898 386.77 161.21C386.53 159.874 386.686 158.497 387.22 157.249C387.518 156.612 388.033 156.103 388.673 155.813C389.328 155.57 390.051 155.595 390.688 155.881C391.021 156.001 391.315 156.212 391.535 156.49C391.756 156.767 391.895 157.101 391.937 157.453C391.954 157.813 391.859 158.169 391.666 158.474C391.473 158.778 391.191 159.015 390.858 159.153C390.555 159.308 390.22 159.389 389.88 159.389C389.54 159.389 389.205 159.308 388.903 159.153C388.328 158.821 387.895 158.288 387.687 157.657C387.495 157.059 387.457 156.421 387.577 155.804C387.643 155.202 387.775 154.61 387.968 154.036C388.16 153.447 388.517 152.924 388.996 152.532C389.467 152.154 390.016 151.884 390.603 151.741C390.908 151.654 391.232 151.654 391.538 151.741C391.831 151.843 392.095 152.012 392.311 152.234C392.527 152.447 392.698 152.701 392.813 152.982C392.936 153.285 392.936 153.623 392.813 153.926C392.676 154.205 392.457 154.437 392.185 154.588C391.913 154.74 391.601 154.806 391.291 154.776C390.716 154.767 390.157 154.58 389.693 154.24C388.813 153.591 388.206 152.636 387.993 151.563C387.771 150.503 387.937 149.399 388.461 148.452C388.691 147.998 389.019 147.6 389.421 147.288C389.818 146.987 390.282 146.785 390.773 146.701C391.264 146.602 391.774 146.674 392.218 146.905C392.437 147.024 392.624 147.196 392.76 147.405C392.897 147.615 392.979 147.855 393 148.104C392.997 148.573 392.839 149.027 392.549 149.397C392.26 149.766 391.856 150.029 391.402 150.143C390.975 150.234 390.532 150.202 390.123 150.052C389.714 149.902 389.356 149.639 389.09 149.294C388.579 148.679 388.281 147.916 388.24 147.118C388.314 145.728 388.6 144.358 389.09 143.055C389.438 141.831 389.753 140.709 390.042 139.706C390.611 137.709 391.053 136.153 391.368 135.082C391.512 134.564 391.631 134.165 391.716 133.884C391.801 133.604 391.852 133.476 391.852 133.476C391.852 133.476 391.852 133.621 391.759 133.893C391.665 134.165 391.58 134.589 391.453 135.108C391.164 136.187 390.739 137.751 390.203 139.749L389.294 143.106C389.005 144.338 388.444 145.656 388.503 147.101C388.565 147.848 388.863 148.556 389.353 149.124C389.588 149.428 389.904 149.662 390.264 149.797C390.625 149.932 391.016 149.964 391.393 149.888C391.775 149.79 392.115 149.572 392.362 149.266C392.61 148.96 392.753 148.582 392.77 148.189C392.753 147.989 392.686 147.797 392.576 147.629C392.466 147.462 392.317 147.324 392.141 147.228C391.757 147.038 391.32 146.981 390.9 147.067C390.455 147.143 390.035 147.327 389.676 147.602C389.32 147.891 389.03 148.254 388.826 148.665C388.405 149.536 388.294 150.526 388.512 151.469C388.716 152.456 389.28 153.331 390.093 153.926C390.5 154.218 390.986 154.381 391.487 154.393C391.722 154.421 391.961 154.377 392.17 154.266C392.38 154.156 392.551 153.983 392.66 153.773C392.712 153.537 392.698 153.291 392.618 153.063C392.538 152.835 392.397 152.633 392.209 152.481C392.034 152.304 391.822 152.167 391.589 152.081C391.346 152.018 391.092 152.018 390.849 152.081C390.314 152.198 389.817 152.448 389.405 152.81C388.993 153.171 388.68 153.631 388.495 154.147C388.309 154.698 388.187 155.268 388.129 155.847C388.014 156.412 388.05 156.998 388.231 157.546C388.4 158.082 388.764 158.534 389.251 158.813C389.498 158.936 389.77 159.001 390.046 159.001C390.322 159.001 390.594 158.936 390.841 158.813C391.095 158.714 391.312 158.54 391.464 158.313C391.616 158.087 391.695 157.819 391.691 157.546C391.653 157.272 391.54 157.013 391.365 156.799C391.189 156.584 390.958 156.422 390.696 156.331C390.158 156.096 389.55 156.075 388.996 156.272C388.454 156.525 388.017 156.961 387.764 157.504C387.276 158.678 387.137 159.967 387.364 161.218C387.439 161.852 387.633 162.466 387.934 163.029C388.072 163.299 388.266 163.537 388.501 163.729C388.737 163.921 389.01 164.061 389.302 164.142C389.601 164.206 389.911 164.199 390.206 164.121C390.502 164.042 390.774 163.895 391.002 163.692C391.109 163.597 391.195 163.482 391.256 163.354C391.317 163.225 391.351 163.086 391.357 162.944C391.362 162.801 391.339 162.66 391.288 162.527C391.238 162.394 391.161 162.273 391.062 162.17C390.841 161.952 390.573 161.787 390.278 161.688C389.983 161.589 389.67 161.559 389.362 161.601C388.723 161.694 388.142 162.021 387.73 162.519C387.284 162.997 387.012 163.612 386.956 164.263C386.901 164.915 387.065 165.567 387.424 166.114C387.832 166.637 388.397 167.017 389.036 167.197C389.675 167.378 390.355 167.35 390.977 167.117C391.31 166.98 391.602 166.761 391.827 166.479C391.922 166.347 391.978 166.191 391.987 166.028C391.996 165.865 391.958 165.703 391.878 165.561C391.673 165.255 391.396 165.004 391.072 164.831C390.747 164.657 390.384 164.567 390.016 164.567C389.265 164.508 388.517 164.718 387.906 165.158C387.294 165.599 386.859 166.241 386.676 166.972C386.538 167.682 386.638 168.418 386.96 169.065C387.283 169.712 387.811 170.234 388.461 170.551C389.092 170.909 389.823 171.053 390.543 170.959C390.867 170.858 391.154 170.662 391.366 170.397C391.578 170.132 391.706 169.81 391.733 169.471V169.599C391.651 169.364 391.501 169.158 391.304 169.007C391.106 168.856 390.868 168.766 390.62 168.749C390.093 168.746 389.574 168.881 389.115 169.14C388.158 169.641 387.36 170.401 386.812 171.333C386.273 172.264 385.826 173.246 385.478 174.265L384.322 177.265C382.792 181.209 381.245 184.915 379.732 188.484C376.706 195.539 373.782 201.693 371.233 206.758C369.966 209.308 368.793 211.56 367.663 213.49C366.71 215.135 365.651 216.717 364.492 218.224C363.546 219.515 362.463 220.7 361.263 221.76Z" fill="white"/>
    <path d="M352.343 130.906L343.619 132.618C342.306 132.875 341.451 134.148 341.709 135.461L341.772 135.786C342.03 137.099 343.303 137.955 344.616 137.697L353.34 135.985C354.653 135.728 355.508 134.455 355.25 133.142L355.187 132.817C354.929 131.504 353.656 130.648 352.343 130.906Z" fill="#A00458"/>
    <path d="M354.014 132.194L394.344 119.547C394.823 119.397 395.341 119.443 395.787 119.674C396.233 119.904 396.569 120.302 396.723 120.78C396.801 121.025 396.829 121.284 396.804 121.54C396.779 121.796 396.703 122.045 396.58 122.271C396.457 122.497 396.29 122.696 396.088 122.856C395.886 123.016 395.654 123.134 395.406 123.202L354.167 134.336L354.014 132.194Z" fill="#A00458"/>
    <path d="M383.819 126.642C384.251 126.451 384.697 126.295 385.153 126.174L388.842 125.052C390.389 124.576 392.293 124.066 394.299 123.412C394.794 123.227 395.244 122.937 395.616 122.562C395.984 122.188 396.188 121.684 396.186 121.16C396.184 120.902 396.101 120.652 395.948 120.444C395.795 120.236 395.581 120.082 395.336 120.004C394.776 119.861 394.187 119.879 393.636 120.055L381.541 123.947L377.861 125.086C377.439 125.26 377.005 125.399 376.561 125.503C376.986 125.296 377.426 125.123 377.878 124.984L381.516 123.709C384.601 122.664 388.834 121.211 393.593 119.689C394.226 119.506 394.898 119.506 395.531 119.689C395.854 119.806 396.135 120.018 396.335 120.297C396.535 120.576 396.646 120.91 396.653 121.253C396.654 121.889 396.404 122.5 395.956 122.953C395.509 123.346 394.981 123.636 394.409 123.803C392.327 124.457 390.466 124.916 388.893 125.358L385.204 126.353C384.753 126.492 384.289 126.589 383.819 126.642Z" fill="#263238"/>
    <path d="M317.915 95.7485C319.292 100.593 314.371 104.749 312.637 109.484C310.937 114.056 312.382 119.181 314.448 123.601C316.513 128.021 319.233 132.203 320.287 136.954C322.896 148.683 312.289 161.322 314.337 173.161C315.068 177.479 316.811 181.984 318.315 186.089C319.768 189.96 319.768 194.227 318.315 198.099C316.02 204.898 312.127 208.086 309.391 214.698C307.988 218.098 308.099 221.872 308.167 225.526C308.235 229.181 308.218 233.006 306.586 236.287C304.954 239.568 301.231 242.1 297.695 241.148C299.603 243.286 302.163 244.735 304.978 245.272C307.793 245.808 310.706 245.401 313.266 244.115C317.915 241.633 320.516 236.601 322.743 231.825C333.52 208.698 339.224 206.743 338.892 181.227C338.892 179.587 338.569 154.029 338.569 154.029C336.335 153.43 334.194 152.529 332.203 151.352C320.168 143.039 319.726 128.233 319.819 116.751" fill="#9A00D0"/>
    <g filter="url(#filter0_d_7126_6159)">
    <path fill-rule="evenodd" clip-rule="evenodd" d="M343.457 169.696C344.443 167.487 356.538 151.44 356.538 151.44L351.872 148.04L347.919 149.74C343.95 151.465 341.97 147.759 341.97 147.759L344.936 145.048L352.339 138.427L356.155 140.127L360.235 137.169C360.913 136.673 361.744 136.431 362.582 136.484C363.421 136.537 364.214 136.881 364.825 137.458L371.131 143.408L372.491 137.322L369.38 131.891C369.38 131.891 368.394 131.925 364.935 130.191C361.476 128.457 363.575 125.006 363.575 125.006L372.491 127.718L378.016 132.163C377.895 129.929 378.064 127.69 378.517 125.499C379.257 122.04 383.201 122.287 383.201 122.287L385.181 143.025L378.517 160.56L360.49 180.312L341.97 173.147C341.97 173.147 342.471 171.906 343.457 169.696ZM341.967 182.795V173.166L360.488 180.365C359.471 181.566 358.791 183.014 358.516 184.563C358.269 186.748 363.7 245.759 363.7 245.759C359.255 246.006 357.275 248.224 346.166 262.299C335.057 276.374 329.745 268.087 329.745 268.087C329.745 268.087 330.111 262.546 332.337 241.56C334.564 220.575 341.967 182.795 341.967 182.795Z" fill="#F4ACC8"/>
    </g>
    <path d="M364.883 155.145C364.798 155.145 365.121 153.836 365.257 151.746C365.346 150.527 365.148 149.304 364.679 148.176C363.969 146.855 362.959 145.719 361.729 144.861C359.533 143.177 357.243 141.619 354.87 140.195L352.703 138.92C352.424 138.782 352.162 138.614 351.921 138.418C352.22 138.491 352.507 138.609 352.771 138.767C353.315 139.013 354.088 139.404 355.023 139.923C357.456 141.28 359.785 142.814 361.993 144.513C363.278 145.409 364.324 146.609 365.036 148.006C365.524 149.194 365.705 150.486 365.562 151.763C365.49 152.605 365.351 153.441 365.146 154.261C365.1 154.567 365.011 154.864 364.883 155.145Z" fill="#D28BA7"/>
    <path d="M377.845 147.448C377.9 146.7 378.005 145.956 378.16 145.222C378.425 143.449 378.553 141.659 378.542 139.867C378.519 138.07 378.36 136.277 378.066 134.504C377.902 133.775 377.786 133.037 377.718 132.294C378.03 132.979 378.25 133.702 378.372 134.444C379.157 138.011 379.189 141.702 378.466 145.281C378.356 146.028 378.147 146.757 377.845 147.448Z" fill="#D28BA7"/>
    <path d="M274.697 66.5368L267.843 54.431C272.087 47.5372 273.6 39.3051 272.083 31.3529C270.566 23.4006 266.13 16.3033 259.646 11.4559C253.162 6.60855 245.099 4.36167 237.042 5.15692C228.986 5.95217 221.518 9.73204 216.107 15.7536C210.696 21.7751 207.733 29.6028 207.8 37.6982C207.867 45.7936 210.96 53.5711 216.47 59.502C221.98 65.433 229.51 69.0885 237.578 69.75C245.647 70.4116 253.671 68.0313 260.074 63.077L274.697 66.5368Z" fill="#FB7DC1"/>
    <path d="M233.227 37.471C233.227 37.9923 233.072 38.5019 232.783 38.9354C232.493 39.3689 232.081 39.7068 231.6 39.9063C231.118 40.1058 230.588 40.158 230.077 40.0563C229.565 39.9546 229.096 39.7035 228.727 39.3349C228.358 38.9662 228.107 38.4965 228.006 37.9852C227.904 37.4739 227.956 36.9439 228.156 36.4622C228.355 35.9805 228.693 35.5689 229.127 35.2792C229.56 34.9896 230.07 34.835 230.591 34.835C231.29 34.835 231.961 35.1127 232.455 35.607C232.949 36.1014 233.227 36.7718 233.227 37.471Z" fill="#26283B"/>
    <path d="M243.742 37.471C243.742 37.9923 243.587 38.5019 243.297 38.9354C243.008 39.3689 242.596 39.7068 242.114 39.9063C241.633 40.1058 241.103 40.158 240.591 40.0563C240.08 39.9546 239.61 39.7035 239.242 39.3349C238.873 38.9662 238.622 38.4965 238.52 37.9852C238.419 37.4739 238.471 36.9439 238.67 36.4622C238.87 35.9805 239.208 35.5689 239.641 35.2792C240.075 34.9896 240.584 34.835 241.106 34.835C241.805 34.835 242.475 35.1127 242.97 35.607C243.464 36.1014 243.742 36.7718 243.742 37.471Z" fill="#26283B"/>
    <path d="M254.242 36.1538C254.505 36.6051 254.627 37.124 254.594 37.6449C254.561 38.1658 254.374 38.6651 254.057 39.0796C253.739 39.4941 253.306 39.8052 252.812 39.9733C252.318 40.1414 251.785 40.1591 251.281 40.024C250.777 39.8889 250.324 39.6072 249.98 39.2146C249.636 38.822 249.417 38.3362 249.349 37.8186C249.282 37.3011 249.369 36.7751 249.601 36.3075C249.833 35.8398 250.198 35.4514 250.651 35.1916C251.255 34.8448 251.972 34.7513 252.645 34.9316C253.318 35.1119 253.893 35.5513 254.242 36.1538Z" fill="#26283B"/>
    <path d="M428.19 313.446C428.19 313.584 334.773 313.685 219.595 313.685C104.418 313.685 11 313.584 11 313.446C11 313.309 104.39 313.208 219.641 313.208C334.892 313.208 428.19 313.318 428.19 313.446Z" fill="#152C1A"/>
    <path d="M83.1104 112.983C83.1104 115.391 84.9482 258.89 84.9482 258.89L191.543 284.537H200.3L194.695 84.2119H186.682L83.1104 112.983Z" fill="url(#paint1_linear_7126_6159)"/>
    <path d="M106.387 264.094L102.812 151.25L135.269 148.144L139.266 268.624L127.679 269.212L106.387 264.094Z" fill="url(#paint2_linear_7126_6159)"/>
    <path d="M117.763 266.84C117.883 266.886 113.288 277.518 107.499 290.567C101.71 303.615 96.9128 314.165 96.7933 314.109C96.6738 314.054 101.268 303.432 107.058 290.374C112.847 277.316 117.644 266.785 117.763 266.84Z" fill="#455A64"/>
    <path d="M191.497 284.573C191.497 284.573 191.497 284.398 191.497 284.058C191.497 283.718 191.497 283.194 191.497 282.542C191.497 281.191 191.451 279.234 191.423 276.716C191.423 271.662 191.267 264.347 191.092 255.305C190.752 237.221 189.935 212.254 188.933 184.677C187.931 157.1 187.169 132.105 186.911 114.021C186.773 104.979 186.709 97.655 186.737 92.6009C186.737 90.0831 186.737 88.1258 186.737 86.7749C186.737 86.1225 186.737 85.6263 186.737 85.2587C186.737 84.8912 186.737 84.7441 186.737 84.7441C186.737 84.7441 186.737 84.9187 186.737 85.2587C186.737 85.5987 186.737 86.1225 186.737 86.7749C186.737 88.1258 186.737 90.0831 186.81 92.6009C186.81 97.655 186.957 104.97 187.141 114.012C187.536 132.096 188.354 157.091 189.356 184.658C190.357 212.226 191.12 237.212 191.377 255.296C191.515 264.338 191.57 271.662 191.552 276.716C191.552 279.234 191.552 281.191 191.552 282.542C191.552 283.194 191.552 283.7 191.552 284.058C191.552 284.417 191.497 284.573 191.497 284.573Z" fill="#455A64"/>
    <path d="M137.988 164.287C138.126 164.287 138.227 188.289 138.227 217.888C138.227 247.486 138.126 271.489 137.988 271.489C137.85 271.489 137.749 247.495 137.749 217.888C137.749 188.28 137.859 164.287 137.988 164.287Z" fill="#455A64"/>
    <path d="M80.5651 304.022C80.3913 303.823 80.2374 303.608 80.1057 303.379C79.9495 303.158 79.7749 302.892 79.5727 302.588C79.3296 302.228 79.1086 301.854 78.9111 301.467C77.5637 299.036 76.5822 296.42 75.9981 293.702C75.1505 289.664 74.9581 285.516 75.4284 281.416C76.0034 276.398 77.3486 271.497 79.4165 266.888C80.5106 264.508 81.9099 262.281 83.5792 260.263C83.9594 259.762 84.3674 259.284 84.8014 258.829C85.2241 258.37 85.6284 257.91 86.0511 257.469C86.97 256.633 87.7695 255.778 88.6792 255.053C90.3557 253.626 92.1407 252.333 94.0182 251.184C94.9371 250.688 95.7733 250.164 96.6371 249.75C97.5009 249.337 98.3187 248.896 99.1457 248.602C101.7 247.507 104.399 246.789 107.159 246.47C107.905 246.368 108.657 246.322 109.41 246.332C109.673 246.31 109.937 246.31 110.2 246.332C109.942 246.376 109.681 246.404 109.419 246.415C108.671 246.449 107.926 246.526 107.186 246.644C104.458 247.032 101.796 247.793 99.2744 248.905C98.4566 249.208 97.6663 249.668 96.8025 250.063C95.9387 250.458 95.1117 250.982 94.2203 251.515C92.3715 252.667 90.6142 253.961 88.9641 255.383C88.0452 256.1 87.2457 256.955 86.3727 257.782C85.9592 258.214 85.5549 258.701 85.1414 259.123C84.7187 259.577 84.3199 260.052 83.9468 260.548C82.304 262.539 80.9264 264.735 79.8484 267.081C77.8005 271.642 76.4588 276.488 75.8695 281.453C75.3817 285.508 75.5367 289.614 76.3289 293.62C76.8842 296.317 77.812 298.924 79.0857 301.366C79.2685 301.759 79.4772 302.14 79.7106 302.506L80.1976 303.323C80.3355 303.548 80.4583 303.781 80.5651 304.022Z" fill="#455A64"/>
    <path d="M105.651 252.935L72.6162 313.473H102.812C97.4087 312.94 150.596 313.473 150.596 313.473L102.812 300.801L117.763 266.847L116.486 252.935H105.651Z" fill="url(#paint3_linear_7126_6159)"/>
    <defs>
    <filter id="filter0_d_7126_6159" x="328.745" y="122.283" width="57.4355" height="150.728" filterUnits="userSpaceOnUse" color-interpolation-filters="sRGB">
    <feFlood flood-opacity="0" result="BackgroundImageFix"/>
    <feColorMatrix in="SourceAlpha" type="matrix" values="0 0 0 0 0 0 0 0 0 0 0 0 0 0 0 0 0 0 127 0" result="hardAlpha"/>
    <feOffset dy="1.5"/>
    <feGaussianBlur stdDeviation="0.5"/>
    <feComposite in2="hardAlpha" operator="out"/>
    <feColorMatrix type="matrix" values="0 0 0 0 0.683333 0 0 0 0 0.401458 0 0 0 0 0.511076 0 0 0 0.25 0"/>
    <feBlend mode="normal" in2="BackgroundImageFix" result="effect1_dropShadow_7126_6159"/>
    <feBlend mode="normal" in="SourceGraphic" in2="effect1_dropShadow_7126_6159" result="shape"/>
    </filter>
    <linearGradient id="paint0_linear_7126_6159" x1="222.636" y1="2.67822" x2="222.636" y2="310" gradientUnits="userSpaceOnUse">
    <stop stop-color="#585B79"/>
    <stop offset="1" stop-color="#101228"/>
    </linearGradient>
    <linearGradient id="paint1_linear_7126_6159" x1="88.7533" y1="254.587" x2="174.164" y2="241.113" gradientUnits="userSpaceOnUse">
    <stop stop-color="#2C2E43"/>
    <stop offset="0.5" stop-color="#84134B" stop-opacity="0.71"/>
    <stop offset="1" stop-color="#B40061"/>
    </linearGradient>
    <linearGradient id="paint2_linear_7126_6159" x1="159.313" y1="300.547" x2="195.845" y2="275.085" gradientUnits="userSpaceOnUse">
    <stop stop-color="#2C2E43"/>
    <stop offset="0.5" stop-color="#84134B" stop-opacity="0.71"/>
    <stop offset="1" stop-color="#B40061"/>
    </linearGradient>
    <linearGradient id="paint3_linear_7126_6159" x1="87.7025" y1="313.83" x2="129.031" y2="268.823" gradientUnits="userSpaceOnUse">
    <stop stop-color="#2C2E43"/>
    <stop offset="0.5" stop-color="#84134B" stop-opacity="0.71"/>
    <stop offset="1" stop-color="#B40061"/>
    </linearGradient>
    </defs>
    </svg>
    