<svg width="209" height="100" viewBox="0 0 209 100" fill="none" xmlns="http://www.w3.org/2000/svg">
    <g opacity="0.3" clip-path="url(#clip0_7032_4251)">
    <path d="M21.3431 56.3118C23.6522 55.7549 26.086 55.8167 28.3327 56.4974C26.5229 42.7598 39.9403 28.3415 53.857 36.4479C54.7931 30.2598 57.9135 24.2573 63.0932 20.7301C68.3354 17.2648 75.8242 16.8935 80.6919 20.8539C80.8167 14.1088 85.1852 7.79694 90.989 4.26972C96.7928 0.742489 103.907 -0.371372 110.71 0.123677C118.198 0.680608 125.625 3.52714 131.241 8.53952C137.919 14.4801 139.042 22.2771 138.543 30.8786C142.1 30.1979 145.844 29.9504 149.277 31.0024C159.137 34.0346 160.884 47.4009 158.451 55.9405C164.691 54.7029 171.306 53.6509 177.235 55.7549C183.226 57.8588 188.094 64.2945 186.284 70.3588C189.779 68.9356 193.398 67.5123 197.205 67.3266C201.012 67.141 205.068 68.4405 207.315 71.4727C210.311 75.6187 208.938 81.5593 205.942 85.7054C201.948 91.2747 195.52 94.74 188.78 96.2252C177.173 98.7623 164.442 95.4207 155.642 87.4999C157.265 88.9851 143.411 96.7821 142.038 97.2153C136.483 99.0717 130.804 100.928 124.876 99.5049C118.51 97.9578 113.019 93.7499 109.149 88.49C95.7319 99.1336 74.6385 98.7004 61.7203 87.438C49.2389 97.6484 29.0816 96.9058 17.3491 85.8291C12.4814 87.7474 6.36553 88.5519 2.49632 85.0865C-0.436796 82.4257 -0.998456 77.537 1.24818 74.2573C3.55723 70.9776 8.36255 69.8019 11.9197 71.6583C10.7964 67.3266 12.2318 62.438 15.5393 59.344C17.2867 57.8588 19.2837 56.8068 21.3431 56.3118Z" fill="url(#paint0_linear_7032_4251)"/>
    <path d="M138.543 30.8786C139.042 22.2771 137.919 14.4801 131.304 8.53952C125.687 3.52714 118.261 0.618726 110.772 0.123677C103.97 -0.371372 96.8553 0.742489 91.0515 4.26972C102.597 2.59892 115.265 3.15585 124.502 10.2722C126.873 12.0667 128.932 14.2945 130.305 16.8935C131.865 19.8019 132.552 23.1435 132.49 26.4851C132.365 34.1583 128.184 41.5222 122.068 46.287C116.014 51.0519 108.151 53.4034 100.413 53.5271C108.338 55.3217 116.888 54.0841 123.94 49.9999C130.929 45.9158 138.106 38.9232 138.543 30.8786Z" fill="url(#paint1_linear_7032_4251)"/>
    <path d="M80.6918 20.8538C75.8241 16.9553 68.2729 17.2647 63.0931 20.73C57.851 24.1954 54.7931 30.2597 53.857 36.4479C53.2329 40.5939 57.2893 44.1211 60.9713 46.1013C64.6533 48.0815 69.0842 48.5147 73.2654 47.8959C69.1466 47.4627 65.839 44.1211 64.2165 40.3464C62.157 35.5196 62.5315 29.6409 65.5894 25.3711C68.6473 21.1013 75.5745 19.6162 80.6918 20.8538Z" fill="url(#paint2_linear_7032_4251)"/>
    <path d="M28.3326 56.4975C26.086 55.7549 23.6521 55.7549 21.3431 56.3118C19.2213 56.8069 17.2867 57.8588 15.6641 59.2821C12.3565 62.3762 10.9212 67.2648 12.0445 71.5965C8.48732 69.74 3.68201 70.9776 1.37296 74.1955C-0.936087 77.4752 -0.374427 82.3638 2.62109 85.0247C6.49031 88.49 12.6062 87.6856 17.4739 85.7673C29.2063 96.844 49.3637 97.5866 61.845 87.3762C74.7632 98.6385 95.8567 99.0717 109.274 88.4281C113.143 93.688 118.635 97.896 125.001 99.443C130.929 100.866 136.608 98.9479 142.162 97.1534C143.473 96.7202 157.39 88.9232 155.767 87.438C164.566 95.297 177.297 98.6385 188.905 96.1633C195.583 94.6781 202.073 91.2128 206.067 85.6435C209.062 81.4974 210.373 75.5569 207.44 71.4108C205.193 68.3168 201.137 67.0791 197.33 67.2648C193.523 67.4504 189.904 68.8737 186.409 70.297C188.281 64.2945 183.351 57.8588 177.36 55.693C171.369 53.589 164.754 54.641 158.575 55.8786C161.072 47.4009 159.262 33.9727 149.402 30.9405C147.342 30.3217 145.22 30.1361 143.036 30.2598C144.471 37.4999 143.785 45.297 139.666 51.4232C135.298 57.8588 126.623 61.6336 119.322 58.9108C111.958 65.5321 101.598 68.688 91.7378 67.3885C81.8776 66.089 72.7662 60.2722 67.4616 51.9182C61.9074 55.6311 53.6074 55.2598 49.1141 50.3093C44.496 45.2351 46.805 40.0371 49.3013 34.9628C49.3637 34.839 49.4261 34.7153 49.4885 34.5915C37.1944 31.4356 26.7725 44.245 28.3326 56.4975Z" fill="url(#paint3_linear_7032_4251)"/>
    <path d="M21.343 56.3117C23.6521 55.7548 26.0859 55.8167 28.3326 56.4973C26.71 44.2449 37.1943 31.4355 49.3636 34.5914C44.8079 34.9008 40.3147 37.1285 37.4439 40.6558C34.5108 44.183 33.0131 48.7622 32.9507 53.3414C32.9507 55.136 33.1379 56.9305 33.7619 58.5394C35.5093 62.8711 40.1898 65.2845 44.6207 66.9553C40.4395 67.8835 36.1958 65.7176 32.7634 63.1805C29.3311 60.6434 25.5243 57.4256 21.343 56.3117Z" fill="#D4ECF4"/>
    <path d="M155.767 87.5C164.566 95.3589 177.297 98.7005 188.905 96.2252C195.583 94.7401 202.073 91.2747 206.067 85.7054C209.062 81.5594 210.373 75.6188 207.44 71.4727C207.502 79.5173 199.514 86.3242 191.713 88.4901C183.85 90.6559 175.363 88.7995 168.061 85.3341C164.566 83.6633 161.134 81.5594 158.638 78.5272C156.204 75.495 154.831 71.4109 155.829 67.698C152.772 73.5767 153.832 81.1881 155.767 87.5Z" fill="#D4ECF4"/>
    <path d="M109.274 88.4899C95.8567 99.1335 74.7632 98.7003 61.845 87.4379C49.3637 97.6483 29.2063 96.9057 17.4739 85.829C12.6061 87.7473 6.49029 88.5518 2.62107 85.0864C-0.31204 82.4255 -0.8737 77.5369 1.37294 74.2572C3.36995 80.9404 13.1054 83.725 18.7844 79.6409C17.037 77.1038 16.1633 74.0097 16.2257 70.9775C22.4664 78.032 32.3267 81.683 41.6877 80.3835C51.0487 79.1458 59.5984 73.0196 63.7172 64.6038C63.9669 70.1112 63.1556 75.6186 61.4082 80.8785C73.8271 93.0691 93.7348 96.3488 109.274 88.4899Z" fill="url(#paint4_linear_7032_4251)"/>
    </g>
    <defs>
    <linearGradient id="paint0_linear_7032_4251" x1="104.43" y1="0.012207" x2="104.43" y2="100.009" gradientUnits="userSpaceOnUse">
    <stop stop-color="#D4ECF4"/>
    <stop offset="1" stop-color="#D4ECF4" stop-opacity="0"/>
    </linearGradient>
    <linearGradient id="paint1_linear_7032_4251" x1="114.849" y1="0.012207" x2="114.849" y2="54.3286" gradientUnits="userSpaceOnUse">
    <stop stop-color="#B7DFED"/>
    <stop offset="1" stop-color="#D4ECF4" stop-opacity="0"/>
    </linearGradient>
    <linearGradient id="paint2_linear_7032_4251" x1="67.2424" y1="18.03" x2="67.2424" y2="48.1574" gradientUnits="userSpaceOnUse">
    <stop stop-color="#B7DFED"/>
    <stop offset="1" stop-color="#D4ECF4" stop-opacity="0"/>
    </linearGradient>
    <linearGradient id="paint3_linear_7032_4251" x1="104.519" y1="30.2236" x2="104.519" y2="99.9383" gradientUnits="userSpaceOnUse">
    <stop stop-color="#D4ECF4"/>
    <stop offset="1" stop-color="#D4ECF4" stop-opacity="0"/>
    </linearGradient>
    <linearGradient id="paint4_linear_7032_4251" x1="54.6349" y1="64.6038" x2="54.6349" y2="96.1881" gradientUnits="userSpaceOnUse">
    <stop stop-color="#B7DFED"/>
    <stop offset="1" stop-color="#D4ECF4" stop-opacity="0"/>
    </linearGradient>
    <clipPath id="clip0_7032_4251">
    <rect width="209" height="100" fill="white"/>
    </clipPath>
    </defs>
    </svg>
    