<svg width="1920" height="502" viewBox="0 0 1920 502" fill="none" xmlns="http://www.w3.org/2000/svg">
<rect width="1920" height="502" fill="#26283B"/>
<path fill-rule="evenodd" clip-rule="evenodd" d="M573.029 273.905L588.166 274H631.428C641.161 274 646.323 261.505 637.383 255.238C634.077 252.921 630.925 253.545 628.262 253.981C625.318 254.461 624.322 252.619 625.353 249.947C628.303 242.297 622.432 238.598 618.382 239.035C614.671 239.436 613.195 241.17 609.429 242.963C607.997 243.647 606.064 243.676 603.02 241.472C594.456 235.269 584.014 241.815 583.617 249.263C582.868 263.368 572.375 260.697 573.029 273.905Z" stroke="white" stroke-opacity="0.16" stroke-width="2.75" stroke-miterlimit="22.93"/>
<path d="M1294 294.63L1301.29 277L1305.59 292.019L1331.75 277L1322.81 303.445L1345 306.384L1334.4 315.204L1344.34 325L1322.15 323.694" stroke="#7CE6DF" stroke-width="2.75" stroke-miterlimit="22.93"/>
<path d="M1007 137L1018 120" stroke="#FB7DC1" stroke-width="2.75" stroke-miterlimit="22.93"/>
<path d="M998 133L1002 120" stroke="#FB7DC1" stroke-width="2.75" stroke-miterlimit="22.93"/>
<path d="M1013 141L1026 135" stroke="#FB7DC1" stroke-width="2.75" stroke-miterlimit="22.93"/>
</svg>
