<svg width="217" height="243" viewBox="0 0 217 243" fill="none" xmlns="http://www.w3.org/2000/svg">
<g opacity="0.3" clip-path="url(#clip0_7603_6953)">
<path d="M238.402 147.082L238.272 147.017L191.59 120.05L191.916 119.855L238.402 93.0175L238.532 93.0827L285.214 120.05L284.888 120.245L238.402 147.082ZM192.371 120.05L238.402 146.626L284.432 120.05L238.402 93.4735L192.371 120.05Z" fill="url(#paint0_linear_7603_6953)"/>
<path d="M90.479 205.772V183.495L90.5441 183.43L114.308 169.751H151.94L215.094 133.273L215.289 133.599L152.07 170.141H114.373L90.8696 183.755V205.772H90.479Z" fill="url(#paint1_linear_7603_6953)"/>
<path d="M135.793 210.267L135.598 209.941L158.516 196.718V174.701L158.581 174.636L222.646 137.637L222.841 137.963L158.906 174.896V196.913L158.776 196.978L135.793 210.267Z" fill="url(#paint2_linear_7603_6953)"/>
<path d="M258.325 220.819L192.762 182.908V164.018L192.892 163.953L230.589 142.197L230.784 142.523L193.153 164.279V182.713L258.52 220.428L258.325 220.819Z" fill="url(#paint3_linear_7603_6953)"/>
<path d="M209.039 110.279L161.446 82.7908H126.874L85.0752 58.6896H27.2603L1.67335 73.4109L1.47803 73.0852L27.1301 58.2988H85.2055L127.004 82.4H161.576L161.641 82.4651L209.234 109.953L209.039 110.279Z" fill="url(#paint4_linear_7603_6953)"/>
<path d="M203.635 113.406L158.646 87.4156H118.931V87.3505L98.2268 75.4302L98.4221 75.1045L119.061 87.0248H158.711H158.776L203.83 113.08L203.635 113.406Z" fill="url(#paint5_linear_7603_6953)"/>
<path d="M150.117 120.636H126.353L126.288 120.571L110.988 111.777L111.183 111.452L126.418 120.245H149.987L182.996 101.16L183.191 101.486L150.117 120.636Z" fill="url(#paint6_linear_7603_6953)"/>
<path d="M111.834 73.6063H111.443V64.4869L93.0181 53.8694L93.2134 53.5437L111.834 64.2264V73.6063Z" fill="url(#paint7_linear_7603_6953)"/>
<path d="M251.163 207.987L224.404 192.484H209.429V192.093H224.469L224.534 192.158L251.358 207.661L251.163 207.987Z" fill="url(#paint8_linear_7603_6953)"/>
<path d="M204.677 177.437V166.95H204.807L223.297 156.202V146.496H223.688V156.462L223.558 156.527L205.067 167.21V177.437H204.677Z" fill="url(#paint9_linear_7603_6953)"/>
<path d="M222.516 102.528L174.662 74.8439V51.3941H174.727L225.12 22.2773V1.04217H225.511V22.4727L225.38 22.5378L175.053 51.6547V74.6485L222.711 102.202L222.516 102.528Z" fill="url(#paint10_linear_7603_6953)"/>
<path d="M218.088 38.6921H197.449V38.3013H218.023L235.407 28.27L235.602 28.5957L218.088 38.6921Z" fill="url(#paint11_linear_7603_6953)"/>
<path d="M194.411 78.0102L194.216 78.3486L229.286 98.6067L229.481 98.2682L194.411 78.0102Z" fill="url(#paint12_linear_7603_6953)"/>
<path d="M235.798 94.8414L195.236 71.3916H182.605V71.0008H195.366H195.431L235.993 94.4506L235.798 94.8414Z" fill="url(#paint13_linear_7603_6953)"/>
<path d="M240.42 94.5157L240.225 94.1249L249.926 88.523V80.7715L216.786 61.6208L216.982 61.2951L250.316 80.511V88.7184L250.251 88.7835L240.42 94.5157Z" fill="url(#paint14_linear_7603_6953)"/>
<path d="M241.983 76.2118H229.482L229.417 76.1467L214.573 67.6136L214.768 67.2227L229.612 75.821H241.983V76.2118Z" fill="url(#paint15_linear_7603_6953)"/>
<path d="M247.907 79.2733H247.517V75.1696L230.133 65.1383V58.0382L214.833 49.2445L215.028 48.8537L230.524 57.8428V64.8778L247.907 74.9742V79.2733Z" fill="url(#paint16_linear_7603_6953)"/>
<path d="M213.466 66.7016C214.182 66.3108 215.289 66.3108 215.94 66.7016C216.656 67.0925 216.656 67.7439 215.94 68.1347C215.224 68.5255 214.117 68.5255 213.466 68.1347C212.75 67.7439 212.75 67.0925 213.466 66.7016Z" fill="url(#paint17_linear_7603_6953)"/>
<path d="M215.614 60.774C216.33 60.3832 217.437 60.3832 218.088 60.774C218.805 61.1649 218.805 61.8163 218.088 62.2071C217.372 62.5979 216.265 62.5979 215.614 62.2071C214.898 61.8163 214.898 61.1649 215.614 60.774Z" fill="url(#paint18_linear_7603_6953)"/>
<path d="M68.8635 2.8009C69.5797 2.41007 70.6865 2.41007 71.3376 2.8009C72.0538 3.19173 72.0538 3.84312 71.3376 4.23395C70.6214 4.62478 69.5146 4.62478 68.8635 4.23395C68.1474 3.77798 68.1474 3.19173 68.8635 2.8009Z" fill="url(#paint19_linear_7603_6953)"/>
<path d="M129.413 1.49814C130.129 1.10731 131.236 1.10731 131.887 1.49814C132.603 1.88897 132.603 2.54035 131.887 2.93118C131.171 3.32201 130.064 3.32201 129.413 2.93118C128.762 2.54035 128.762 1.88897 129.413 1.49814Z" fill="url(#paint20_linear_7603_6953)"/>
<path d="M147.578 42.7959C148.294 42.405 149.401 42.405 150.052 42.7959C150.703 43.1867 150.768 43.8381 150.052 44.2289C149.336 44.6197 148.229 44.6197 147.578 44.2289C146.927 43.8381 146.927 43.1867 147.578 42.7959Z" fill="url(#paint21_linear_7603_6953)"/>
<path d="M213.726 48.3326C214.443 47.9418 215.549 47.9418 216.2 48.3326C216.917 48.7234 216.917 49.3748 216.2 49.7657C215.484 50.1565 214.377 50.1565 213.726 49.7657C213.01 49.3748 213.01 48.7234 213.726 48.3326Z" fill="url(#paint22_linear_7603_6953)"/>
<path d="M181.368 70.4797C182.084 70.0888 183.191 70.0888 183.842 70.4797C184.558 70.8705 184.558 71.5219 183.842 71.9127C183.126 72.3035 182.019 72.3035 181.368 71.9127C180.652 71.5219 180.652 70.8705 181.368 70.4797Z" fill="url(#paint23_linear_7603_6953)"/>
<path d="M110.597 111.321C111.313 110.931 112.42 110.931 113.071 111.321C113.787 111.712 113.787 112.364 113.071 112.754C112.355 113.145 111.248 113.145 110.597 112.754C109.946 112.364 109.946 111.712 110.597 111.321Z" fill="url(#paint24_linear_7603_6953)"/>
<path d="M140.546 136.66C141.262 136.269 142.369 136.269 143.02 136.66C143.736 137.051 143.736 137.702 143.02 138.093C142.304 138.484 141.197 138.484 140.546 138.093C139.895 137.702 139.895 137.051 140.546 136.66Z" fill="url(#paint25_linear_7603_6953)"/>
<path d="M157.474 127.867C158.19 127.476 159.297 127.476 159.948 127.867C160.664 128.257 160.664 128.909 159.948 129.3C159.232 129.69 158.125 129.69 157.474 129.3C156.823 128.909 156.823 128.257 157.474 127.867Z" fill="url(#paint26_linear_7603_6953)"/>
<path d="M173.751 141.611C174.467 141.22 175.574 141.22 176.225 141.611C176.941 142.002 176.941 142.653 176.225 143.044C175.509 143.435 174.402 143.435 173.751 143.044C173.1 142.653 173.1 142.002 173.751 141.611Z" fill="url(#paint27_linear_7603_6953)"/>
<path d="M203.635 176.72C204.351 176.329 205.458 176.329 206.109 176.72C206.825 177.111 206.825 177.763 206.109 178.153C205.393 178.544 204.286 178.544 203.635 178.153C202.984 177.763 202.984 177.111 203.635 176.72Z" fill="url(#paint28_linear_7603_6953)"/>
<path d="M89.0467 204.86C89.7628 204.469 90.8696 204.469 91.5207 204.86C92.2369 205.251 92.2369 205.902 91.5207 206.293C90.8045 206.684 89.6977 206.684 89.0467 206.293C88.3305 205.902 88.3305 205.251 89.0467 204.86Z" fill="url(#paint29_linear_7603_6953)"/>
<path d="M134.426 209.42C135.142 209.029 136.249 209.029 136.9 209.42C137.616 209.811 137.616 210.462 136.9 210.853C136.184 211.244 135.077 211.244 134.426 210.853C133.71 210.397 133.71 209.811 134.426 209.42Z" fill="url(#paint30_linear_7603_6953)"/>
<path d="M180.912 113.341C181.629 112.95 182.735 112.95 183.386 113.341C184.103 113.732 184.103 114.383 183.386 114.774C182.67 115.165 181.563 115.165 180.912 114.774C180.196 114.383 180.196 113.732 180.912 113.341Z" fill="url(#paint31_linear_7603_6953)"/>
<path d="M151.224 111.582C151.94 111.191 153.047 111.191 153.698 111.582C154.414 111.973 154.414 112.624 153.698 113.015C152.982 113.406 151.875 113.406 151.224 113.015C150.573 112.559 150.573 111.973 151.224 111.582Z" fill="url(#paint32_linear_7603_6953)"/>
<path d="M91.9114 52.9574C92.6276 52.5666 93.7344 52.5666 94.3855 52.9574C95.1016 53.3483 95.1016 53.9997 94.3855 54.3905C93.6693 54.7813 92.5625 54.7813 91.9114 54.3905C91.1952 53.9997 91.1952 53.3483 91.9114 52.9574Z" fill="url(#paint33_linear_7603_6953)"/>
<path d="M68.0823 115.555C68.7985 115.165 69.9053 115.165 70.5564 115.555C71.2725 115.946 71.2725 116.598 70.5564 116.988C69.8402 117.379 68.7334 117.379 68.0823 116.988C67.3661 116.598 67.3661 115.946 68.0823 115.555Z" fill="url(#paint34_linear_7603_6953)"/>
<path d="M97.0547 74.9091C97.7709 74.5182 98.8777 74.5182 99.5288 74.9091C100.18 75.2999 100.245 75.9513 99.5288 76.3421C98.8126 76.7329 97.7058 76.7329 97.0547 76.3421C96.4036 75.9513 96.4036 75.2999 97.0547 74.9091Z" fill="url(#paint35_linear_7603_6953)"/>
<path d="M0.371116 72.499C1.08729 72.1081 2.19411 72.1081 2.84518 72.499C3.56135 72.8898 3.56135 73.5412 2.84518 73.932C2.129 74.3228 1.02218 74.3228 0.371116 73.932C-0.345059 73.5412 -0.345059 72.9549 0.371116 72.499Z" fill="url(#paint36_linear_7603_6953)"/>
<path d="M193.022 77.4494C193.738 77.0586 194.845 77.0586 195.496 77.4494C196.212 77.8403 196.212 78.4917 195.496 78.8825C194.78 79.2733 193.673 79.2733 193.022 78.8825C192.371 78.4917 192.371 77.8403 193.022 77.4494Z" fill="url(#paint37_linear_7603_6953)"/>
<path d="M182.019 114.383L181.824 114.057L189.441 109.628H197.905V110.019H189.507L182.019 114.383Z" fill="url(#paint38_linear_7603_6953)"/>
<path d="M176.355 149.427H162.292L141.718 137.572L141.913 137.181L162.422 149.037H176.225L194.389 138.549H205.979V138.94H194.52L176.355 149.427Z" fill="url(#paint39_linear_7603_6953)"/>
<path d="M175.118 134.25H168.152H168.086L158.971 128.974L159.167 128.648L168.217 133.859H174.988L195.562 122.004L195.757 122.33L175.118 134.25Z" fill="url(#paint40_linear_7603_6953)"/>
<path d="M175.118 142.523L174.923 142.197L189.832 133.534V125.391H190.223V133.794H190.158L175.118 142.523Z" fill="url(#paint41_linear_7603_6953)"/>
<path d="M215.094 106.762L122.577 53.3483V34.0673L69.9705 3.64771L70.1658 3.32201L122.967 33.8068V53.1529L215.289 106.436L215.094 106.762Z" fill="url(#paint42_linear_7603_6953)"/>
<path d="M174.727 70.0237L166.198 65.0732V53.8042L148.75 43.7078L148.945 43.3821L166.589 53.5437V64.8778L174.923 69.698L174.727 70.0237Z" fill="url(#paint43_linear_7603_6953)"/>
<path d="M152.591 112.429L152.396 112.103L164.44 105.133H176.16V105.524H164.57L152.591 112.429Z" fill="url(#paint44_linear_7603_6953)"/>
<path d="M69.8401 116.207L69.6448 115.881L112.225 91.2588H166.003V91.6496H112.355L69.8401 116.207Z" fill="url(#paint45_linear_7603_6953)"/>
<path d="M179.676 48.8537L151.484 32.5691V14.4607L130.585 2.41007L130.78 2.01924L151.875 14.2653V32.3737L179.871 48.528L179.676 48.8537Z" fill="url(#paint46_linear_7603_6953)"/>
</g>
<defs>
<linearGradient id="paint0_linear_7603_6953" x1="238.402" y1="93.0175" x2="238.402" y2="147.082" gradientUnits="userSpaceOnUse">
<stop stop-color="#7CE6DF"/>
<stop offset="1" stop-color="#7CE6DF" stop-opacity="0"/>
</linearGradient>
<linearGradient id="paint1_linear_7603_6953" x1="152.884" y1="133.273" x2="152.884" y2="205.772" gradientUnits="userSpaceOnUse">
<stop stop-color="#7CE6DF"/>
<stop offset="1" stop-color="#7CE6DF" stop-opacity="0"/>
</linearGradient>
<linearGradient id="paint2_linear_7603_6953" x1="179.22" y1="137.637" x2="179.22" y2="210.267" gradientUnits="userSpaceOnUse">
<stop stop-color="#7CE6DF"/>
<stop offset="1" stop-color="#7CE6DF" stop-opacity="0"/>
</linearGradient>
<linearGradient id="paint3_linear_7603_6953" x1="225.641" y1="142.197" x2="225.641" y2="220.819" gradientUnits="userSpaceOnUse">
<stop stop-color="#7CE6DF"/>
<stop offset="1" stop-color="#7CE6DF" stop-opacity="0"/>
</linearGradient>
<linearGradient id="paint4_linear_7603_6953" x1="105.356" y1="58.2988" x2="105.356" y2="110.279" gradientUnits="userSpaceOnUse">
<stop stop-color="#7CE6DF"/>
<stop offset="1" stop-color="#7CE6DF" stop-opacity="0"/>
</linearGradient>
<linearGradient id="paint5_linear_7603_6953" x1="151.028" y1="75.1045" x2="151.028" y2="113.406" gradientUnits="userSpaceOnUse">
<stop stop-color="#7CE6DF"/>
<stop offset="1" stop-color="#7CE6DF" stop-opacity="0"/>
</linearGradient>
<linearGradient id="paint6_linear_7603_6953" x1="147.09" y1="101.16" x2="147.09" y2="120.636" gradientUnits="userSpaceOnUse">
<stop stop-color="#7CE6DF"/>
<stop offset="1" stop-color="#7CE6DF" stop-opacity="0"/>
</linearGradient>
<linearGradient id="paint7_linear_7603_6953" x1="102.426" y1="53.5437" x2="102.426" y2="73.6063" gradientUnits="userSpaceOnUse">
<stop stop-color="#7CE6DF"/>
<stop offset="1" stop-color="#7CE6DF" stop-opacity="0"/>
</linearGradient>
<linearGradient id="paint8_linear_7603_6953" x1="230.394" y1="192.093" x2="230.394" y2="207.987" gradientUnits="userSpaceOnUse">
<stop stop-color="#7CE6DF"/>
<stop offset="1" stop-color="#7CE6DF" stop-opacity="0"/>
</linearGradient>
<linearGradient id="paint9_linear_7603_6953" x1="214.182" y1="146.496" x2="214.182" y2="177.437" gradientUnits="userSpaceOnUse">
<stop stop-color="#7CE6DF"/>
<stop offset="1" stop-color="#7CE6DF" stop-opacity="0"/>
</linearGradient>
<linearGradient id="paint10_linear_7603_6953" x1="200.086" y1="1.04217" x2="200.086" y2="102.528" gradientUnits="userSpaceOnUse">
<stop stop-color="#7CE6DF"/>
<stop offset="1" stop-color="#7CE6DF" stop-opacity="0"/>
</linearGradient>
<linearGradient id="paint11_linear_7603_6953" x1="216.526" y1="28.27" x2="216.526" y2="38.6921" gradientUnits="userSpaceOnUse">
<stop stop-color="#7CE6DF"/>
<stop offset="1" stop-color="#7CE6DF" stop-opacity="0"/>
</linearGradient>
<linearGradient id="paint12_linear_7603_6953" x1="194.313" y1="78.1794" x2="229.392" y2="98.4227" gradientUnits="userSpaceOnUse">
<stop stop-color="#7CE6DF"/>
<stop offset="1" stop-color="#7CE6DF" stop-opacity="0"/>
</linearGradient>
<linearGradient id="paint13_linear_7603_6953" x1="209.299" y1="71.0008" x2="209.299" y2="94.8414" gradientUnits="userSpaceOnUse">
<stop stop-color="#7CE6DF"/>
<stop offset="1" stop-color="#7CE6DF" stop-opacity="0"/>
</linearGradient>
<linearGradient id="paint14_linear_7603_6953" x1="233.551" y1="61.2951" x2="233.551" y2="94.5157" gradientUnits="userSpaceOnUse">
<stop stop-color="#7CE6DF"/>
<stop offset="1" stop-color="#7CE6DF" stop-opacity="0"/>
</linearGradient>
<linearGradient id="paint15_linear_7603_6953" x1="228.278" y1="67.2227" x2="228.278" y2="76.2118" gradientUnits="userSpaceOnUse">
<stop stop-color="#7CE6DF"/>
<stop offset="1" stop-color="#7CE6DF" stop-opacity="0"/>
</linearGradient>
<linearGradient id="paint16_linear_7603_6953" x1="231.37" y1="48.8537" x2="231.37" y2="79.2733" gradientUnits="userSpaceOnUse">
<stop stop-color="#7CE6DF"/>
<stop offset="1" stop-color="#7CE6DF" stop-opacity="0"/>
</linearGradient>
<linearGradient id="paint17_linear_7603_6953" x1="214.703" y1="66.4085" x2="214.703" y2="68.4278" gradientUnits="userSpaceOnUse">
<stop stop-color="#7CE6DF"/>
<stop offset="1" stop-color="#7CE6DF" stop-opacity="0"/>
</linearGradient>
<linearGradient id="paint18_linear_7603_6953" x1="216.851" y1="60.4809" x2="216.851" y2="62.5002" gradientUnits="userSpaceOnUse">
<stop stop-color="#7CE6DF"/>
<stop offset="1" stop-color="#7CE6DF" stop-opacity="0"/>
</linearGradient>
<linearGradient id="paint19_linear_7603_6953" x1="70.1006" y1="2.50778" x2="70.1006" y2="4.52707" gradientUnits="userSpaceOnUse">
<stop stop-color="#7CE6DF"/>
<stop offset="1" stop-color="#7CE6DF" stop-opacity="0"/>
</linearGradient>
<linearGradient id="paint20_linear_7603_6953" x1="130.674" y1="1.20502" x2="130.674" y2="3.22431" gradientUnits="userSpaceOnUse">
<stop stop-color="#7CE6DF"/>
<stop offset="1" stop-color="#7CE6DF" stop-opacity="0"/>
</linearGradient>
<linearGradient id="paint21_linear_7603_6953" x1="148.827" y1="42.5027" x2="148.827" y2="44.522" gradientUnits="userSpaceOnUse">
<stop stop-color="#7CE6DF"/>
<stop offset="1" stop-color="#7CE6DF" stop-opacity="0"/>
</linearGradient>
<linearGradient id="paint22_linear_7603_6953" x1="214.963" y1="48.0395" x2="214.963" y2="50.0588" gradientUnits="userSpaceOnUse">
<stop stop-color="#7CE6DF"/>
<stop offset="1" stop-color="#7CE6DF" stop-opacity="0"/>
</linearGradient>
<linearGradient id="paint23_linear_7603_6953" x1="182.605" y1="70.1865" x2="182.605" y2="72.2058" gradientUnits="userSpaceOnUse">
<stop stop-color="#7CE6DF"/>
<stop offset="1" stop-color="#7CE6DF" stop-opacity="0"/>
</linearGradient>
<linearGradient id="paint24_linear_7603_6953" x1="111.858" y1="111.028" x2="111.858" y2="113.048" gradientUnits="userSpaceOnUse">
<stop stop-color="#7CE6DF"/>
<stop offset="1" stop-color="#7CE6DF" stop-opacity="0"/>
</linearGradient>
<linearGradient id="paint25_linear_7603_6953" x1="141.808" y1="136.367" x2="141.808" y2="138.386" gradientUnits="userSpaceOnUse">
<stop stop-color="#7CE6DF"/>
<stop offset="1" stop-color="#7CE6DF" stop-opacity="0"/>
</linearGradient>
<linearGradient id="paint26_linear_7603_6953" x1="158.735" y1="127.573" x2="158.735" y2="129.593" gradientUnits="userSpaceOnUse">
<stop stop-color="#7CE6DF"/>
<stop offset="1" stop-color="#7CE6DF" stop-opacity="0"/>
</linearGradient>
<linearGradient id="paint27_linear_7603_6953" x1="175.012" y1="141.318" x2="175.012" y2="143.337" gradientUnits="userSpaceOnUse">
<stop stop-color="#7CE6DF"/>
<stop offset="1" stop-color="#7CE6DF" stop-opacity="0"/>
</linearGradient>
<linearGradient id="paint28_linear_7603_6953" x1="204.896" y1="176.427" x2="204.896" y2="178.446" gradientUnits="userSpaceOnUse">
<stop stop-color="#7CE6DF"/>
<stop offset="1" stop-color="#7CE6DF" stop-opacity="0"/>
</linearGradient>
<linearGradient id="paint29_linear_7603_6953" x1="90.2837" y1="204.567" x2="90.2837" y2="206.586" gradientUnits="userSpaceOnUse">
<stop stop-color="#7CE6DF"/>
<stop offset="1" stop-color="#7CE6DF" stop-opacity="0"/>
</linearGradient>
<linearGradient id="paint30_linear_7603_6953" x1="135.663" y1="209.127" x2="135.663" y2="211.146" gradientUnits="userSpaceOnUse">
<stop stop-color="#7CE6DF"/>
<stop offset="1" stop-color="#7CE6DF" stop-opacity="0"/>
</linearGradient>
<linearGradient id="paint31_linear_7603_6953" x1="182.149" y1="113.048" x2="182.149" y2="115.067" gradientUnits="userSpaceOnUse">
<stop stop-color="#7CE6DF"/>
<stop offset="1" stop-color="#7CE6DF" stop-opacity="0"/>
</linearGradient>
<linearGradient id="paint32_linear_7603_6953" x1="152.485" y1="111.289" x2="152.485" y2="113.308" gradientUnits="userSpaceOnUse">
<stop stop-color="#7CE6DF"/>
<stop offset="1" stop-color="#7CE6DF" stop-opacity="0"/>
</linearGradient>
<linearGradient id="paint33_linear_7603_6953" x1="93.1484" y1="52.6643" x2="93.1484" y2="54.6836" gradientUnits="userSpaceOnUse">
<stop stop-color="#7CE6DF"/>
<stop offset="1" stop-color="#7CE6DF" stop-opacity="0"/>
</linearGradient>
<linearGradient id="paint34_linear_7603_6953" x1="69.3193" y1="115.262" x2="69.3193" y2="117.282" gradientUnits="userSpaceOnUse">
<stop stop-color="#7CE6DF"/>
<stop offset="1" stop-color="#7CE6DF" stop-opacity="0"/>
</linearGradient>
<linearGradient id="paint35_linear_7603_6953" x1="98.3041" y1="74.6159" x2="98.3041" y2="76.6352" gradientUnits="userSpaceOnUse">
<stop stop-color="#7CE6DF"/>
<stop offset="1" stop-color="#7CE6DF" stop-opacity="0"/>
</linearGradient>
<linearGradient id="paint36_linear_7603_6953" x1="1.60815" y1="72.2058" x2="1.60815" y2="74.2251" gradientUnits="userSpaceOnUse">
<stop stop-color="#7CE6DF"/>
<stop offset="1" stop-color="#7CE6DF" stop-opacity="0"/>
</linearGradient>
<linearGradient id="paint37_linear_7603_6953" x1="194.284" y1="77.1563" x2="194.284" y2="79.1756" gradientUnits="userSpaceOnUse">
<stop stop-color="#7CE6DF"/>
<stop offset="1" stop-color="#7CE6DF" stop-opacity="0"/>
</linearGradient>
<linearGradient id="paint38_linear_7603_6953" x1="189.865" y1="109.628" x2="189.865" y2="114.383" gradientUnits="userSpaceOnUse">
<stop stop-color="#7CE6DF"/>
<stop offset="1" stop-color="#7CE6DF" stop-opacity="0"/>
</linearGradient>
<linearGradient id="paint39_linear_7603_6953" x1="173.848" y1="137.181" x2="173.848" y2="149.427" gradientUnits="userSpaceOnUse">
<stop stop-color="#7CE6DF"/>
<stop offset="1" stop-color="#7CE6DF" stop-opacity="0"/>
</linearGradient>
<linearGradient id="paint40_linear_7603_6953" x1="177.364" y1="122.004" x2="177.364" y2="134.25" gradientUnits="userSpaceOnUse">
<stop stop-color="#7CE6DF"/>
<stop offset="1" stop-color="#7CE6DF" stop-opacity="0"/>
</linearGradient>
<linearGradient id="paint41_linear_7603_6953" x1="182.573" y1="125.391" x2="182.573" y2="142.523" gradientUnits="userSpaceOnUse">
<stop stop-color="#7CE6DF"/>
<stop offset="1" stop-color="#7CE6DF" stop-opacity="0"/>
</linearGradient>
<linearGradient id="paint42_linear_7603_6953" x1="142.63" y1="3.32201" x2="142.63" y2="106.762" gradientUnits="userSpaceOnUse">
<stop stop-color="#7CE6DF"/>
<stop offset="1" stop-color="#7CE6DF" stop-opacity="0"/>
</linearGradient>
<linearGradient id="paint43_linear_7603_6953" x1="161.836" y1="43.3821" x2="161.836" y2="70.0237" gradientUnits="userSpaceOnUse">
<stop stop-color="#7CE6DF"/>
<stop offset="1" stop-color="#7CE6DF" stop-opacity="0"/>
</linearGradient>
<linearGradient id="paint44_linear_7603_6953" x1="164.278" y1="105.133" x2="164.278" y2="112.429" gradientUnits="userSpaceOnUse">
<stop stop-color="#7CE6DF"/>
<stop offset="1" stop-color="#7CE6DF" stop-opacity="0"/>
</linearGradient>
<linearGradient id="paint45_linear_7603_6953" x1="117.824" y1="91.2588" x2="117.824" y2="116.207" gradientUnits="userSpaceOnUse">
<stop stop-color="#7CE6DF"/>
<stop offset="1" stop-color="#7CE6DF" stop-opacity="0"/>
</linearGradient>
<linearGradient id="paint46_linear_7603_6953" x1="155.228" y1="2.01924" x2="155.228" y2="48.8537" gradientUnits="userSpaceOnUse">
<stop stop-color="#7CE6DF"/>
<stop offset="1" stop-color="#7CE6DF" stop-opacity="0"/>
</linearGradient>
<clipPath id="clip0_7603_6953">
<rect width="217" height="243" fill="white"/>
</clipPath>
</defs>
</svg>
